M48
; DRILL file {KiCad 9.0.4} date 2026-02-28T23:21:01-0600
; FORMAT={-:-/ absolute / inch / decimal}
; #@! TF.CreationDate,2026-02-28T23:21:01-06:00
; #@! TF.GenerationSoftware,Kicad,Pcbnew,9.0.4
; #@! TF.FileFunction,Plated,1,2,PTH
FMAT,2
INCH
; #@! TA.AperFunction,Plated,PTH,ViaDrill
T1C0.0118
; #@! TA.AperFunction,Plated,PTH,ComponentDrill
T2C0.0350
; #@! TA.AperFunction,Plated,PTH,ComponentDrill
T3C0.0394
; #@! TA.AperFunction,Plated,PTH,ComponentDrill
T4C0.0472
; #@! TA.AperFunction,Plated,PTH,ComponentDrill
T5C0.0630
; #@! TA.AperFunction,Plated,PTH,ComponentDrill
T6C0.1260
%
G90
G05
T1
X6.3252Y-2.3512
X6.3252Y-2.6661
X6.3252Y-3.0598
X6.3252Y-3.4535
X6.3252Y-3.8079
X6.6401Y-2.6661
X6.6401Y-3.0598
X6.6401Y-3.4535
X6.6496Y-2.189
X6.6772Y-2.0709
X6.6811Y-2.2126
X6.7441Y-2.4803
X6.7583Y-4.0835
X6.7638Y-2.0862
X6.7779Y-3.5276
X6.8055Y-2.3354
X6.8252Y-2.3866
X6.8355Y-2.4638
X6.8459Y-2.1966
X6.9138Y-2.1819
X6.9551Y-2.7843
X6.9747Y-2.1385
X7.0276Y-2.4103
X7.0338Y-2.5087
X7.0378Y-2.3248
X7.0693Y-2.3276
X7.0732Y-2.4575
X7.1008Y-2.3276
X7.1441Y-2.5945
X7.1621Y-2.2644
X7.1917Y-2.1473
X7.1929Y-3.4331
X7.1939Y-2.2038
X7.2087Y-2.4646
X7.2349Y-2.5564
X7.252Y-2.126
X7.2559Y-2.2165
X7.2598Y-2.3031
X7.2734Y-2.451
X7.311Y-2.3819
X7.315Y-2.9449
X7.3258Y-2.5916
X7.3488Y-2.1051
X7.3543Y-2.7244
X7.3819Y-2.4331
X7.4055Y-1.5315
X7.5256Y-2.7028
X7.5335Y-2.7461
X7.5827Y-2.8425
X7.619Y-2.5831
X7.6378Y-2.6929
X7.6535Y-2.4016
X7.7913Y-1.563
X7.8228Y-3.0591
X7.8228Y-3.4803
X7.9331Y-2.9134
X8.2402Y-3.4764
X8.2677Y-3.6063
X8.2795Y-3.063
X8.3937Y-3.9724
X8.551Y-2.7243
X8.6575Y-2.7756
X8.8268Y-3.1973
X8.9803Y-3.5984
X8.9961Y-3.9764
X9.2244Y-2.7047
X9.2441Y-3.063
X9.7756Y-3.1339
X9.7874Y-2.752
T2
X6.9709Y-3.1874
X6.9709Y-3.7874
X7.0709Y-3.1874
X7.0709Y-3.7874
X7.1709Y-3.1874
X7.1709Y-3.7874
X7.2709Y-3.1874
X7.2709Y-3.7874
X7.3709Y-3.1874
X7.3709Y-3.7874
X7.4709Y-3.1874
X7.4709Y-3.7874
X7.5709Y-3.1874
X7.5709Y-3.7874
T3
X7.3189Y-1.8307
X7.3189Y-1.9724
X7.8606Y-2.7047
X7.9173Y-4.0551
X7.9606Y-2.7047
X8.0606Y-2.7047
X8.1606Y-2.7047
X8.2606Y-2.7047
X8.3606Y-2.7047
X8.4291Y-2.852
X8.4291Y-2.952
X8.4291Y-3.052
X8.4291Y-3.152
X8.4291Y-3.252
X8.4606Y-2.7047
X8.5008Y-3.752
X8.5709Y-2.8622
X8.6008Y-3.752
X8.7008Y-3.752
X8.7953Y-3.9685
X8.8008Y-3.752
X8.9008Y-3.752
T4
X7.4843Y-1.8701
X7.5827Y-1.8701
X7.6811Y-1.8701
X9.3996Y-2.7504
X9.498Y-2.7504
X9.5965Y-2.7504
X9.6949Y-2.7504
T5
X8.1984Y-3.9055
X8.1984Y-4.0394
X8.589Y-3.9055
X8.589Y-4.0394
T6
X6.3386Y-2.185
X6.339Y-4.0146
X7.5492Y-4.0146
X7.5492Y-2.185
M30
