%TF.GenerationSoftware,KiCad,Pcbnew,9.0.4*%
%TF.CreationDate,2026-02-28T23:21:01-06:00*%
%TF.ProjectId,Wheels Board,57686565-6c73-4204-926f-6172642e6b69,rev?*%
%TF.SameCoordinates,Original*%
%TF.FileFunction,Legend,Top*%
%TF.FilePolarity,Positive*%
%FSLAX46Y46*%
G04 Gerber Fmt 4.6, Leading zero omitted, Abs format (unit mm)*
G04 Created by KiCad (PCBNEW 9.0.4) date 2026-02-28 23:21:01*
%MOMM*%
%LPD*%
G01*
G04 APERTURE LIST*
G04 Aperture macros list*
%AMRoundRect*
0 Rectangle with rounded corners*
0 $1 Rounding radius*
0 $2 $3 $4 $5 $6 $7 $8 $9 X,Y pos of 4 corners*
0 Add a 4 corners polygon primitive as box body*
4,1,4,$2,$3,$4,$5,$6,$7,$8,$9,$2,$3,0*
0 Add four circle primitives for the rounded corners*
1,1,$1+$1,$2,$3*
1,1,$1+$1,$4,$5*
1,1,$1+$1,$6,$7*
1,1,$1+$1,$8,$9*
0 Add four rect primitives between the rounded corners*
20,1,$1+$1,$2,$3,$4,$5,0*
20,1,$1+$1,$4,$5,$6,$7,0*
20,1,$1+$1,$6,$7,$8,$9,0*
20,1,$1+$1,$8,$9,$2,$3,0*%
G04 Aperture macros list end*
%ADD10C,0.150000*%
%ADD11C,0.120000*%
%ADD12C,0.000000*%
%ADD13C,0.127000*%
%ADD14C,0.010000*%
%ADD15C,0.100000*%
%ADD16C,0.504000*%
%ADD17C,0.200000*%
%ADD18C,0.152400*%
%ADD19RoundRect,0.237500X-0.237500X0.300000X-0.237500X-0.300000X0.237500X-0.300000X0.237500X0.300000X0*%
%ADD20RoundRect,0.237500X0.237500X-0.300000X0.237500X0.300000X-0.237500X0.300000X-0.237500X-0.300000X0*%
%ADD21R,1.700000X1.700000*%
%ADD22RoundRect,0.237500X-0.250000X-0.237500X0.250000X-0.237500X0.250000X0.237500X-0.250000X0.237500X0*%
%ADD23C,1.700000*%
%ADD24RoundRect,0.250000X-0.600000X0.850000X-0.600000X-0.850000X0.600000X-0.850000X0.600000X0.850000X0*%
%ADD25O,1.700000X2.200000*%
%ADD26RoundRect,0.102000X-0.455000X-0.610000X0.455000X-0.610000X0.455000X0.610000X-0.455000X0.610000X0*%
%ADD27RoundRect,0.237500X-0.300000X-0.237500X0.300000X-0.237500X0.300000X0.237500X-0.300000X0.237500X0*%
%ADD28RoundRect,0.237500X0.237500X-0.250000X0.237500X0.250000X-0.237500X0.250000X-0.237500X-0.250000X0*%
%ADD29RoundRect,0.237500X0.300000X0.237500X-0.300000X0.237500X-0.300000X-0.237500X0.300000X-0.237500X0*%
%ADD30RoundRect,0.237500X-0.237500X0.287500X-0.237500X-0.287500X0.237500X-0.287500X0.237500X0.287500X0*%
%ADD31RoundRect,0.152400X0.609600X-1.063600X0.609600X1.063600X-0.609600X1.063600X-0.609600X-1.063600X0*%
%ADD32C,1.524000*%
%ADD33RoundRect,0.152400X-0.609600X1.063600X-0.609600X-1.063600X0.609600X-1.063600X0.609600X1.063600X0*%
%ADD34RoundRect,0.237500X-0.287500X-0.237500X0.287500X-0.237500X0.287500X0.237500X-0.287500X0.237500X0*%
%ADD35R,0.650000X1.528000*%
%ADD36R,0.351536X0.576580*%
%ADD37R,0.576580X0.351536*%
%ADD38RoundRect,0.237500X0.250000X0.237500X-0.250000X0.237500X-0.250000X-0.237500X0.250000X-0.237500X0*%
%ADD39RoundRect,0.250000X0.250000X-0.250000X0.250000X0.250000X-0.250000X0.250000X-0.250000X-0.250000X0*%
%ADD40RoundRect,0.102000X-0.275000X-0.900000X0.275000X-0.900000X0.275000X0.900000X-0.275000X0.900000X0*%
%ADD41C,3.600000*%
%ADD42C,6.400000*%
%ADD43RoundRect,0.237500X-0.237500X0.250000X-0.237500X-0.250000X0.237500X-0.250000X0.237500X0.250000X0*%
%ADD44RoundRect,0.150000X-0.825000X-0.150000X0.825000X-0.150000X0.825000X0.150000X-0.825000X0.150000X0*%
%ADD45RoundRect,0.250000X0.600000X-0.850000X0.600000X0.850000X-0.600000X0.850000X-0.600000X-0.850000X0*%
%ADD46RoundRect,0.237500X0.287500X0.237500X-0.287500X0.237500X-0.287500X-0.237500X0.287500X-0.237500X0*%
%ADD47RoundRect,0.250000X1.750000X2.500000X-1.750000X2.500000X-1.750000X-2.500000X1.750000X-2.500000X0*%
%ADD48C,2.604000*%
%ADD49RoundRect,0.237500X0.237500X-0.287500X0.237500X0.287500X-0.237500X0.287500X-0.237500X-0.287500X0*%
G04 APERTURE END LIST*
D10*
X209344265Y-75453001D02*
X209557797Y-75453001D01*
X209649311Y-75788552D02*
X209344265Y-75788552D01*
X209344265Y-75788552D02*
X209344265Y-75147955D01*
X209344265Y-75147955D02*
X209649311Y-75147955D01*
X209893348Y-75758048D02*
X209984862Y-75788552D01*
X209984862Y-75788552D02*
X210137385Y-75788552D01*
X210137385Y-75788552D02*
X210198394Y-75758048D01*
X210198394Y-75758048D02*
X210228899Y-75727543D01*
X210228899Y-75727543D02*
X210259403Y-75666534D01*
X210259403Y-75666534D02*
X210259403Y-75605524D01*
X210259403Y-75605524D02*
X210228899Y-75544515D01*
X210228899Y-75544515D02*
X210198394Y-75514011D01*
X210198394Y-75514011D02*
X210137385Y-75483506D01*
X210137385Y-75483506D02*
X210015366Y-75453001D01*
X210015366Y-75453001D02*
X209954357Y-75422497D01*
X209954357Y-75422497D02*
X209923853Y-75391992D01*
X209923853Y-75391992D02*
X209893348Y-75330983D01*
X209893348Y-75330983D02*
X209893348Y-75269974D01*
X209893348Y-75269974D02*
X209923853Y-75208964D01*
X209923853Y-75208964D02*
X209954357Y-75178460D01*
X209954357Y-75178460D02*
X210015366Y-75147955D01*
X210015366Y-75147955D02*
X210167890Y-75147955D01*
X210167890Y-75147955D02*
X210259403Y-75178460D01*
X210533945Y-75788552D02*
X210533945Y-75147955D01*
X210533945Y-75147955D02*
X210777982Y-75147955D01*
X210777982Y-75147955D02*
X210838991Y-75178460D01*
X210838991Y-75178460D02*
X210869495Y-75208964D01*
X210869495Y-75208964D02*
X210900000Y-75269974D01*
X210900000Y-75269974D02*
X210900000Y-75361487D01*
X210900000Y-75361487D02*
X210869495Y-75422497D01*
X210869495Y-75422497D02*
X210838991Y-75453001D01*
X210838991Y-75453001D02*
X210777982Y-75483506D01*
X210777982Y-75483506D02*
X210533945Y-75483506D01*
X211022019Y-75849561D02*
X211510092Y-75849561D01*
X211571102Y-75147955D02*
X211937157Y-75147955D01*
X211754129Y-75788552D02*
X211754129Y-75147955D01*
X212089680Y-75147955D02*
X212516745Y-75788552D01*
X212516745Y-75147955D02*
X212089680Y-75788552D01*
X198366667Y-102616033D02*
X198033333Y-102616033D01*
X198033333Y-102616033D02*
X198000000Y-102949366D01*
X198000000Y-102949366D02*
X198033333Y-102916033D01*
X198033333Y-102916033D02*
X198100000Y-102882700D01*
X198100000Y-102882700D02*
X198266667Y-102882700D01*
X198266667Y-102882700D02*
X198333333Y-102916033D01*
X198333333Y-102916033D02*
X198366667Y-102949366D01*
X198366667Y-102949366D02*
X198400000Y-103016033D01*
X198400000Y-103016033D02*
X198400000Y-103182700D01*
X198400000Y-103182700D02*
X198366667Y-103249366D01*
X198366667Y-103249366D02*
X198333333Y-103282700D01*
X198333333Y-103282700D02*
X198266667Y-103316033D01*
X198266667Y-103316033D02*
X198100000Y-103316033D01*
X198100000Y-103316033D02*
X198033333Y-103282700D01*
X198033333Y-103282700D02*
X198000000Y-103249366D01*
X198600000Y-102616033D02*
X198833334Y-103316033D01*
X198833334Y-103316033D02*
X199066667Y-102616033D01*
X225211925Y-92878460D02*
X225150916Y-92847955D01*
X225150916Y-92847955D02*
X225059402Y-92847955D01*
X225059402Y-92847955D02*
X224967888Y-92878460D01*
X224967888Y-92878460D02*
X224906879Y-92939469D01*
X224906879Y-92939469D02*
X224876375Y-93000478D01*
X224876375Y-93000478D02*
X224845870Y-93122497D01*
X224845870Y-93122497D02*
X224845870Y-93214011D01*
X224845870Y-93214011D02*
X224876375Y-93336029D01*
X224876375Y-93336029D02*
X224906879Y-93397038D01*
X224906879Y-93397038D02*
X224967888Y-93458048D01*
X224967888Y-93458048D02*
X225059402Y-93488552D01*
X225059402Y-93488552D02*
X225120412Y-93488552D01*
X225120412Y-93488552D02*
X225211925Y-93458048D01*
X225211925Y-93458048D02*
X225242430Y-93427543D01*
X225242430Y-93427543D02*
X225242430Y-93214011D01*
X225242430Y-93214011D02*
X225120412Y-93214011D01*
X225516972Y-93488552D02*
X225516972Y-92847955D01*
X225516972Y-92847955D02*
X225883027Y-93488552D01*
X225883027Y-93488552D02*
X225883027Y-92847955D01*
X226188074Y-93488552D02*
X226188074Y-92847955D01*
X226188074Y-92847955D02*
X226340597Y-92847955D01*
X226340597Y-92847955D02*
X226432111Y-92878460D01*
X226432111Y-92878460D02*
X226493120Y-92939469D01*
X226493120Y-92939469D02*
X226523624Y-93000478D01*
X226523624Y-93000478D02*
X226554129Y-93122497D01*
X226554129Y-93122497D02*
X226554129Y-93214011D01*
X226554129Y-93214011D02*
X226523624Y-93336029D01*
X226523624Y-93336029D02*
X226493120Y-93397038D01*
X226493120Y-93397038D02*
X226432111Y-93458048D01*
X226432111Y-93458048D02*
X226340597Y-93488552D01*
X226340597Y-93488552D02*
X226188074Y-93488552D01*
X106202438Y-47061904D02*
X106154819Y-47157142D01*
X106154819Y-47157142D02*
X106154819Y-47299999D01*
X106154819Y-47299999D02*
X106202438Y-47442856D01*
X106202438Y-47442856D02*
X106297676Y-47538094D01*
X106297676Y-47538094D02*
X106392914Y-47585713D01*
X106392914Y-47585713D02*
X106583390Y-47633332D01*
X106583390Y-47633332D02*
X106726247Y-47633332D01*
X106726247Y-47633332D02*
X106916723Y-47585713D01*
X106916723Y-47585713D02*
X107011961Y-47538094D01*
X107011961Y-47538094D02*
X107107200Y-47442856D01*
X107107200Y-47442856D02*
X107154819Y-47299999D01*
X107154819Y-47299999D02*
X107154819Y-47204761D01*
X107154819Y-47204761D02*
X107107200Y-47061904D01*
X107107200Y-47061904D02*
X107059580Y-47014285D01*
X107059580Y-47014285D02*
X106726247Y-47014285D01*
X106726247Y-47014285D02*
X106726247Y-47204761D01*
X107154819Y-46585713D02*
X106154819Y-46585713D01*
X106154819Y-46585713D02*
X107154819Y-46014285D01*
X107154819Y-46014285D02*
X106154819Y-46014285D01*
X107154819Y-45538094D02*
X106154819Y-45538094D01*
X106154819Y-45538094D02*
X106154819Y-45299999D01*
X106154819Y-45299999D02*
X106202438Y-45157142D01*
X106202438Y-45157142D02*
X106297676Y-45061904D01*
X106297676Y-45061904D02*
X106392914Y-45014285D01*
X106392914Y-45014285D02*
X106583390Y-44966666D01*
X106583390Y-44966666D02*
X106726247Y-44966666D01*
X106726247Y-44966666D02*
X106916723Y-45014285D01*
X106916723Y-45014285D02*
X107011961Y-45061904D01*
X107011961Y-45061904D02*
X107107200Y-45157142D01*
X107107200Y-45157142D02*
X107154819Y-45299999D01*
X107154819Y-45299999D02*
X107154819Y-45538094D01*
X247409524Y-70450057D02*
X247457143Y-70402438D01*
X247457143Y-70402438D02*
X247552381Y-70354819D01*
X247552381Y-70354819D02*
X247790476Y-70354819D01*
X247790476Y-70354819D02*
X247885714Y-70402438D01*
X247885714Y-70402438D02*
X247933333Y-70450057D01*
X247933333Y-70450057D02*
X247980952Y-70545295D01*
X247980952Y-70545295D02*
X247980952Y-70640533D01*
X247980952Y-70640533D02*
X247933333Y-70783390D01*
X247933333Y-70783390D02*
X247361905Y-71354819D01*
X247361905Y-71354819D02*
X247980952Y-71354819D01*
X248838095Y-70688152D02*
X248838095Y-71354819D01*
X248600000Y-70307200D02*
X248361905Y-71021485D01*
X248361905Y-71021485D02*
X248980952Y-71021485D01*
X249219048Y-70354819D02*
X249552381Y-71354819D01*
X249552381Y-71354819D02*
X249885714Y-70354819D01*
X210054356Y-79678460D02*
X209993347Y-79647955D01*
X209993347Y-79647955D02*
X209901833Y-79647955D01*
X209901833Y-79647955D02*
X209810319Y-79678460D01*
X209810319Y-79678460D02*
X209749310Y-79739469D01*
X209749310Y-79739469D02*
X209718806Y-79800478D01*
X209718806Y-79800478D02*
X209688301Y-79922497D01*
X209688301Y-79922497D02*
X209688301Y-80014011D01*
X209688301Y-80014011D02*
X209718806Y-80136029D01*
X209718806Y-80136029D02*
X209749310Y-80197038D01*
X209749310Y-80197038D02*
X209810319Y-80258048D01*
X209810319Y-80258048D02*
X209901833Y-80288552D01*
X209901833Y-80288552D02*
X209962843Y-80288552D01*
X209962843Y-80288552D02*
X210054356Y-80258048D01*
X210054356Y-80258048D02*
X210084861Y-80227543D01*
X210084861Y-80227543D02*
X210084861Y-80014011D01*
X210084861Y-80014011D02*
X209962843Y-80014011D01*
X210359403Y-80288552D02*
X210359403Y-79647955D01*
X210359403Y-79647955D02*
X210603440Y-79647955D01*
X210603440Y-79647955D02*
X210664449Y-79678460D01*
X210664449Y-79678460D02*
X210694953Y-79708964D01*
X210694953Y-79708964D02*
X210725458Y-79769974D01*
X210725458Y-79769974D02*
X210725458Y-79861487D01*
X210725458Y-79861487D02*
X210694953Y-79922497D01*
X210694953Y-79922497D02*
X210664449Y-79953001D01*
X210664449Y-79953001D02*
X210603440Y-79983506D01*
X210603440Y-79983506D02*
X210359403Y-79983506D01*
X211000000Y-80288552D02*
X211000000Y-79647955D01*
X211427064Y-79647955D02*
X211549083Y-79647955D01*
X211549083Y-79647955D02*
X211610092Y-79678460D01*
X211610092Y-79678460D02*
X211671101Y-79739469D01*
X211671101Y-79739469D02*
X211701606Y-79861487D01*
X211701606Y-79861487D02*
X211701606Y-80075020D01*
X211701606Y-80075020D02*
X211671101Y-80197038D01*
X211671101Y-80197038D02*
X211610092Y-80258048D01*
X211610092Y-80258048D02*
X211549083Y-80288552D01*
X211549083Y-80288552D02*
X211427064Y-80288552D01*
X211427064Y-80288552D02*
X211366055Y-80258048D01*
X211366055Y-80258048D02*
X211305046Y-80197038D01*
X211305046Y-80197038D02*
X211274541Y-80075020D01*
X211274541Y-80075020D02*
X211274541Y-79861487D01*
X211274541Y-79861487D02*
X211305046Y-79739469D01*
X211305046Y-79739469D02*
X211366055Y-79678460D01*
X211366055Y-79678460D02*
X211427064Y-79647955D01*
X211945643Y-79708964D02*
X211976148Y-79678460D01*
X211976148Y-79678460D02*
X212037157Y-79647955D01*
X212037157Y-79647955D02*
X212189680Y-79647955D01*
X212189680Y-79647955D02*
X212250689Y-79678460D01*
X212250689Y-79678460D02*
X212281194Y-79708964D01*
X212281194Y-79708964D02*
X212311698Y-79769974D01*
X212311698Y-79769974D02*
X212311698Y-79830983D01*
X212311698Y-79830983D02*
X212281194Y-79922497D01*
X212281194Y-79922497D02*
X211915138Y-80288552D01*
X211915138Y-80288552D02*
X212311698Y-80288552D01*
X201972456Y-70818692D02*
X201941952Y-70788187D01*
X201941952Y-70788187D02*
X201911447Y-70696674D01*
X201911447Y-70696674D02*
X201911447Y-70635664D01*
X201911447Y-70635664D02*
X201941952Y-70544150D01*
X201941952Y-70544150D02*
X202002961Y-70483141D01*
X202002961Y-70483141D02*
X202063970Y-70452637D01*
X202063970Y-70452637D02*
X202185988Y-70422132D01*
X202185988Y-70422132D02*
X202277502Y-70422132D01*
X202277502Y-70422132D02*
X202399521Y-70452637D01*
X202399521Y-70452637D02*
X202460530Y-70483141D01*
X202460530Y-70483141D02*
X202521539Y-70544150D01*
X202521539Y-70544150D02*
X202552044Y-70635664D01*
X202552044Y-70635664D02*
X202552044Y-70696674D01*
X202552044Y-70696674D02*
X202521539Y-70788187D01*
X202521539Y-70788187D02*
X202491035Y-70818692D01*
X201911447Y-71398280D02*
X201911447Y-71093234D01*
X201911447Y-71093234D02*
X202552044Y-71093234D01*
X201911447Y-71611813D02*
X202552044Y-71611813D01*
X201911447Y-71977868D02*
X202277502Y-71703326D01*
X202552044Y-71977868D02*
X202185988Y-71611813D01*
X220418692Y-93527543D02*
X220388187Y-93558048D01*
X220388187Y-93558048D02*
X220296674Y-93588552D01*
X220296674Y-93588552D02*
X220235664Y-93588552D01*
X220235664Y-93588552D02*
X220144150Y-93558048D01*
X220144150Y-93558048D02*
X220083141Y-93497038D01*
X220083141Y-93497038D02*
X220052637Y-93436029D01*
X220052637Y-93436029D02*
X220022132Y-93314011D01*
X220022132Y-93314011D02*
X220022132Y-93222497D01*
X220022132Y-93222497D02*
X220052637Y-93100478D01*
X220052637Y-93100478D02*
X220083141Y-93039469D01*
X220083141Y-93039469D02*
X220144150Y-92978460D01*
X220144150Y-92978460D02*
X220235664Y-92947955D01*
X220235664Y-92947955D02*
X220296674Y-92947955D01*
X220296674Y-92947955D02*
X220388187Y-92978460D01*
X220388187Y-92978460D02*
X220418692Y-93008964D01*
X220998280Y-93588552D02*
X220693234Y-93588552D01*
X220693234Y-93588552D02*
X220693234Y-92947955D01*
X221211813Y-93588552D02*
X221211813Y-92947955D01*
X221577868Y-93588552D02*
X221303326Y-93222497D01*
X221577868Y-92947955D02*
X221211813Y-93314011D01*
X204511448Y-70193348D02*
X205152045Y-70193348D01*
X205152045Y-70193348D02*
X204694476Y-70406880D01*
X204694476Y-70406880D02*
X205152045Y-70620412D01*
X205152045Y-70620412D02*
X204511448Y-70620412D01*
X205152045Y-71047477D02*
X205152045Y-71169496D01*
X205152045Y-71169496D02*
X205121540Y-71230505D01*
X205121540Y-71230505D02*
X205060531Y-71291514D01*
X205060531Y-71291514D02*
X204938513Y-71322019D01*
X204938513Y-71322019D02*
X204724980Y-71322019D01*
X204724980Y-71322019D02*
X204602962Y-71291514D01*
X204602962Y-71291514D02*
X204541953Y-71230505D01*
X204541953Y-71230505D02*
X204511448Y-71169496D01*
X204511448Y-71169496D02*
X204511448Y-71047477D01*
X204511448Y-71047477D02*
X204541953Y-70986468D01*
X204541953Y-70986468D02*
X204602962Y-70925459D01*
X204602962Y-70925459D02*
X204724980Y-70894954D01*
X204724980Y-70894954D02*
X204938513Y-70894954D01*
X204938513Y-70894954D02*
X205060531Y-70925459D01*
X205060531Y-70925459D02*
X205121540Y-70986468D01*
X205121540Y-70986468D02*
X205152045Y-71047477D01*
X204541953Y-71566056D02*
X204511448Y-71657570D01*
X204511448Y-71657570D02*
X204511448Y-71810093D01*
X204511448Y-71810093D02*
X204541953Y-71871102D01*
X204541953Y-71871102D02*
X204572457Y-71901607D01*
X204572457Y-71901607D02*
X204633466Y-71932111D01*
X204633466Y-71932111D02*
X204694476Y-71932111D01*
X204694476Y-71932111D02*
X204755485Y-71901607D01*
X204755485Y-71901607D02*
X204785989Y-71871102D01*
X204785989Y-71871102D02*
X204816494Y-71810093D01*
X204816494Y-71810093D02*
X204846999Y-71688074D01*
X204846999Y-71688074D02*
X204877503Y-71627065D01*
X204877503Y-71627065D02*
X204908008Y-71596561D01*
X204908008Y-71596561D02*
X204969017Y-71566056D01*
X204969017Y-71566056D02*
X205030026Y-71566056D01*
X205030026Y-71566056D02*
X205091036Y-71596561D01*
X205091036Y-71596561D02*
X205121540Y-71627065D01*
X205121540Y-71627065D02*
X205152045Y-71688074D01*
X205152045Y-71688074D02*
X205152045Y-71840598D01*
X205152045Y-71840598D02*
X205121540Y-71932111D01*
X204511448Y-72206653D02*
X205152045Y-72206653D01*
X184966667Y-43416033D02*
X185400000Y-43416033D01*
X185400000Y-43416033D02*
X185166667Y-43682700D01*
X185166667Y-43682700D02*
X185266667Y-43682700D01*
X185266667Y-43682700D02*
X185333333Y-43716033D01*
X185333333Y-43716033D02*
X185366667Y-43749366D01*
X185366667Y-43749366D02*
X185400000Y-43816033D01*
X185400000Y-43816033D02*
X185400000Y-43982700D01*
X185400000Y-43982700D02*
X185366667Y-44049366D01*
X185366667Y-44049366D02*
X185333333Y-44082700D01*
X185333333Y-44082700D02*
X185266667Y-44116033D01*
X185266667Y-44116033D02*
X185066667Y-44116033D01*
X185066667Y-44116033D02*
X185000000Y-44082700D01*
X185000000Y-44082700D02*
X184966667Y-44049366D01*
X185700000Y-44049366D02*
X185733334Y-44082700D01*
X185733334Y-44082700D02*
X185700000Y-44116033D01*
X185700000Y-44116033D02*
X185666667Y-44082700D01*
X185666667Y-44082700D02*
X185700000Y-44049366D01*
X185700000Y-44049366D02*
X185700000Y-44116033D01*
X185966667Y-43416033D02*
X186400000Y-43416033D01*
X186400000Y-43416033D02*
X186166667Y-43682700D01*
X186166667Y-43682700D02*
X186266667Y-43682700D01*
X186266667Y-43682700D02*
X186333333Y-43716033D01*
X186333333Y-43716033D02*
X186366667Y-43749366D01*
X186366667Y-43749366D02*
X186400000Y-43816033D01*
X186400000Y-43816033D02*
X186400000Y-43982700D01*
X186400000Y-43982700D02*
X186366667Y-44049366D01*
X186366667Y-44049366D02*
X186333333Y-44082700D01*
X186333333Y-44082700D02*
X186266667Y-44116033D01*
X186266667Y-44116033D02*
X186066667Y-44116033D01*
X186066667Y-44116033D02*
X186000000Y-44082700D01*
X186000000Y-44082700D02*
X185966667Y-44049366D01*
X186600000Y-43416033D02*
X186833334Y-44116033D01*
X186833334Y-44116033D02*
X187066667Y-43416033D01*
X196990197Y-85647955D02*
X197142720Y-86288552D01*
X197142720Y-86288552D02*
X197264739Y-85830983D01*
X197264739Y-85830983D02*
X197386757Y-86288552D01*
X197386757Y-86288552D02*
X197539281Y-85647955D01*
X197783318Y-86288552D02*
X197783318Y-85647955D01*
X198057859Y-86288552D02*
X198057859Y-85953001D01*
X198057859Y-85953001D02*
X198027355Y-85891992D01*
X198027355Y-85891992D02*
X197966345Y-85861487D01*
X197966345Y-85861487D02*
X197874831Y-85861487D01*
X197874831Y-85861487D02*
X197813822Y-85891992D01*
X197813822Y-85891992D02*
X197783318Y-85922497D01*
X198606943Y-86258048D02*
X198545933Y-86288552D01*
X198545933Y-86288552D02*
X198423915Y-86288552D01*
X198423915Y-86288552D02*
X198362906Y-86258048D01*
X198362906Y-86258048D02*
X198332401Y-86197038D01*
X198332401Y-86197038D02*
X198332401Y-85953001D01*
X198332401Y-85953001D02*
X198362906Y-85891992D01*
X198362906Y-85891992D02*
X198423915Y-85861487D01*
X198423915Y-85861487D02*
X198545933Y-85861487D01*
X198545933Y-85861487D02*
X198606943Y-85891992D01*
X198606943Y-85891992D02*
X198637447Y-85953001D01*
X198637447Y-85953001D02*
X198637447Y-86014011D01*
X198637447Y-86014011D02*
X198332401Y-86075020D01*
X199156026Y-86258048D02*
X199095016Y-86288552D01*
X199095016Y-86288552D02*
X198972998Y-86288552D01*
X198972998Y-86288552D02*
X198911989Y-86258048D01*
X198911989Y-86258048D02*
X198881484Y-86197038D01*
X198881484Y-86197038D02*
X198881484Y-85953001D01*
X198881484Y-85953001D02*
X198911989Y-85891992D01*
X198911989Y-85891992D02*
X198972998Y-85861487D01*
X198972998Y-85861487D02*
X199095016Y-85861487D01*
X199095016Y-85861487D02*
X199156026Y-85891992D01*
X199156026Y-85891992D02*
X199186530Y-85953001D01*
X199186530Y-85953001D02*
X199186530Y-86014011D01*
X199186530Y-86014011D02*
X198881484Y-86075020D01*
X199552585Y-86288552D02*
X199491576Y-86258048D01*
X199491576Y-86258048D02*
X199461072Y-86197038D01*
X199461072Y-86197038D02*
X199461072Y-85647955D01*
X199766118Y-86258048D02*
X199827127Y-86288552D01*
X199827127Y-86288552D02*
X199949146Y-86288552D01*
X199949146Y-86288552D02*
X200010155Y-86258048D01*
X200010155Y-86258048D02*
X200040660Y-86197038D01*
X200040660Y-86197038D02*
X200040660Y-86166534D01*
X200040660Y-86166534D02*
X200010155Y-86105524D01*
X200010155Y-86105524D02*
X199949146Y-86075020D01*
X199949146Y-86075020D02*
X199857632Y-86075020D01*
X199857632Y-86075020D02*
X199796623Y-86044515D01*
X199796623Y-86044515D02*
X199766118Y-85983506D01*
X199766118Y-85983506D02*
X199766118Y-85953001D01*
X199766118Y-85953001D02*
X199796623Y-85891992D01*
X199796623Y-85891992D02*
X199857632Y-85861487D01*
X199857632Y-85861487D02*
X199949146Y-85861487D01*
X199949146Y-85861487D02*
X200010155Y-85891992D01*
X200803276Y-86288552D02*
X200803276Y-85647955D01*
X200803276Y-85891992D02*
X200864285Y-85861487D01*
X200864285Y-85861487D02*
X200986303Y-85861487D01*
X200986303Y-85861487D02*
X201047313Y-85891992D01*
X201047313Y-85891992D02*
X201077817Y-85922497D01*
X201077817Y-85922497D02*
X201108322Y-85983506D01*
X201108322Y-85983506D02*
X201108322Y-86166534D01*
X201108322Y-86166534D02*
X201077817Y-86227543D01*
X201077817Y-86227543D02*
X201047313Y-86258048D01*
X201047313Y-86258048D02*
X200986303Y-86288552D01*
X200986303Y-86288552D02*
X200864285Y-86288552D01*
X200864285Y-86288552D02*
X200803276Y-86258048D01*
X201474377Y-86288552D02*
X201413368Y-86258048D01*
X201413368Y-86258048D02*
X201382864Y-86227543D01*
X201382864Y-86227543D02*
X201352359Y-86166534D01*
X201352359Y-86166534D02*
X201352359Y-85983506D01*
X201352359Y-85983506D02*
X201382864Y-85922497D01*
X201382864Y-85922497D02*
X201413368Y-85891992D01*
X201413368Y-85891992D02*
X201474377Y-85861487D01*
X201474377Y-85861487D02*
X201565891Y-85861487D01*
X201565891Y-85861487D02*
X201626901Y-85891992D01*
X201626901Y-85891992D02*
X201657405Y-85922497D01*
X201657405Y-85922497D02*
X201687910Y-85983506D01*
X201687910Y-85983506D02*
X201687910Y-86166534D01*
X201687910Y-86166534D02*
X201657405Y-86227543D01*
X201657405Y-86227543D02*
X201626901Y-86258048D01*
X201626901Y-86258048D02*
X201565891Y-86288552D01*
X201565891Y-86288552D02*
X201474377Y-86288552D01*
X202236993Y-86288552D02*
X202236993Y-85953001D01*
X202236993Y-85953001D02*
X202206489Y-85891992D01*
X202206489Y-85891992D02*
X202145479Y-85861487D01*
X202145479Y-85861487D02*
X202023461Y-85861487D01*
X202023461Y-85861487D02*
X201962452Y-85891992D01*
X202236993Y-86258048D02*
X202175984Y-86288552D01*
X202175984Y-86288552D02*
X202023461Y-86288552D01*
X202023461Y-86288552D02*
X201962452Y-86258048D01*
X201962452Y-86258048D02*
X201931947Y-86197038D01*
X201931947Y-86197038D02*
X201931947Y-86136029D01*
X201931947Y-86136029D02*
X201962452Y-86075020D01*
X201962452Y-86075020D02*
X202023461Y-86044515D01*
X202023461Y-86044515D02*
X202175984Y-86044515D01*
X202175984Y-86044515D02*
X202236993Y-86014011D01*
X202542040Y-86288552D02*
X202542040Y-85861487D01*
X202542040Y-85983506D02*
X202572544Y-85922497D01*
X202572544Y-85922497D02*
X202603049Y-85891992D01*
X202603049Y-85891992D02*
X202664058Y-85861487D01*
X202664058Y-85861487D02*
X202725067Y-85861487D01*
X203213141Y-86288552D02*
X203213141Y-85647955D01*
X203213141Y-86258048D02*
X203152132Y-86288552D01*
X203152132Y-86288552D02*
X203030113Y-86288552D01*
X203030113Y-86288552D02*
X202969104Y-86258048D01*
X202969104Y-86258048D02*
X202938600Y-86227543D01*
X202938600Y-86227543D02*
X202908095Y-86166534D01*
X202908095Y-86166534D02*
X202908095Y-85983506D01*
X202908095Y-85983506D02*
X202938600Y-85922497D01*
X202938600Y-85922497D02*
X202969104Y-85891992D01*
X202969104Y-85891992D02*
X203030113Y-85861487D01*
X203030113Y-85861487D02*
X203152132Y-85861487D01*
X203152132Y-85861487D02*
X203213141Y-85891992D01*
X204372317Y-86288552D02*
X204158785Y-85983506D01*
X204006262Y-86288552D02*
X204006262Y-85647955D01*
X204006262Y-85647955D02*
X204250299Y-85647955D01*
X204250299Y-85647955D02*
X204311308Y-85678460D01*
X204311308Y-85678460D02*
X204341812Y-85708964D01*
X204341812Y-85708964D02*
X204372317Y-85769974D01*
X204372317Y-85769974D02*
X204372317Y-85861487D01*
X204372317Y-85861487D02*
X204341812Y-85922497D01*
X204341812Y-85922497D02*
X204311308Y-85953001D01*
X204311308Y-85953001D02*
X204250299Y-85983506D01*
X204250299Y-85983506D02*
X204006262Y-85983506D01*
X204890896Y-86258048D02*
X204829886Y-86288552D01*
X204829886Y-86288552D02*
X204707868Y-86288552D01*
X204707868Y-86288552D02*
X204646859Y-86258048D01*
X204646859Y-86258048D02*
X204616354Y-86197038D01*
X204616354Y-86197038D02*
X204616354Y-85953001D01*
X204616354Y-85953001D02*
X204646859Y-85891992D01*
X204646859Y-85891992D02*
X204707868Y-85861487D01*
X204707868Y-85861487D02*
X204829886Y-85861487D01*
X204829886Y-85861487D02*
X204890896Y-85891992D01*
X204890896Y-85891992D02*
X204921400Y-85953001D01*
X204921400Y-85953001D02*
X204921400Y-86014011D01*
X204921400Y-86014011D02*
X204616354Y-86075020D01*
X205134932Y-85861487D02*
X205287455Y-86288552D01*
X205287455Y-86288552D02*
X205439979Y-85861487D01*
X206385622Y-85953001D02*
X206477136Y-85983506D01*
X206477136Y-85983506D02*
X206507640Y-86014011D01*
X206507640Y-86014011D02*
X206538145Y-86075020D01*
X206538145Y-86075020D02*
X206538145Y-86166534D01*
X206538145Y-86166534D02*
X206507640Y-86227543D01*
X206507640Y-86227543D02*
X206477136Y-86258048D01*
X206477136Y-86258048D02*
X206416127Y-86288552D01*
X206416127Y-86288552D02*
X206172090Y-86288552D01*
X206172090Y-86288552D02*
X206172090Y-85647955D01*
X206172090Y-85647955D02*
X206385622Y-85647955D01*
X206385622Y-85647955D02*
X206446631Y-85678460D01*
X206446631Y-85678460D02*
X206477136Y-85708964D01*
X206477136Y-85708964D02*
X206507640Y-85769974D01*
X206507640Y-85769974D02*
X206507640Y-85830983D01*
X206507640Y-85830983D02*
X206477136Y-85891992D01*
X206477136Y-85891992D02*
X206446631Y-85922497D01*
X206446631Y-85922497D02*
X206385622Y-85953001D01*
X206385622Y-85953001D02*
X206172090Y-85953001D01*
X207788835Y-85861487D02*
X207300761Y-86044515D01*
X207300761Y-86044515D02*
X207788835Y-86227543D01*
X208032871Y-85647955D02*
X208429431Y-85647955D01*
X208429431Y-85647955D02*
X208215899Y-85891992D01*
X208215899Y-85891992D02*
X208307413Y-85891992D01*
X208307413Y-85891992D02*
X208368422Y-85922497D01*
X208368422Y-85922497D02*
X208398927Y-85953001D01*
X208398927Y-85953001D02*
X208429431Y-86014011D01*
X208429431Y-86014011D02*
X208429431Y-86166534D01*
X208429431Y-86166534D02*
X208398927Y-86227543D01*
X208398927Y-86227543D02*
X208368422Y-86258048D01*
X208368422Y-86258048D02*
X208307413Y-86288552D01*
X208307413Y-86288552D02*
X208124385Y-86288552D01*
X208124385Y-86288552D02*
X208063376Y-86258048D01*
X208063376Y-86258048D02*
X208032871Y-86227543D01*
X217111925Y-67178460D02*
X217050916Y-67147955D01*
X217050916Y-67147955D02*
X216959402Y-67147955D01*
X216959402Y-67147955D02*
X216867888Y-67178460D01*
X216867888Y-67178460D02*
X216806879Y-67239469D01*
X216806879Y-67239469D02*
X216776375Y-67300478D01*
X216776375Y-67300478D02*
X216745870Y-67422497D01*
X216745870Y-67422497D02*
X216745870Y-67514011D01*
X216745870Y-67514011D02*
X216776375Y-67636029D01*
X216776375Y-67636029D02*
X216806879Y-67697038D01*
X216806879Y-67697038D02*
X216867888Y-67758048D01*
X216867888Y-67758048D02*
X216959402Y-67788552D01*
X216959402Y-67788552D02*
X217020412Y-67788552D01*
X217020412Y-67788552D02*
X217111925Y-67758048D01*
X217111925Y-67758048D02*
X217142430Y-67727543D01*
X217142430Y-67727543D02*
X217142430Y-67514011D01*
X217142430Y-67514011D02*
X217020412Y-67514011D01*
X217416972Y-67788552D02*
X217416972Y-67147955D01*
X217416972Y-67147955D02*
X217783027Y-67788552D01*
X217783027Y-67788552D02*
X217783027Y-67147955D01*
X218088074Y-67788552D02*
X218088074Y-67147955D01*
X218088074Y-67147955D02*
X218240597Y-67147955D01*
X218240597Y-67147955D02*
X218332111Y-67178460D01*
X218332111Y-67178460D02*
X218393120Y-67239469D01*
X218393120Y-67239469D02*
X218423624Y-67300478D01*
X218423624Y-67300478D02*
X218454129Y-67422497D01*
X218454129Y-67422497D02*
X218454129Y-67514011D01*
X218454129Y-67514011D02*
X218423624Y-67636029D01*
X218423624Y-67636029D02*
X218393120Y-67697038D01*
X218393120Y-67697038D02*
X218332111Y-67758048D01*
X218332111Y-67758048D02*
X218240597Y-67788552D01*
X218240597Y-67788552D02*
X218088074Y-67788552D01*
X218088552Y-93406651D02*
X217447955Y-93406651D01*
X217447955Y-93406651D02*
X217905524Y-93193119D01*
X217905524Y-93193119D02*
X217447955Y-92979587D01*
X217447955Y-92979587D02*
X218088552Y-92979587D01*
X218088552Y-92674540D02*
X217447955Y-92674540D01*
X218058048Y-92399999D02*
X218088552Y-92308485D01*
X218088552Y-92308485D02*
X218088552Y-92155962D01*
X218088552Y-92155962D02*
X218058048Y-92094953D01*
X218058048Y-92094953D02*
X218027543Y-92064448D01*
X218027543Y-92064448D02*
X217966534Y-92033944D01*
X217966534Y-92033944D02*
X217905524Y-92033944D01*
X217905524Y-92033944D02*
X217844515Y-92064448D01*
X217844515Y-92064448D02*
X217814011Y-92094953D01*
X217814011Y-92094953D02*
X217783506Y-92155962D01*
X217783506Y-92155962D02*
X217753001Y-92277981D01*
X217753001Y-92277981D02*
X217722497Y-92338990D01*
X217722497Y-92338990D02*
X217691992Y-92369494D01*
X217691992Y-92369494D02*
X217630983Y-92399999D01*
X217630983Y-92399999D02*
X217569974Y-92399999D01*
X217569974Y-92399999D02*
X217508964Y-92369494D01*
X217508964Y-92369494D02*
X217478460Y-92338990D01*
X217478460Y-92338990D02*
X217447955Y-92277981D01*
X217447955Y-92277981D02*
X217447955Y-92125457D01*
X217447955Y-92125457D02*
X217478460Y-92033944D01*
X217447955Y-91637384D02*
X217447955Y-91515365D01*
X217447955Y-91515365D02*
X217478460Y-91454356D01*
X217478460Y-91454356D02*
X217539469Y-91393347D01*
X217539469Y-91393347D02*
X217661487Y-91362842D01*
X217661487Y-91362842D02*
X217875020Y-91362842D01*
X217875020Y-91362842D02*
X217997038Y-91393347D01*
X217997038Y-91393347D02*
X218058048Y-91454356D01*
X218058048Y-91454356D02*
X218088552Y-91515365D01*
X218088552Y-91515365D02*
X218088552Y-91637384D01*
X218088552Y-91637384D02*
X218058048Y-91698393D01*
X218058048Y-91698393D02*
X217997038Y-91759402D01*
X217997038Y-91759402D02*
X217875020Y-91789907D01*
X217875020Y-91789907D02*
X217661487Y-91789907D01*
X217661487Y-91789907D02*
X217539469Y-91759402D01*
X217539469Y-91759402D02*
X217478460Y-91698393D01*
X217478460Y-91698393D02*
X217447955Y-91637384D01*
X209511447Y-70415366D02*
X210152044Y-70415366D01*
X209511447Y-70720412D02*
X210152044Y-70720412D01*
X210152044Y-70720412D02*
X209511447Y-71086467D01*
X209511447Y-71086467D02*
X210152044Y-71086467D01*
X210152044Y-71300000D02*
X210152044Y-71666055D01*
X209511447Y-71483027D02*
X210152044Y-71483027D01*
X210091035Y-71849083D02*
X210121539Y-71879588D01*
X210121539Y-71879588D02*
X210152044Y-71940597D01*
X210152044Y-71940597D02*
X210152044Y-72093120D01*
X210152044Y-72093120D02*
X210121539Y-72154129D01*
X210121539Y-72154129D02*
X210091035Y-72184634D01*
X210091035Y-72184634D02*
X210030025Y-72215138D01*
X210030025Y-72215138D02*
X209969016Y-72215138D01*
X209969016Y-72215138D02*
X209877502Y-72184634D01*
X209877502Y-72184634D02*
X209511447Y-71818578D01*
X209511447Y-71818578D02*
X209511447Y-72215138D01*
X193776190Y-49954819D02*
X193776190Y-48954819D01*
X193776190Y-49431009D02*
X194347618Y-49431009D01*
X194347618Y-49954819D02*
X194347618Y-48954819D01*
X194776190Y-49669104D02*
X195252380Y-49669104D01*
X194680952Y-49954819D02*
X195014285Y-48954819D01*
X195014285Y-48954819D02*
X195347618Y-49954819D01*
X196157142Y-49954819D02*
X195680952Y-49954819D01*
X195680952Y-49954819D02*
X195680952Y-48954819D01*
X196966666Y-49954819D02*
X196490476Y-49954819D01*
X196490476Y-49954819D02*
X196490476Y-48954819D01*
X187733333Y-51816033D02*
X187733333Y-51116033D01*
X187733333Y-51449366D02*
X188133333Y-51449366D01*
X188133333Y-51816033D02*
X188133333Y-51116033D01*
X188433333Y-51616033D02*
X188766666Y-51616033D01*
X188366666Y-51816033D02*
X188600000Y-51116033D01*
X188600000Y-51116033D02*
X188833333Y-51816033D01*
X189400000Y-51816033D02*
X189066666Y-51816033D01*
X189066666Y-51816033D02*
X189066666Y-51116033D01*
X189966667Y-51816033D02*
X189633333Y-51816033D01*
X189633333Y-51816033D02*
X189633333Y-51116033D01*
X211311925Y-83078460D02*
X211250916Y-83047955D01*
X211250916Y-83047955D02*
X211159402Y-83047955D01*
X211159402Y-83047955D02*
X211067888Y-83078460D01*
X211067888Y-83078460D02*
X211006879Y-83139469D01*
X211006879Y-83139469D02*
X210976375Y-83200478D01*
X210976375Y-83200478D02*
X210945870Y-83322497D01*
X210945870Y-83322497D02*
X210945870Y-83414011D01*
X210945870Y-83414011D02*
X210976375Y-83536029D01*
X210976375Y-83536029D02*
X211006879Y-83597038D01*
X211006879Y-83597038D02*
X211067888Y-83658048D01*
X211067888Y-83658048D02*
X211159402Y-83688552D01*
X211159402Y-83688552D02*
X211220412Y-83688552D01*
X211220412Y-83688552D02*
X211311925Y-83658048D01*
X211311925Y-83658048D02*
X211342430Y-83627543D01*
X211342430Y-83627543D02*
X211342430Y-83414011D01*
X211342430Y-83414011D02*
X211220412Y-83414011D01*
X211616972Y-83688552D02*
X211616972Y-83047955D01*
X211616972Y-83047955D02*
X211983027Y-83688552D01*
X211983027Y-83688552D02*
X211983027Y-83047955D01*
X212288074Y-83688552D02*
X212288074Y-83047955D01*
X212288074Y-83047955D02*
X212440597Y-83047955D01*
X212440597Y-83047955D02*
X212532111Y-83078460D01*
X212532111Y-83078460D02*
X212593120Y-83139469D01*
X212593120Y-83139469D02*
X212623624Y-83200478D01*
X212623624Y-83200478D02*
X212654129Y-83322497D01*
X212654129Y-83322497D02*
X212654129Y-83414011D01*
X212654129Y-83414011D02*
X212623624Y-83536029D01*
X212623624Y-83536029D02*
X212593120Y-83597038D01*
X212593120Y-83597038D02*
X212532111Y-83658048D01*
X212532111Y-83658048D02*
X212440597Y-83688552D01*
X212440597Y-83688552D02*
X212288074Y-83688552D01*
X210154356Y-77378460D02*
X210093347Y-77347955D01*
X210093347Y-77347955D02*
X210001833Y-77347955D01*
X210001833Y-77347955D02*
X209910319Y-77378460D01*
X209910319Y-77378460D02*
X209849310Y-77439469D01*
X209849310Y-77439469D02*
X209818806Y-77500478D01*
X209818806Y-77500478D02*
X209788301Y-77622497D01*
X209788301Y-77622497D02*
X209788301Y-77714011D01*
X209788301Y-77714011D02*
X209818806Y-77836029D01*
X209818806Y-77836029D02*
X209849310Y-77897038D01*
X209849310Y-77897038D02*
X209910319Y-77958048D01*
X209910319Y-77958048D02*
X210001833Y-77988552D01*
X210001833Y-77988552D02*
X210062843Y-77988552D01*
X210062843Y-77988552D02*
X210154356Y-77958048D01*
X210154356Y-77958048D02*
X210184861Y-77927543D01*
X210184861Y-77927543D02*
X210184861Y-77714011D01*
X210184861Y-77714011D02*
X210062843Y-77714011D01*
X210459403Y-77988552D02*
X210459403Y-77347955D01*
X210459403Y-77347955D02*
X210703440Y-77347955D01*
X210703440Y-77347955D02*
X210764449Y-77378460D01*
X210764449Y-77378460D02*
X210794953Y-77408964D01*
X210794953Y-77408964D02*
X210825458Y-77469974D01*
X210825458Y-77469974D02*
X210825458Y-77561487D01*
X210825458Y-77561487D02*
X210794953Y-77622497D01*
X210794953Y-77622497D02*
X210764449Y-77653001D01*
X210764449Y-77653001D02*
X210703440Y-77683506D01*
X210703440Y-77683506D02*
X210459403Y-77683506D01*
X211100000Y-77988552D02*
X211100000Y-77347955D01*
X211527064Y-77347955D02*
X211649083Y-77347955D01*
X211649083Y-77347955D02*
X211710092Y-77378460D01*
X211710092Y-77378460D02*
X211771101Y-77439469D01*
X211771101Y-77439469D02*
X211801606Y-77561487D01*
X211801606Y-77561487D02*
X211801606Y-77775020D01*
X211801606Y-77775020D02*
X211771101Y-77897038D01*
X211771101Y-77897038D02*
X211710092Y-77958048D01*
X211710092Y-77958048D02*
X211649083Y-77988552D01*
X211649083Y-77988552D02*
X211527064Y-77988552D01*
X211527064Y-77988552D02*
X211466055Y-77958048D01*
X211466055Y-77958048D02*
X211405046Y-77897038D01*
X211405046Y-77897038D02*
X211374541Y-77775020D01*
X211374541Y-77775020D02*
X211374541Y-77561487D01*
X211374541Y-77561487D02*
X211405046Y-77439469D01*
X211405046Y-77439469D02*
X211466055Y-77378460D01*
X211466055Y-77378460D02*
X211527064Y-77347955D01*
X212411698Y-77988552D02*
X212045643Y-77988552D01*
X212228671Y-77988552D02*
X212228671Y-77347955D01*
X212228671Y-77347955D02*
X212167661Y-77439469D01*
X212167661Y-77439469D02*
X212106652Y-77500478D01*
X212106652Y-77500478D02*
X212045643Y-77530983D01*
X240438095Y-67502438D02*
X240342857Y-67454819D01*
X240342857Y-67454819D02*
X240200000Y-67454819D01*
X240200000Y-67454819D02*
X240057143Y-67502438D01*
X240057143Y-67502438D02*
X239961905Y-67597676D01*
X239961905Y-67597676D02*
X239914286Y-67692914D01*
X239914286Y-67692914D02*
X239866667Y-67883390D01*
X239866667Y-67883390D02*
X239866667Y-68026247D01*
X239866667Y-68026247D02*
X239914286Y-68216723D01*
X239914286Y-68216723D02*
X239961905Y-68311961D01*
X239961905Y-68311961D02*
X240057143Y-68407200D01*
X240057143Y-68407200D02*
X240200000Y-68454819D01*
X240200000Y-68454819D02*
X240295238Y-68454819D01*
X240295238Y-68454819D02*
X240438095Y-68407200D01*
X240438095Y-68407200D02*
X240485714Y-68359580D01*
X240485714Y-68359580D02*
X240485714Y-68026247D01*
X240485714Y-68026247D02*
X240295238Y-68026247D01*
X240914286Y-68454819D02*
X240914286Y-67454819D01*
X240914286Y-67454819D02*
X241485714Y-68454819D01*
X241485714Y-68454819D02*
X241485714Y-67454819D01*
X241961905Y-68454819D02*
X241961905Y-67454819D01*
X241961905Y-67454819D02*
X242200000Y-67454819D01*
X242200000Y-67454819D02*
X242342857Y-67502438D01*
X242342857Y-67502438D02*
X242438095Y-67597676D01*
X242438095Y-67597676D02*
X242485714Y-67692914D01*
X242485714Y-67692914D02*
X242533333Y-67883390D01*
X242533333Y-67883390D02*
X242533333Y-68026247D01*
X242533333Y-68026247D02*
X242485714Y-68216723D01*
X242485714Y-68216723D02*
X242438095Y-68311961D01*
X242438095Y-68311961D02*
X242342857Y-68407200D01*
X242342857Y-68407200D02*
X242200000Y-68454819D01*
X242200000Y-68454819D02*
X241961905Y-68454819D01*
X211317200Y-70888552D02*
X211317200Y-70247955D01*
X211622246Y-70888552D02*
X211622246Y-70247955D01*
X211622246Y-70247955D02*
X211835778Y-70705524D01*
X211835778Y-70705524D02*
X212049310Y-70247955D01*
X212049310Y-70247955D02*
X212049310Y-70888552D01*
X212354357Y-70247955D02*
X212354357Y-70766534D01*
X212354357Y-70766534D02*
X212384861Y-70827543D01*
X212384861Y-70827543D02*
X212415366Y-70858048D01*
X212415366Y-70858048D02*
X212476375Y-70888552D01*
X212476375Y-70888552D02*
X212598394Y-70888552D01*
X212598394Y-70888552D02*
X212659403Y-70858048D01*
X212659403Y-70858048D02*
X212689907Y-70827543D01*
X212689907Y-70827543D02*
X212720412Y-70766534D01*
X212720412Y-70766534D02*
X212720412Y-70247955D01*
X212872936Y-70949561D02*
X213361009Y-70949561D01*
X213513533Y-70888552D02*
X213513533Y-70247955D01*
X213818579Y-70888552D02*
X213818579Y-70247955D01*
X213818579Y-70247955D02*
X214184634Y-70888552D01*
X214184634Y-70888552D02*
X214184634Y-70247955D01*
X214398167Y-70247955D02*
X214764222Y-70247955D01*
X214581194Y-70888552D02*
X214581194Y-70247955D01*
X215313305Y-70888552D02*
X214947250Y-70888552D01*
X215130278Y-70888552D02*
X215130278Y-70247955D01*
X215130278Y-70247955D02*
X215069268Y-70339469D01*
X215069268Y-70339469D02*
X215008259Y-70400478D01*
X215008259Y-70400478D02*
X214947250Y-70430983D01*
X216866666Y-74836087D02*
X216899999Y-74802753D01*
X216899999Y-74802753D02*
X216966666Y-74769420D01*
X216966666Y-74769420D02*
X217133333Y-74769420D01*
X217133333Y-74769420D02*
X217199999Y-74802753D01*
X217199999Y-74802753D02*
X217233333Y-74836087D01*
X217233333Y-74836087D02*
X217266666Y-74902753D01*
X217266666Y-74902753D02*
X217266666Y-74969420D01*
X217266666Y-74969420D02*
X217233333Y-75069420D01*
X217233333Y-75069420D02*
X216833333Y-75469420D01*
X216833333Y-75469420D02*
X217266666Y-75469420D01*
X217866666Y-75002753D02*
X217866666Y-75469420D01*
X217700000Y-74736087D02*
X217533333Y-75236087D01*
X217533333Y-75236087D02*
X217966666Y-75236087D01*
X218133333Y-74769420D02*
X218366667Y-75469420D01*
X218366667Y-75469420D02*
X218600000Y-74769420D01*
X223988073Y-92941952D02*
X223896559Y-92911447D01*
X223896559Y-92911447D02*
X223744036Y-92911447D01*
X223744036Y-92911447D02*
X223683027Y-92941952D01*
X223683027Y-92941952D02*
X223652522Y-92972456D01*
X223652522Y-92972456D02*
X223622018Y-93033465D01*
X223622018Y-93033465D02*
X223622018Y-93094475D01*
X223622018Y-93094475D02*
X223652522Y-93155484D01*
X223652522Y-93155484D02*
X223683027Y-93185988D01*
X223683027Y-93185988D02*
X223744036Y-93216493D01*
X223744036Y-93216493D02*
X223866055Y-93246998D01*
X223866055Y-93246998D02*
X223927064Y-93277502D01*
X223927064Y-93277502D02*
X223957568Y-93308007D01*
X223957568Y-93308007D02*
X223988073Y-93369016D01*
X223988073Y-93369016D02*
X223988073Y-93430025D01*
X223988073Y-93430025D02*
X223957568Y-93491035D01*
X223957568Y-93491035D02*
X223927064Y-93521539D01*
X223927064Y-93521539D02*
X223866055Y-93552044D01*
X223866055Y-93552044D02*
X223713531Y-93552044D01*
X223713531Y-93552044D02*
X223622018Y-93521539D01*
X223377981Y-92941952D02*
X223286467Y-92911447D01*
X223286467Y-92911447D02*
X223133944Y-92911447D01*
X223133944Y-92911447D02*
X223072935Y-92941952D01*
X223072935Y-92941952D02*
X223042430Y-92972456D01*
X223042430Y-92972456D02*
X223011926Y-93033465D01*
X223011926Y-93033465D02*
X223011926Y-93094475D01*
X223011926Y-93094475D02*
X223042430Y-93155484D01*
X223042430Y-93155484D02*
X223072935Y-93185988D01*
X223072935Y-93185988D02*
X223133944Y-93216493D01*
X223133944Y-93216493D02*
X223255963Y-93246998D01*
X223255963Y-93246998D02*
X223316972Y-93277502D01*
X223316972Y-93277502D02*
X223347476Y-93308007D01*
X223347476Y-93308007D02*
X223377981Y-93369016D01*
X223377981Y-93369016D02*
X223377981Y-93430025D01*
X223377981Y-93430025D02*
X223347476Y-93491035D01*
X223347476Y-93491035D02*
X223316972Y-93521539D01*
X223316972Y-93521539D02*
X223255963Y-93552044D01*
X223255963Y-93552044D02*
X223103439Y-93552044D01*
X223103439Y-93552044D02*
X223011926Y-93521539D01*
X199241952Y-70911926D02*
X199211447Y-71003440D01*
X199211447Y-71003440D02*
X199211447Y-71155963D01*
X199211447Y-71155963D02*
X199241952Y-71216972D01*
X199241952Y-71216972D02*
X199272456Y-71247477D01*
X199272456Y-71247477D02*
X199333465Y-71277981D01*
X199333465Y-71277981D02*
X199394475Y-71277981D01*
X199394475Y-71277981D02*
X199455484Y-71247477D01*
X199455484Y-71247477D02*
X199485988Y-71216972D01*
X199485988Y-71216972D02*
X199516493Y-71155963D01*
X199516493Y-71155963D02*
X199546998Y-71033944D01*
X199546998Y-71033944D02*
X199577502Y-70972935D01*
X199577502Y-70972935D02*
X199608007Y-70942431D01*
X199608007Y-70942431D02*
X199669016Y-70911926D01*
X199669016Y-70911926D02*
X199730025Y-70911926D01*
X199730025Y-70911926D02*
X199791035Y-70942431D01*
X199791035Y-70942431D02*
X199821539Y-70972935D01*
X199821539Y-70972935D02*
X199852044Y-71033944D01*
X199852044Y-71033944D02*
X199852044Y-71186468D01*
X199852044Y-71186468D02*
X199821539Y-71277981D01*
X199241952Y-71522018D02*
X199211447Y-71613532D01*
X199211447Y-71613532D02*
X199211447Y-71766055D01*
X199211447Y-71766055D02*
X199241952Y-71827064D01*
X199241952Y-71827064D02*
X199272456Y-71857569D01*
X199272456Y-71857569D02*
X199333465Y-71888073D01*
X199333465Y-71888073D02*
X199394475Y-71888073D01*
X199394475Y-71888073D02*
X199455484Y-71857569D01*
X199455484Y-71857569D02*
X199485988Y-71827064D01*
X199485988Y-71827064D02*
X199516493Y-71766055D01*
X199516493Y-71766055D02*
X199546998Y-71644036D01*
X199546998Y-71644036D02*
X199577502Y-71583027D01*
X199577502Y-71583027D02*
X199608007Y-71552523D01*
X199608007Y-71552523D02*
X199669016Y-71522018D01*
X199669016Y-71522018D02*
X199730025Y-71522018D01*
X199730025Y-71522018D02*
X199791035Y-71552523D01*
X199791035Y-71552523D02*
X199821539Y-71583027D01*
X199821539Y-71583027D02*
X199852044Y-71644036D01*
X199852044Y-71644036D02*
X199852044Y-71796560D01*
X199852044Y-71796560D02*
X199821539Y-71888073D01*
X188698095Y-48602438D02*
X188602857Y-48554819D01*
X188602857Y-48554819D02*
X188460000Y-48554819D01*
X188460000Y-48554819D02*
X188317143Y-48602438D01*
X188317143Y-48602438D02*
X188221905Y-48697676D01*
X188221905Y-48697676D02*
X188174286Y-48792914D01*
X188174286Y-48792914D02*
X188126667Y-48983390D01*
X188126667Y-48983390D02*
X188126667Y-49126247D01*
X188126667Y-49126247D02*
X188174286Y-49316723D01*
X188174286Y-49316723D02*
X188221905Y-49411961D01*
X188221905Y-49411961D02*
X188317143Y-49507200D01*
X188317143Y-49507200D02*
X188460000Y-49554819D01*
X188460000Y-49554819D02*
X188555238Y-49554819D01*
X188555238Y-49554819D02*
X188698095Y-49507200D01*
X188698095Y-49507200D02*
X188745714Y-49459580D01*
X188745714Y-49459580D02*
X188745714Y-49126247D01*
X188745714Y-49126247D02*
X188555238Y-49126247D01*
X189174286Y-49554819D02*
X189174286Y-48554819D01*
X189174286Y-48554819D02*
X189745714Y-49554819D01*
X189745714Y-49554819D02*
X189745714Y-48554819D01*
X190221905Y-49554819D02*
X190221905Y-48554819D01*
X190221905Y-48554819D02*
X190460000Y-48554819D01*
X190460000Y-48554819D02*
X190602857Y-48602438D01*
X190602857Y-48602438D02*
X190698095Y-48697676D01*
X190698095Y-48697676D02*
X190745714Y-48792914D01*
X190745714Y-48792914D02*
X190793333Y-48983390D01*
X190793333Y-48983390D02*
X190793333Y-49126247D01*
X190793333Y-49126247D02*
X190745714Y-49316723D01*
X190745714Y-49316723D02*
X190698095Y-49411961D01*
X190698095Y-49411961D02*
X190602857Y-49507200D01*
X190602857Y-49507200D02*
X190460000Y-49554819D01*
X190460000Y-49554819D02*
X190221905Y-49554819D01*
X223566667Y-98249366D02*
X223500000Y-98216033D01*
X223500000Y-98216033D02*
X223400000Y-98216033D01*
X223400000Y-98216033D02*
X223300000Y-98249366D01*
X223300000Y-98249366D02*
X223233334Y-98316033D01*
X223233334Y-98316033D02*
X223200000Y-98382700D01*
X223200000Y-98382700D02*
X223166667Y-98516033D01*
X223166667Y-98516033D02*
X223166667Y-98616033D01*
X223166667Y-98616033D02*
X223200000Y-98749366D01*
X223200000Y-98749366D02*
X223233334Y-98816033D01*
X223233334Y-98816033D02*
X223300000Y-98882700D01*
X223300000Y-98882700D02*
X223400000Y-98916033D01*
X223400000Y-98916033D02*
X223466667Y-98916033D01*
X223466667Y-98916033D02*
X223566667Y-98882700D01*
X223566667Y-98882700D02*
X223600000Y-98849366D01*
X223600000Y-98849366D02*
X223600000Y-98616033D01*
X223600000Y-98616033D02*
X223466667Y-98616033D01*
X223900000Y-98916033D02*
X223900000Y-98216033D01*
X223900000Y-98216033D02*
X224300000Y-98916033D01*
X224300000Y-98916033D02*
X224300000Y-98216033D01*
X224633333Y-98916033D02*
X224633333Y-98216033D01*
X224633333Y-98216033D02*
X224800000Y-98216033D01*
X224800000Y-98216033D02*
X224900000Y-98249366D01*
X224900000Y-98249366D02*
X224966667Y-98316033D01*
X224966667Y-98316033D02*
X225000000Y-98382700D01*
X225000000Y-98382700D02*
X225033333Y-98516033D01*
X225033333Y-98516033D02*
X225033333Y-98616033D01*
X225033333Y-98616033D02*
X225000000Y-98749366D01*
X225000000Y-98749366D02*
X224966667Y-98816033D01*
X224966667Y-98816033D02*
X224900000Y-98882700D01*
X224900000Y-98882700D02*
X224800000Y-98916033D01*
X224800000Y-98916033D02*
X224633333Y-98916033D01*
X206811447Y-70393348D02*
X207452044Y-70393348D01*
X207452044Y-70393348D02*
X206994475Y-70606880D01*
X206994475Y-70606880D02*
X207452044Y-70820412D01*
X207452044Y-70820412D02*
X206811447Y-70820412D01*
X206811447Y-71125459D02*
X207452044Y-71125459D01*
X206841952Y-71400000D02*
X206811447Y-71491514D01*
X206811447Y-71491514D02*
X206811447Y-71644037D01*
X206811447Y-71644037D02*
X206841952Y-71705046D01*
X206841952Y-71705046D02*
X206872456Y-71735551D01*
X206872456Y-71735551D02*
X206933465Y-71766055D01*
X206933465Y-71766055D02*
X206994475Y-71766055D01*
X206994475Y-71766055D02*
X207055484Y-71735551D01*
X207055484Y-71735551D02*
X207085988Y-71705046D01*
X207085988Y-71705046D02*
X207116493Y-71644037D01*
X207116493Y-71644037D02*
X207146998Y-71522018D01*
X207146998Y-71522018D02*
X207177502Y-71461009D01*
X207177502Y-71461009D02*
X207208007Y-71430505D01*
X207208007Y-71430505D02*
X207269016Y-71400000D01*
X207269016Y-71400000D02*
X207330025Y-71400000D01*
X207330025Y-71400000D02*
X207391035Y-71430505D01*
X207391035Y-71430505D02*
X207421539Y-71461009D01*
X207421539Y-71461009D02*
X207452044Y-71522018D01*
X207452044Y-71522018D02*
X207452044Y-71674542D01*
X207452044Y-71674542D02*
X207421539Y-71766055D01*
X207452044Y-72162615D02*
X207452044Y-72284634D01*
X207452044Y-72284634D02*
X207421539Y-72345643D01*
X207421539Y-72345643D02*
X207360530Y-72406652D01*
X207360530Y-72406652D02*
X207238512Y-72437157D01*
X207238512Y-72437157D02*
X207024979Y-72437157D01*
X207024979Y-72437157D02*
X206902961Y-72406652D01*
X206902961Y-72406652D02*
X206841952Y-72345643D01*
X206841952Y-72345643D02*
X206811447Y-72284634D01*
X206811447Y-72284634D02*
X206811447Y-72162615D01*
X206811447Y-72162615D02*
X206841952Y-72101606D01*
X206841952Y-72101606D02*
X206902961Y-72040597D01*
X206902961Y-72040597D02*
X207024979Y-72010092D01*
X207024979Y-72010092D02*
X207238512Y-72010092D01*
X207238512Y-72010092D02*
X207360530Y-72040597D01*
X207360530Y-72040597D02*
X207421539Y-72101606D01*
X207421539Y-72101606D02*
X207452044Y-72162615D01*
X211493234Y-73188552D02*
X211279702Y-72883506D01*
X211127179Y-73188552D02*
X211127179Y-72547955D01*
X211127179Y-72547955D02*
X211371216Y-72547955D01*
X211371216Y-72547955D02*
X211432225Y-72578460D01*
X211432225Y-72578460D02*
X211462729Y-72608964D01*
X211462729Y-72608964D02*
X211493234Y-72669974D01*
X211493234Y-72669974D02*
X211493234Y-72761487D01*
X211493234Y-72761487D02*
X211462729Y-72822497D01*
X211462729Y-72822497D02*
X211432225Y-72853001D01*
X211432225Y-72853001D02*
X211371216Y-72883506D01*
X211371216Y-72883506D02*
X211127179Y-72883506D01*
X211706766Y-72547955D02*
X212133831Y-73188552D01*
X212133831Y-72547955D02*
X211706766Y-73188552D01*
X214953001Y-93265827D02*
X214953001Y-93052295D01*
X215288552Y-92960781D02*
X215288552Y-93265827D01*
X215288552Y-93265827D02*
X214647955Y-93265827D01*
X214647955Y-93265827D02*
X214647955Y-92960781D01*
X215258048Y-92716744D02*
X215288552Y-92625230D01*
X215288552Y-92625230D02*
X215288552Y-92472707D01*
X215288552Y-92472707D02*
X215258048Y-92411698D01*
X215258048Y-92411698D02*
X215227543Y-92381193D01*
X215227543Y-92381193D02*
X215166534Y-92350689D01*
X215166534Y-92350689D02*
X215105524Y-92350689D01*
X215105524Y-92350689D02*
X215044515Y-92381193D01*
X215044515Y-92381193D02*
X215014011Y-92411698D01*
X215014011Y-92411698D02*
X214983506Y-92472707D01*
X214983506Y-92472707D02*
X214953001Y-92594726D01*
X214953001Y-92594726D02*
X214922497Y-92655735D01*
X214922497Y-92655735D02*
X214891992Y-92686239D01*
X214891992Y-92686239D02*
X214830983Y-92716744D01*
X214830983Y-92716744D02*
X214769974Y-92716744D01*
X214769974Y-92716744D02*
X214708964Y-92686239D01*
X214708964Y-92686239D02*
X214678460Y-92655735D01*
X214678460Y-92655735D02*
X214647955Y-92594726D01*
X214647955Y-92594726D02*
X214647955Y-92442202D01*
X214647955Y-92442202D02*
X214678460Y-92350689D01*
X215288552Y-92076147D02*
X214647955Y-92076147D01*
X214647955Y-92076147D02*
X214647955Y-91832110D01*
X214647955Y-91832110D02*
X214678460Y-91771101D01*
X214678460Y-91771101D02*
X214708964Y-91740597D01*
X214708964Y-91740597D02*
X214769974Y-91710092D01*
X214769974Y-91710092D02*
X214861487Y-91710092D01*
X214861487Y-91710092D02*
X214922497Y-91740597D01*
X214922497Y-91740597D02*
X214953001Y-91771101D01*
X214953001Y-91771101D02*
X214983506Y-91832110D01*
X214983506Y-91832110D02*
X214983506Y-92076147D01*
X215349561Y-91588074D02*
X215349561Y-91100000D01*
X215288552Y-90947476D02*
X214647955Y-90947476D01*
X214647955Y-90947476D02*
X215105524Y-90733944D01*
X215105524Y-90733944D02*
X214647955Y-90520412D01*
X214647955Y-90520412D02*
X215288552Y-90520412D01*
X214647955Y-90093347D02*
X214647955Y-89971328D01*
X214647955Y-89971328D02*
X214678460Y-89910319D01*
X214678460Y-89910319D02*
X214739469Y-89849310D01*
X214739469Y-89849310D02*
X214861487Y-89818805D01*
X214861487Y-89818805D02*
X215075020Y-89818805D01*
X215075020Y-89818805D02*
X215197038Y-89849310D01*
X215197038Y-89849310D02*
X215258048Y-89910319D01*
X215258048Y-89910319D02*
X215288552Y-89971328D01*
X215288552Y-89971328D02*
X215288552Y-90093347D01*
X215288552Y-90093347D02*
X215258048Y-90154356D01*
X215258048Y-90154356D02*
X215197038Y-90215365D01*
X215197038Y-90215365D02*
X215075020Y-90245870D01*
X215075020Y-90245870D02*
X214861487Y-90245870D01*
X214861487Y-90245870D02*
X214739469Y-90215365D01*
X214739469Y-90215365D02*
X214678460Y-90154356D01*
X214678460Y-90154356D02*
X214647955Y-90093347D01*
X215258048Y-89574768D02*
X215288552Y-89483254D01*
X215288552Y-89483254D02*
X215288552Y-89330731D01*
X215288552Y-89330731D02*
X215258048Y-89269722D01*
X215258048Y-89269722D02*
X215227543Y-89239217D01*
X215227543Y-89239217D02*
X215166534Y-89208713D01*
X215166534Y-89208713D02*
X215105524Y-89208713D01*
X215105524Y-89208713D02*
X215044515Y-89239217D01*
X215044515Y-89239217D02*
X215014011Y-89269722D01*
X215014011Y-89269722D02*
X214983506Y-89330731D01*
X214983506Y-89330731D02*
X214953001Y-89452750D01*
X214953001Y-89452750D02*
X214922497Y-89513759D01*
X214922497Y-89513759D02*
X214891992Y-89544263D01*
X214891992Y-89544263D02*
X214830983Y-89574768D01*
X214830983Y-89574768D02*
X214769974Y-89574768D01*
X214769974Y-89574768D02*
X214708964Y-89544263D01*
X214708964Y-89544263D02*
X214678460Y-89513759D01*
X214678460Y-89513759D02*
X214647955Y-89452750D01*
X214647955Y-89452750D02*
X214647955Y-89300226D01*
X214647955Y-89300226D02*
X214678460Y-89208713D01*
X215288552Y-88934171D02*
X214647955Y-88934171D01*
X235771428Y-67959580D02*
X235723809Y-68007200D01*
X235723809Y-68007200D02*
X235580952Y-68054819D01*
X235580952Y-68054819D02*
X235485714Y-68054819D01*
X235485714Y-68054819D02*
X235342857Y-68007200D01*
X235342857Y-68007200D02*
X235247619Y-67911961D01*
X235247619Y-67911961D02*
X235200000Y-67816723D01*
X235200000Y-67816723D02*
X235152381Y-67626247D01*
X235152381Y-67626247D02*
X235152381Y-67483390D01*
X235152381Y-67483390D02*
X235200000Y-67292914D01*
X235200000Y-67292914D02*
X235247619Y-67197676D01*
X235247619Y-67197676D02*
X235342857Y-67102438D01*
X235342857Y-67102438D02*
X235485714Y-67054819D01*
X235485714Y-67054819D02*
X235580952Y-67054819D01*
X235580952Y-67054819D02*
X235723809Y-67102438D01*
X235723809Y-67102438D02*
X235771428Y-67150057D01*
X236152381Y-67769104D02*
X236628571Y-67769104D01*
X236057143Y-68054819D02*
X236390476Y-67054819D01*
X236390476Y-67054819D02*
X236723809Y-68054819D01*
X237057143Y-68054819D02*
X237057143Y-67054819D01*
X237057143Y-67054819D02*
X237628571Y-68054819D01*
X237628571Y-68054819D02*
X237628571Y-67054819D01*
X237866667Y-68150057D02*
X238628571Y-68150057D01*
X239342857Y-68054819D02*
X238866667Y-68054819D01*
X238866667Y-68054819D02*
X238866667Y-67054819D01*
X243952380Y-68159580D02*
X243904761Y-68207200D01*
X243904761Y-68207200D02*
X243761904Y-68254819D01*
X243761904Y-68254819D02*
X243666666Y-68254819D01*
X243666666Y-68254819D02*
X243523809Y-68207200D01*
X243523809Y-68207200D02*
X243428571Y-68111961D01*
X243428571Y-68111961D02*
X243380952Y-68016723D01*
X243380952Y-68016723D02*
X243333333Y-67826247D01*
X243333333Y-67826247D02*
X243333333Y-67683390D01*
X243333333Y-67683390D02*
X243380952Y-67492914D01*
X243380952Y-67492914D02*
X243428571Y-67397676D01*
X243428571Y-67397676D02*
X243523809Y-67302438D01*
X243523809Y-67302438D02*
X243666666Y-67254819D01*
X243666666Y-67254819D02*
X243761904Y-67254819D01*
X243761904Y-67254819D02*
X243904761Y-67302438D01*
X243904761Y-67302438D02*
X243952380Y-67350057D01*
X244333333Y-67969104D02*
X244809523Y-67969104D01*
X244238095Y-68254819D02*
X244571428Y-67254819D01*
X244571428Y-67254819D02*
X244904761Y-68254819D01*
X245238095Y-68254819D02*
X245238095Y-67254819D01*
X245238095Y-67254819D02*
X245809523Y-68254819D01*
X245809523Y-68254819D02*
X245809523Y-67254819D01*
X246047619Y-68350057D02*
X246809523Y-68350057D01*
X247047619Y-68254819D02*
X247047619Y-67254819D01*
X247047619Y-67731009D02*
X247619047Y-67731009D01*
X247619047Y-68254819D02*
X247619047Y-67254819D01*
X200860227Y-79968373D02*
X200921236Y-79968373D01*
X200921236Y-79968373D02*
X200982246Y-79998878D01*
X200982246Y-79998878D02*
X201012750Y-80029382D01*
X201012750Y-80029382D02*
X201043255Y-80090392D01*
X201043255Y-80090392D02*
X201073759Y-80212410D01*
X201073759Y-80212410D02*
X201073759Y-80364933D01*
X201073759Y-80364933D02*
X201043255Y-80486952D01*
X201043255Y-80486952D02*
X201012750Y-80547961D01*
X201012750Y-80547961D02*
X200982246Y-80578466D01*
X200982246Y-80578466D02*
X200921236Y-80608970D01*
X200921236Y-80608970D02*
X200860227Y-80608970D01*
X200860227Y-80608970D02*
X200799218Y-80578466D01*
X200799218Y-80578466D02*
X200768713Y-80547961D01*
X200768713Y-80547961D02*
X200738209Y-80486952D01*
X200738209Y-80486952D02*
X200707704Y-80364933D01*
X200707704Y-80364933D02*
X200707704Y-80212410D01*
X200707704Y-80212410D02*
X200738209Y-80090392D01*
X200738209Y-80090392D02*
X200768713Y-80029382D01*
X200768713Y-80029382D02*
X200799218Y-79998878D01*
X200799218Y-79998878D02*
X200860227Y-79968373D01*
X201317796Y-80029382D02*
X201348301Y-79998878D01*
X201348301Y-79998878D02*
X201409310Y-79968373D01*
X201409310Y-79968373D02*
X201561833Y-79968373D01*
X201561833Y-79968373D02*
X201622842Y-79998878D01*
X201622842Y-79998878D02*
X201653347Y-80029382D01*
X201653347Y-80029382D02*
X201683851Y-80090392D01*
X201683851Y-80090392D02*
X201683851Y-80151401D01*
X201683851Y-80151401D02*
X201653347Y-80242915D01*
X201653347Y-80242915D02*
X201287291Y-80608970D01*
X201287291Y-80608970D02*
X201683851Y-80608970D01*
X202415962Y-79937869D02*
X201866879Y-80761493D01*
X202598990Y-80029382D02*
X202629495Y-79998878D01*
X202629495Y-79998878D02*
X202690504Y-79968373D01*
X202690504Y-79968373D02*
X202843027Y-79968373D01*
X202843027Y-79968373D02*
X202904036Y-79998878D01*
X202904036Y-79998878D02*
X202934541Y-80029382D01*
X202934541Y-80029382D02*
X202965045Y-80090392D01*
X202965045Y-80090392D02*
X202965045Y-80151401D01*
X202965045Y-80151401D02*
X202934541Y-80242915D01*
X202934541Y-80242915D02*
X202568485Y-80608970D01*
X202568485Y-80608970D02*
X202965045Y-80608970D01*
X203575137Y-80608970D02*
X203209082Y-80608970D01*
X203392110Y-80608970D02*
X203392110Y-79968373D01*
X203392110Y-79968373D02*
X203331100Y-80059887D01*
X203331100Y-80059887D02*
X203270091Y-80120896D01*
X203270091Y-80120896D02*
X203209082Y-80151401D01*
X204307248Y-79937869D02*
X203758165Y-80761493D01*
X204490276Y-80029382D02*
X204520781Y-79998878D01*
X204520781Y-79998878D02*
X204581790Y-79968373D01*
X204581790Y-79968373D02*
X204734313Y-79968373D01*
X204734313Y-79968373D02*
X204795322Y-79998878D01*
X204795322Y-79998878D02*
X204825827Y-80029382D01*
X204825827Y-80029382D02*
X204856331Y-80090392D01*
X204856331Y-80090392D02*
X204856331Y-80151401D01*
X204856331Y-80151401D02*
X204825827Y-80242915D01*
X204825827Y-80242915D02*
X204459771Y-80608970D01*
X204459771Y-80608970D02*
X204856331Y-80608970D01*
X205405414Y-79968373D02*
X205283396Y-79968373D01*
X205283396Y-79968373D02*
X205222386Y-79998878D01*
X205222386Y-79998878D02*
X205191882Y-80029382D01*
X205191882Y-80029382D02*
X205130873Y-80120896D01*
X205130873Y-80120896D02*
X205100368Y-80242915D01*
X205100368Y-80242915D02*
X205100368Y-80486952D01*
X205100368Y-80486952D02*
X205130873Y-80547961D01*
X205130873Y-80547961D02*
X205161377Y-80578466D01*
X205161377Y-80578466D02*
X205222386Y-80608970D01*
X205222386Y-80608970D02*
X205344405Y-80608970D01*
X205344405Y-80608970D02*
X205405414Y-80578466D01*
X205405414Y-80578466D02*
X205435919Y-80547961D01*
X205435919Y-80547961D02*
X205466423Y-80486952D01*
X205466423Y-80486952D02*
X205466423Y-80334429D01*
X205466423Y-80334429D02*
X205435919Y-80273419D01*
X205435919Y-80273419D02*
X205405414Y-80242915D01*
X205405414Y-80242915D02*
X205344405Y-80212410D01*
X205344405Y-80212410D02*
X205222386Y-80212410D01*
X205222386Y-80212410D02*
X205161377Y-80242915D01*
X205161377Y-80242915D02*
X205130873Y-80273419D01*
X205130873Y-80273419D02*
X205100368Y-80334429D01*
X228059582Y-74879169D02*
X228107202Y-74926788D01*
X228107202Y-74926788D02*
X228154821Y-75069645D01*
X228154821Y-75069645D02*
X228154821Y-75164883D01*
X228154821Y-75164883D02*
X228107202Y-75307740D01*
X228107202Y-75307740D02*
X228011963Y-75402978D01*
X228011963Y-75402978D02*
X227916725Y-75450597D01*
X227916725Y-75450597D02*
X227726249Y-75498216D01*
X227726249Y-75498216D02*
X227583392Y-75498216D01*
X227583392Y-75498216D02*
X227392916Y-75450597D01*
X227392916Y-75450597D02*
X227297678Y-75402978D01*
X227297678Y-75402978D02*
X227202440Y-75307740D01*
X227202440Y-75307740D02*
X227154821Y-75164883D01*
X227154821Y-75164883D02*
X227154821Y-75069645D01*
X227154821Y-75069645D02*
X227202440Y-74926788D01*
X227202440Y-74926788D02*
X227250059Y-74879169D01*
X228154821Y-74402978D02*
X228154821Y-74212502D01*
X228154821Y-74212502D02*
X228107202Y-74117264D01*
X228107202Y-74117264D02*
X228059582Y-74069645D01*
X228059582Y-74069645D02*
X227916725Y-73974407D01*
X227916725Y-73974407D02*
X227726249Y-73926788D01*
X227726249Y-73926788D02*
X227345297Y-73926788D01*
X227345297Y-73926788D02*
X227250059Y-73974407D01*
X227250059Y-73974407D02*
X227202440Y-74022026D01*
X227202440Y-74022026D02*
X227154821Y-74117264D01*
X227154821Y-74117264D02*
X227154821Y-74307740D01*
X227154821Y-74307740D02*
X227202440Y-74402978D01*
X227202440Y-74402978D02*
X227250059Y-74450597D01*
X227250059Y-74450597D02*
X227345297Y-74498216D01*
X227345297Y-74498216D02*
X227583392Y-74498216D01*
X227583392Y-74498216D02*
X227678630Y-74450597D01*
X227678630Y-74450597D02*
X227726249Y-74402978D01*
X227726249Y-74402978D02*
X227773868Y-74307740D01*
X227773868Y-74307740D02*
X227773868Y-74117264D01*
X227773868Y-74117264D02*
X227726249Y-74022026D01*
X227726249Y-74022026D02*
X227678630Y-73974407D01*
X227678630Y-73974407D02*
X227583392Y-73926788D01*
X219159581Y-78541668D02*
X219207201Y-78589287D01*
X219207201Y-78589287D02*
X219254820Y-78732144D01*
X219254820Y-78732144D02*
X219254820Y-78827382D01*
X219254820Y-78827382D02*
X219207201Y-78970239D01*
X219207201Y-78970239D02*
X219111962Y-79065477D01*
X219111962Y-79065477D02*
X219016724Y-79113096D01*
X219016724Y-79113096D02*
X218826248Y-79160715D01*
X218826248Y-79160715D02*
X218683391Y-79160715D01*
X218683391Y-79160715D02*
X218492915Y-79113096D01*
X218492915Y-79113096D02*
X218397677Y-79065477D01*
X218397677Y-79065477D02*
X218302439Y-78970239D01*
X218302439Y-78970239D02*
X218254820Y-78827382D01*
X218254820Y-78827382D02*
X218254820Y-78732144D01*
X218254820Y-78732144D02*
X218302439Y-78589287D01*
X218302439Y-78589287D02*
X218350058Y-78541668D01*
X218683391Y-77970239D02*
X218635772Y-78065477D01*
X218635772Y-78065477D02*
X218588153Y-78113096D01*
X218588153Y-78113096D02*
X218492915Y-78160715D01*
X218492915Y-78160715D02*
X218445296Y-78160715D01*
X218445296Y-78160715D02*
X218350058Y-78113096D01*
X218350058Y-78113096D02*
X218302439Y-78065477D01*
X218302439Y-78065477D02*
X218254820Y-77970239D01*
X218254820Y-77970239D02*
X218254820Y-77779763D01*
X218254820Y-77779763D02*
X218302439Y-77684525D01*
X218302439Y-77684525D02*
X218350058Y-77636906D01*
X218350058Y-77636906D02*
X218445296Y-77589287D01*
X218445296Y-77589287D02*
X218492915Y-77589287D01*
X218492915Y-77589287D02*
X218588153Y-77636906D01*
X218588153Y-77636906D02*
X218635772Y-77684525D01*
X218635772Y-77684525D02*
X218683391Y-77779763D01*
X218683391Y-77779763D02*
X218683391Y-77970239D01*
X218683391Y-77970239D02*
X218731010Y-78065477D01*
X218731010Y-78065477D02*
X218778629Y-78113096D01*
X218778629Y-78113096D02*
X218873867Y-78160715D01*
X218873867Y-78160715D02*
X219064343Y-78160715D01*
X219064343Y-78160715D02*
X219159581Y-78113096D01*
X219159581Y-78113096D02*
X219207201Y-78065477D01*
X219207201Y-78065477D02*
X219254820Y-77970239D01*
X219254820Y-77970239D02*
X219254820Y-77779763D01*
X219254820Y-77779763D02*
X219207201Y-77684525D01*
X219207201Y-77684525D02*
X219159581Y-77636906D01*
X219159581Y-77636906D02*
X219064343Y-77589287D01*
X219064343Y-77589287D02*
X218873867Y-77589287D01*
X218873867Y-77589287D02*
X218778629Y-77636906D01*
X218778629Y-77636906D02*
X218731010Y-77684525D01*
X218731010Y-77684525D02*
X218683391Y-77779763D01*
X233033333Y-70454819D02*
X232700000Y-69978628D01*
X232461905Y-70454819D02*
X232461905Y-69454819D01*
X232461905Y-69454819D02*
X232842857Y-69454819D01*
X232842857Y-69454819D02*
X232938095Y-69502438D01*
X232938095Y-69502438D02*
X232985714Y-69550057D01*
X232985714Y-69550057D02*
X233033333Y-69645295D01*
X233033333Y-69645295D02*
X233033333Y-69788152D01*
X233033333Y-69788152D02*
X232985714Y-69883390D01*
X232985714Y-69883390D02*
X232938095Y-69931009D01*
X232938095Y-69931009D02*
X232842857Y-69978628D01*
X232842857Y-69978628D02*
X232461905Y-69978628D01*
X233414286Y-69550057D02*
X233461905Y-69502438D01*
X233461905Y-69502438D02*
X233557143Y-69454819D01*
X233557143Y-69454819D02*
X233795238Y-69454819D01*
X233795238Y-69454819D02*
X233890476Y-69502438D01*
X233890476Y-69502438D02*
X233938095Y-69550057D01*
X233938095Y-69550057D02*
X233985714Y-69645295D01*
X233985714Y-69645295D02*
X233985714Y-69740533D01*
X233985714Y-69740533D02*
X233938095Y-69883390D01*
X233938095Y-69883390D02*
X233366667Y-70454819D01*
X233366667Y-70454819D02*
X233985714Y-70454819D01*
X195827179Y-100488552D02*
X195827179Y-99847955D01*
X195827179Y-99847955D02*
X195979702Y-99847955D01*
X195979702Y-99847955D02*
X196071216Y-99878460D01*
X196071216Y-99878460D02*
X196132225Y-99939469D01*
X196132225Y-99939469D02*
X196162729Y-100000478D01*
X196162729Y-100000478D02*
X196193234Y-100122497D01*
X196193234Y-100122497D02*
X196193234Y-100214011D01*
X196193234Y-100214011D02*
X196162729Y-100336029D01*
X196162729Y-100336029D02*
X196132225Y-100397038D01*
X196132225Y-100397038D02*
X196071216Y-100458048D01*
X196071216Y-100458048D02*
X195979702Y-100488552D01*
X195979702Y-100488552D02*
X195827179Y-100488552D01*
X196406766Y-99847955D02*
X196833831Y-99847955D01*
X196833831Y-99847955D02*
X196559289Y-100488552D01*
X188420833Y-76454819D02*
X188087500Y-75978628D01*
X187849405Y-76454819D02*
X187849405Y-75454819D01*
X187849405Y-75454819D02*
X188230357Y-75454819D01*
X188230357Y-75454819D02*
X188325595Y-75502438D01*
X188325595Y-75502438D02*
X188373214Y-75550057D01*
X188373214Y-75550057D02*
X188420833Y-75645295D01*
X188420833Y-75645295D02*
X188420833Y-75788152D01*
X188420833Y-75788152D02*
X188373214Y-75883390D01*
X188373214Y-75883390D02*
X188325595Y-75931009D01*
X188325595Y-75931009D02*
X188230357Y-75978628D01*
X188230357Y-75978628D02*
X187849405Y-75978628D01*
X189277976Y-75788152D02*
X189277976Y-76454819D01*
X189039881Y-75407200D02*
X188801786Y-76121485D01*
X188801786Y-76121485D02*
X189420833Y-76121485D01*
X193233333Y-62459580D02*
X193185714Y-62507200D01*
X193185714Y-62507200D02*
X193042857Y-62554819D01*
X193042857Y-62554819D02*
X192947619Y-62554819D01*
X192947619Y-62554819D02*
X192804762Y-62507200D01*
X192804762Y-62507200D02*
X192709524Y-62411961D01*
X192709524Y-62411961D02*
X192661905Y-62316723D01*
X192661905Y-62316723D02*
X192614286Y-62126247D01*
X192614286Y-62126247D02*
X192614286Y-61983390D01*
X192614286Y-61983390D02*
X192661905Y-61792914D01*
X192661905Y-61792914D02*
X192709524Y-61697676D01*
X192709524Y-61697676D02*
X192804762Y-61602438D01*
X192804762Y-61602438D02*
X192947619Y-61554819D01*
X192947619Y-61554819D02*
X193042857Y-61554819D01*
X193042857Y-61554819D02*
X193185714Y-61602438D01*
X193185714Y-61602438D02*
X193233333Y-61650057D01*
X194090476Y-61888152D02*
X194090476Y-62554819D01*
X193852381Y-61507200D02*
X193614286Y-62221485D01*
X193614286Y-62221485D02*
X194233333Y-62221485D01*
X222157142Y-68554819D02*
X221823809Y-68078628D01*
X221585714Y-68554819D02*
X221585714Y-67554819D01*
X221585714Y-67554819D02*
X221966666Y-67554819D01*
X221966666Y-67554819D02*
X222061904Y-67602438D01*
X222061904Y-67602438D02*
X222109523Y-67650057D01*
X222109523Y-67650057D02*
X222157142Y-67745295D01*
X222157142Y-67745295D02*
X222157142Y-67888152D01*
X222157142Y-67888152D02*
X222109523Y-67983390D01*
X222109523Y-67983390D02*
X222061904Y-68031009D01*
X222061904Y-68031009D02*
X221966666Y-68078628D01*
X221966666Y-68078628D02*
X221585714Y-68078628D01*
X223109523Y-68554819D02*
X222538095Y-68554819D01*
X222823809Y-68554819D02*
X222823809Y-67554819D01*
X222823809Y-67554819D02*
X222728571Y-67697676D01*
X222728571Y-67697676D02*
X222633333Y-67792914D01*
X222633333Y-67792914D02*
X222538095Y-67840533D01*
X223728571Y-67554819D02*
X223823809Y-67554819D01*
X223823809Y-67554819D02*
X223919047Y-67602438D01*
X223919047Y-67602438D02*
X223966666Y-67650057D01*
X223966666Y-67650057D02*
X224014285Y-67745295D01*
X224014285Y-67745295D02*
X224061904Y-67935771D01*
X224061904Y-67935771D02*
X224061904Y-68173866D01*
X224061904Y-68173866D02*
X224014285Y-68364342D01*
X224014285Y-68364342D02*
X223966666Y-68459580D01*
X223966666Y-68459580D02*
X223919047Y-68507200D01*
X223919047Y-68507200D02*
X223823809Y-68554819D01*
X223823809Y-68554819D02*
X223728571Y-68554819D01*
X223728571Y-68554819D02*
X223633333Y-68507200D01*
X223633333Y-68507200D02*
X223585714Y-68459580D01*
X223585714Y-68459580D02*
X223538095Y-68364342D01*
X223538095Y-68364342D02*
X223490476Y-68173866D01*
X223490476Y-68173866D02*
X223490476Y-67935771D01*
X223490476Y-67935771D02*
X223538095Y-67745295D01*
X223538095Y-67745295D02*
X223585714Y-67650057D01*
X223585714Y-67650057D02*
X223633333Y-67602438D01*
X223633333Y-67602438D02*
X223728571Y-67554819D01*
X204654819Y-96866666D02*
X204178628Y-97199999D01*
X204654819Y-97438094D02*
X203654819Y-97438094D01*
X203654819Y-97438094D02*
X203654819Y-97057142D01*
X203654819Y-97057142D02*
X203702438Y-96961904D01*
X203702438Y-96961904D02*
X203750057Y-96914285D01*
X203750057Y-96914285D02*
X203845295Y-96866666D01*
X203845295Y-96866666D02*
X203988152Y-96866666D01*
X203988152Y-96866666D02*
X204083390Y-96914285D01*
X204083390Y-96914285D02*
X204131009Y-96961904D01*
X204131009Y-96961904D02*
X204178628Y-97057142D01*
X204178628Y-97057142D02*
X204178628Y-97438094D01*
X204654819Y-95914285D02*
X204654819Y-96485713D01*
X204654819Y-96199999D02*
X203654819Y-96199999D01*
X203654819Y-96199999D02*
X203797676Y-96295237D01*
X203797676Y-96295237D02*
X203892914Y-96390475D01*
X203892914Y-96390475D02*
X203940533Y-96485713D01*
X212657142Y-86359580D02*
X212609523Y-86407200D01*
X212609523Y-86407200D02*
X212466666Y-86454819D01*
X212466666Y-86454819D02*
X212371428Y-86454819D01*
X212371428Y-86454819D02*
X212228571Y-86407200D01*
X212228571Y-86407200D02*
X212133333Y-86311961D01*
X212133333Y-86311961D02*
X212085714Y-86216723D01*
X212085714Y-86216723D02*
X212038095Y-86026247D01*
X212038095Y-86026247D02*
X212038095Y-85883390D01*
X212038095Y-85883390D02*
X212085714Y-85692914D01*
X212085714Y-85692914D02*
X212133333Y-85597676D01*
X212133333Y-85597676D02*
X212228571Y-85502438D01*
X212228571Y-85502438D02*
X212371428Y-85454819D01*
X212371428Y-85454819D02*
X212466666Y-85454819D01*
X212466666Y-85454819D02*
X212609523Y-85502438D01*
X212609523Y-85502438D02*
X212657142Y-85550057D01*
X213609523Y-86454819D02*
X213038095Y-86454819D01*
X213323809Y-86454819D02*
X213323809Y-85454819D01*
X213323809Y-85454819D02*
X213228571Y-85597676D01*
X213228571Y-85597676D02*
X213133333Y-85692914D01*
X213133333Y-85692914D02*
X213038095Y-85740533D01*
X214228571Y-85454819D02*
X214323809Y-85454819D01*
X214323809Y-85454819D02*
X214419047Y-85502438D01*
X214419047Y-85502438D02*
X214466666Y-85550057D01*
X214466666Y-85550057D02*
X214514285Y-85645295D01*
X214514285Y-85645295D02*
X214561904Y-85835771D01*
X214561904Y-85835771D02*
X214561904Y-86073866D01*
X214561904Y-86073866D02*
X214514285Y-86264342D01*
X214514285Y-86264342D02*
X214466666Y-86359580D01*
X214466666Y-86359580D02*
X214419047Y-86407200D01*
X214419047Y-86407200D02*
X214323809Y-86454819D01*
X214323809Y-86454819D02*
X214228571Y-86454819D01*
X214228571Y-86454819D02*
X214133333Y-86407200D01*
X214133333Y-86407200D02*
X214085714Y-86359580D01*
X214085714Y-86359580D02*
X214038095Y-86264342D01*
X214038095Y-86264342D02*
X213990476Y-86073866D01*
X213990476Y-86073866D02*
X213990476Y-85835771D01*
X213990476Y-85835771D02*
X214038095Y-85645295D01*
X214038095Y-85645295D02*
X214085714Y-85550057D01*
X214085714Y-85550057D02*
X214133333Y-85502438D01*
X214133333Y-85502438D02*
X214228571Y-85454819D01*
X203383333Y-105116033D02*
X203383333Y-104416033D01*
X203383333Y-104416033D02*
X203550000Y-104416033D01*
X203550000Y-104416033D02*
X203650000Y-104449366D01*
X203650000Y-104449366D02*
X203716667Y-104516033D01*
X203716667Y-104516033D02*
X203750000Y-104582700D01*
X203750000Y-104582700D02*
X203783333Y-104716033D01*
X203783333Y-104716033D02*
X203783333Y-104816033D01*
X203783333Y-104816033D02*
X203750000Y-104949366D01*
X203750000Y-104949366D02*
X203716667Y-105016033D01*
X203716667Y-105016033D02*
X203650000Y-105082700D01*
X203650000Y-105082700D02*
X203550000Y-105116033D01*
X203550000Y-105116033D02*
X203383333Y-105116033D01*
X204050000Y-104482700D02*
X204083333Y-104449366D01*
X204083333Y-104449366D02*
X204150000Y-104416033D01*
X204150000Y-104416033D02*
X204316667Y-104416033D01*
X204316667Y-104416033D02*
X204383333Y-104449366D01*
X204383333Y-104449366D02*
X204416667Y-104482700D01*
X204416667Y-104482700D02*
X204450000Y-104549366D01*
X204450000Y-104549366D02*
X204450000Y-104616033D01*
X204450000Y-104616033D02*
X204416667Y-104716033D01*
X204416667Y-104716033D02*
X204016667Y-105116033D01*
X204016667Y-105116033D02*
X204450000Y-105116033D01*
X187849404Y-78054819D02*
X187849404Y-77054819D01*
X187849404Y-77054819D02*
X188087499Y-77054819D01*
X188087499Y-77054819D02*
X188230356Y-77102438D01*
X188230356Y-77102438D02*
X188325594Y-77197676D01*
X188325594Y-77197676D02*
X188373213Y-77292914D01*
X188373213Y-77292914D02*
X188420832Y-77483390D01*
X188420832Y-77483390D02*
X188420832Y-77626247D01*
X188420832Y-77626247D02*
X188373213Y-77816723D01*
X188373213Y-77816723D02*
X188325594Y-77911961D01*
X188325594Y-77911961D02*
X188230356Y-78007200D01*
X188230356Y-78007200D02*
X188087499Y-78054819D01*
X188087499Y-78054819D02*
X187849404Y-78054819D01*
X189325594Y-77054819D02*
X188849404Y-77054819D01*
X188849404Y-77054819D02*
X188801785Y-77531009D01*
X188801785Y-77531009D02*
X188849404Y-77483390D01*
X188849404Y-77483390D02*
X188944642Y-77435771D01*
X188944642Y-77435771D02*
X189182737Y-77435771D01*
X189182737Y-77435771D02*
X189277975Y-77483390D01*
X189277975Y-77483390D02*
X189325594Y-77531009D01*
X189325594Y-77531009D02*
X189373213Y-77626247D01*
X189373213Y-77626247D02*
X189373213Y-77864342D01*
X189373213Y-77864342D02*
X189325594Y-77959580D01*
X189325594Y-77959580D02*
X189277975Y-78007200D01*
X189277975Y-78007200D02*
X189182737Y-78054819D01*
X189182737Y-78054819D02*
X188944642Y-78054819D01*
X188944642Y-78054819D02*
X188849404Y-78007200D01*
X188849404Y-78007200D02*
X188801785Y-77959580D01*
X226609580Y-68116665D02*
X226657200Y-68164284D01*
X226657200Y-68164284D02*
X226704819Y-68307141D01*
X226704819Y-68307141D02*
X226704819Y-68402379D01*
X226704819Y-68402379D02*
X226657200Y-68545236D01*
X226657200Y-68545236D02*
X226561961Y-68640474D01*
X226561961Y-68640474D02*
X226466723Y-68688093D01*
X226466723Y-68688093D02*
X226276247Y-68735712D01*
X226276247Y-68735712D02*
X226133390Y-68735712D01*
X226133390Y-68735712D02*
X225942914Y-68688093D01*
X225942914Y-68688093D02*
X225847676Y-68640474D01*
X225847676Y-68640474D02*
X225752438Y-68545236D01*
X225752438Y-68545236D02*
X225704819Y-68402379D01*
X225704819Y-68402379D02*
X225704819Y-68307141D01*
X225704819Y-68307141D02*
X225752438Y-68164284D01*
X225752438Y-68164284D02*
X225800057Y-68116665D01*
X225704819Y-67259522D02*
X225704819Y-67449998D01*
X225704819Y-67449998D02*
X225752438Y-67545236D01*
X225752438Y-67545236D02*
X225800057Y-67592855D01*
X225800057Y-67592855D02*
X225942914Y-67688093D01*
X225942914Y-67688093D02*
X226133390Y-67735712D01*
X226133390Y-67735712D02*
X226514342Y-67735712D01*
X226514342Y-67735712D02*
X226609580Y-67688093D01*
X226609580Y-67688093D02*
X226657200Y-67640474D01*
X226657200Y-67640474D02*
X226704819Y-67545236D01*
X226704819Y-67545236D02*
X226704819Y-67354760D01*
X226704819Y-67354760D02*
X226657200Y-67259522D01*
X226657200Y-67259522D02*
X226609580Y-67211903D01*
X226609580Y-67211903D02*
X226514342Y-67164284D01*
X226514342Y-67164284D02*
X226276247Y-67164284D01*
X226276247Y-67164284D02*
X226181009Y-67211903D01*
X226181009Y-67211903D02*
X226133390Y-67259522D01*
X226133390Y-67259522D02*
X226085771Y-67354760D01*
X226085771Y-67354760D02*
X226085771Y-67545236D01*
X226085771Y-67545236D02*
X226133390Y-67640474D01*
X226133390Y-67640474D02*
X226181009Y-67688093D01*
X226181009Y-67688093D02*
X226276247Y-67735712D01*
X212857142Y-87659580D02*
X212809523Y-87707200D01*
X212809523Y-87707200D02*
X212666666Y-87754819D01*
X212666666Y-87754819D02*
X212571428Y-87754819D01*
X212571428Y-87754819D02*
X212428571Y-87707200D01*
X212428571Y-87707200D02*
X212333333Y-87611961D01*
X212333333Y-87611961D02*
X212285714Y-87516723D01*
X212285714Y-87516723D02*
X212238095Y-87326247D01*
X212238095Y-87326247D02*
X212238095Y-87183390D01*
X212238095Y-87183390D02*
X212285714Y-86992914D01*
X212285714Y-86992914D02*
X212333333Y-86897676D01*
X212333333Y-86897676D02*
X212428571Y-86802438D01*
X212428571Y-86802438D02*
X212571428Y-86754819D01*
X212571428Y-86754819D02*
X212666666Y-86754819D01*
X212666666Y-86754819D02*
X212809523Y-86802438D01*
X212809523Y-86802438D02*
X212857142Y-86850057D01*
X213809523Y-87754819D02*
X213238095Y-87754819D01*
X213523809Y-87754819D02*
X213523809Y-86754819D01*
X213523809Y-86754819D02*
X213428571Y-86897676D01*
X213428571Y-86897676D02*
X213333333Y-86992914D01*
X213333333Y-86992914D02*
X213238095Y-87040533D01*
X214190476Y-86850057D02*
X214238095Y-86802438D01*
X214238095Y-86802438D02*
X214333333Y-86754819D01*
X214333333Y-86754819D02*
X214571428Y-86754819D01*
X214571428Y-86754819D02*
X214666666Y-86802438D01*
X214666666Y-86802438D02*
X214714285Y-86850057D01*
X214714285Y-86850057D02*
X214761904Y-86945295D01*
X214761904Y-86945295D02*
X214761904Y-87040533D01*
X214761904Y-87040533D02*
X214714285Y-87183390D01*
X214714285Y-87183390D02*
X214142857Y-87754819D01*
X214142857Y-87754819D02*
X214761904Y-87754819D01*
X186954819Y-62561904D02*
X187764342Y-62561904D01*
X187764342Y-62561904D02*
X187859580Y-62514285D01*
X187859580Y-62514285D02*
X187907200Y-62466666D01*
X187907200Y-62466666D02*
X187954819Y-62371428D01*
X187954819Y-62371428D02*
X187954819Y-62180952D01*
X187954819Y-62180952D02*
X187907200Y-62085714D01*
X187907200Y-62085714D02*
X187859580Y-62038095D01*
X187859580Y-62038095D02*
X187764342Y-61990476D01*
X187764342Y-61990476D02*
X186954819Y-61990476D01*
X187954819Y-60990476D02*
X187954819Y-61561904D01*
X187954819Y-61276190D02*
X186954819Y-61276190D01*
X186954819Y-61276190D02*
X187097676Y-61371428D01*
X187097676Y-61371428D02*
X187192914Y-61466666D01*
X187192914Y-61466666D02*
X187240533Y-61561904D01*
X185954819Y-63882799D02*
X186192914Y-63882799D01*
X186097676Y-64120894D02*
X186192914Y-63882799D01*
X186192914Y-63882799D02*
X186097676Y-63644704D01*
X186383390Y-64025656D02*
X186192914Y-63882799D01*
X186192914Y-63882799D02*
X186383390Y-63739942D01*
X185954819Y-63882799D02*
X186192914Y-63882799D01*
X186097676Y-64120894D02*
X186192914Y-63882799D01*
X186192914Y-63882799D02*
X186097676Y-63644704D01*
X186383390Y-64025656D02*
X186192914Y-63882799D01*
X186192914Y-63882799D02*
X186383390Y-63739942D01*
X221059580Y-67979166D02*
X221107200Y-68026785D01*
X221107200Y-68026785D02*
X221154819Y-68169642D01*
X221154819Y-68169642D02*
X221154819Y-68264880D01*
X221154819Y-68264880D02*
X221107200Y-68407737D01*
X221107200Y-68407737D02*
X221011961Y-68502975D01*
X221011961Y-68502975D02*
X220916723Y-68550594D01*
X220916723Y-68550594D02*
X220726247Y-68598213D01*
X220726247Y-68598213D02*
X220583390Y-68598213D01*
X220583390Y-68598213D02*
X220392914Y-68550594D01*
X220392914Y-68550594D02*
X220297676Y-68502975D01*
X220297676Y-68502975D02*
X220202438Y-68407737D01*
X220202438Y-68407737D02*
X220154819Y-68264880D01*
X220154819Y-68264880D02*
X220154819Y-68169642D01*
X220154819Y-68169642D02*
X220202438Y-68026785D01*
X220202438Y-68026785D02*
X220250057Y-67979166D01*
X220154819Y-67645832D02*
X220154819Y-66979166D01*
X220154819Y-66979166D02*
X221154819Y-67407737D01*
X186333333Y-58054819D02*
X186000000Y-57578628D01*
X185761905Y-58054819D02*
X185761905Y-57054819D01*
X185761905Y-57054819D02*
X186142857Y-57054819D01*
X186142857Y-57054819D02*
X186238095Y-57102438D01*
X186238095Y-57102438D02*
X186285714Y-57150057D01*
X186285714Y-57150057D02*
X186333333Y-57245295D01*
X186333333Y-57245295D02*
X186333333Y-57388152D01*
X186333333Y-57388152D02*
X186285714Y-57483390D01*
X186285714Y-57483390D02*
X186238095Y-57531009D01*
X186238095Y-57531009D02*
X186142857Y-57578628D01*
X186142857Y-57578628D02*
X185761905Y-57578628D01*
X186666667Y-57054819D02*
X187333333Y-57054819D01*
X187333333Y-57054819D02*
X186904762Y-58054819D01*
X229954820Y-75288094D02*
X228954820Y-75288094D01*
X228954820Y-75288094D02*
X228954820Y-75049999D01*
X228954820Y-75049999D02*
X229002439Y-74907142D01*
X229002439Y-74907142D02*
X229097677Y-74811904D01*
X229097677Y-74811904D02*
X229192915Y-74764285D01*
X229192915Y-74764285D02*
X229383391Y-74716666D01*
X229383391Y-74716666D02*
X229526248Y-74716666D01*
X229526248Y-74716666D02*
X229716724Y-74764285D01*
X229716724Y-74764285D02*
X229811962Y-74811904D01*
X229811962Y-74811904D02*
X229907201Y-74907142D01*
X229907201Y-74907142D02*
X229954820Y-75049999D01*
X229954820Y-75049999D02*
X229954820Y-75288094D01*
X228954820Y-73859523D02*
X228954820Y-74049999D01*
X228954820Y-74049999D02*
X229002439Y-74145237D01*
X229002439Y-74145237D02*
X229050058Y-74192856D01*
X229050058Y-74192856D02*
X229192915Y-74288094D01*
X229192915Y-74288094D02*
X229383391Y-74335713D01*
X229383391Y-74335713D02*
X229764343Y-74335713D01*
X229764343Y-74335713D02*
X229859581Y-74288094D01*
X229859581Y-74288094D02*
X229907201Y-74240475D01*
X229907201Y-74240475D02*
X229954820Y-74145237D01*
X229954820Y-74145237D02*
X229954820Y-73954761D01*
X229954820Y-73954761D02*
X229907201Y-73859523D01*
X229907201Y-73859523D02*
X229859581Y-73811904D01*
X229859581Y-73811904D02*
X229764343Y-73764285D01*
X229764343Y-73764285D02*
X229526248Y-73764285D01*
X229526248Y-73764285D02*
X229431010Y-73811904D01*
X229431010Y-73811904D02*
X229383391Y-73859523D01*
X229383391Y-73859523D02*
X229335772Y-73954761D01*
X229335772Y-73954761D02*
X229335772Y-74145237D01*
X229335772Y-74145237D02*
X229383391Y-74240475D01*
X229383391Y-74240475D02*
X229431010Y-74288094D01*
X229431010Y-74288094D02*
X229526248Y-74335713D01*
X225059580Y-68216668D02*
X225107200Y-68264287D01*
X225107200Y-68264287D02*
X225154819Y-68407144D01*
X225154819Y-68407144D02*
X225154819Y-68502382D01*
X225154819Y-68502382D02*
X225107200Y-68645239D01*
X225107200Y-68645239D02*
X225011961Y-68740477D01*
X225011961Y-68740477D02*
X224916723Y-68788096D01*
X224916723Y-68788096D02*
X224726247Y-68835715D01*
X224726247Y-68835715D02*
X224583390Y-68835715D01*
X224583390Y-68835715D02*
X224392914Y-68788096D01*
X224392914Y-68788096D02*
X224297676Y-68740477D01*
X224297676Y-68740477D02*
X224202438Y-68645239D01*
X224202438Y-68645239D02*
X224154819Y-68502382D01*
X224154819Y-68502382D02*
X224154819Y-68407144D01*
X224154819Y-68407144D02*
X224202438Y-68264287D01*
X224202438Y-68264287D02*
X224250057Y-68216668D01*
X224154819Y-67311906D02*
X224154819Y-67788096D01*
X224154819Y-67788096D02*
X224631009Y-67835715D01*
X224631009Y-67835715D02*
X224583390Y-67788096D01*
X224583390Y-67788096D02*
X224535771Y-67692858D01*
X224535771Y-67692858D02*
X224535771Y-67454763D01*
X224535771Y-67454763D02*
X224583390Y-67359525D01*
X224583390Y-67359525D02*
X224631009Y-67311906D01*
X224631009Y-67311906D02*
X224726247Y-67264287D01*
X224726247Y-67264287D02*
X224964342Y-67264287D01*
X224964342Y-67264287D02*
X225059580Y-67311906D01*
X225059580Y-67311906D02*
X225107200Y-67359525D01*
X225107200Y-67359525D02*
X225154819Y-67454763D01*
X225154819Y-67454763D02*
X225154819Y-67692858D01*
X225154819Y-67692858D02*
X225107200Y-67788096D01*
X225107200Y-67788096D02*
X225059580Y-67835715D01*
X193233333Y-60959580D02*
X193185714Y-61007200D01*
X193185714Y-61007200D02*
X193042857Y-61054819D01*
X193042857Y-61054819D02*
X192947619Y-61054819D01*
X192947619Y-61054819D02*
X192804762Y-61007200D01*
X192804762Y-61007200D02*
X192709524Y-60911961D01*
X192709524Y-60911961D02*
X192661905Y-60816723D01*
X192661905Y-60816723D02*
X192614286Y-60626247D01*
X192614286Y-60626247D02*
X192614286Y-60483390D01*
X192614286Y-60483390D02*
X192661905Y-60292914D01*
X192661905Y-60292914D02*
X192709524Y-60197676D01*
X192709524Y-60197676D02*
X192804762Y-60102438D01*
X192804762Y-60102438D02*
X192947619Y-60054819D01*
X192947619Y-60054819D02*
X193042857Y-60054819D01*
X193042857Y-60054819D02*
X193185714Y-60102438D01*
X193185714Y-60102438D02*
X193233333Y-60150057D01*
X193566667Y-60054819D02*
X194185714Y-60054819D01*
X194185714Y-60054819D02*
X193852381Y-60435771D01*
X193852381Y-60435771D02*
X193995238Y-60435771D01*
X193995238Y-60435771D02*
X194090476Y-60483390D01*
X194090476Y-60483390D02*
X194138095Y-60531009D01*
X194138095Y-60531009D02*
X194185714Y-60626247D01*
X194185714Y-60626247D02*
X194185714Y-60864342D01*
X194185714Y-60864342D02*
X194138095Y-60959580D01*
X194138095Y-60959580D02*
X194090476Y-61007200D01*
X194090476Y-61007200D02*
X193995238Y-61054819D01*
X193995238Y-61054819D02*
X193709524Y-61054819D01*
X193709524Y-61054819D02*
X193614286Y-61007200D01*
X193614286Y-61007200D02*
X193566667Y-60959580D01*
X183326266Y-54674819D02*
X183326266Y-55389104D01*
X183326266Y-55389104D02*
X183278647Y-55531961D01*
X183278647Y-55531961D02*
X183183409Y-55627200D01*
X183183409Y-55627200D02*
X183040552Y-55674819D01*
X183040552Y-55674819D02*
X182945314Y-55674819D01*
X184231028Y-55008152D02*
X184231028Y-55674819D01*
X183992933Y-54627200D02*
X183754838Y-55341485D01*
X183754838Y-55341485D02*
X184373885Y-55341485D01*
G36*
X170238617Y-55387133D02*
G01*
X170310561Y-55459076D01*
X170344819Y-55527592D01*
X170344819Y-55682658D01*
X170310561Y-55751173D01*
X170238617Y-55823116D01*
X170077251Y-55863458D01*
X169762386Y-55863458D01*
X169601019Y-55823116D01*
X169529077Y-55751174D01*
X169494819Y-55682658D01*
X169494819Y-55527592D01*
X169529077Y-55459076D01*
X169601019Y-55387133D01*
X169762386Y-55346792D01*
X170077251Y-55346792D01*
X170238617Y-55387133D01*
G37*
G36*
X170605930Y-57076950D02*
G01*
X169233708Y-57076950D01*
X169233708Y-56462268D01*
X169344819Y-56462268D01*
X169344819Y-56700363D01*
X169346260Y-56714995D01*
X169347291Y-56717484D01*
X169347482Y-56720172D01*
X169352737Y-56733904D01*
X169400356Y-56829142D01*
X169404320Y-56835441D01*
X169405078Y-56837269D01*
X169406766Y-56839325D01*
X169408188Y-56841585D01*
X169409686Y-56842884D01*
X169414405Y-56848634D01*
X169462024Y-56896253D01*
X169467773Y-56900971D01*
X169469073Y-56902470D01*
X169471332Y-56903891D01*
X169473389Y-56905580D01*
X169475216Y-56906337D01*
X169481516Y-56910302D01*
X169576754Y-56957921D01*
X169590485Y-56963176D01*
X169593174Y-56963367D01*
X169595663Y-56964398D01*
X169610295Y-56965839D01*
X169705533Y-56965839D01*
X169720165Y-56964398D01*
X169722654Y-56963366D01*
X169725342Y-56963176D01*
X169739074Y-56957921D01*
X169834312Y-56910302D01*
X169840611Y-56906337D01*
X169842439Y-56905580D01*
X169844495Y-56903891D01*
X169846755Y-56902470D01*
X169848054Y-56900971D01*
X169853804Y-56896253D01*
X169901423Y-56848634D01*
X169906141Y-56842884D01*
X169907640Y-56841585D01*
X169909061Y-56839325D01*
X169910750Y-56837269D01*
X169911507Y-56835441D01*
X169915472Y-56829142D01*
X169963091Y-56733904D01*
X169963500Y-56732834D01*
X169963823Y-56732399D01*
X169966015Y-56726262D01*
X169968346Y-56720173D01*
X169968384Y-56719632D01*
X169968770Y-56718553D01*
X170014392Y-56536063D01*
X170052886Y-56459076D01*
X170083293Y-56428669D01*
X170151809Y-56394411D01*
X170211637Y-56394411D01*
X170280153Y-56428669D01*
X170310561Y-56459076D01*
X170344819Y-56527592D01*
X170344819Y-56735812D01*
X170301049Y-56867122D01*
X170297789Y-56881459D01*
X170299864Y-56910649D01*
X170312950Y-56936822D01*
X170335057Y-56955996D01*
X170362820Y-56965250D01*
X170392010Y-56963175D01*
X170418183Y-56950089D01*
X170437357Y-56927982D01*
X170443351Y-56914556D01*
X170490970Y-56771700D01*
X170492619Y-56764444D01*
X170493378Y-56762614D01*
X170493639Y-56759960D01*
X170494230Y-56757363D01*
X170494089Y-56755388D01*
X170494819Y-56747982D01*
X170494819Y-56509887D01*
X170493378Y-56495255D01*
X170492347Y-56492766D01*
X170492156Y-56490077D01*
X170486901Y-56476346D01*
X170439282Y-56381108D01*
X170435317Y-56374808D01*
X170434560Y-56372981D01*
X170432872Y-56370924D01*
X170431450Y-56368665D01*
X170429950Y-56367364D01*
X170425232Y-56361615D01*
X170377612Y-56313996D01*
X170371863Y-56309278D01*
X170370564Y-56307780D01*
X170368305Y-56306358D01*
X170366247Y-56304669D01*
X170364417Y-56303911D01*
X170358121Y-56299948D01*
X170262883Y-56252329D01*
X170249151Y-56247074D01*
X170246463Y-56246883D01*
X170243974Y-56245852D01*
X170229342Y-56244411D01*
X170134104Y-56244411D01*
X170119472Y-56245852D01*
X170116983Y-56246882D01*
X170114294Y-56247074D01*
X170100563Y-56252329D01*
X170005325Y-56299948D01*
X169999025Y-56303912D01*
X169997198Y-56304670D01*
X169995141Y-56306358D01*
X169992882Y-56307780D01*
X169991582Y-56309278D01*
X169985833Y-56313997D01*
X169938214Y-56361616D01*
X169933495Y-56367365D01*
X169931997Y-56368665D01*
X169930575Y-56370924D01*
X169928887Y-56372981D01*
X169928129Y-56374808D01*
X169924165Y-56381108D01*
X169876546Y-56476346D01*
X169876136Y-56477415D01*
X169875814Y-56477851D01*
X169873618Y-56483996D01*
X169871291Y-56490078D01*
X169871252Y-56490617D01*
X169870867Y-56491697D01*
X169825244Y-56674187D01*
X169786751Y-56751174D01*
X169756344Y-56781581D01*
X169687828Y-56815839D01*
X169628000Y-56815839D01*
X169559484Y-56781581D01*
X169529077Y-56751174D01*
X169494819Y-56682658D01*
X169494819Y-56474438D01*
X169538589Y-56343129D01*
X169541849Y-56328792D01*
X169539774Y-56299602D01*
X169526688Y-56273428D01*
X169504580Y-56254254D01*
X169476818Y-56245000D01*
X169447628Y-56247075D01*
X169421455Y-56260162D01*
X169402281Y-56282269D01*
X169396287Y-56295694D01*
X169348668Y-56438551D01*
X169347018Y-56445804D01*
X169346260Y-56447636D01*
X169345998Y-56450290D01*
X169345408Y-56452888D01*
X169345548Y-56454862D01*
X169344819Y-56462268D01*
X169233708Y-56462268D01*
X169233708Y-55509887D01*
X169344819Y-55509887D01*
X169344819Y-55700363D01*
X169346260Y-55714995D01*
X169347291Y-55717484D01*
X169347482Y-55720172D01*
X169352737Y-55733904D01*
X169400356Y-55829142D01*
X169404320Y-55835441D01*
X169405078Y-55837269D01*
X169406766Y-55839325D01*
X169408188Y-55841585D01*
X169409686Y-55842884D01*
X169414405Y-55848634D01*
X169509643Y-55943872D01*
X169521008Y-55953200D01*
X169526161Y-55955334D01*
X169530640Y-55958653D01*
X169544486Y-55963600D01*
X169734962Y-56011219D01*
X169737498Y-56011594D01*
X169738520Y-56012017D01*
X169744032Y-56012559D01*
X169749506Y-56013369D01*
X169750598Y-56013206D01*
X169753152Y-56013458D01*
X170086485Y-56013458D01*
X170089038Y-56013206D01*
X170090131Y-56013369D01*
X170095604Y-56012559D01*
X170101117Y-56012017D01*
X170102138Y-56011594D01*
X170104675Y-56011219D01*
X170295151Y-55963600D01*
X170308997Y-55958653D01*
X170313476Y-55955333D01*
X170318628Y-55953200D01*
X170329994Y-55943872D01*
X170425233Y-55848634D01*
X170429953Y-55842883D01*
X170431450Y-55841585D01*
X170432869Y-55839330D01*
X170434561Y-55837269D01*
X170435319Y-55835436D01*
X170439282Y-55829142D01*
X170486901Y-55733904D01*
X170492156Y-55720173D01*
X170492347Y-55717483D01*
X170493378Y-55714995D01*
X170494819Y-55700363D01*
X170494819Y-55509887D01*
X170493378Y-55495255D01*
X170492347Y-55492766D01*
X170492156Y-55490077D01*
X170486901Y-55476346D01*
X170439282Y-55381108D01*
X170435319Y-55374813D01*
X170434561Y-55372981D01*
X170432869Y-55370919D01*
X170431450Y-55368665D01*
X170429953Y-55367366D01*
X170425233Y-55361616D01*
X170329994Y-55266378D01*
X170318628Y-55257050D01*
X170313476Y-55254916D01*
X170308997Y-55251597D01*
X170295151Y-55246650D01*
X170104675Y-55199031D01*
X170102138Y-55198655D01*
X170101117Y-55198233D01*
X170095604Y-55197690D01*
X170090131Y-55196881D01*
X170089038Y-55197043D01*
X170086485Y-55196792D01*
X169753152Y-55196792D01*
X169750598Y-55197043D01*
X169749506Y-55196881D01*
X169744032Y-55197690D01*
X169738520Y-55198233D01*
X169737498Y-55198655D01*
X169734962Y-55199031D01*
X169544486Y-55246650D01*
X169530640Y-55251597D01*
X169526161Y-55254915D01*
X169521008Y-55257050D01*
X169509643Y-55266378D01*
X169414405Y-55361616D01*
X169409686Y-55367365D01*
X169408188Y-55368665D01*
X169406766Y-55370924D01*
X169405078Y-55372981D01*
X169404320Y-55374808D01*
X169400356Y-55381108D01*
X169352737Y-55476346D01*
X169347482Y-55490078D01*
X169347291Y-55492765D01*
X169346260Y-55495255D01*
X169344819Y-55509887D01*
X169233708Y-55509887D01*
X169233708Y-54187942D01*
X169345689Y-54187942D01*
X169346260Y-54189512D01*
X169346260Y-54191186D01*
X169351241Y-54203212D01*
X169355689Y-54215443D01*
X169356818Y-54216676D01*
X169357459Y-54218222D01*
X169366664Y-54227427D01*
X169375453Y-54237024D01*
X169377435Y-54238198D01*
X169378151Y-54238914D01*
X169379787Y-54239592D01*
X169388103Y-54244518D01*
X169956750Y-54509887D01*
X169388103Y-54775256D01*
X169379787Y-54780181D01*
X169378151Y-54780860D01*
X169377435Y-54781575D01*
X169375453Y-54782750D01*
X169366664Y-54792346D01*
X169357459Y-54801552D01*
X169356818Y-54803097D01*
X169355689Y-54804331D01*
X169351241Y-54816561D01*
X169346260Y-54828588D01*
X169346260Y-54830261D01*
X169345689Y-54831832D01*
X169346260Y-54844833D01*
X169346260Y-54857852D01*
X169346899Y-54859396D01*
X169346973Y-54861068D01*
X169352479Y-54872866D01*
X169357459Y-54884888D01*
X169358641Y-54886070D01*
X169359349Y-54887586D01*
X169368945Y-54896374D01*
X169378151Y-54905580D01*
X169379696Y-54906220D01*
X169380930Y-54907350D01*
X169393160Y-54911797D01*
X169405187Y-54916779D01*
X169407482Y-54917005D01*
X169408431Y-54917350D01*
X169410197Y-54917272D01*
X169419819Y-54918220D01*
X170419819Y-54918220D01*
X170434451Y-54916779D01*
X170461487Y-54905580D01*
X170482179Y-54884888D01*
X170493378Y-54857852D01*
X170493378Y-54828588D01*
X170482179Y-54801552D01*
X170461487Y-54780860D01*
X170434451Y-54769661D01*
X170419819Y-54768220D01*
X169757887Y-54768220D01*
X170165821Y-54577851D01*
X170171180Y-54574676D01*
X170172993Y-54574017D01*
X170174275Y-54572842D01*
X170178471Y-54570357D01*
X170186168Y-54561951D01*
X170194575Y-54554253D01*
X170195984Y-54551232D01*
X170198234Y-54548776D01*
X170202128Y-54538066D01*
X170206950Y-54527735D01*
X170207096Y-54524406D01*
X170208235Y-54521275D01*
X170207734Y-54509887D01*
X170208235Y-54498499D01*
X170207096Y-54495367D01*
X170206950Y-54492039D01*
X170202128Y-54481707D01*
X170198234Y-54470998D01*
X170195984Y-54468541D01*
X170194575Y-54465521D01*
X170186168Y-54457822D01*
X170178471Y-54449417D01*
X170174275Y-54446931D01*
X170172993Y-54445757D01*
X170171180Y-54445097D01*
X170165821Y-54441923D01*
X169757887Y-54251554D01*
X170419819Y-54251554D01*
X170434451Y-54250113D01*
X170461487Y-54238914D01*
X170482179Y-54218222D01*
X170493378Y-54191186D01*
X170493378Y-54161922D01*
X170482179Y-54134886D01*
X170461487Y-54114194D01*
X170434451Y-54102995D01*
X170419819Y-54101554D01*
X169419819Y-54101554D01*
X169410197Y-54102501D01*
X169408431Y-54102424D01*
X169407482Y-54102768D01*
X169405187Y-54102995D01*
X169393160Y-54107976D01*
X169380930Y-54112424D01*
X169379696Y-54113553D01*
X169378151Y-54114194D01*
X169368945Y-54123399D01*
X169359349Y-54132188D01*
X169358641Y-54133703D01*
X169357459Y-54134886D01*
X169352479Y-54146907D01*
X169346973Y-54158706D01*
X169346899Y-54160377D01*
X169346260Y-54161922D01*
X169346260Y-54174940D01*
X169345689Y-54187942D01*
X169233708Y-54187942D01*
X169233708Y-53990443D01*
X170605930Y-53990443D01*
X170605930Y-57076950D01*
G37*
X188754819Y-68141667D02*
X188278628Y-68475000D01*
X188754819Y-68713095D02*
X187754819Y-68713095D01*
X187754819Y-68713095D02*
X187754819Y-68332143D01*
X187754819Y-68332143D02*
X187802438Y-68236905D01*
X187802438Y-68236905D02*
X187850057Y-68189286D01*
X187850057Y-68189286D02*
X187945295Y-68141667D01*
X187945295Y-68141667D02*
X188088152Y-68141667D01*
X188088152Y-68141667D02*
X188183390Y-68189286D01*
X188183390Y-68189286D02*
X188231009Y-68236905D01*
X188231009Y-68236905D02*
X188278628Y-68332143D01*
X188278628Y-68332143D02*
X188278628Y-68713095D01*
X188183390Y-67570238D02*
X188135771Y-67665476D01*
X188135771Y-67665476D02*
X188088152Y-67713095D01*
X188088152Y-67713095D02*
X187992914Y-67760714D01*
X187992914Y-67760714D02*
X187945295Y-67760714D01*
X187945295Y-67760714D02*
X187850057Y-67713095D01*
X187850057Y-67713095D02*
X187802438Y-67665476D01*
X187802438Y-67665476D02*
X187754819Y-67570238D01*
X187754819Y-67570238D02*
X187754819Y-67379762D01*
X187754819Y-67379762D02*
X187802438Y-67284524D01*
X187802438Y-67284524D02*
X187850057Y-67236905D01*
X187850057Y-67236905D02*
X187945295Y-67189286D01*
X187945295Y-67189286D02*
X187992914Y-67189286D01*
X187992914Y-67189286D02*
X188088152Y-67236905D01*
X188088152Y-67236905D02*
X188135771Y-67284524D01*
X188135771Y-67284524D02*
X188183390Y-67379762D01*
X188183390Y-67379762D02*
X188183390Y-67570238D01*
X188183390Y-67570238D02*
X188231009Y-67665476D01*
X188231009Y-67665476D02*
X188278628Y-67713095D01*
X188278628Y-67713095D02*
X188373866Y-67760714D01*
X188373866Y-67760714D02*
X188564342Y-67760714D01*
X188564342Y-67760714D02*
X188659580Y-67713095D01*
X188659580Y-67713095D02*
X188707200Y-67665476D01*
X188707200Y-67665476D02*
X188754819Y-67570238D01*
X188754819Y-67570238D02*
X188754819Y-67379762D01*
X188754819Y-67379762D02*
X188707200Y-67284524D01*
X188707200Y-67284524D02*
X188659580Y-67236905D01*
X188659580Y-67236905D02*
X188564342Y-67189286D01*
X188564342Y-67189286D02*
X188373866Y-67189286D01*
X188373866Y-67189286D02*
X188278628Y-67236905D01*
X188278628Y-67236905D02*
X188231009Y-67284524D01*
X188231009Y-67284524D02*
X188183390Y-67379762D01*
X186634819Y-41683333D02*
X187349104Y-41683333D01*
X187349104Y-41683333D02*
X187491961Y-41730952D01*
X187491961Y-41730952D02*
X187587200Y-41826190D01*
X187587200Y-41826190D02*
X187634819Y-41969047D01*
X187634819Y-41969047D02*
X187634819Y-42064285D01*
X186634819Y-41302380D02*
X186634819Y-40683333D01*
X186634819Y-40683333D02*
X187015771Y-41016666D01*
X187015771Y-41016666D02*
X187015771Y-40873809D01*
X187015771Y-40873809D02*
X187063390Y-40778571D01*
X187063390Y-40778571D02*
X187111009Y-40730952D01*
X187111009Y-40730952D02*
X187206247Y-40683333D01*
X187206247Y-40683333D02*
X187444342Y-40683333D01*
X187444342Y-40683333D02*
X187539580Y-40730952D01*
X187539580Y-40730952D02*
X187587200Y-40778571D01*
X187587200Y-40778571D02*
X187634819Y-40873809D01*
X187634819Y-40873809D02*
X187634819Y-41159523D01*
X187634819Y-41159523D02*
X187587200Y-41254761D01*
X187587200Y-41254761D02*
X187539580Y-41302380D01*
X230861905Y-72254819D02*
X230861905Y-71254819D01*
X230861905Y-71254819D02*
X231100000Y-71254819D01*
X231100000Y-71254819D02*
X231242857Y-71302438D01*
X231242857Y-71302438D02*
X231338095Y-71397676D01*
X231338095Y-71397676D02*
X231385714Y-71492914D01*
X231385714Y-71492914D02*
X231433333Y-71683390D01*
X231433333Y-71683390D02*
X231433333Y-71826247D01*
X231433333Y-71826247D02*
X231385714Y-72016723D01*
X231385714Y-72016723D02*
X231338095Y-72111961D01*
X231338095Y-72111961D02*
X231242857Y-72207200D01*
X231242857Y-72207200D02*
X231100000Y-72254819D01*
X231100000Y-72254819D02*
X230861905Y-72254819D01*
X231766667Y-71254819D02*
X232385714Y-71254819D01*
X232385714Y-71254819D02*
X232052381Y-71635771D01*
X232052381Y-71635771D02*
X232195238Y-71635771D01*
X232195238Y-71635771D02*
X232290476Y-71683390D01*
X232290476Y-71683390D02*
X232338095Y-71731009D01*
X232338095Y-71731009D02*
X232385714Y-71826247D01*
X232385714Y-71826247D02*
X232385714Y-72064342D01*
X232385714Y-72064342D02*
X232338095Y-72159580D01*
X232338095Y-72159580D02*
X232290476Y-72207200D01*
X232290476Y-72207200D02*
X232195238Y-72254819D01*
X232195238Y-72254819D02*
X231909524Y-72254819D01*
X231909524Y-72254819D02*
X231814286Y-72207200D01*
X231814286Y-72207200D02*
X231766667Y-72159580D01*
X193433333Y-64059580D02*
X193385714Y-64107200D01*
X193385714Y-64107200D02*
X193242857Y-64154819D01*
X193242857Y-64154819D02*
X193147619Y-64154819D01*
X193147619Y-64154819D02*
X193004762Y-64107200D01*
X193004762Y-64107200D02*
X192909524Y-64011961D01*
X192909524Y-64011961D02*
X192861905Y-63916723D01*
X192861905Y-63916723D02*
X192814286Y-63726247D01*
X192814286Y-63726247D02*
X192814286Y-63583390D01*
X192814286Y-63583390D02*
X192861905Y-63392914D01*
X192861905Y-63392914D02*
X192909524Y-63297676D01*
X192909524Y-63297676D02*
X193004762Y-63202438D01*
X193004762Y-63202438D02*
X193147619Y-63154819D01*
X193147619Y-63154819D02*
X193242857Y-63154819D01*
X193242857Y-63154819D02*
X193385714Y-63202438D01*
X193385714Y-63202438D02*
X193433333Y-63250057D01*
X194385714Y-64154819D02*
X193814286Y-64154819D01*
X194100000Y-64154819D02*
X194100000Y-63154819D01*
X194100000Y-63154819D02*
X194004762Y-63297676D01*
X194004762Y-63297676D02*
X193909524Y-63392914D01*
X193909524Y-63392914D02*
X193814286Y-63440533D01*
X212757142Y-88859580D02*
X212709523Y-88907200D01*
X212709523Y-88907200D02*
X212566666Y-88954819D01*
X212566666Y-88954819D02*
X212471428Y-88954819D01*
X212471428Y-88954819D02*
X212328571Y-88907200D01*
X212328571Y-88907200D02*
X212233333Y-88811961D01*
X212233333Y-88811961D02*
X212185714Y-88716723D01*
X212185714Y-88716723D02*
X212138095Y-88526247D01*
X212138095Y-88526247D02*
X212138095Y-88383390D01*
X212138095Y-88383390D02*
X212185714Y-88192914D01*
X212185714Y-88192914D02*
X212233333Y-88097676D01*
X212233333Y-88097676D02*
X212328571Y-88002438D01*
X212328571Y-88002438D02*
X212471428Y-87954819D01*
X212471428Y-87954819D02*
X212566666Y-87954819D01*
X212566666Y-87954819D02*
X212709523Y-88002438D01*
X212709523Y-88002438D02*
X212757142Y-88050057D01*
X213709523Y-88954819D02*
X213138095Y-88954819D01*
X213423809Y-88954819D02*
X213423809Y-87954819D01*
X213423809Y-87954819D02*
X213328571Y-88097676D01*
X213328571Y-88097676D02*
X213233333Y-88192914D01*
X213233333Y-88192914D02*
X213138095Y-88240533D01*
X214661904Y-88954819D02*
X214090476Y-88954819D01*
X214376190Y-88954819D02*
X214376190Y-87954819D01*
X214376190Y-87954819D02*
X214280952Y-88097676D01*
X214280952Y-88097676D02*
X214185714Y-88192914D01*
X214185714Y-88192914D02*
X214090476Y-88240533D01*
X192254819Y-68966666D02*
X191778628Y-69299999D01*
X192254819Y-69538094D02*
X191254819Y-69538094D01*
X191254819Y-69538094D02*
X191254819Y-69157142D01*
X191254819Y-69157142D02*
X191302438Y-69061904D01*
X191302438Y-69061904D02*
X191350057Y-69014285D01*
X191350057Y-69014285D02*
X191445295Y-68966666D01*
X191445295Y-68966666D02*
X191588152Y-68966666D01*
X191588152Y-68966666D02*
X191683390Y-69014285D01*
X191683390Y-69014285D02*
X191731009Y-69061904D01*
X191731009Y-69061904D02*
X191778628Y-69157142D01*
X191778628Y-69157142D02*
X191778628Y-69538094D01*
X191254819Y-68633332D02*
X191254819Y-68014285D01*
X191254819Y-68014285D02*
X191635771Y-68347618D01*
X191635771Y-68347618D02*
X191635771Y-68204761D01*
X191635771Y-68204761D02*
X191683390Y-68109523D01*
X191683390Y-68109523D02*
X191731009Y-68061904D01*
X191731009Y-68061904D02*
X191826247Y-68014285D01*
X191826247Y-68014285D02*
X192064342Y-68014285D01*
X192064342Y-68014285D02*
X192159580Y-68061904D01*
X192159580Y-68061904D02*
X192207200Y-68109523D01*
X192207200Y-68109523D02*
X192254819Y-68204761D01*
X192254819Y-68204761D02*
X192254819Y-68490475D01*
X192254819Y-68490475D02*
X192207200Y-68585713D01*
X192207200Y-68585713D02*
X192159580Y-68633332D01*
X190554819Y-69738094D02*
X189554819Y-69738094D01*
X189554819Y-69738094D02*
X189554819Y-69499999D01*
X189554819Y-69499999D02*
X189602438Y-69357142D01*
X189602438Y-69357142D02*
X189697676Y-69261904D01*
X189697676Y-69261904D02*
X189792914Y-69214285D01*
X189792914Y-69214285D02*
X189983390Y-69166666D01*
X189983390Y-69166666D02*
X190126247Y-69166666D01*
X190126247Y-69166666D02*
X190316723Y-69214285D01*
X190316723Y-69214285D02*
X190411961Y-69261904D01*
X190411961Y-69261904D02*
X190507200Y-69357142D01*
X190507200Y-69357142D02*
X190554819Y-69499999D01*
X190554819Y-69499999D02*
X190554819Y-69738094D01*
X189888152Y-68309523D02*
X190554819Y-68309523D01*
X189507200Y-68547618D02*
X190221485Y-68785713D01*
X190221485Y-68785713D02*
X190221485Y-68166666D01*
X220754819Y-71466666D02*
X220278628Y-71799999D01*
X220754819Y-72038094D02*
X219754819Y-72038094D01*
X219754819Y-72038094D02*
X219754819Y-71657142D01*
X219754819Y-71657142D02*
X219802438Y-71561904D01*
X219802438Y-71561904D02*
X219850057Y-71514285D01*
X219850057Y-71514285D02*
X219945295Y-71466666D01*
X219945295Y-71466666D02*
X220088152Y-71466666D01*
X220088152Y-71466666D02*
X220183390Y-71514285D01*
X220183390Y-71514285D02*
X220231009Y-71561904D01*
X220231009Y-71561904D02*
X220278628Y-71657142D01*
X220278628Y-71657142D02*
X220278628Y-72038094D01*
X220754819Y-70990475D02*
X220754819Y-70799999D01*
X220754819Y-70799999D02*
X220707200Y-70704761D01*
X220707200Y-70704761D02*
X220659580Y-70657142D01*
X220659580Y-70657142D02*
X220516723Y-70561904D01*
X220516723Y-70561904D02*
X220326247Y-70514285D01*
X220326247Y-70514285D02*
X219945295Y-70514285D01*
X219945295Y-70514285D02*
X219850057Y-70561904D01*
X219850057Y-70561904D02*
X219802438Y-70609523D01*
X219802438Y-70609523D02*
X219754819Y-70704761D01*
X219754819Y-70704761D02*
X219754819Y-70895237D01*
X219754819Y-70895237D02*
X219802438Y-70990475D01*
X219802438Y-70990475D02*
X219850057Y-71038094D01*
X219850057Y-71038094D02*
X219945295Y-71085713D01*
X219945295Y-71085713D02*
X220183390Y-71085713D01*
X220183390Y-71085713D02*
X220278628Y-71038094D01*
X220278628Y-71038094D02*
X220326247Y-70990475D01*
X220326247Y-70990475D02*
X220373866Y-70895237D01*
X220373866Y-70895237D02*
X220373866Y-70704761D01*
X220373866Y-70704761D02*
X220326247Y-70609523D01*
X220326247Y-70609523D02*
X220278628Y-70561904D01*
X220278628Y-70561904D02*
X220183390Y-70514285D01*
X168057142Y-58529580D02*
X168009523Y-58577200D01*
X168009523Y-58577200D02*
X167866666Y-58624819D01*
X167866666Y-58624819D02*
X167771428Y-58624819D01*
X167771428Y-58624819D02*
X167628571Y-58577200D01*
X167628571Y-58577200D02*
X167533333Y-58481961D01*
X167533333Y-58481961D02*
X167485714Y-58386723D01*
X167485714Y-58386723D02*
X167438095Y-58196247D01*
X167438095Y-58196247D02*
X167438095Y-58053390D01*
X167438095Y-58053390D02*
X167485714Y-57862914D01*
X167485714Y-57862914D02*
X167533333Y-57767676D01*
X167533333Y-57767676D02*
X167628571Y-57672438D01*
X167628571Y-57672438D02*
X167771428Y-57624819D01*
X167771428Y-57624819D02*
X167866666Y-57624819D01*
X167866666Y-57624819D02*
X168009523Y-57672438D01*
X168009523Y-57672438D02*
X168057142Y-57720057D01*
X169009523Y-58624819D02*
X168438095Y-58624819D01*
X168723809Y-58624819D02*
X168723809Y-57624819D01*
X168723809Y-57624819D02*
X168628571Y-57767676D01*
X168628571Y-57767676D02*
X168533333Y-57862914D01*
X168533333Y-57862914D02*
X168438095Y-57910533D01*
X169342857Y-57624819D02*
X169961904Y-57624819D01*
X169961904Y-57624819D02*
X169628571Y-58005771D01*
X169628571Y-58005771D02*
X169771428Y-58005771D01*
X169771428Y-58005771D02*
X169866666Y-58053390D01*
X169866666Y-58053390D02*
X169914285Y-58101009D01*
X169914285Y-58101009D02*
X169961904Y-58196247D01*
X169961904Y-58196247D02*
X169961904Y-58434342D01*
X169961904Y-58434342D02*
X169914285Y-58529580D01*
X169914285Y-58529580D02*
X169866666Y-58577200D01*
X169866666Y-58577200D02*
X169771428Y-58624819D01*
X169771428Y-58624819D02*
X169485714Y-58624819D01*
X169485714Y-58624819D02*
X169390476Y-58577200D01*
X169390476Y-58577200D02*
X169342857Y-58529580D01*
D11*
%TO.C,C9*%
X227040002Y-77853735D02*
X227040002Y-78146269D01*
X228060002Y-77853735D02*
X228060002Y-78146269D01*
%TO.C,C8*%
X219929001Y-77531069D02*
X219929001Y-77238535D01*
X220949001Y-77531069D02*
X220949001Y-77238535D01*
%TO.C,J11*%
X184520000Y-48830000D02*
X184520000Y-48720000D01*
X187279999Y-50100000D02*
X187280000Y-51480000D01*
X187280000Y-48720000D02*
X184520000Y-48720000D01*
X187280000Y-48830000D02*
X184520000Y-48830000D01*
X187280000Y-48830000D02*
X187280000Y-48720000D01*
X187280000Y-51480000D02*
X185900000Y-51479999D01*
%TO.C,R2*%
X230345276Y-69377500D02*
X230854724Y-69377500D01*
X230345276Y-70422500D02*
X230854724Y-70422500D01*
D12*
%TO.C,G\u002A\u002A\u002A*%
G36*
X204979410Y-80355915D02*
G01*
X205249692Y-80359436D01*
X205253011Y-81678282D01*
X205256329Y-82997128D01*
X204982729Y-82997128D01*
X204709128Y-82997128D01*
X204709128Y-81674761D01*
X204709128Y-80352394D01*
X204979410Y-80355915D01*
G37*
G36*
X200206147Y-80186608D02*
G01*
X200299191Y-80204669D01*
X200377262Y-80243341D01*
X200439740Y-80300272D01*
X200481588Y-80361888D01*
X200505788Y-80431205D01*
X200514609Y-80515181D01*
X200514744Y-80530280D01*
X200502937Y-80620336D01*
X200469924Y-80699050D01*
X200418847Y-80764349D01*
X200352846Y-80814160D01*
X200275063Y-80846410D01*
X200188639Y-80859026D01*
X200096715Y-80849935D01*
X200050279Y-80836811D01*
X199965611Y-80797831D01*
X199902617Y-80745979D01*
X199860063Y-80679443D01*
X199836712Y-80596415D01*
X199831026Y-80515743D01*
X199832259Y-80459080D01*
X199837367Y-80418829D01*
X199848458Y-80385411D01*
X199867642Y-80349245D01*
X199867717Y-80349117D01*
X199924484Y-80276534D01*
X199996589Y-80224490D01*
X200082368Y-80193782D01*
X200180158Y-80185210D01*
X200206147Y-80186608D01*
G37*
G36*
X208813566Y-81086254D02*
G01*
X208895318Y-81100107D01*
X208895396Y-81100126D01*
X209020253Y-81142945D01*
X209134066Y-81206928D01*
X209233546Y-81289449D01*
X209315405Y-81387884D01*
X209365594Y-81475477D01*
X209385092Y-81517061D01*
X209401537Y-81554005D01*
X209415208Y-81588915D01*
X209426384Y-81624398D01*
X209435343Y-81663057D01*
X209442364Y-81707500D01*
X209447723Y-81760331D01*
X209451701Y-81824158D01*
X209454576Y-81901585D01*
X209456625Y-81995218D01*
X209458127Y-82107662D01*
X209459360Y-82241525D01*
X209460312Y-82362128D01*
X209465256Y-82997128D01*
X209191569Y-82997128D01*
X208917881Y-82997128D01*
X208913547Y-82414230D01*
X208912451Y-82274905D01*
X208911346Y-82159127D01*
X208910116Y-82064391D01*
X208908643Y-81988194D01*
X208906813Y-81928031D01*
X208904507Y-81881399D01*
X208901611Y-81845794D01*
X208898007Y-81818710D01*
X208893580Y-81797644D01*
X208888212Y-81780092D01*
X208883503Y-81767739D01*
X208843371Y-81693355D01*
X208789628Y-81629689D01*
X208728051Y-81582943D01*
X208697992Y-81568561D01*
X208632676Y-81552249D01*
X208554452Y-81545997D01*
X208474542Y-81550054D01*
X208412214Y-81562212D01*
X208336015Y-81597244D01*
X208268390Y-81653833D01*
X208212351Y-81728086D01*
X208170906Y-81816111D01*
X208148720Y-81902974D01*
X208145434Y-81936704D01*
X208142467Y-81993367D01*
X208139892Y-82069846D01*
X208137783Y-82163025D01*
X208136212Y-82269784D01*
X208135252Y-82387009D01*
X208134970Y-82492384D01*
X208134872Y-82997128D01*
X207867437Y-82997128D01*
X207771386Y-82996718D01*
X207698862Y-82995390D01*
X207647351Y-82992993D01*
X207614339Y-82989377D01*
X207597314Y-82984395D01*
X207593784Y-82980846D01*
X207592799Y-82965416D01*
X207591956Y-82926061D01*
X207591261Y-82864907D01*
X207590721Y-82784082D01*
X207590342Y-82685710D01*
X207590131Y-82571920D01*
X207590094Y-82444835D01*
X207590238Y-82306584D01*
X207590569Y-82159292D01*
X207590937Y-82046256D01*
X207594308Y-81127948D01*
X207797968Y-81124369D01*
X208001629Y-81120789D01*
X208010184Y-81156933D01*
X208018718Y-81190493D01*
X208031001Y-81236021D01*
X208038316Y-81262231D01*
X208057893Y-81331386D01*
X208129620Y-81265832D01*
X208225874Y-81194103D01*
X208340866Y-81136558D01*
X208447487Y-81101183D01*
X208525528Y-81086945D01*
X208619001Y-81079696D01*
X208718237Y-81079458D01*
X208813566Y-81086254D01*
G37*
G36*
X203710563Y-81078167D02*
G01*
X203846872Y-81091872D01*
X203959093Y-81114946D01*
X204080330Y-81158704D01*
X204187229Y-81221121D01*
X204277686Y-81299925D01*
X204349595Y-81392848D01*
X204400851Y-81497619D01*
X204429348Y-81611970D01*
X204430822Y-81623480D01*
X204439243Y-81695127D01*
X204182195Y-81691589D01*
X203925148Y-81688051D01*
X203907374Y-81635948D01*
X203874803Y-81576866D01*
X203823856Y-81526470D01*
X203762152Y-81491736D01*
X203743021Y-81485504D01*
X203684071Y-81475898D01*
X203615634Y-81474308D01*
X203546558Y-81480023D01*
X203485693Y-81492331D01*
X203443314Y-81509618D01*
X203397547Y-81550881D01*
X203372000Y-81602164D01*
X203367799Y-81657615D01*
X203386067Y-81711379D01*
X203400592Y-81731908D01*
X203426161Y-81755827D01*
X203462492Y-81777954D01*
X203512607Y-81799413D01*
X203579530Y-81821331D01*
X203666287Y-81844833D01*
X203771566Y-81870054D01*
X203906212Y-81903697D01*
X204018634Y-81938050D01*
X204112650Y-81974514D01*
X204192081Y-82014491D01*
X204231321Y-82038740D01*
X204325038Y-82114366D01*
X204395578Y-82201720D01*
X204443357Y-82301487D01*
X204468793Y-82414349D01*
X204470587Y-82431156D01*
X204469168Y-82543569D01*
X204443989Y-82647433D01*
X204396256Y-82741646D01*
X204327174Y-82825104D01*
X204237947Y-82896703D01*
X204129781Y-82955342D01*
X204003881Y-82999916D01*
X203861453Y-83029323D01*
X203810247Y-83035592D01*
X203732756Y-83042882D01*
X203671812Y-83046494D01*
X203618167Y-83046389D01*
X203562572Y-83042531D01*
X203495780Y-83034882D01*
X203491231Y-83034303D01*
X203347384Y-83005930D01*
X203214128Y-82959696D01*
X203096997Y-82897555D01*
X203088512Y-82891971D01*
X203000959Y-82825558D01*
X202934098Y-82755705D01*
X202882681Y-82676543D01*
X202866501Y-82643678D01*
X202850681Y-82601790D01*
X202836011Y-82550410D01*
X202823936Y-82496685D01*
X202815899Y-82447762D01*
X202813346Y-82410790D01*
X202816179Y-82394692D01*
X202830373Y-82391710D01*
X202866595Y-82389096D01*
X202920819Y-82386997D01*
X202989024Y-82385561D01*
X203067185Y-82384937D01*
X203081444Y-82384923D01*
X203340939Y-82384923D01*
X203348496Y-82420743D01*
X203375236Y-82497934D01*
X203419598Y-82557418D01*
X203482350Y-82599689D01*
X203564264Y-82625239D01*
X203666108Y-82634559D01*
X203683120Y-82634588D01*
X203763598Y-82626776D01*
X203832738Y-82606076D01*
X203885447Y-82574429D01*
X203908729Y-82548537D01*
X203927293Y-82499308D01*
X203928790Y-82442356D01*
X203913332Y-82389544D01*
X203907132Y-82378834D01*
X203874805Y-82346895D01*
X203821832Y-82314557D01*
X203753457Y-82284304D01*
X203674926Y-82258619D01*
X203629351Y-82247348D01*
X203486899Y-82214711D01*
X203367297Y-82183788D01*
X203267502Y-82153407D01*
X203184475Y-82122395D01*
X203115172Y-82089579D01*
X203056553Y-82053787D01*
X203005577Y-82013846D01*
X202992156Y-82001663D01*
X202920287Y-81917366D01*
X202870271Y-81821011D01*
X202842746Y-81715655D01*
X202838348Y-81604353D01*
X202857712Y-81490164D01*
X202874748Y-81437580D01*
X202906532Y-81376266D01*
X202954670Y-81311425D01*
X203012171Y-81251096D01*
X203072047Y-81203316D01*
X203085989Y-81194613D01*
X203185087Y-81148324D01*
X203302560Y-81113036D01*
X203432941Y-81089248D01*
X203570764Y-81077459D01*
X203710563Y-81078167D01*
G37*
G36*
X200446601Y-82179769D02*
G01*
X200445809Y-82370798D01*
X200445052Y-82537587D01*
X200444280Y-82681944D01*
X200443444Y-82805680D01*
X200442495Y-82910605D01*
X200441384Y-82998528D01*
X200440061Y-83071261D01*
X200438478Y-83130612D01*
X200436586Y-83178391D01*
X200434334Y-83216410D01*
X200431675Y-83246477D01*
X200428560Y-83270402D01*
X200424938Y-83289997D01*
X200420760Y-83307070D01*
X200415979Y-83323431D01*
X200415520Y-83324922D01*
X200388726Y-83411741D01*
X200422187Y-83399019D01*
X200515218Y-83372238D01*
X200628179Y-83354294D01*
X200756257Y-83345868D01*
X200801436Y-83345292D01*
X200881452Y-83346384D01*
X200945245Y-83350435D01*
X201002582Y-83358598D01*
X201063228Y-83372027D01*
X201092635Y-83379675D01*
X201250468Y-83433989D01*
X201391015Y-83507768D01*
X201514382Y-83601084D01*
X201620676Y-83714006D01*
X201642414Y-83742344D01*
X201681786Y-83803585D01*
X201720298Y-83877140D01*
X201753693Y-83953680D01*
X201777718Y-84023875D01*
X201785224Y-84055461D01*
X201794284Y-84104307D01*
X201533559Y-84104307D01*
X201272834Y-84104307D01*
X201239753Y-84047859D01*
X201177997Y-83967191D01*
X201098235Y-83901045D01*
X201005273Y-83851366D01*
X200903916Y-83820096D01*
X200798973Y-83809179D01*
X200695249Y-83820559D01*
X200684215Y-83823231D01*
X200575169Y-83861615D01*
X200486259Y-83915586D01*
X200420343Y-83981850D01*
X200363309Y-84075086D01*
X200326616Y-84176369D01*
X200309589Y-84281949D01*
X200311555Y-84388075D01*
X200331842Y-84490996D01*
X200369775Y-84586960D01*
X200424683Y-84672215D01*
X200495892Y-84743012D01*
X200564844Y-84787074D01*
X200667037Y-84825406D01*
X200773329Y-84841032D01*
X200879786Y-84835140D01*
X200982471Y-84808917D01*
X201077450Y-84763553D01*
X201160786Y-84700235D01*
X201228545Y-84620151D01*
X201252669Y-84579413D01*
X201289897Y-84508164D01*
X201553915Y-84508133D01*
X201817932Y-84508102D01*
X201809379Y-84543923D01*
X201759988Y-84696858D01*
X201688621Y-84837395D01*
X201596969Y-84963565D01*
X201486724Y-85073397D01*
X201359578Y-85164920D01*
X201217221Y-85236167D01*
X201213823Y-85237535D01*
X201102077Y-85273186D01*
X200975752Y-85298262D01*
X200844588Y-85311530D01*
X200718325Y-85311754D01*
X200664667Y-85307149D01*
X200496552Y-85276026D01*
X200344119Y-85224304D01*
X200206741Y-85151698D01*
X200083793Y-85057926D01*
X200055200Y-85031107D01*
X199952959Y-84913984D01*
X199873787Y-84784776D01*
X199817705Y-84643535D01*
X199784732Y-84490315D01*
X199774888Y-84325170D01*
X199776394Y-84274402D01*
X199784853Y-84165150D01*
X199799846Y-84072939D01*
X199823474Y-83989141D01*
X199857838Y-83905124D01*
X199874898Y-83869846D01*
X199923844Y-83772154D01*
X199698332Y-83776699D01*
X199472820Y-83781244D01*
X199472820Y-83538981D01*
X199472820Y-83296718D01*
X199600317Y-83296718D01*
X199691397Y-83292424D01*
X199761289Y-83278565D01*
X199813563Y-83253677D01*
X199851791Y-83216292D01*
X199870102Y-83186000D01*
X199874915Y-83175684D01*
X199879105Y-83164098D01*
X199882723Y-83149440D01*
X199885819Y-83129908D01*
X199888443Y-83103701D01*
X199890646Y-83069017D01*
X199892479Y-83024054D01*
X199893990Y-82967010D01*
X199895231Y-82896084D01*
X199896252Y-82809475D01*
X199897104Y-82705380D01*
X199897835Y-82581999D01*
X199898498Y-82437528D01*
X199899142Y-82270167D01*
X199899645Y-82127666D01*
X199903137Y-81121436D01*
X200177012Y-81121436D01*
X200450887Y-81121436D01*
X200446601Y-82179769D01*
G37*
G36*
X209361520Y-83345419D02*
G01*
X209388767Y-83348438D01*
X209544066Y-83378828D01*
X209684601Y-83429322D01*
X209809028Y-83499381D01*
X209858589Y-83536479D01*
X209929023Y-83593848D01*
X209942823Y-83546232D01*
X209955493Y-83501143D01*
X209968920Y-83451443D01*
X209971070Y-83443256D01*
X209985517Y-83387897D01*
X210187450Y-83387897D01*
X210389383Y-83387897D01*
X210385589Y-84374589D01*
X210381795Y-85361282D01*
X210345250Y-85465487D01*
X210303102Y-85569721D01*
X210253926Y-85657052D01*
X210191867Y-85736603D01*
X210131770Y-85798153D01*
X210034034Y-85878871D01*
X209926911Y-85942549D01*
X209806780Y-85990669D01*
X209670020Y-86024715D01*
X209530492Y-86044471D01*
X209466204Y-86050851D01*
X209419122Y-86054584D01*
X209380530Y-86055626D01*
X209341713Y-86053930D01*
X209293956Y-86049452D01*
X209235538Y-86042939D01*
X209079897Y-86014942D01*
X208938052Y-85968507D01*
X208811530Y-85904892D01*
X208701857Y-85825354D01*
X208610560Y-85731152D01*
X208539167Y-85623542D01*
X208489204Y-85503783D01*
X208467258Y-85410128D01*
X208458223Y-85354769D01*
X208723777Y-85354769D01*
X208989331Y-85354769D01*
X209006128Y-85401221D01*
X209045084Y-85471604D01*
X209105704Y-85528162D01*
X209187310Y-85570472D01*
X209289224Y-85598109D01*
X209330340Y-85604333D01*
X209436384Y-85608259D01*
X209537730Y-85594502D01*
X209629272Y-85564494D01*
X209705905Y-85519669D01*
X209739584Y-85489496D01*
X209781329Y-85435165D01*
X209810639Y-85371166D01*
X209829099Y-85292587D01*
X209838294Y-85194518D01*
X209838813Y-85182179D01*
X209840315Y-85125344D01*
X209840287Y-85079600D01*
X209838813Y-85050255D01*
X209836611Y-85042154D01*
X209822353Y-85048589D01*
X209793452Y-85065190D01*
X209767422Y-85081275D01*
X209649940Y-85141213D01*
X209518621Y-85182597D01*
X209378227Y-85205112D01*
X209233524Y-85208443D01*
X209089274Y-85192274D01*
X208950242Y-85156289D01*
X208902719Y-85138558D01*
X208777662Y-85074163D01*
X208667003Y-84989773D01*
X208571896Y-84887825D01*
X208493494Y-84770755D01*
X208432949Y-84641002D01*
X208391414Y-84501002D01*
X208370043Y-84353193D01*
X208370018Y-84282896D01*
X208905971Y-84282896D01*
X208917580Y-84383498D01*
X208947197Y-84479200D01*
X208993920Y-84565878D01*
X209056847Y-84639409D01*
X209135077Y-84695669D01*
X209142752Y-84699702D01*
X209195992Y-84724945D01*
X209242214Y-84740910D01*
X209290192Y-84749313D01*
X209348701Y-84751871D01*
X209404872Y-84750983D01*
X209470796Y-84747453D01*
X209521258Y-84739886D01*
X209566776Y-84726152D01*
X209603480Y-84710757D01*
X209692748Y-84656273D01*
X209767140Y-84581030D01*
X209824989Y-84486721D01*
X209826116Y-84484332D01*
X209842147Y-84447289D01*
X209852279Y-84413718D01*
X209857765Y-84375803D01*
X209859862Y-84325729D01*
X209859955Y-84273641D01*
X209858511Y-84205286D01*
X209854380Y-84155352D01*
X209846429Y-84116254D01*
X209833528Y-84080408D01*
X209829896Y-84072169D01*
X209774472Y-83979537D01*
X209701290Y-83904076D01*
X209613448Y-83847345D01*
X209514042Y-83810904D01*
X209406172Y-83796313D01*
X209297779Y-83804265D01*
X209189920Y-83833036D01*
X209100084Y-83879372D01*
X209025763Y-83944801D01*
X208988206Y-83992935D01*
X208940382Y-84083491D01*
X208913271Y-84181519D01*
X208905971Y-84282896D01*
X208370018Y-84282896D01*
X208369989Y-84200012D01*
X208390066Y-84054939D01*
X208432990Y-83907311D01*
X208496773Y-83773624D01*
X208579441Y-83655273D01*
X208679020Y-83553656D01*
X208793538Y-83470166D01*
X208921020Y-83406202D01*
X209059494Y-83363159D01*
X209206985Y-83342432D01*
X209361520Y-83345419D01*
G37*
G36*
X201827344Y-81081230D02*
G01*
X201975968Y-81106670D01*
X202118354Y-81152259D01*
X202199904Y-81189808D01*
X202303180Y-81254721D01*
X202403041Y-81338128D01*
X202491734Y-81432835D01*
X202552875Y-81517366D01*
X202613462Y-81634389D01*
X202661721Y-81768256D01*
X202695789Y-81911952D01*
X202713802Y-82058463D01*
X202716205Y-82131865D01*
X202716205Y-82215589D01*
X201966353Y-82215589D01*
X201216501Y-82215589D01*
X201225238Y-82244897D01*
X201269740Y-82355846D01*
X201330860Y-82447100D01*
X201407884Y-82518069D01*
X201500096Y-82568165D01*
X201606783Y-82596796D01*
X201658583Y-82602472D01*
X201780975Y-82599998D01*
X201893385Y-82576607D01*
X201993008Y-82533239D01*
X202077036Y-82470837D01*
X202090273Y-82457672D01*
X202135162Y-82410974D01*
X202406145Y-82410974D01*
X202486968Y-82411421D01*
X202558165Y-82412668D01*
X202615917Y-82414579D01*
X202656404Y-82417016D01*
X202675807Y-82419841D01*
X202676945Y-82420743D01*
X202671109Y-82436110D01*
X202655794Y-82468118D01*
X202634009Y-82510548D01*
X202628099Y-82521692D01*
X202579436Y-82612871D01*
X202585949Y-83066706D01*
X202592461Y-83520541D01*
X202625026Y-83495033D01*
X202677593Y-83460761D01*
X202746111Y-83425696D01*
X202820991Y-83394186D01*
X202892644Y-83370579D01*
X202908333Y-83366564D01*
X202992944Y-83352668D01*
X203091638Y-83346289D01*
X203193887Y-83347421D01*
X203289163Y-83356062D01*
X203346607Y-83366705D01*
X203472808Y-83410009D01*
X203585595Y-83474820D01*
X203683400Y-83559447D01*
X203764657Y-83662196D01*
X203827797Y-83781374D01*
X203871254Y-83915286D01*
X203876528Y-83939186D01*
X203882404Y-83969777D01*
X203887279Y-84001250D01*
X203891245Y-84036297D01*
X203894395Y-84077608D01*
X203896822Y-84127873D01*
X203898617Y-84189785D01*
X203899875Y-84266033D01*
X203900686Y-84359309D01*
X203901145Y-84472303D01*
X203901342Y-84607707D01*
X203901367Y-84661418D01*
X203901538Y-85264118D01*
X203631256Y-85260597D01*
X203360974Y-85257077D01*
X203354305Y-84670923D01*
X203352595Y-84529252D01*
X203350905Y-84411219D01*
X203349127Y-84314409D01*
X203347151Y-84236407D01*
X203344870Y-84174799D01*
X203342176Y-84127173D01*
X203338959Y-84091112D01*
X203335112Y-84064205D01*
X203330527Y-84044035D01*
X203325502Y-84029202D01*
X203279494Y-83944605D01*
X203217351Y-83880333D01*
X203139863Y-83836911D01*
X203047822Y-83814860D01*
X202997019Y-83812014D01*
X202900662Y-83819041D01*
X202821108Y-83842005D01*
X202753139Y-83882924D01*
X202709936Y-83923035D01*
X202683361Y-83951458D01*
X202661134Y-83976664D01*
X202642852Y-84001199D01*
X202628110Y-84027608D01*
X202616505Y-84058436D01*
X202607632Y-84096228D01*
X202601090Y-84143530D01*
X202596472Y-84202886D01*
X202593376Y-84276842D01*
X202591398Y-84367943D01*
X202590133Y-84478734D01*
X202589179Y-84611760D01*
X202588693Y-84687205D01*
X202584925Y-85263589D01*
X202311898Y-85263589D01*
X202038872Y-85263589D01*
X202038872Y-84128965D01*
X202038808Y-83925010D01*
X202038603Y-83745711D01*
X202038236Y-83589673D01*
X202037687Y-83455499D01*
X202036935Y-83341794D01*
X202035959Y-83247164D01*
X202034740Y-83170212D01*
X202033255Y-83109544D01*
X202031486Y-83063764D01*
X202029411Y-83031476D01*
X202027010Y-83011286D01*
X202024262Y-83001797D01*
X202022255Y-83000717D01*
X201964699Y-83016582D01*
X201888144Y-83028854D01*
X201799433Y-83037245D01*
X201705408Y-83041467D01*
X201612912Y-83041234D01*
X201528786Y-83036258D01*
X201459874Y-83026250D01*
X201452718Y-83024643D01*
X201291867Y-82974949D01*
X201147540Y-82906340D01*
X201020755Y-82819945D01*
X200912531Y-82716893D01*
X200823887Y-82598314D01*
X200755841Y-82465335D01*
X200709413Y-82319088D01*
X200686837Y-82175747D01*
X200682508Y-82001386D01*
X200701255Y-81838934D01*
X200702356Y-81834972D01*
X201231247Y-81834972D01*
X201232446Y-81849485D01*
X201243388Y-81860240D01*
X201266235Y-81867793D01*
X201303150Y-81872699D01*
X201356296Y-81875515D01*
X201427837Y-81876795D01*
X201519935Y-81877095D01*
X201634754Y-81876971D01*
X201706718Y-81876923D01*
X201833885Y-81876772D01*
X201937228Y-81876265D01*
X202018975Y-81875319D01*
X202081353Y-81873854D01*
X202126588Y-81871788D01*
X202156907Y-81869037D01*
X202174537Y-81865522D01*
X202181704Y-81861160D01*
X202182154Y-81859465D01*
X202174585Y-81829093D01*
X202154693Y-81785741D01*
X202126702Y-81736550D01*
X202094836Y-81688661D01*
X202063316Y-81649216D01*
X202049732Y-81635541D01*
X202006360Y-81602034D01*
X201953614Y-81568908D01*
X201923204Y-81553042D01*
X201887193Y-81537464D01*
X201854132Y-81527424D01*
X201816575Y-81521740D01*
X201767078Y-81519233D01*
X201706718Y-81518718D01*
X201640344Y-81519378D01*
X201592540Y-81522153D01*
X201555840Y-81528234D01*
X201522778Y-81538812D01*
X201489513Y-81553371D01*
X201404403Y-81604280D01*
X201330709Y-81669852D01*
X201274921Y-81744030D01*
X201264472Y-81763331D01*
X201249423Y-81792451D01*
X201237627Y-81816146D01*
X201231247Y-81834972D01*
X200702356Y-81834972D01*
X200743185Y-81688004D01*
X200808407Y-81548211D01*
X200897027Y-81419169D01*
X200898558Y-81417285D01*
X200995431Y-81318361D01*
X201109921Y-81235416D01*
X201238620Y-81169047D01*
X201378119Y-81119847D01*
X201525011Y-81088414D01*
X201675889Y-81075343D01*
X201827344Y-81081230D01*
G37*
G36*
X207400085Y-81123597D02*
G01*
X207434592Y-81125228D01*
X207455397Y-81128170D01*
X207465587Y-81132633D01*
X207468248Y-81138832D01*
X207467378Y-81143977D01*
X207461266Y-81160801D01*
X207446311Y-81199652D01*
X207423369Y-81258383D01*
X207393300Y-81334843D01*
X207356959Y-81426882D01*
X207315204Y-81532352D01*
X207268893Y-81649103D01*
X207218883Y-81774985D01*
X207166032Y-81907849D01*
X207111196Y-82045545D01*
X207055234Y-82185924D01*
X206999003Y-82326836D01*
X206943360Y-82466132D01*
X206889163Y-82601662D01*
X206837268Y-82731277D01*
X206788534Y-82852828D01*
X206743818Y-82964164D01*
X206703978Y-83063137D01*
X206669869Y-83147596D01*
X206642351Y-83215393D01*
X206622281Y-83264378D01*
X206610515Y-83292401D01*
X206609251Y-83295263D01*
X206590708Y-83337081D01*
X206577313Y-83368474D01*
X206571814Y-83382994D01*
X206571795Y-83383186D01*
X206583567Y-83385789D01*
X206613879Y-83387500D01*
X206642024Y-83387897D01*
X206682951Y-83388933D01*
X206705167Y-83394254D01*
X206715992Y-83407182D01*
X206721004Y-83423718D01*
X206729707Y-83457110D01*
X206742172Y-83502449D01*
X206749498Y-83528288D01*
X206769240Y-83597038D01*
X206839889Y-83532469D01*
X206944364Y-83454541D01*
X207064457Y-83397318D01*
X207199823Y-83360920D01*
X207350117Y-83345465D01*
X207385897Y-83344886D01*
X207524902Y-83352404D01*
X207646646Y-83376337D01*
X207755220Y-83418172D01*
X207854713Y-83479393D01*
X207929500Y-83542366D01*
X207986605Y-83601154D01*
X208029892Y-83659141D01*
X208068248Y-83728308D01*
X208069897Y-83731665D01*
X208090721Y-83774407D01*
X208108294Y-83812231D01*
X208122909Y-83847746D01*
X208134861Y-83883560D01*
X208144442Y-83922280D01*
X208151945Y-83966516D01*
X208157665Y-84018875D01*
X208161894Y-84081964D01*
X208164925Y-84158393D01*
X208167054Y-84250769D01*
X208168571Y-84361700D01*
X208169772Y-84493795D01*
X208170791Y-84628589D01*
X208175521Y-85263589D01*
X207901820Y-85263589D01*
X207628118Y-85263589D01*
X207623882Y-84680692D01*
X207622767Y-84533664D01*
X207621524Y-84410204D01*
X207619820Y-84307829D01*
X207617323Y-84224058D01*
X207613702Y-84156408D01*
X207608625Y-84102397D01*
X207601760Y-84059542D01*
X207592775Y-84025362D01*
X207581338Y-83997373D01*
X207567119Y-83973093D01*
X207549784Y-83950040D01*
X207529003Y-83925731D01*
X207521901Y-83917658D01*
X207456881Y-83862588D01*
X207378572Y-83826644D01*
X207291676Y-83810109D01*
X207200893Y-83813267D01*
X207110926Y-83836401D01*
X207026475Y-83879795D01*
X207015868Y-83887138D01*
X206962244Y-83939109D01*
X206915807Y-84010434D01*
X206879978Y-84094688D01*
X206858629Y-84182461D01*
X206855653Y-84214723D01*
X206852908Y-84269540D01*
X206850474Y-84343418D01*
X206848431Y-84432863D01*
X206846857Y-84534379D01*
X206845832Y-84644472D01*
X206845434Y-84759646D01*
X206845432Y-84765359D01*
X206845333Y-85263589D01*
X206578308Y-85263589D01*
X206311282Y-85263589D01*
X206311282Y-84454481D01*
X206311282Y-83645373D01*
X206281974Y-83652952D01*
X206183407Y-83676520D01*
X206101505Y-83691431D01*
X206028809Y-83698862D01*
X205982385Y-83700241D01*
X205929627Y-83702036D01*
X205894637Y-83706729D01*
X205881453Y-83713767D01*
X205881436Y-83714057D01*
X205886964Y-83733372D01*
X205900774Y-83765162D01*
X205906377Y-83776491D01*
X205921652Y-83807212D01*
X205934559Y-83836199D01*
X205945317Y-83865908D01*
X205954147Y-83898793D01*
X205961270Y-83937311D01*
X205966904Y-83983917D01*
X205971271Y-84041065D01*
X205974591Y-84111211D01*
X205977083Y-84196811D01*
X205978968Y-84300320D01*
X205980465Y-84424192D01*
X205981796Y-84570884D01*
X205982217Y-84622412D01*
X205987398Y-85264260D01*
X205781767Y-85260668D01*
X205576135Y-85257077D01*
X205547390Y-85159384D01*
X205533745Y-85113035D01*
X205523336Y-85077727D01*
X205518001Y-85059695D01*
X205517682Y-85058636D01*
X205507739Y-85064237D01*
X205482651Y-85081862D01*
X205449056Y-85106791D01*
X205364998Y-85164812D01*
X205282773Y-85208209D01*
X205190616Y-85242830D01*
X205151714Y-85254566D01*
X205041165Y-85278536D01*
X204917906Y-85292340D01*
X204793570Y-85295099D01*
X204700290Y-85288662D01*
X204572544Y-85262975D01*
X204453389Y-85218572D01*
X204348431Y-85157814D01*
X204301559Y-85120746D01*
X204237308Y-85047544D01*
X204188191Y-84957746D01*
X204155160Y-84856612D01*
X204139168Y-84749397D01*
X204140742Y-84664188D01*
X204677786Y-84664188D01*
X204678261Y-84723650D01*
X204698914Y-84780794D01*
X204739576Y-84831136D01*
X204800077Y-84870193D01*
X204812599Y-84875496D01*
X204891232Y-84895807D01*
X204982399Y-84902193D01*
X205076707Y-84894792D01*
X205164758Y-84873743D01*
X205174751Y-84870198D01*
X205260176Y-84825332D01*
X205334436Y-84760309D01*
X205393585Y-84679999D01*
X205433676Y-84589278D01*
X205446510Y-84534640D01*
X205455374Y-84479206D01*
X205157149Y-84484388D01*
X205059463Y-84486282D01*
X204983993Y-84488369D01*
X204926904Y-84490996D01*
X204884363Y-84494508D01*
X204852533Y-84499253D01*
X204827581Y-84505577D01*
X204805672Y-84513826D01*
X204799107Y-84516733D01*
X204738040Y-84556246D01*
X204697656Y-84606893D01*
X204677786Y-84664188D01*
X204140742Y-84664188D01*
X204141164Y-84641359D01*
X204162102Y-84537756D01*
X204185172Y-84477714D01*
X204246809Y-84374036D01*
X204325972Y-84289444D01*
X204423214Y-84223455D01*
X204526217Y-84179712D01*
X204551545Y-84171863D01*
X204577145Y-84165545D01*
X204606246Y-84160544D01*
X204642074Y-84156650D01*
X204687859Y-84153649D01*
X204746828Y-84151329D01*
X204822209Y-84149478D01*
X204917230Y-84147883D01*
X205033293Y-84146354D01*
X205455150Y-84141173D01*
X205447398Y-84058153D01*
X205427869Y-83964279D01*
X205388902Y-83887469D01*
X205331299Y-83828384D01*
X205255863Y-83787688D01*
X205163396Y-83766043D01*
X205089399Y-83762573D01*
X204998081Y-83772474D01*
X204916226Y-83797375D01*
X204847956Y-83835114D01*
X204797397Y-83883527D01*
X204772352Y-83928822D01*
X204755997Y-83974051D01*
X204491914Y-83974051D01*
X204227831Y-83974051D01*
X204235878Y-83931718D01*
X204265213Y-83831053D01*
X204312950Y-83729538D01*
X204374252Y-83635617D01*
X204444281Y-83557732D01*
X204456286Y-83547053D01*
X204532345Y-83491179D01*
X204622738Y-83439279D01*
X204715852Y-83397633D01*
X204761231Y-83382191D01*
X204880555Y-83356162D01*
X205011736Y-83343717D01*
X205148287Y-83344382D01*
X205283720Y-83357682D01*
X205411550Y-83383140D01*
X205525289Y-83420282D01*
X205571989Y-83441616D01*
X205620923Y-83466580D01*
X205620923Y-83349085D01*
X205620923Y-83231589D01*
X205800026Y-83231303D01*
X205877226Y-83230559D01*
X205933842Y-83228220D01*
X205975321Y-83223705D01*
X206007111Y-83216427D01*
X206033683Y-83206249D01*
X206090196Y-83167540D01*
X206139881Y-83108045D01*
X206178830Y-83032867D01*
X206189502Y-83002847D01*
X206194141Y-82990493D01*
X206198681Y-82980755D01*
X206202471Y-82972044D01*
X206204860Y-82962774D01*
X206205201Y-82951358D01*
X206202841Y-82936208D01*
X206197133Y-82915738D01*
X206187425Y-82888361D01*
X206173068Y-82852489D01*
X206153413Y-82806535D01*
X206127808Y-82748912D01*
X206095605Y-82678034D01*
X206056153Y-82592313D01*
X206008804Y-82490162D01*
X205952905Y-82369993D01*
X205887809Y-82230221D01*
X205812865Y-82069257D01*
X205765810Y-81968102D01*
X205375157Y-81127948D01*
X205663822Y-81124435D01*
X205748373Y-81123635D01*
X205824355Y-81123351D01*
X205887834Y-81123564D01*
X205934874Y-81124251D01*
X205961541Y-81125392D01*
X205965814Y-81126035D01*
X205973522Y-81138667D01*
X205990439Y-81172886D01*
X206015501Y-81226339D01*
X206047642Y-81296674D01*
X206085795Y-81381538D01*
X206128897Y-81478580D01*
X206175880Y-81585445D01*
X206225681Y-81699782D01*
X206225777Y-81700004D01*
X206278746Y-81821411D01*
X206327451Y-81931542D01*
X206371025Y-82028523D01*
X206408602Y-82110486D01*
X206439315Y-82175558D01*
X206462298Y-82221868D01*
X206476684Y-82247546D01*
X206481412Y-82251994D01*
X206487908Y-82235949D01*
X206502050Y-82198487D01*
X206522696Y-82142713D01*
X206548704Y-82071734D01*
X206578935Y-81988658D01*
X206612246Y-81896591D01*
X206628724Y-81850871D01*
X206666512Y-81746094D01*
X206704795Y-81640309D01*
X206741780Y-81538446D01*
X206775673Y-81445438D01*
X206804680Y-81366213D01*
X206827007Y-81305704D01*
X206830140Y-81297282D01*
X206893241Y-81127948D01*
X207183488Y-81124439D01*
X207277619Y-81123415D01*
X207348789Y-81123063D01*
X207400085Y-81123597D01*
G37*
D11*
%TO.C,J7*%
X198280000Y-67320000D02*
X198280000Y-70080000D01*
X213630000Y-67320000D02*
X198280000Y-67320000D01*
X213630000Y-67320000D02*
X213630000Y-70080000D01*
X213630000Y-70080000D02*
X198280000Y-70080000D01*
X214900000Y-67320001D02*
X216280000Y-67320000D01*
X216280000Y-67320000D02*
X216279999Y-68700000D01*
%TO.C,J6*%
X236920000Y-71670000D02*
X236920000Y-80350000D01*
X236920000Y-80350000D02*
X248080000Y-80350001D01*
X238600000Y-71220000D02*
X238600000Y-71670000D01*
X238600000Y-71670000D02*
X238900000Y-71670000D01*
X238900000Y-71220000D02*
X238600000Y-71220000D01*
X238900000Y-71670000D02*
X238900000Y-71220000D01*
X241100000Y-71220000D02*
X241100000Y-71670000D01*
X241100000Y-71670000D02*
X241400000Y-71670000D01*
X241400000Y-71220000D02*
X241100000Y-71220000D01*
X241400000Y-71670000D02*
X241400000Y-71220000D01*
X243600000Y-71220000D02*
X243600000Y-71670000D01*
X243600000Y-71670000D02*
X243900000Y-71670000D01*
X243900000Y-71220000D02*
X243600000Y-71220000D01*
X243900000Y-71670000D02*
X243900000Y-71220000D01*
X246100000Y-71220000D02*
X246100000Y-71670000D01*
X246100000Y-71670000D02*
X246400000Y-71670000D01*
X246400000Y-71220000D02*
X246100000Y-71220000D01*
X246400000Y-71670000D02*
X246400000Y-71220000D01*
X247360001Y-69860000D02*
X247784264Y-70160001D01*
X247784264Y-69559999D02*
X247360001Y-69860000D01*
X247784264Y-70160001D02*
X247784264Y-69559999D01*
X248080000Y-71670000D02*
X236920000Y-71670000D01*
X248080000Y-80350001D02*
X248080000Y-71670000D01*
D12*
%TO.C,LOGO2*%
G36*
X163110333Y-67491638D02*
G01*
X163068000Y-67534113D01*
X163025667Y-67491638D01*
X163068000Y-67449163D01*
X163110333Y-67491638D01*
G37*
G36*
X167597667Y-73692976D02*
G01*
X167555333Y-73735451D01*
X167513000Y-73692976D01*
X167555333Y-73650501D01*
X167597667Y-73692976D01*
G37*
G36*
X167597667Y-73947826D02*
G01*
X167555333Y-73990301D01*
X167513000Y-73947826D01*
X167555333Y-73905351D01*
X167597667Y-73947826D01*
G37*
G36*
X164268837Y-72954975D02*
G01*
X164278931Y-73087742D01*
X164262153Y-73117795D01*
X164223671Y-73092460D01*
X164217684Y-73006298D01*
X164238362Y-72915654D01*
X164268837Y-72954975D01*
G37*
G36*
X160451418Y-72787877D02*
G01*
X160366168Y-72879075D01*
X160317158Y-72860366D01*
X160316333Y-72848491D01*
X160376470Y-72776639D01*
X160414082Y-72750416D01*
X160472019Y-72740404D01*
X160451418Y-72787877D01*
G37*
G36*
X164297048Y-78875772D02*
G01*
X164345890Y-78977580D01*
X164334384Y-79008211D01*
X164252651Y-79083536D01*
X164212656Y-78997742D01*
X164211000Y-78954852D01*
X164252657Y-78867357D01*
X164297048Y-78875772D01*
G37*
G36*
X159596666Y-71665935D02*
G01*
X159708068Y-71726231D01*
X159723666Y-71748219D01*
X159654530Y-71777915D01*
X159596666Y-71781605D01*
X159483974Y-71737149D01*
X159469666Y-71699321D01*
X159531728Y-71652581D01*
X159596666Y-71665935D01*
G37*
G36*
X159289134Y-77303344D02*
G01*
X159342667Y-77685618D01*
X159850667Y-77737350D01*
X160358667Y-77789082D01*
X159808333Y-77779825D01*
X159258000Y-77770568D01*
X159246801Y-77345819D01*
X159235601Y-76921070D01*
X159289134Y-77303344D01*
G37*
G36*
X161160660Y-80550761D02*
G01*
X161161704Y-80600164D01*
X161133249Y-80731310D01*
X161078333Y-80743812D01*
X161006343Y-80689855D01*
X161022752Y-80619485D01*
X161078333Y-80531438D01*
X161139687Y-80465908D01*
X161160660Y-80550761D01*
G37*
G36*
X160984033Y-80408168D02*
G01*
X160982933Y-80521870D01*
X160927360Y-80673140D01*
X160911452Y-80700266D01*
X160854712Y-80761839D01*
X160843913Y-80672286D01*
X160846584Y-80630094D01*
X160883685Y-80459571D01*
X160927503Y-80392540D01*
X160984033Y-80408168D01*
G37*
G36*
X164637450Y-78820430D02*
G01*
X164728614Y-78936249D01*
X164792574Y-79068641D01*
X164758252Y-79070617D01*
X164669362Y-79005141D01*
X164534438Y-78903226D01*
X164480534Y-78864986D01*
X164511142Y-78815936D01*
X164539785Y-78796093D01*
X164637450Y-78820430D01*
G37*
G36*
X159612746Y-78769622D02*
G01*
X159818029Y-78823339D01*
X159982526Y-78889633D01*
X160051090Y-78949491D01*
X160045577Y-78962520D01*
X159945209Y-78975813D01*
X159736413Y-78963584D01*
X159610501Y-78948597D01*
X159369560Y-78897354D01*
X159236239Y-78835095D01*
X159227339Y-78779731D01*
X159359665Y-78749167D01*
X159421822Y-78747491D01*
X159612746Y-78769622D01*
G37*
G36*
X164616967Y-75117157D02*
G01*
X164783564Y-75218616D01*
X164869986Y-75361103D01*
X164860689Y-75452829D01*
X164822414Y-75495148D01*
X164810351Y-75422299D01*
X164739496Y-75272741D01*
X164589615Y-75230679D01*
X164431165Y-75310632D01*
X164309625Y-75411888D01*
X164259381Y-75434448D01*
X164215270Y-75369977D01*
X164223338Y-75240128D01*
X164267445Y-75151282D01*
X164426242Y-75085215D01*
X164616967Y-75117157D01*
G37*
G36*
X164959622Y-78808621D02*
G01*
X164973000Y-78869902D01*
X165024249Y-78988161D01*
X165131491Y-78976986D01*
X165184667Y-78917392D01*
X165307786Y-78835433D01*
X165335502Y-78832440D01*
X165348177Y-78871932D01*
X165242189Y-78967232D01*
X165237993Y-78970197D01*
X165083990Y-79058712D01*
X164979710Y-79037977D01*
X164914696Y-78980249D01*
X164839584Y-78854260D01*
X164880209Y-78795004D01*
X164959622Y-78808621D01*
G37*
G36*
X159976453Y-72245326D02*
G01*
X160215671Y-72344392D01*
X160370376Y-72476773D01*
X160401000Y-72564137D01*
X160350161Y-72586236D01*
X160242168Y-72513214D01*
X160052149Y-72402815D01*
X159796736Y-72322945D01*
X159763163Y-72316861D01*
X159558094Y-72291623D01*
X159478568Y-72320410D01*
X159484355Y-72422595D01*
X159490767Y-72448034D01*
X159499925Y-72571003D01*
X159461771Y-72583732D01*
X159397395Y-72468483D01*
X159385000Y-72371240D01*
X159417227Y-72260522D01*
X159543147Y-72213492D01*
X159704828Y-72206354D01*
X159976453Y-72245326D01*
G37*
G36*
X160019345Y-76002291D02*
G01*
X160243591Y-76055560D01*
X160419493Y-76117012D01*
X160485667Y-76169441D01*
X160411015Y-76187162D01*
X160221854Y-76176216D01*
X160104667Y-76160962D01*
X159871510Y-76131136D01*
X159760455Y-76150409D01*
X159726203Y-76242287D01*
X159723667Y-76358678D01*
X159698081Y-76556795D01*
X159639000Y-76666220D01*
X159583533Y-76627847D01*
X159555985Y-76448029D01*
X159554333Y-76371243D01*
X159583607Y-76109846D01*
X159665522Y-75981336D01*
X159672459Y-75978285D01*
X159808414Y-75971702D01*
X160019345Y-76002291D01*
G37*
G36*
X160131530Y-70198195D02*
G01*
X160342625Y-70250448D01*
X160358667Y-70257282D01*
X160424069Y-70302738D01*
X160346975Y-70320154D01*
X160147000Y-70315022D01*
X159880979Y-70323290D01*
X159742821Y-70371989D01*
X159745336Y-70445576D01*
X159901336Y-70528509D01*
X159956500Y-70546162D01*
X160141896Y-70618624D01*
X160230416Y-70688028D01*
X160231667Y-70694824D01*
X160213194Y-70750058D01*
X160132169Y-70747447D01*
X159950178Y-70681415D01*
X159847947Y-70639117D01*
X159621975Y-70499101D01*
X159554333Y-70341792D01*
X159582286Y-70226066D01*
X159696683Y-70178701D01*
X159871833Y-70173529D01*
X160131530Y-70198195D01*
G37*
G36*
X160596663Y-68094170D02*
G01*
X160817667Y-68159517D01*
X161101770Y-68269802D01*
X161140003Y-68286297D01*
X161729041Y-68529757D01*
X162240103Y-68707006D01*
X162740038Y-68839862D01*
X163013471Y-68897794D01*
X163301727Y-68970496D01*
X163431461Y-69037738D01*
X163413481Y-69092763D01*
X163258595Y-69128813D01*
X162977609Y-69139129D01*
X162653219Y-69123059D01*
X162175315Y-69061995D01*
X161713616Y-68961551D01*
X161289280Y-68831826D01*
X160923461Y-68682924D01*
X160637318Y-68524939D01*
X160452005Y-68367975D01*
X160388683Y-68222130D01*
X160468504Y-68097504D01*
X160483836Y-68087423D01*
X160596663Y-68094170D01*
G37*
G36*
X160065461Y-70864754D02*
G01*
X160310267Y-70903086D01*
X160497247Y-70957112D01*
X160570333Y-71014039D01*
X160502148Y-71088891D01*
X160338135Y-71183843D01*
X160337500Y-71184142D01*
X160104667Y-71293547D01*
X160428104Y-71432511D01*
X160640558Y-71539480D01*
X160703886Y-71606072D01*
X160634473Y-71627801D01*
X160448705Y-71600182D01*
X160162969Y-71518728D01*
X160140602Y-71511218D01*
X159827356Y-71392810D01*
X159674127Y-71300034D01*
X159674963Y-71224807D01*
X159823914Y-71159047D01*
X159871833Y-71146096D01*
X160104667Y-71086817D01*
X159850667Y-70973888D01*
X159596667Y-70860956D01*
X159818917Y-70854056D01*
X160065461Y-70864754D01*
G37*
G36*
X159872243Y-73716136D02*
G01*
X160010540Y-73847608D01*
X160060713Y-73922383D01*
X160171172Y-74124579D01*
X160228693Y-74269737D01*
X160231034Y-74287625D01*
X160192812Y-74277705D01*
X160096547Y-74152941D01*
X160046269Y-74075250D01*
X159861504Y-73777927D01*
X159776241Y-74011538D01*
X159648131Y-74200018D01*
X159474205Y-74229922D01*
X159278227Y-74097568D01*
X159271122Y-74089799D01*
X159147566Y-73924334D01*
X159146694Y-73860097D01*
X159254428Y-73914735D01*
X159347126Y-73994504D01*
X159500651Y-74121310D01*
X159590558Y-74131387D01*
X159642163Y-74073024D01*
X159712761Y-73907751D01*
X159722370Y-73846652D01*
X159766155Y-73713571D01*
X159872243Y-73716136D01*
G37*
G36*
X160040771Y-80565729D02*
G01*
X160056842Y-80616388D01*
X160135704Y-80823982D01*
X160256299Y-81090901D01*
X160303564Y-81186415D01*
X160426745Y-81437180D01*
X160476454Y-81572991D01*
X160460988Y-81627668D01*
X160413843Y-81635786D01*
X160341739Y-81564228D01*
X160246039Y-81384509D01*
X160209863Y-81298224D01*
X160102960Y-81076167D01*
X159968742Y-80963998D01*
X159739986Y-80906487D01*
X159731354Y-80905092D01*
X159505999Y-80844238D01*
X159391093Y-80761605D01*
X159385000Y-80738296D01*
X159440474Y-80667314D01*
X159623147Y-80666750D01*
X159681333Y-80675318D01*
X159882498Y-80693530D01*
X159968208Y-80647176D01*
X159984944Y-80563790D01*
X160001105Y-80485291D01*
X160040771Y-80565729D01*
G37*
G36*
X160136185Y-74515643D02*
G01*
X160314176Y-74555544D01*
X160358667Y-74584949D01*
X160317463Y-74638508D01*
X160131260Y-74668395D01*
X160003830Y-74672601D01*
X159767494Y-74678657D01*
X159675482Y-74701229D01*
X159702825Y-74753232D01*
X159759544Y-74798945D01*
X159959122Y-74902504D01*
X160204978Y-74975773D01*
X160439455Y-75044119D01*
X160544352Y-75128433D01*
X160500311Y-75212977D01*
X160498286Y-75214248D01*
X160374671Y-75207785D01*
X160165963Y-75127365D01*
X159922472Y-75001058D01*
X159694507Y-74856936D01*
X159532376Y-74723068D01*
X159484625Y-74648662D01*
X159493679Y-74559497D01*
X159588278Y-74514713D01*
X159805510Y-74500432D01*
X159881795Y-74500000D01*
X160136185Y-74515643D01*
G37*
G36*
X160091227Y-78008898D02*
G01*
X160210500Y-78036485D01*
X160376200Y-78101177D01*
X160390304Y-78154046D01*
X160270552Y-78182859D01*
X160034681Y-78175385D01*
X160012559Y-78172993D01*
X159777135Y-78152315D01*
X159668141Y-78173122D01*
X159644263Y-78253681D01*
X159652725Y-78332090D01*
X159709456Y-78478496D01*
X159858306Y-78547163D01*
X159973930Y-78563041D01*
X160232872Y-78545694D01*
X160376095Y-78440617D01*
X160459842Y-78359657D01*
X160485667Y-78385388D01*
X160411282Y-78567034D01*
X160225191Y-78689031D01*
X159982989Y-78717968D01*
X159942641Y-78711710D01*
X159680678Y-78608105D01*
X159520238Y-78441882D01*
X159482875Y-78249425D01*
X159571266Y-78084883D01*
X159777030Y-77993753D01*
X160091227Y-78008898D01*
G37*
G36*
X164528500Y-74516109D02*
G01*
X164549667Y-74519597D01*
X164742611Y-74551396D01*
X164840761Y-74635336D01*
X164872258Y-74770550D01*
X164872639Y-74925730D01*
X164792766Y-74985607D01*
X164618258Y-74991805D01*
X164363265Y-74946020D01*
X164237449Y-74809817D01*
X164226993Y-74740691D01*
X164295667Y-74740691D01*
X164369296Y-74790412D01*
X164546680Y-74811477D01*
X164549667Y-74811482D01*
X164728065Y-74790961D01*
X164803649Y-74741523D01*
X164803667Y-74740691D01*
X164730037Y-74690970D01*
X164552654Y-74669904D01*
X164549667Y-74669899D01*
X164371268Y-74690420D01*
X164295684Y-74739858D01*
X164295667Y-74740691D01*
X164226993Y-74740691D01*
X164212297Y-74643534D01*
X164242149Y-74543259D01*
X164363016Y-74509392D01*
X164528500Y-74516109D01*
G37*
G36*
X159642709Y-75129307D02*
G01*
X159734398Y-75175439D01*
X159813387Y-75215182D01*
X160063242Y-75380347D01*
X160202660Y-75538157D01*
X160216535Y-75664449D01*
X160132090Y-75725035D01*
X159946425Y-75766001D01*
X159714489Y-75795926D01*
X159493981Y-75810439D01*
X159342591Y-75805169D01*
X159308636Y-75787401D01*
X159351693Y-75678895D01*
X159431180Y-75522715D01*
X159441690Y-75492487D01*
X159555525Y-75492487D01*
X159614482Y-75574727D01*
X159784143Y-75604347D01*
X159939071Y-75594501D01*
X159946675Y-75543455D01*
X159876935Y-75466871D01*
X159734398Y-75381076D01*
X159647125Y-75386935D01*
X159555525Y-75492487D01*
X159441690Y-75492487D01*
X159499071Y-75327454D01*
X159453147Y-75202100D01*
X159385468Y-75083816D01*
X159451139Y-75059641D01*
X159642709Y-75129307D01*
G37*
G36*
X160324339Y-69394652D02*
G01*
X160347955Y-69445485D01*
X160449057Y-69717166D01*
X160512905Y-69955184D01*
X160563312Y-70210033D01*
X160439580Y-69933946D01*
X160307592Y-69740359D01*
X160158393Y-69654157D01*
X160033010Y-69682788D01*
X159972465Y-69833704D01*
X159971716Y-69848996D01*
X159961872Y-69979757D01*
X159930963Y-69947809D01*
X159900373Y-69872206D01*
X159772053Y-69719205D01*
X159631157Y-69647063D01*
X159494936Y-69604500D01*
X159517218Y-69587188D01*
X159610778Y-69581377D01*
X159776084Y-69531064D01*
X159836926Y-69466722D01*
X159875181Y-69404120D01*
X159886316Y-69466722D01*
X159964241Y-69545911D01*
X160110372Y-69572909D01*
X160265250Y-69549270D01*
X160294007Y-69448312D01*
X160280578Y-69381772D01*
X160274948Y-69313459D01*
X160324339Y-69394652D01*
G37*
G36*
X159933138Y-72954460D02*
G01*
X159995645Y-72977123D01*
X160186094Y-73046168D01*
X160485826Y-73181038D01*
X160620673Y-73293688D01*
X160589788Y-73382742D01*
X160428182Y-73439799D01*
X160177839Y-73493762D01*
X159892089Y-73556807D01*
X159871343Y-73561449D01*
X159666241Y-73583653D01*
X159523469Y-73560640D01*
X159474203Y-73509772D01*
X159549616Y-73448411D01*
X159624625Y-73424038D01*
X159801108Y-73318817D01*
X159832349Y-73228418D01*
X159977667Y-73228418D01*
X160046285Y-73301432D01*
X160104667Y-73310702D01*
X160217630Y-73292527D01*
X160231667Y-73277316D01*
X160165461Y-73222539D01*
X160104667Y-73195032D01*
X159995644Y-73193266D01*
X159977667Y-73228418D01*
X159832349Y-73228418D01*
X159855442Y-73161596D01*
X159771001Y-73007410D01*
X159754426Y-72994381D01*
X159664020Y-72908589D01*
X159724341Y-72895372D01*
X159933138Y-72954460D01*
G37*
G36*
X159503072Y-79198507D02*
G01*
X159709031Y-79261954D01*
X159909324Y-79339550D01*
X160041390Y-79408266D01*
X160062333Y-79432986D01*
X160003316Y-79523322D01*
X159856357Y-79669470D01*
X159803148Y-79715755D01*
X159543963Y-79934576D01*
X159845482Y-80078841D01*
X160069730Y-80202279D01*
X160137029Y-80275657D01*
X160054371Y-80291439D01*
X159828748Y-80242092D01*
X159723667Y-80210087D01*
X159486124Y-80122953D01*
X159332527Y-80045652D01*
X159300333Y-80011309D01*
X159362755Y-79925491D01*
X159516693Y-79794476D01*
X159554333Y-79766889D01*
X159720907Y-79630022D01*
X159805634Y-79525467D01*
X159808333Y-79513005D01*
X159735396Y-79446270D01*
X159559429Y-79385752D01*
X159554333Y-79384615D01*
X159376584Y-79322973D01*
X159300381Y-79251973D01*
X159300333Y-79250441D01*
X159344645Y-79173441D01*
X159354011Y-79172240D01*
X159503072Y-79198507D01*
G37*
G36*
X159808333Y-68222769D02*
G01*
X159843359Y-68262404D01*
X159878021Y-68301628D01*
X160055895Y-68416575D01*
X160189333Y-68486593D01*
X160407967Y-68604246D01*
X160545773Y-68699704D01*
X160570333Y-68733090D01*
X160493102Y-68768032D01*
X160291030Y-68800377D01*
X160019823Y-68822350D01*
X159691584Y-68828276D01*
X159507165Y-68806598D01*
X159474750Y-68759822D01*
X159596666Y-68692691D01*
X159709424Y-68580640D01*
X159707886Y-68562448D01*
X159825726Y-68562448D01*
X159829461Y-68574749D01*
X159933297Y-68678715D01*
X160024321Y-68711972D01*
X160132152Y-68718275D01*
X160102294Y-68645506D01*
X160070439Y-68605784D01*
X159940573Y-68493738D01*
X159843359Y-68477278D01*
X159825726Y-68562448D01*
X159707886Y-68562448D01*
X159696425Y-68426904D01*
X159587014Y-68315323D01*
X159504915Y-68251210D01*
X159573735Y-68207241D01*
X159629347Y-68191631D01*
X159769386Y-68184489D01*
X159808333Y-68222769D01*
G37*
G36*
X162180446Y-71187461D02*
G01*
X162470611Y-71261904D01*
X162763887Y-71427380D01*
X163026547Y-71666188D01*
X163227485Y-71961297D01*
X163329269Y-72257831D01*
X163345770Y-72610155D01*
X163241317Y-72843611D01*
X163015942Y-72958154D01*
X162870669Y-72970903D01*
X162471471Y-72889537D01*
X162113502Y-72658879D01*
X161825703Y-72299090D01*
X161776833Y-72208906D01*
X161673599Y-71978922D01*
X161849757Y-71978922D01*
X161962030Y-72156719D01*
X162134559Y-72289996D01*
X162464793Y-72436243D01*
X162778928Y-72472693D01*
X163030566Y-72396455D01*
X163088620Y-72349497D01*
X163176680Y-72236355D01*
X163149606Y-72134060D01*
X163069724Y-72038365D01*
X162827853Y-71866011D01*
X162503530Y-71749047D01*
X162180446Y-71713055D01*
X162059670Y-71729608D01*
X161881169Y-71828060D01*
X161849757Y-71978922D01*
X161673599Y-71978922D01*
X161640136Y-71904373D01*
X161595859Y-71687210D01*
X161640302Y-71504912D01*
X161718134Y-71375758D01*
X161916630Y-71219063D01*
X162177825Y-71186789D01*
X162180446Y-71187461D01*
G37*
G36*
X162499685Y-73053926D02*
G01*
X162537190Y-73059929D01*
X162847634Y-73221255D01*
X163128369Y-73473580D01*
X163346110Y-73795693D01*
X163439546Y-74037683D01*
X163475557Y-74383476D01*
X163386989Y-74639000D01*
X163198786Y-74793729D01*
X162935888Y-74837140D01*
X162623244Y-74758706D01*
X162285792Y-74547903D01*
X162267151Y-74532380D01*
X161994599Y-74236710D01*
X161818936Y-73910886D01*
X161802496Y-73836876D01*
X161952660Y-73836876D01*
X162109158Y-74020913D01*
X162191683Y-74084312D01*
X162442496Y-74214651D01*
X162703786Y-74274636D01*
X162945776Y-74272790D01*
X163138691Y-74217640D01*
X163252753Y-74117707D01*
X163258186Y-73981519D01*
X163125214Y-73817597D01*
X163124725Y-73817195D01*
X162831157Y-73643470D01*
X162499685Y-73547934D01*
X162200065Y-73548033D01*
X162129461Y-73568300D01*
X161959231Y-73684374D01*
X161952660Y-73836876D01*
X161802496Y-73836876D01*
X161747656Y-73589997D01*
X161788246Y-73309132D01*
X161948200Y-73103377D01*
X161960331Y-73095119D01*
X162230327Y-73010814D01*
X162499685Y-73053926D01*
G37*
G36*
X163664357Y-78772636D02*
G01*
X163703000Y-78829452D01*
X163636886Y-78929448D01*
X163531141Y-79003697D01*
X163392845Y-79160340D01*
X163374976Y-79282773D01*
X163376714Y-79566845D01*
X163303730Y-79741891D01*
X163128622Y-79862020D01*
X163068000Y-79888840D01*
X162875769Y-80001114D01*
X162775717Y-80121420D01*
X162771667Y-80144829D01*
X162715930Y-80255728D01*
X162598794Y-80264300D01*
X162495373Y-80168748D01*
X162487989Y-80151622D01*
X162509680Y-79988086D01*
X162667609Y-79806121D01*
X162839346Y-79689104D01*
X162940161Y-79589997D01*
X162878320Y-79503015D01*
X162660226Y-79430625D01*
X162292282Y-79375295D01*
X161954905Y-79348385D01*
X161503533Y-79308744D01*
X161217570Y-79252277D01*
X161093773Y-79177366D01*
X161128896Y-79082393D01*
X161254141Y-78998864D01*
X161450430Y-78947371D01*
X161784076Y-78934745D01*
X162211786Y-78955913D01*
X162603289Y-78978825D01*
X162865110Y-78976306D01*
X163035413Y-78945394D01*
X163152361Y-78883128D01*
X163152667Y-78882893D01*
X163330816Y-78791157D01*
X163521707Y-78752430D01*
X163664357Y-78772636D01*
G37*
G36*
X161480533Y-74735274D02*
G01*
X161554987Y-75017079D01*
X161556141Y-75024259D01*
X161643373Y-75309683D01*
X161786159Y-75562357D01*
X161811444Y-75592796D01*
X162011824Y-75816722D01*
X162264745Y-75522607D01*
X162416200Y-75335136D01*
X162506531Y-75201408D01*
X162517667Y-75171876D01*
X162590704Y-75091353D01*
X162765218Y-75014147D01*
X162974316Y-74961651D01*
X163151102Y-74955259D01*
X163176247Y-74961252D01*
X163319141Y-75062474D01*
X163466287Y-75253948D01*
X163601246Y-75496637D01*
X163707580Y-75751501D01*
X163768850Y-75979500D01*
X163768618Y-76141598D01*
X163697434Y-76198997D01*
X163460756Y-76124550D01*
X163309097Y-75934474D01*
X163279667Y-75781660D01*
X163233904Y-75546157D01*
X163118716Y-75406655D01*
X162967256Y-75393365D01*
X162898667Y-75434448D01*
X162791204Y-75576526D01*
X162771667Y-75652407D01*
X162696075Y-75814494D01*
X162501477Y-75937790D01*
X162236134Y-76009937D01*
X161948311Y-76018584D01*
X161686272Y-75951373D01*
X161658420Y-75937390D01*
X161528692Y-75807754D01*
X161376401Y-75573562D01*
X161231048Y-75291933D01*
X161122133Y-75019981D01*
X161079161Y-74815895D01*
X161138694Y-74662674D01*
X161201279Y-74617231D01*
X161366767Y-74606736D01*
X161480533Y-74735274D01*
G37*
G36*
X161183365Y-79544868D02*
G01*
X161338908Y-79658577D01*
X161494413Y-79876006D01*
X161667909Y-80219994D01*
X161789454Y-80499764D01*
X161923936Y-80796870D01*
X162042523Y-81016512D01*
X162126180Y-81125013D01*
X162145579Y-81129760D01*
X162221112Y-81030122D01*
X162308285Y-80835727D01*
X162321557Y-80798453D01*
X162441668Y-80540121D01*
X162608690Y-80407639D01*
X162875523Y-80364117D01*
X162946202Y-80362839D01*
X163282711Y-80426094D01*
X163504381Y-80611947D01*
X163601089Y-80909476D01*
X163601669Y-81069892D01*
X163572145Y-81297504D01*
X163504550Y-81406397D01*
X163364126Y-81447723D01*
X163343167Y-81450290D01*
X163158900Y-81428881D01*
X163112440Y-81311289D01*
X163190390Y-81130664D01*
X163218396Y-80961074D01*
X163145488Y-80792541D01*
X163008867Y-80703107D01*
X162985727Y-80701337D01*
X162885113Y-80770928D01*
X162745712Y-80951318D01*
X162628874Y-81147324D01*
X162432730Y-81448938D01*
X162242269Y-81598720D01*
X162051167Y-81593574D01*
X161853103Y-81430407D01*
X161641753Y-81106122D01*
X161410796Y-80617625D01*
X161375649Y-80533809D01*
X161227866Y-80197252D01*
X161085312Y-79907257D01*
X160971623Y-79710765D01*
X160940878Y-79670349D01*
X160849889Y-79553825D01*
X160896167Y-79515494D01*
X161009756Y-79512040D01*
X161183365Y-79544868D01*
G37*
G36*
X162389187Y-77455631D02*
G01*
X162436849Y-77477417D01*
X162785117Y-77636608D01*
X163103683Y-77902131D01*
X163237333Y-78093911D01*
X163339108Y-78298833D01*
X163361819Y-78411690D01*
X163306115Y-78490314D01*
X163242318Y-78539897D01*
X162960936Y-78656194D01*
X162659922Y-78626923D01*
X162372703Y-78467859D01*
X162132706Y-78194778D01*
X162017149Y-77961705D01*
X161962820Y-77864019D01*
X162354062Y-77864019D01*
X162406434Y-78016534D01*
X162523812Y-78183861D01*
X162683779Y-78338151D01*
X162832836Y-78406566D01*
X162927567Y-78375051D01*
X162941000Y-78318881D01*
X162881367Y-78195329D01*
X162740763Y-78031547D01*
X162576635Y-77885168D01*
X162446427Y-77813834D01*
X162436849Y-77813043D01*
X162354062Y-77864019D01*
X161962820Y-77864019D01*
X161911872Y-77772411D01*
X161807886Y-77745943D01*
X161718026Y-77884528D01*
X161710045Y-77908390D01*
X161713762Y-78091283D01*
X161833637Y-78339555D01*
X161914261Y-78460564D01*
X162050771Y-78665507D01*
X162126421Y-78800574D01*
X162130718Y-78832441D01*
X161972552Y-78779407D01*
X161756439Y-78648184D01*
X161544298Y-78480591D01*
X161424477Y-78355458D01*
X161275830Y-78096889D01*
X161274127Y-77856986D01*
X161348840Y-77685618D01*
X161478819Y-77507064D01*
X161645447Y-77418129D01*
X161908584Y-77390310D01*
X161970560Y-77389595D01*
X162389187Y-77455631D01*
G37*
G36*
X163136582Y-75946040D02*
G01*
X163207272Y-76193411D01*
X163208054Y-76198996D01*
X163267474Y-76356723D01*
X163421736Y-76426280D01*
X163506195Y-76437519D01*
X163727229Y-76492251D01*
X163875231Y-76584774D01*
X163918029Y-76683322D01*
X163827619Y-76759430D01*
X163749024Y-76792237D01*
X163541730Y-76856518D01*
X163406519Y-76878595D01*
X163314878Y-76955619D01*
X163263865Y-77154682D01*
X163216646Y-77355560D01*
X163110491Y-77428150D01*
X163071471Y-77430769D01*
X162937042Y-77374020D01*
X162855768Y-77183631D01*
X162847726Y-77146811D01*
X162788298Y-76934540D01*
X162722031Y-76802152D01*
X162717256Y-76797369D01*
X162556015Y-76708705D01*
X162303541Y-76620793D01*
X162036435Y-76556929D01*
X161867053Y-76538796D01*
X161726781Y-76558805D01*
X161724184Y-76645336D01*
X161749452Y-76697044D01*
X161885337Y-76840760D01*
X162091098Y-76962200D01*
X162293885Y-77071819D01*
X162330451Y-77156521D01*
X162203144Y-77207493D01*
X162022789Y-77218394D01*
X161744812Y-77161241D01*
X161525368Y-77014429D01*
X161390415Y-76814927D01*
X161365908Y-76599708D01*
X161462507Y-76420322D01*
X161608129Y-76338007D01*
X161859812Y-76294708D01*
X162185048Y-76283946D01*
X162495771Y-76278770D01*
X162673193Y-76256734D01*
X162753195Y-76208085D01*
X162771667Y-76124448D01*
X162829530Y-75938296D01*
X162887433Y-75868551D01*
X163024012Y-75831613D01*
X163136582Y-75946040D01*
G37*
G36*
X163228624Y-67742149D02*
G01*
X163403880Y-67911415D01*
X163499569Y-68007575D01*
X163704018Y-68234242D01*
X163844265Y-68429547D01*
X163890579Y-68551950D01*
X163890317Y-68553511D01*
X163930657Y-68677840D01*
X164059827Y-68881037D01*
X164248810Y-69117854D01*
X164534695Y-69470208D01*
X164698841Y-69746701D01*
X164752549Y-69976579D01*
X164707122Y-70189089D01*
X164682730Y-70240744D01*
X164465619Y-70491183D01*
X164152932Y-70639098D01*
X163792089Y-70672962D01*
X163430515Y-70581248D01*
X163381296Y-70557080D01*
X163184320Y-70422086D01*
X162951871Y-70220446D01*
X162856333Y-70125083D01*
X162634653Y-69915071D01*
X162417180Y-69745001D01*
X162339761Y-69697439D01*
X162133373Y-69634873D01*
X162001183Y-69711492D01*
X161935577Y-69935609D01*
X161925000Y-70150465D01*
X161951615Y-70430707D01*
X162054464Y-70632213D01*
X162165601Y-70749648D01*
X162406201Y-70975154D01*
X162017434Y-70977015D01*
X161749320Y-70992543D01*
X161536863Y-71029351D01*
X161486993Y-71047030D01*
X161343286Y-71052683D01*
X161256856Y-70949335D01*
X161175151Y-70706058D01*
X161124651Y-70387812D01*
X161116496Y-70085578D01*
X161135108Y-69955184D01*
X161272070Y-69697860D01*
X161511659Y-69459844D01*
X161791279Y-69297654D01*
X161896941Y-69267293D01*
X162214082Y-69244795D01*
X162493384Y-69321022D01*
X162775123Y-69514204D01*
X163052532Y-69790481D01*
X163358432Y-70086157D01*
X163606327Y-70233259D01*
X163809669Y-70237245D01*
X163940067Y-70150569D01*
X164008808Y-70056005D01*
X164028902Y-69935719D01*
X163993123Y-69761944D01*
X163894242Y-69506911D01*
X163725033Y-69142854D01*
X163623884Y-68935786D01*
X163446769Y-68565030D01*
X163294678Y-68226077D01*
X163186448Y-67962124D01*
X163144978Y-67837675D01*
X163120789Y-67715636D01*
X163141466Y-67680342D01*
X163228624Y-67742149D01*
G37*
G36*
X164037410Y-70800035D02*
G01*
X164041667Y-70838012D01*
X164088253Y-70904087D01*
X164120483Y-70893259D01*
X164227542Y-70906653D01*
X164260565Y-70943846D01*
X164272490Y-71002872D01*
X164215011Y-70977069D01*
X164145282Y-70965395D01*
X164163550Y-71085786D01*
X164165302Y-71091368D01*
X164178955Y-71230069D01*
X164069579Y-71271265D01*
X164037005Y-71271906D01*
X163912073Y-71292461D01*
X163933475Y-71370383D01*
X163945216Y-71385084D01*
X163985020Y-71504336D01*
X163955097Y-71708737D01*
X163870915Y-71977610D01*
X163775540Y-72317477D01*
X163714702Y-72664148D01*
X163703000Y-72836342D01*
X163686614Y-73076288D01*
X163645319Y-73236702D01*
X163623328Y-73265130D01*
X163606332Y-73366633D01*
X163662710Y-73569312D01*
X163706135Y-73673655D01*
X163828664Y-74088198D01*
X163870474Y-74553012D01*
X163898440Y-74948314D01*
X163993504Y-75270808D01*
X164086650Y-75457985D01*
X164229289Y-75789468D01*
X164299105Y-76110973D01*
X164301729Y-76169520D01*
X164307719Y-76619592D01*
X164324020Y-76913103D01*
X164351856Y-77063149D01*
X164387429Y-77086569D01*
X164416015Y-77123896D01*
X164397028Y-77239514D01*
X164354665Y-77363983D01*
X164325599Y-77330982D01*
X164312441Y-77273727D01*
X164278588Y-77186474D01*
X164207788Y-77200167D01*
X164063089Y-77325364D01*
X164033850Y-77353333D01*
X163842831Y-77594751D01*
X163805663Y-77822162D01*
X163924633Y-78060803D01*
X164116045Y-78260835D01*
X164320394Y-78473518D01*
X164386560Y-78620657D01*
X164371341Y-78674231D01*
X164311338Y-78741678D01*
X164296964Y-78659620D01*
X164228936Y-78532488D01*
X164064084Y-78392746D01*
X164036582Y-78375716D01*
X163820064Y-78189714D01*
X163647111Y-77947271D01*
X163639408Y-77931615D01*
X163501319Y-77641070D01*
X163824894Y-77308591D01*
X164014186Y-77097002D01*
X164097646Y-76941404D01*
X164099525Y-76789012D01*
X164087852Y-76736216D01*
X164046351Y-76472089D01*
X164035214Y-76209866D01*
X163994149Y-75950025D01*
X163874784Y-75624726D01*
X163797118Y-75467564D01*
X163656066Y-75179682D01*
X163597529Y-74968046D01*
X163606617Y-74769926D01*
X163618106Y-74713385D01*
X163636512Y-74252432D01*
X163497315Y-73754907D01*
X163420099Y-73591006D01*
X163322498Y-73399157D01*
X163294894Y-73292091D01*
X163336230Y-73200376D01*
X163412604Y-73098876D01*
X163500065Y-72875742D01*
X163523143Y-72556167D01*
X163522706Y-72545822D01*
X163562481Y-72146348D01*
X163707986Y-71808690D01*
X163826625Y-71592936D01*
X163864549Y-71464969D01*
X163825642Y-71365403D01*
X163743358Y-71268020D01*
X163708867Y-71229431D01*
X163787667Y-71229431D01*
X163830000Y-71271906D01*
X163872333Y-71229431D01*
X163830000Y-71186957D01*
X163787667Y-71229431D01*
X163708867Y-71229431D01*
X163576000Y-71080778D01*
X163830000Y-71136034D01*
X163858622Y-71142260D01*
X164044020Y-71175606D01*
X164097290Y-71146934D01*
X164050848Y-71034339D01*
X164042263Y-71018174D01*
X163984324Y-70859647D01*
X163992473Y-70783248D01*
X164037410Y-70800035D01*
G37*
G36*
X166428588Y-70215058D02*
G01*
X166564452Y-70334185D01*
X166838976Y-70585762D01*
X167230931Y-70376660D01*
X167595628Y-70213374D01*
X167845678Y-70174037D01*
X167977585Y-70250752D01*
X167983686Y-70404322D01*
X167869489Y-70582935D01*
X167668399Y-70740336D01*
X167598740Y-70775348D01*
X167410316Y-70882428D01*
X167345660Y-70970003D01*
X167418231Y-71015105D01*
X167457144Y-71017056D01*
X167646801Y-71065011D01*
X167922853Y-71190836D01*
X168238519Y-71367467D01*
X168547015Y-71567848D01*
X168801558Y-71764913D01*
X168882337Y-71841441D01*
X169173495Y-72179379D01*
X169445533Y-72558192D01*
X169669576Y-72932000D01*
X169816751Y-73254927D01*
X169852487Y-73382955D01*
X169940898Y-73616963D01*
X170063520Y-73713597D01*
X170174516Y-73774962D01*
X170180124Y-73820200D01*
X170221166Y-73892218D01*
X170374637Y-73982729D01*
X170403246Y-73995113D01*
X170570834Y-74076353D01*
X170598321Y-74140168D01*
X170528752Y-74205780D01*
X170462663Y-74277964D01*
X170495449Y-74357159D01*
X170647586Y-74476589D01*
X170729916Y-74532114D01*
X170927820Y-74671520D01*
X171049989Y-74772986D01*
X171069000Y-74799533D01*
X170994697Y-74813273D01*
X170807540Y-74798250D01*
X170709488Y-74784125D01*
X170349977Y-74726446D01*
X170582488Y-75032304D01*
X170721912Y-75223591D01*
X170804907Y-75352680D01*
X170815000Y-75377359D01*
X170742751Y-75386925D01*
X170565111Y-75359672D01*
X170527549Y-75351508D01*
X170240099Y-75286461D01*
X170358216Y-75570100D01*
X170453723Y-75829203D01*
X170460531Y-75956258D01*
X170372134Y-75967766D01*
X170226538Y-75903853D01*
X170017465Y-75803081D01*
X169925087Y-75800249D01*
X169917531Y-75911793D01*
X169942396Y-76050334D01*
X169969547Y-76228310D01*
X169941600Y-76269500D01*
X169865363Y-76217951D01*
X169762895Y-76163161D01*
X169703221Y-76242656D01*
X169680261Y-76323640D01*
X169620190Y-76475317D01*
X169564678Y-76517060D01*
X169480900Y-76563664D01*
X169310605Y-76705869D01*
X169084836Y-76916995D01*
X168988140Y-77012568D01*
X168537026Y-77413868D01*
X168065257Y-77714836D01*
X167555334Y-77943033D01*
X167489378Y-77987617D01*
X167551650Y-78032207D01*
X167759932Y-78087151D01*
X167828423Y-78101931D01*
X168172961Y-78204634D01*
X168402419Y-78330025D01*
X168510599Y-78457335D01*
X168491308Y-78565793D01*
X168338349Y-78634629D01*
X168045526Y-78643071D01*
X167988255Y-78637749D01*
X167707487Y-78599714D01*
X167480172Y-78554884D01*
X167407167Y-78533025D01*
X167284434Y-78526935D01*
X167259000Y-78606757D01*
X167194396Y-78765583D01*
X167146782Y-78806982D01*
X167023418Y-78940708D01*
X166975948Y-79034449D01*
X166899954Y-79140100D01*
X166747930Y-79161753D01*
X166624051Y-79146230D01*
X166415003Y-79135814D01*
X166286989Y-79172871D01*
X166279347Y-79181959D01*
X166181430Y-79209000D01*
X166102010Y-79160590D01*
X165980974Y-79101347D01*
X165891436Y-79177703D01*
X165808362Y-79248853D01*
X165765418Y-79198250D01*
X165664860Y-79131592D01*
X165611094Y-79140329D01*
X165482528Y-79137161D01*
X165452749Y-79110153D01*
X165501335Y-79070958D01*
X165675151Y-79050806D01*
X165826469Y-79050905D01*
X166079509Y-79047969D01*
X166180705Y-79013781D01*
X166169981Y-78970122D01*
X166085115Y-78815036D01*
X166035989Y-78683779D01*
X166019842Y-78535342D01*
X166111891Y-78492667D01*
X166116000Y-78492642D01*
X166212279Y-78449708D01*
X166201065Y-78301504D01*
X166147719Y-78110367D01*
X166307300Y-78309143D01*
X166502460Y-78470092D01*
X166751606Y-78582289D01*
X166757107Y-78583755D01*
X167047333Y-78659590D01*
X166751000Y-78626558D01*
X166527602Y-78596391D01*
X166378149Y-78566889D01*
X166370001Y-78564321D01*
X166268758Y-78597696D01*
X166257822Y-78620066D01*
X166312101Y-78696367D01*
X166481146Y-78784045D01*
X166554156Y-78810239D01*
X166877999Y-78915461D01*
X166497000Y-78870866D01*
X166270529Y-78847087D01*
X166192411Y-78854084D01*
X166242985Y-78901484D01*
X166327667Y-78953770D01*
X166597791Y-79068567D01*
X166797159Y-79053992D01*
X166895439Y-78938628D01*
X167000347Y-78774251D01*
X167062115Y-78722033D01*
X167163860Y-78611274D01*
X167143874Y-78516643D01*
X167061329Y-78492642D01*
X166936839Y-78433647D01*
X166767880Y-78287045D01*
X166722009Y-78237793D01*
X166599731Y-78080693D01*
X166563309Y-77990999D01*
X166576213Y-77982943D01*
X166681967Y-78045271D01*
X166775152Y-78152576D01*
X166923161Y-78268794D01*
X167207097Y-78375756D01*
X167581117Y-78467238D01*
X167903694Y-78527404D01*
X168160384Y-78560588D01*
X168308576Y-78561796D01*
X168326231Y-78554507D01*
X168341169Y-78449920D01*
X168224168Y-78337909D01*
X168009581Y-78243092D01*
X167834999Y-78202496D01*
X167561019Y-78142575D01*
X167215423Y-78045814D01*
X166953106Y-77960495D01*
X166649453Y-77861853D01*
X166436785Y-77822181D01*
X166249376Y-77836070D01*
X166058010Y-77886815D01*
X165744804Y-77969767D01*
X165432362Y-78033457D01*
X165374383Y-78042263D01*
X165171082Y-78060761D01*
X165096720Y-78029444D01*
X165113604Y-77935530D01*
X165120507Y-77897992D01*
X165227000Y-77897992D01*
X165295916Y-77972546D01*
X165358997Y-77982943D01*
X165446632Y-77941760D01*
X165438667Y-77897993D01*
X165330423Y-77816284D01*
X165306670Y-77813043D01*
X165229281Y-77877838D01*
X165227000Y-77897992D01*
X165120507Y-77897992D01*
X165132554Y-77832475D01*
X165050888Y-77855495D01*
X165037725Y-77842297D01*
X165126917Y-77735976D01*
X165257661Y-77601240D01*
X165265949Y-77592478D01*
X165525632Y-77592478D01*
X165606383Y-77663739D01*
X165820055Y-77692017D01*
X166116000Y-77675189D01*
X166598790Y-77680853D01*
X166890021Y-77749364D01*
X167126471Y-77818159D01*
X167316456Y-77820759D01*
X167547906Y-77754173D01*
X167628113Y-77724249D01*
X167926066Y-77582160D01*
X168269286Y-77376613D01*
X168601039Y-77145719D01*
X168864595Y-76927588D01*
X168955012Y-76832881D01*
X169018253Y-76707084D01*
X168947891Y-76583508D01*
X168925639Y-76560554D01*
X168854711Y-76504444D01*
X169130183Y-76504444D01*
X169158864Y-76522503D01*
X169206333Y-76496321D01*
X169286832Y-76372259D01*
X169289704Y-76342645D01*
X169256649Y-76309146D01*
X169206333Y-76368896D01*
X169130183Y-76504444D01*
X168854711Y-76504444D01*
X168817603Y-76475088D01*
X168718861Y-76495929D01*
X168588788Y-76607293D01*
X168403310Y-76759254D01*
X168303611Y-76777409D01*
X168275000Y-76671234D01*
X168214844Y-76520986D01*
X168177252Y-76488209D01*
X168118524Y-76478142D01*
X168133966Y-76516012D01*
X168117717Y-76599394D01*
X167993307Y-76652286D01*
X167821073Y-76661021D01*
X167675211Y-76619921D01*
X167515579Y-76495893D01*
X167359214Y-76326958D01*
X167182462Y-76175393D01*
X166998826Y-76114046D01*
X168295404Y-76114046D01*
X168301896Y-76220407D01*
X168341646Y-76195840D01*
X168429186Y-76028285D01*
X168448967Y-75986622D01*
X168577257Y-75658809D01*
X168601840Y-75444421D01*
X168522108Y-75352426D01*
X168492031Y-75349498D01*
X168395280Y-75428805D01*
X168330482Y-75668799D01*
X168296836Y-76072586D01*
X168295404Y-76114046D01*
X166998826Y-76114046D01*
X166783455Y-76084944D01*
X166531572Y-76014695D01*
X166525063Y-76012352D01*
X166331554Y-75957734D01*
X166192359Y-75986237D01*
X166029414Y-76117891D01*
X165998395Y-76147491D01*
X165837542Y-76292316D01*
X165747663Y-76326628D01*
X165681636Y-76261678D01*
X165661418Y-76227948D01*
X165590061Y-76133028D01*
X165574612Y-76181204D01*
X165613888Y-76355619D01*
X165686199Y-76581298D01*
X165761584Y-76943718D01*
X165732311Y-77257277D01*
X165602918Y-77477242D01*
X165594617Y-77484388D01*
X165525632Y-77592478D01*
X165265949Y-77592478D01*
X165306670Y-77549429D01*
X165446616Y-77401482D01*
X165536387Y-77247853D01*
X165553253Y-77072378D01*
X165533990Y-76886491D01*
X165497603Y-76597459D01*
X165467669Y-76344849D01*
X165460995Y-76283946D01*
X165384594Y-76070167D01*
X165248784Y-75885065D01*
X165139086Y-75744586D01*
X165129335Y-75655470D01*
X165133619Y-75652226D01*
X165192029Y-75529573D01*
X165204887Y-75304246D01*
X165178333Y-75035362D01*
X165122113Y-74797324D01*
X165650333Y-74797324D01*
X165692667Y-74839799D01*
X165735000Y-74797324D01*
X165692666Y-74754849D01*
X165650333Y-74797324D01*
X165122113Y-74797324D01*
X165118503Y-74782040D01*
X165031535Y-74603397D01*
X165023795Y-74594331D01*
X164885035Y-74331520D01*
X164820922Y-73964451D01*
X164834418Y-73542795D01*
X164846002Y-73490263D01*
X164948047Y-73490263D01*
X164951088Y-73598702D01*
X164982920Y-73732652D01*
X164990952Y-73926352D01*
X165007361Y-74147687D01*
X165057187Y-74360897D01*
X165123603Y-74515767D01*
X165189781Y-74562079D01*
X165201333Y-74554071D01*
X165296272Y-74561834D01*
X165410629Y-74640405D01*
X165525431Y-74731720D01*
X165562993Y-74703332D01*
X165565667Y-74647125D01*
X165566745Y-74644465D01*
X165713562Y-74644465D01*
X165808654Y-74722691D01*
X165930084Y-74861214D01*
X166070299Y-75095887D01*
X166148475Y-75260383D01*
X166292101Y-75530979D01*
X166331554Y-75583565D01*
X166456616Y-75750257D01*
X166543081Y-75826998D01*
X166834039Y-75925370D01*
X167160866Y-75895908D01*
X167462055Y-75749770D01*
X167582043Y-75638486D01*
X167690666Y-75491790D01*
X167740955Y-75339036D01*
X167744265Y-75120648D01*
X167724242Y-74892308D01*
X167701280Y-74588023D01*
X167718987Y-74386107D01*
X167790020Y-74221370D01*
X167879781Y-74091205D01*
X168019029Y-73937144D01*
X168121049Y-73883153D01*
X168142121Y-73895805D01*
X168120123Y-73995942D01*
X168023372Y-74073977D01*
X167887928Y-74183537D01*
X167851667Y-74261305D01*
X167901868Y-74286619D01*
X168006500Y-74215841D01*
X168223673Y-74089531D01*
X168321511Y-74104657D01*
X168407439Y-74117942D01*
X168526738Y-74281656D01*
X168569606Y-74503564D01*
X168560182Y-74749481D01*
X168508317Y-74962070D01*
X168423859Y-75083992D01*
X168387074Y-75094648D01*
X168229551Y-75029212D01*
X168050222Y-74872459D01*
X167905570Y-74683725D01*
X167853481Y-74537279D01*
X167894000Y-74537279D01*
X168190333Y-74586247D01*
X168396482Y-74612027D01*
X168516653Y-74611545D01*
X168523356Y-74608666D01*
X168507891Y-74536687D01*
X168472102Y-74493881D01*
X168321511Y-74447188D01*
X168139080Y-74471463D01*
X167894000Y-74537279D01*
X167853481Y-74537279D01*
X167851667Y-74532178D01*
X167830553Y-74431623D01*
X167805213Y-74433342D01*
X167789063Y-74541233D01*
X167814025Y-74700886D01*
X167937198Y-74908565D01*
X168164218Y-75100420D01*
X168432014Y-75232030D01*
X168492031Y-75242734D01*
X168614339Y-75264548D01*
X168720825Y-75254523D01*
X168770706Y-75197681D01*
X168774435Y-75053885D01*
X168742468Y-74782992D01*
X168741548Y-74776087D01*
X168707781Y-74442285D01*
X168680470Y-74025494D01*
X168665234Y-73612618D01*
X168664823Y-73589653D01*
X168648864Y-73254452D01*
X168616720Y-72982043D01*
X168574520Y-72819364D01*
X168561668Y-72799800D01*
X168415567Y-72759888D01*
X168204735Y-72814819D01*
X167980069Y-72935311D01*
X167792462Y-73092084D01*
X167692811Y-73255854D01*
X167687700Y-73302631D01*
X167711394Y-73355872D01*
X167768702Y-73249531D01*
X167893715Y-73093461D01*
X168080163Y-73001936D01*
X168263843Y-72994677D01*
X168367458Y-73065592D01*
X168434839Y-73206875D01*
X168379024Y-73258397D01*
X168200360Y-73245349D01*
X168006868Y-73248175D01*
X167899030Y-73302537D01*
X167927077Y-73369470D01*
X168113872Y-73395403D01*
X168143003Y-73395652D01*
X168345810Y-73411165D01*
X168429705Y-73480312D01*
X168444333Y-73603013D01*
X168404664Y-73807516D01*
X168287527Y-73861937D01*
X168095731Y-73765789D01*
X167994277Y-73681019D01*
X167863920Y-73569963D01*
X167842765Y-73571182D01*
X167887279Y-73629264D01*
X167971956Y-73761887D01*
X167957140Y-73820270D01*
X167953781Y-73820401D01*
X167873946Y-73749161D01*
X167751375Y-73561605D01*
X167611429Y-73296967D01*
X167599763Y-73272634D01*
X167359991Y-72848753D01*
X167109057Y-72550694D01*
X166862873Y-72395263D01*
X166751000Y-72376254D01*
X166525435Y-72452194D01*
X166276128Y-72661570D01*
X166033116Y-72976715D01*
X165952219Y-73112054D01*
X165833809Y-73334538D01*
X165763850Y-73485622D01*
X165754931Y-73524488D01*
X165838374Y-73572890D01*
X165960462Y-73638025D01*
X166099607Y-73776049D01*
X166236283Y-74015609D01*
X166285395Y-74137993D01*
X166437708Y-74554991D01*
X166561897Y-74840693D01*
X166677570Y-75026814D01*
X166804333Y-75145072D01*
X166957739Y-75225482D01*
X167192816Y-75343050D01*
X167296926Y-75438033D01*
X167257408Y-75496550D01*
X167212942Y-75505239D01*
X166783068Y-75519572D01*
X166479886Y-75441606D01*
X166282447Y-75262240D01*
X166193097Y-75062207D01*
X166095103Y-74864835D01*
X165967740Y-74694586D01*
X165796609Y-74506899D01*
X166019805Y-74404863D01*
X166180446Y-74307955D01*
X166243000Y-74226501D01*
X166189605Y-74191447D01*
X166036890Y-74279100D01*
X165841787Y-74441597D01*
X165716631Y-74567271D01*
X165713562Y-74644465D01*
X165566745Y-74644465D01*
X165622070Y-74507954D01*
X165692667Y-74413576D01*
X165763598Y-74318752D01*
X165829649Y-74248204D01*
X165988806Y-74079254D01*
X166039780Y-73973990D01*
X165996763Y-73878666D01*
X165943527Y-73816920D01*
X165789888Y-73690742D01*
X165679545Y-73650501D01*
X165596626Y-73632430D01*
X165579401Y-73561380D01*
X165635402Y-73412091D01*
X165772165Y-73159309D01*
X165882314Y-72970775D01*
X166175870Y-72559920D01*
X166469983Y-72318949D01*
X166751000Y-72251161D01*
X166764713Y-72247853D01*
X167060124Y-72346617D01*
X167356278Y-72615227D01*
X167390293Y-72656891D01*
X167621417Y-72947517D01*
X167969375Y-72747858D01*
X168290930Y-72591275D01*
X168516570Y-72562641D01*
X168670571Y-72673621D01*
X168777209Y-72935881D01*
X168826518Y-73159734D01*
X168876606Y-73362770D01*
X168953748Y-73438562D01*
X169105560Y-73428509D01*
X169130156Y-73423681D01*
X169256649Y-73423355D01*
X169367872Y-73423068D01*
X169504503Y-73482130D01*
X169633633Y-73558202D01*
X169682927Y-73515198D01*
X169663164Y-73377567D01*
X169585125Y-73169756D01*
X169459589Y-72916215D01*
X169297338Y-72641393D01*
X169109152Y-72369738D01*
X168906935Y-72126905D01*
X168343988Y-71626090D01*
X167734423Y-71284373D01*
X167449732Y-71182946D01*
X167209227Y-71123042D01*
X167061236Y-71129911D01*
X166941732Y-71206157D01*
X166524153Y-71477515D01*
X166028552Y-71649493D01*
X165620432Y-71696655D01*
X165308852Y-71716752D01*
X165140989Y-71793772D01*
X165094225Y-71952811D01*
X165145939Y-72218963D01*
X165146835Y-72222101D01*
X165187078Y-72613308D01*
X165117272Y-73040936D01*
X165012066Y-73310373D01*
X164948047Y-73490263D01*
X164846002Y-73490263D01*
X164928485Y-73116218D01*
X164934575Y-73097952D01*
X165020553Y-72812465D01*
X165043623Y-72603716D01*
X165007550Y-72392265D01*
X164973487Y-72276549D01*
X164877375Y-71933618D01*
X164862604Y-71715410D01*
X164950767Y-71593826D01*
X165163459Y-71540769D01*
X165522271Y-71528141D01*
X165548705Y-71528056D01*
X165982359Y-71494843D01*
X166353060Y-71381297D01*
X166729506Y-71162984D01*
X166878000Y-71055293D01*
X167135998Y-70889856D01*
X167209227Y-70852594D01*
X167424742Y-70742932D01*
X167450690Y-70731920D01*
X167688787Y-70597136D01*
X167828245Y-70445234D01*
X167842577Y-70308882D01*
X167819618Y-70276985D01*
X167713224Y-70278156D01*
X167508370Y-70354579D01*
X167245032Y-70483673D01*
X166963191Y-70642854D01*
X166702826Y-70809540D01*
X166503914Y-70961148D01*
X166406436Y-71075096D01*
X166406367Y-71075277D01*
X166329651Y-71234935D01*
X166284340Y-71260404D01*
X166292663Y-71144454D01*
X166301184Y-71109491D01*
X166390149Y-70925649D01*
X166509244Y-70768590D01*
X166618598Y-70590288D01*
X166588862Y-70464940D01*
X166444672Y-70422408D01*
X166358095Y-70384014D01*
X166364517Y-70346359D01*
X166352362Y-70260184D01*
X166234639Y-70212228D01*
X166073748Y-70219159D01*
X165997070Y-70248175D01*
X165841072Y-70357254D01*
X165725522Y-70478906D01*
X165685244Y-70569934D01*
X165719636Y-70592307D01*
X165844731Y-70530060D01*
X165861999Y-70507357D01*
X165985545Y-70427037D01*
X166015164Y-70424297D01*
X166027855Y-70468146D01*
X165925319Y-70572818D01*
X165905598Y-70588386D01*
X165762309Y-70728564D01*
X165756660Y-70802708D01*
X165865918Y-70799315D01*
X166067349Y-70706881D01*
X166100374Y-70686947D01*
X166301645Y-70573551D01*
X166443968Y-70513686D01*
X166464660Y-70510759D01*
X166452567Y-70546829D01*
X166324657Y-70630657D01*
X166299800Y-70644419D01*
X166095315Y-70816750D01*
X165943281Y-71044529D01*
X165866090Y-71206980D01*
X165831506Y-71221376D01*
X165822981Y-71123244D01*
X165767904Y-70965785D01*
X165658260Y-70932107D01*
X165542472Y-70894916D01*
X165539972Y-70755932D01*
X165543489Y-70740969D01*
X165616322Y-70540647D01*
X165672929Y-70443645D01*
X165699612Y-70355760D01*
X165618367Y-70337458D01*
X165499269Y-70384782D01*
X165481000Y-70431496D01*
X165419413Y-70488299D01*
X165354000Y-70476637D01*
X165244914Y-70473611D01*
X165227001Y-70507357D01*
X165165738Y-70553929D01*
X165111127Y-70542362D01*
X164999638Y-70574602D01*
X164946980Y-70682968D01*
X164876327Y-70814768D01*
X164730458Y-70824818D01*
X164687758Y-70815066D01*
X164523994Y-70803121D01*
X164451325Y-70904032D01*
X164440102Y-70953213D01*
X164411602Y-71081808D01*
X164397834Y-71047221D01*
X164391864Y-70967502D01*
X164405966Y-70798793D01*
X164435236Y-70735437D01*
X164550720Y-70711273D01*
X164689235Y-70730488D01*
X164839666Y-70741088D01*
X164887044Y-70642831D01*
X164888333Y-70601517D01*
X164948305Y-70446419D01*
X165036500Y-70409469D01*
X165271420Y-70378007D01*
X165462921Y-70315751D01*
X165505818Y-70297515D01*
X165653699Y-70264914D01*
X165707440Y-70281489D01*
X165804999Y-70276639D01*
X165934294Y-70207035D01*
X166108752Y-70107552D01*
X166255423Y-70106575D01*
X166428588Y-70215058D01*
G37*
D11*
%TO.C,J2*%
X216320000Y-71430000D02*
X216320000Y-71320000D01*
X219079999Y-72700000D02*
X219080000Y-74080000D01*
X219080000Y-71320000D02*
X216320000Y-71320000D01*
X219080000Y-71430000D02*
X216320000Y-71430000D01*
X219080000Y-71430000D02*
X219080000Y-71320000D01*
X219080000Y-74080000D02*
X217700000Y-74079999D01*
D13*
%TO.C,D7*%
X196450000Y-97400000D02*
X199150000Y-97400000D01*
X199150000Y-99000000D02*
X196450000Y-99000000D01*
D14*
X197500000Y-97400001D02*
X197500000Y-99000622D01*
X196899300Y-99000622D01*
X196899299Y-97400000D01*
X197500000Y-97400001D01*
G36*
X197500000Y-97400001D02*
G01*
X197500000Y-99000622D01*
X196899300Y-99000622D01*
X196899299Y-97400000D01*
X197500000Y-97400001D01*
G37*
D11*
%TO.C,J12*%
X212720000Y-71060000D02*
X214100000Y-71060001D01*
X212720000Y-73710000D02*
X212720000Y-83980000D01*
X212720000Y-73710000D02*
X215480000Y-73710000D01*
X212720000Y-83980000D02*
X215480000Y-83980000D01*
X212720001Y-72440000D02*
X212720000Y-71060000D01*
X215480000Y-73710000D02*
X215480000Y-83980000D01*
%TO.C,R4*%
X190932776Y-75577500D02*
X191442224Y-75577500D01*
X190932776Y-76622500D02*
X191442224Y-76622500D01*
%TO.C,C4*%
X190753733Y-61690000D02*
X191046267Y-61690000D01*
X190753733Y-62710000D02*
X191046267Y-62710000D01*
%TO.C,J9*%
X199720000Y-101730000D02*
X199720000Y-101620000D01*
X202479999Y-103000000D02*
X202480000Y-104380000D01*
X202480000Y-101620000D02*
X199720000Y-101620000D01*
X202480000Y-101730000D02*
X199720000Y-101730000D01*
X202480000Y-101730000D02*
X202480000Y-101620000D01*
X202480000Y-104380000D02*
X201100000Y-104379999D01*
%TO.C,R10*%
X222677502Y-70917224D02*
X222677502Y-70407776D01*
X223722502Y-70917224D02*
X223722502Y-70407776D01*
%TO.C,R1*%
X203577500Y-99717224D02*
X203577500Y-99207776D01*
X204622500Y-99717224D02*
X204622500Y-99207776D01*
%TO.C,C10*%
X217146267Y-85090000D02*
X216853733Y-85090000D01*
X217146267Y-86110000D02*
X216853733Y-86110000D01*
%TO.C,D2*%
X203365000Y-101240000D02*
X203365000Y-103700000D01*
X204835000Y-101240000D02*
X203365000Y-101240000D01*
X204835000Y-103700000D02*
X204835000Y-101240000D01*
D13*
%TO.C,U2*%
X174266000Y-81595000D02*
X174266000Y-95565000D01*
X176171000Y-79690000D02*
X193316000Y-79690000D01*
X176171000Y-97470000D02*
X193316000Y-97470000D01*
D15*
X195221000Y-95564999D02*
X195221000Y-81595001D01*
D13*
X195221000Y-95564999D02*
X195221000Y-81595001D01*
X195221001Y-84085000D02*
X196231272Y-84088728D01*
X196230999Y-93084000D02*
X195221001Y-93084000D01*
X196731000Y-84588728D02*
X196731000Y-92584000D01*
X174266000Y-81595000D02*
G75*
G02*
X176171000Y-79690000I1905001J-1D01*
G01*
X176171000Y-97470000D02*
G75*
G02*
X174266000Y-95565000I0J1905000D01*
G01*
X193316000Y-79690000D02*
G75*
G02*
X195221000Y-81595001I-3J-1905003D01*
G01*
X195221000Y-95564999D02*
G75*
G02*
X193316000Y-97470000I-1905000J-1D01*
G01*
X196231272Y-84088728D02*
G75*
G02*
X196730999Y-84588728I-291J-500018D01*
G01*
X196731000Y-92584000D02*
G75*
G02*
X196230999Y-93084000I-500000J0D01*
G01*
D16*
X194452000Y-80819000D02*
G75*
G02*
X193948000Y-80819000I-252000J0D01*
G01*
X193948000Y-80819000D02*
G75*
G02*
X194452000Y-80819000I252000J0D01*
G01*
X195332000Y-79676000D02*
G75*
G02*
X194828000Y-79676000I-252000J0D01*
G01*
X194828000Y-79676000D02*
G75*
G02*
X195332000Y-79676000I252000J0D01*
G01*
D11*
%TO.C,D5*%
X189527500Y-76865000D02*
X189527500Y-78335000D01*
X189527500Y-78335000D02*
X191987500Y-78335000D01*
X191987500Y-76865000D02*
X189527500Y-76865000D01*
%TO.C,C6*%
X225840001Y-70808767D02*
X225840001Y-70516233D01*
X226860001Y-70808767D02*
X226860001Y-70516233D01*
D17*
%TO.C,U4*%
X221548002Y-74464501D02*
X226452002Y-74464501D01*
X221548002Y-77660501D02*
X221548002Y-74464501D01*
X226452002Y-74464501D02*
X226452002Y-77660501D01*
X226452002Y-77660501D02*
X221548002Y-77660501D01*
X226580002Y-72587500D02*
X226580002Y-74114500D01*
D11*
%TO.C,C12*%
X217146267Y-86590000D02*
X216853733Y-86590000D01*
X217146267Y-87610000D02*
X216853733Y-87610000D01*
D18*
%TO.C,U1*%
X186077600Y-60123600D02*
X186077600Y-60842987D01*
X186077600Y-62757013D02*
X186077600Y-63476400D01*
X186077600Y-63476400D02*
X186292985Y-63476400D01*
X186292985Y-60123600D02*
X186077600Y-60123600D01*
X188707015Y-63476400D02*
X188922400Y-63476400D01*
X188922400Y-60123600D02*
X188707015Y-60123600D01*
X188922400Y-60842987D02*
X188922400Y-60123600D01*
X188922400Y-63476400D02*
X188922400Y-62757013D01*
D12*
G36*
X187440501Y-60098200D02*
G01*
X187059500Y-60098200D01*
X187059500Y-59844200D01*
X187440500Y-59844200D01*
X187440501Y-60098200D01*
G37*
D11*
%TO.C,C7*%
X221190000Y-70646267D02*
X221190000Y-70353733D01*
X222210000Y-70646267D02*
X222210000Y-70353733D01*
%TO.C,R7*%
X186954724Y-58577500D02*
X186445276Y-58577500D01*
X186954724Y-59622500D02*
X186445276Y-59622500D01*
%TO.C,D6*%
X228500002Y-79672500D02*
X228500002Y-76412500D01*
X228500002Y-79672500D02*
X230200002Y-79672500D01*
X230200002Y-79672500D02*
X230200002Y-76412500D01*
%TO.C,J10*%
X222020000Y-99530000D02*
X222020000Y-99420000D01*
X224779999Y-100800000D02*
X224780000Y-102180000D01*
X224780000Y-99420000D02*
X222020000Y-99420000D01*
X224780000Y-99530000D02*
X222020000Y-99530000D01*
X224780000Y-99530000D02*
X224780000Y-99420000D01*
X224780000Y-102180000D02*
X223400000Y-102179999D01*
%TO.C,C5*%
X224240002Y-70808769D02*
X224240002Y-70516235D01*
X225260002Y-70808769D02*
X225260002Y-70516235D01*
%TO.C,C3*%
X190753733Y-60090000D02*
X191046267Y-60090000D01*
X190753733Y-61110000D02*
X191046267Y-61110000D01*
D18*
%TO.C,J4*%
X171080400Y-53442600D02*
X171766201Y-53442600D01*
X171080400Y-57557400D02*
X171080400Y-53442600D01*
X171766201Y-57557400D02*
X171080400Y-57557400D01*
X181926199Y-53442600D02*
X182459600Y-53950600D01*
X182459600Y-53950600D02*
X182459600Y-57557400D01*
X182459600Y-57557400D02*
X181773799Y-57557400D01*
X182713599Y-53341000D02*
X183983600Y-52706000D01*
X183983600Y-52706000D02*
X183983600Y-53976000D01*
X183983600Y-53976000D02*
X182713599Y-53341000D01*
D11*
%TO.C,C2*%
X201990000Y-99253733D02*
X201990000Y-99546267D01*
X203010000Y-99253733D02*
X203010000Y-99546267D01*
%TO.C,R8*%
X187777500Y-65145276D02*
X187777500Y-65654724D01*
X188822500Y-65145276D02*
X188822500Y-65654724D01*
%TO.C,U5*%
X165900000Y-61040001D02*
X163950000Y-61040000D01*
X165900000Y-61040001D02*
X167850000Y-61040000D01*
X165900000Y-66159999D02*
X163950000Y-66160000D01*
X165900000Y-66159999D02*
X167850000Y-66160000D01*
X163200000Y-61135000D02*
X162960001Y-60805000D01*
X163440000Y-60805000D01*
X163200000Y-61135000D01*
G36*
X163200000Y-61135000D02*
G01*
X162960001Y-60805000D01*
X163440000Y-60805000D01*
X163200000Y-61135000D01*
G37*
%TO.C,J3*%
X188270000Y-37010000D02*
X188270000Y-45690000D01*
X188270000Y-45690000D02*
X196930000Y-45690000D01*
X188565736Y-47200000D02*
X188565736Y-47800000D01*
X188565736Y-47800000D02*
X188990000Y-47500000D01*
X188990000Y-47500000D02*
X188565736Y-47200000D01*
X189950000Y-45690000D02*
X189950000Y-46140000D01*
X189950000Y-46140000D02*
X190250000Y-46140000D01*
X190250000Y-45690000D02*
X189950000Y-45690000D01*
X190250000Y-46140000D02*
X190250000Y-45690000D01*
X192450000Y-45690000D02*
X192450000Y-46140000D01*
X192450000Y-46140000D02*
X192750000Y-46140000D01*
X192750000Y-45690000D02*
X192450000Y-45690000D01*
X192750000Y-46140000D02*
X192750000Y-45690000D01*
X194950000Y-45690000D02*
X194950000Y-46140000D01*
X194950000Y-46140000D02*
X195250000Y-46140000D01*
X195250000Y-45690000D02*
X194950000Y-45690000D01*
X195250000Y-46140000D02*
X195250000Y-45690000D01*
X196930000Y-37010000D02*
X188270000Y-37010000D01*
X196930000Y-45690000D02*
X196930000Y-37010000D01*
%TO.C,J8*%
X184520000Y-45230000D02*
X184520000Y-45120000D01*
X187279999Y-46500000D02*
X187280000Y-47880000D01*
X187280000Y-45120000D02*
X184520000Y-45120000D01*
X187280000Y-45230000D02*
X184520000Y-45230000D01*
X187280000Y-45230000D02*
X187280000Y-45120000D01*
X187280000Y-47880000D02*
X185900000Y-47879999D01*
%TO.C,J1*%
X214540001Y-96680000D02*
X214540002Y-95300000D01*
X215920001Y-96679999D02*
X214540001Y-96680000D01*
X217190001Y-93920000D02*
X227460001Y-93920000D01*
X217190001Y-96680000D02*
X217190001Y-93920000D01*
X217190001Y-96680000D02*
X227460001Y-96680000D01*
X227460001Y-96680000D02*
X227460001Y-93920000D01*
%TO.C,D3*%
X228050001Y-72247501D02*
X230510001Y-72247501D01*
X230510001Y-70777501D02*
X228050001Y-70777501D01*
X230510001Y-72247501D02*
X230510001Y-70777501D01*
%TO.C,C1*%
X190753733Y-63290000D02*
X191046267Y-63290000D01*
X190753733Y-64310000D02*
X191046267Y-64310000D01*
%TO.C,C11*%
X217146267Y-88090000D02*
X216853733Y-88090000D01*
X217146267Y-89110000D02*
X216853733Y-89110000D01*
%TO.C,L1*%
X219090000Y-80090000D02*
X231310000Y-80090000D01*
X219090000Y-83190000D02*
X219090000Y-80090000D01*
X219090000Y-92310000D02*
X219090000Y-89210000D01*
X229153001Y-92310000D02*
X219090000Y-92310000D01*
X231310000Y-80090000D02*
X231310000Y-83190000D01*
X231310000Y-89210000D02*
X231310000Y-92310000D01*
X231310000Y-92310000D02*
X229747000Y-92310000D01*
X229690000Y-92640000D02*
X229210000Y-92640000D01*
X229450000Y-92310000D01*
X229690000Y-92640000D01*
G36*
X229690000Y-92640000D02*
G01*
X229210000Y-92640000D01*
X229450000Y-92310000D01*
X229690000Y-92640000D01*
G37*
%TO.C,R3*%
X191077500Y-66454724D02*
X191077500Y-65945276D01*
X192122500Y-66454724D02*
X192122500Y-65945276D01*
D13*
%TO.C,F1*%
X205200000Y-97535000D02*
X221200000Y-97535000D01*
X205200000Y-104265000D02*
X205200000Y-97535000D01*
X221200000Y-97535000D02*
X221200000Y-104265000D01*
X221200000Y-104265000D02*
X205200000Y-104265000D01*
D11*
%TO.C,D4*%
X189309365Y-65400000D02*
X189309365Y-67860000D01*
X189309365Y-67860000D02*
X190779365Y-67860000D01*
X190779365Y-67860000D02*
X190779365Y-65400000D01*
%TO.C,R9*%
X219877500Y-74154724D02*
X219877500Y-73645276D01*
X220922500Y-74154724D02*
X220922500Y-73645276D01*
%TO.C,C13*%
X168553733Y-59090000D02*
X168846267Y-59090000D01*
X168553733Y-60110000D02*
X168846267Y-60110000D01*
%TD*%
%LPC*%
D19*
%TO.C,C9*%
X227550002Y-77137501D03*
X227550002Y-78862503D03*
%TD*%
D20*
%TO.C,C8*%
X220439001Y-78247303D03*
X220439001Y-76522301D03*
%TD*%
D21*
%TO.C,J11*%
X185900000Y-50100000D03*
%TD*%
D22*
%TO.C,R2*%
X229687500Y-69900000D03*
X231512500Y-69900000D03*
%TD*%
D21*
%TO.C,J7*%
X214900000Y-68700000D03*
D23*
X212360000Y-68700000D03*
X209820001Y-68700000D03*
X207280000Y-68700000D03*
X204740000Y-68700000D03*
X202200000Y-68700000D03*
X199660000Y-68700000D03*
%TD*%
%TO.C,J6*%
X246250000Y-77040000D03*
X238750000Y-77040000D03*
D24*
X246250000Y-69860000D03*
D25*
X243750000Y-69860000D03*
X241250000Y-69860000D03*
X238750000Y-69860000D03*
%TD*%
D21*
%TO.C,J2*%
X217700000Y-72700000D03*
%TD*%
D26*
%TO.C,D7*%
X199435001Y-98200000D03*
X196164999Y-98200000D03*
%TD*%
D21*
%TO.C,J12*%
X214100000Y-72440000D03*
D23*
X214100000Y-74980000D03*
X214100000Y-77519999D03*
X214100000Y-80060000D03*
X214100000Y-82600000D03*
%TD*%
D22*
%TO.C,R4*%
X190275000Y-76100000D03*
X192100000Y-76100000D03*
%TD*%
D27*
%TO.C,C4*%
X190037499Y-62200000D03*
X191762501Y-62200000D03*
%TD*%
D21*
%TO.C,J9*%
X201100000Y-103000000D03*
%TD*%
D28*
%TO.C,R10*%
X223200002Y-71575000D03*
X223200002Y-69750000D03*
%TD*%
%TO.C,R1*%
X204100000Y-100375000D03*
X204100000Y-98550000D03*
%TD*%
D29*
%TO.C,C10*%
X217862501Y-85600000D03*
X216137499Y-85600000D03*
%TD*%
D30*
%TO.C,D2*%
X204100000Y-102025001D03*
X204100000Y-103774999D03*
%TD*%
D31*
%TO.C,U2*%
X192300000Y-80125000D03*
D32*
X192300000Y-80960000D03*
D31*
X189760000Y-80125000D03*
D32*
X189760000Y-80960000D03*
D31*
X187220000Y-80125000D03*
D32*
X187220000Y-80960000D03*
D31*
X184680000Y-80125000D03*
D32*
X184680000Y-80960000D03*
D31*
X182140000Y-80125000D03*
D32*
X182140000Y-80960000D03*
D31*
X179600000Y-80125000D03*
D32*
X179600000Y-80960000D03*
D31*
X177060000Y-80125000D03*
D32*
X177060000Y-80960000D03*
X177060000Y-96200000D03*
D33*
X177060000Y-97035000D03*
D32*
X179600000Y-96200000D03*
D33*
X179600000Y-97035000D03*
D32*
X182140000Y-96200000D03*
D33*
X182140000Y-97035000D03*
D32*
X184680000Y-96200000D03*
D33*
X184680000Y-97035000D03*
D32*
X187220000Y-96200000D03*
D33*
X187220000Y-97035000D03*
D32*
X189760000Y-96200000D03*
D33*
X189760000Y-97035000D03*
D32*
X192300000Y-96200000D03*
D33*
X192300000Y-97035000D03*
%TD*%
D34*
%TO.C,D5*%
X190312501Y-77600000D03*
X192062499Y-77600000D03*
%TD*%
D20*
%TO.C,C6*%
X226350001Y-71525001D03*
X226350001Y-69799999D03*
%TD*%
D35*
%TO.C,U4*%
X225905002Y-73351501D03*
X224635002Y-73351501D03*
X223365002Y-73351501D03*
X222095002Y-73351501D03*
X222095002Y-78773501D03*
X223365002Y-78773501D03*
X224635002Y-78773501D03*
X225905002Y-78773501D03*
%TD*%
D29*
%TO.C,C12*%
X217862501Y-87100000D03*
X216137499Y-87100000D03*
%TD*%
D36*
%TO.C,U1*%
X186749999Y-63010300D03*
X187250000Y-63010300D03*
X187750000Y-63010300D03*
X188250001Y-63010300D03*
D37*
X188456300Y-62299999D03*
X188456300Y-61800000D03*
X188456300Y-61300001D03*
D36*
X188250001Y-60589700D03*
X187750000Y-60589700D03*
X187250000Y-60589700D03*
X186749999Y-60589700D03*
D37*
X186543700Y-61300001D03*
X186543700Y-61800000D03*
X186543700Y-62299999D03*
%TD*%
D20*
%TO.C,C7*%
X221700000Y-71362501D03*
X221700000Y-69637499D03*
%TD*%
D38*
%TO.C,R7*%
X187612500Y-59100000D03*
X185787500Y-59100000D03*
%TD*%
D39*
%TO.C,D6*%
X229350002Y-78912499D03*
X229350002Y-76412501D03*
%TD*%
D21*
%TO.C,J10*%
X223400000Y-100800000D03*
%TD*%
D20*
%TO.C,C5*%
X224750002Y-71525003D03*
X224750002Y-69800001D03*
%TD*%
D27*
%TO.C,C3*%
X190037499Y-60600000D03*
X191762501Y-60600000D03*
%TD*%
D40*
%TO.C,J4*%
X181170000Y-53350000D03*
X181170000Y-57650000D03*
X180370000Y-53350000D03*
X180370000Y-57650000D03*
X179570000Y-53349999D03*
X179570000Y-57650001D03*
X178770000Y-53350000D03*
X178770000Y-57650000D03*
X177970001Y-53350000D03*
X177970001Y-57650000D03*
X177170003Y-53350000D03*
X177170003Y-57650000D03*
X176370000Y-53350000D03*
X176370000Y-57650000D03*
X175569999Y-53350000D03*
X175569999Y-57650000D03*
X174770000Y-53350000D03*
X174770000Y-57650000D03*
X173970000Y-53349999D03*
X173970000Y-57650001D03*
X173170000Y-53350000D03*
X173170000Y-57650000D03*
X172370000Y-53350000D03*
X172370000Y-57650000D03*
D41*
X161000000Y-55500000D03*
D42*
X161000000Y-55500000D03*
D41*
X191750001Y-55500000D03*
D42*
X191750001Y-55500000D03*
D41*
X191750000Y-101970001D03*
D42*
X191750000Y-101970001D03*
D41*
X161010000Y-101970000D03*
D42*
X161010000Y-101970000D03*
%TD*%
D19*
%TO.C,C2*%
X202500000Y-98537499D03*
X202500000Y-100262501D03*
%TD*%
D43*
%TO.C,R8*%
X188300000Y-64487500D03*
X188300000Y-66312500D03*
%TD*%
D44*
%TO.C,U5*%
X163425000Y-61695000D03*
X163425000Y-62965000D03*
X163425000Y-64235000D03*
X163425000Y-65505000D03*
X168375000Y-65505000D03*
X168375000Y-64235000D03*
X168375000Y-62965000D03*
X168375000Y-61695000D03*
%TD*%
D23*
%TO.C,J3*%
X190100000Y-40320000D03*
X195100000Y-40320000D03*
D45*
X190100000Y-47500000D03*
D25*
X192600000Y-47500000D03*
X195100000Y-47500000D03*
%TD*%
D21*
%TO.C,J8*%
X185900000Y-46500000D03*
%TD*%
%TO.C,J1*%
X215920001Y-95300000D03*
D23*
X218460001Y-95300000D03*
X221000000Y-95300000D03*
X223540001Y-95300000D03*
X226080001Y-95300000D03*
%TD*%
D46*
%TO.C,D3*%
X229725000Y-71512501D03*
X227975002Y-71512501D03*
%TD*%
D27*
%TO.C,C1*%
X190037499Y-63800000D03*
X191762501Y-63800000D03*
%TD*%
D29*
%TO.C,C11*%
X217862501Y-88600000D03*
X216137499Y-88600000D03*
%TD*%
D47*
%TO.C,L1*%
X229450000Y-86200000D03*
X220950000Y-86200000D03*
%TD*%
D28*
%TO.C,R3*%
X191600000Y-67112500D03*
X191600000Y-65287500D03*
%TD*%
D48*
%TO.C,F1*%
X218160000Y-102600000D03*
X218160000Y-99200000D03*
X208240000Y-102600000D03*
X208240000Y-99200000D03*
%TD*%
D49*
%TO.C,D4*%
X190044365Y-67074999D03*
X190044365Y-65325001D03*
%TD*%
D28*
%TO.C,R9*%
X220400000Y-74812500D03*
X220400000Y-72987500D03*
%TD*%
D27*
%TO.C,C13*%
X167837500Y-59600000D03*
X169562500Y-59600000D03*
%TD*%
%LPD*%
M02*
