%TF.GenerationSoftware,KiCad,Pcbnew,9.0.4*%
%TF.CreationDate,2026-02-28T23:21:01-06:00*%
%TF.ProjectId,Wheels Board,57686565-6c73-4204-926f-6172642e6b69,rev?*%
%TF.SameCoordinates,Original*%
%TF.FileFunction,Copper,L2,Bot*%
%TF.FilePolarity,Positive*%
%FSLAX46Y46*%
G04 Gerber Fmt 4.6, Leading zero omitted, Abs format (unit mm)*
G04 Created by KiCad (PCBNEW 9.0.4) date 2026-02-28 23:21:01*
%MOMM*%
%LPD*%
G01*
G04 APERTURE LIST*
G04 Aperture macros list*
%AMRoundRect*
0 Rectangle with rounded corners*
0 $1 Rounding radius*
0 $2 $3 $4 $5 $6 $7 $8 $9 X,Y pos of 4 corners*
0 Add a 4 corners polygon primitive as box body*
4,1,4,$2,$3,$4,$5,$6,$7,$8,$9,$2,$3,0*
0 Add four circle primitives for the rounded corners*
1,1,$1+$1,$2,$3*
1,1,$1+$1,$4,$5*
1,1,$1+$1,$6,$7*
1,1,$1+$1,$8,$9*
0 Add four rect primitives between the rounded corners*
20,1,$1+$1,$2,$3,$4,$5,0*
20,1,$1+$1,$4,$5,$6,$7,0*
20,1,$1+$1,$6,$7,$8,$9,0*
20,1,$1+$1,$8,$9,$2,$3,0*%
G04 Aperture macros list end*
%TA.AperFunction,ComponentPad*%
%ADD10R,1.700000X1.700000*%
%TD*%
%TA.AperFunction,ComponentPad*%
%ADD11C,1.700000*%
%TD*%
%TA.AperFunction,ComponentPad*%
%ADD12RoundRect,0.250000X-0.600000X0.850000X-0.600000X-0.850000X0.600000X-0.850000X0.600000X0.850000X0*%
%TD*%
%TA.AperFunction,ComponentPad*%
%ADD13O,1.700000X2.200000*%
%TD*%
%TA.AperFunction,ComponentPad*%
%ADD14C,1.524000*%
%TD*%
%TA.AperFunction,ComponentPad*%
%ADD15C,3.600000*%
%TD*%
%TA.AperFunction,ConnectorPad*%
%ADD16C,6.400000*%
%TD*%
%TA.AperFunction,ComponentPad*%
%ADD17RoundRect,0.250000X0.600000X-0.850000X0.600000X0.850000X-0.600000X0.850000X-0.600000X-0.850000X0*%
%TD*%
%TA.AperFunction,ComponentPad*%
%ADD18C,2.400000*%
%TD*%
%TA.AperFunction,ViaPad*%
%ADD19C,0.600000*%
%TD*%
%TA.AperFunction,Conductor*%
%ADD20C,0.500000*%
%TD*%
%TA.AperFunction,Conductor*%
%ADD21C,0.200000*%
%TD*%
G04 APERTURE END LIST*
D10*
%TO.P,J11,1,Pin_1*%
%TO.N,/HALL_OUT*%
X185900000Y-50100000D03*
%TD*%
%TO.P,J7,1,Pin_1*%
%TO.N,GND*%
X214900000Y-68700000D03*
D11*
%TO.P,J7,2,Pin_2*%
%TO.N,/IMU_INT2*%
X212360000Y-68700000D03*
%TO.P,J7,3,Pin_3*%
%TO.N,/IMU_SPI_MISO*%
X209820001Y-68700000D03*
%TO.P,J7,4,Pin_4*%
%TO.N,/IMU_SPI_MOSI*%
X207280000Y-68700000D03*
%TO.P,J7,5,Pin_5*%
%TO.N,/IMU_SPI_CLK*%
X204740000Y-68700000D03*
%TO.P,J7,6,Pin_6*%
%TO.N,/IMU_SPI_SS*%
X202200000Y-68700000D03*
%TO.P,J7,7,Pin_7*%
%TO.N,/IMU_INT1*%
X199660000Y-68700000D03*
%TD*%
D12*
%TO.P,J6,1,Pin_1*%
%TO.N,+24V*%
X246250000Y-69860000D03*
D13*
%TO.P,J6,2,Pin_2*%
%TO.N,/CAN_H*%
X243750000Y-69860000D03*
%TO.P,J6,3,Pin_3*%
%TO.N,GND*%
X241250000Y-69860000D03*
%TO.P,J6,4,Pin_4*%
%TO.N,/CAN_L*%
X238750000Y-69860000D03*
%TD*%
D10*
%TO.P,J2,1,Pin_1*%
%TO.N,+24V*%
X217700000Y-72700000D03*
%TD*%
%TO.P,J12,1,Pin_1*%
%TO.N,/ESP_UART_RX*%
X214100000Y-72440000D03*
D11*
%TO.P,J12,2,Pin_2*%
%TO.N,/ESP_UART_TX*%
X214100000Y-74980000D03*
%TO.P,J12,3,Pin_3*%
%TO.N,/EXTRA_GPIO1*%
X214100000Y-77519999D03*
%TO.P,J12,4,Pin_4*%
%TO.N,/EXTRA_GPIO2*%
X214100000Y-80060000D03*
%TO.P,J12,5,Pin_5*%
%TO.N,GND*%
X214100000Y-82600000D03*
%TD*%
D10*
%TO.P,J9,1,Pin_1*%
%TO.N,+5V*%
X201100000Y-103000000D03*
%TD*%
D14*
%TO.P,U2,1,GPIO1_A0_D0*%
%TO.N,/XIAO_HEARTBEAT_LED*%
X192300000Y-80960000D03*
%TO.P,U2,2,GPIO2_A1_D1*%
%TO.N,/EXTRA_GPIO1*%
X189760000Y-80960000D03*
%TO.P,U2,3,GPIO3_A2_D2*%
%TO.N,/EXTRA_GPIO2*%
X187220000Y-80960000D03*
%TO.P,U2,4,GPIO4_A3_D3*%
%TO.N,/ESP_SPI_SS*%
X184680000Y-80960000D03*
%TO.P,U2,5,GPIO5_A4_D4_SDA*%
%TO.N,unconnected-(U2-GPIO5_A4_D4_SDA-Pad5)*%
X182140000Y-80960000D03*
%TO.P,U2,6,GPIO6_A5_D5_SCL*%
%TO.N,unconnected-(U2-GPIO6_A5_D5_SCL-Pad6)_1*%
X179600000Y-80960000D03*
%TO.P,U2,7,GPIO43_A6_D6_TX*%
%TO.N,/ESP_UART_TX*%
X177060000Y-80960000D03*
%TO.P,U2,8,GPIO44_D7_RX*%
%TO.N,/ESP_UART_RX*%
X177060000Y-96200000D03*
%TO.P,U2,9,GPIO7_A8_D8_SCK*%
%TO.N,/ESP_SPI_CLK*%
X179600000Y-96200000D03*
%TO.P,U2,10,GPIO8_A9_D9_MISO*%
%TO.N,/ESP_SPI_MISO*%
X182140000Y-96200000D03*
%TO.P,U2,11,GPIO9_A10_D10_MOSI*%
%TO.N,/ESP_SPI_MOSI*%
X184680000Y-96200000D03*
%TO.P,U2,12,3V3*%
%TO.N,unconnected-(U2-3V3-Pad12)*%
X187220000Y-96200000D03*
%TO.P,U2,13,GND*%
%TO.N,GND*%
X189760000Y-96200000D03*
%TO.P,U2,14,5V*%
%TO.N,Net-(U2-5V)*%
X192300000Y-96200000D03*
%TD*%
D10*
%TO.P,J10,1,Pin_1*%
%TO.N,GND*%
X223400000Y-100800000D03*
%TD*%
D15*
%TO.P,J4,25,MNT*%
%TO.N,unconnected-(J4-MNT-Pad25)*%
X161000000Y-55500000D03*
D16*
%TO.N,unconnected-(J4-MNT-Pad25)_2*%
X161000000Y-55500000D03*
D15*
%TO.P,J4,26,MNT*%
%TO.N,unconnected-(J4-MNT-Pad26)_2*%
X191750001Y-55500000D03*
D16*
%TO.N,unconnected-(J4-MNT-Pad26)*%
X191750001Y-55500000D03*
D15*
%TO.P,J4,27,MNT*%
%TO.N,unconnected-(J4-MNT-Pad27)_2*%
X191750000Y-101970001D03*
D16*
%TO.N,unconnected-(J4-MNT-Pad27)_1*%
X191750000Y-101970001D03*
D15*
%TO.P,J4,28,MNT*%
%TO.N,unconnected-(J4-MNT-Pad28)_2*%
X161010000Y-101970000D03*
D16*
%TO.N,unconnected-(J4-MNT-Pad28)*%
X161010000Y-101970000D03*
%TD*%
D17*
%TO.P,J3,1,Pin_1*%
%TO.N,GND*%
X190100000Y-47500000D03*
D13*
%TO.P,J3,2,Pin_2*%
%TO.N,Net-(J3-Pin_2)*%
X192600000Y-47500000D03*
%TO.P,J3,3,Pin_3*%
%TO.N,/HALL_OUT*%
X195100000Y-47500000D03*
%TD*%
D10*
%TO.P,J8,1,Pin_1*%
%TO.N,+3.3V*%
X185900000Y-46500000D03*
%TD*%
%TO.P,J1,1,Pin_1*%
%TO.N,/ESP_SPI_MOSI*%
X215920001Y-95300000D03*
D11*
%TO.P,J1,2,Pin_2*%
%TO.N,/ESP_SPI_MISO*%
X218460001Y-95300000D03*
%TO.P,J1,3,Pin_3*%
%TO.N,/ESP_SPI_CLK*%
X221000000Y-95300000D03*
%TO.P,J1,4,Pin_4*%
%TO.N,/ESP_SPI_SS*%
X223540001Y-95300000D03*
%TO.P,J1,5,Pin_5*%
%TO.N,GND*%
X226080001Y-95300000D03*
%TD*%
D18*
%TO.P,F1,1*%
%TO.N,+5V*%
X218160000Y-102600000D03*
X218160000Y-99200000D03*
%TO.P,F1,2*%
%TO.N,Net-(J3-Pin_2)*%
X208240000Y-102600000D03*
X208240000Y-99200000D03*
%TD*%
D19*
%TO.N,+3.3V*%
X184200000Y-54000000D03*
X181918513Y-57515729D03*
X169700000Y-56200000D03*
%TO.N,GND*%
X198700000Y-77700000D03*
X217194695Y-69197278D03*
X234300000Y-68700000D03*
X178659600Y-63720000D03*
X168659600Y-87720000D03*
X186800000Y-69200000D03*
X228100000Y-91400000D03*
X184400000Y-58500000D03*
X185800000Y-74800000D03*
X184300000Y-56300000D03*
X183100000Y-62600000D03*
X198700000Y-88400000D03*
X194000000Y-68400000D03*
X210300000Y-77800000D03*
X168659600Y-67720000D03*
X197900000Y-39700000D03*
X171300000Y-63000000D03*
X188100000Y-38900000D03*
X186659600Y-53470000D03*
X224200001Y-81212501D03*
X168659600Y-77720000D03*
X228500000Y-101000000D03*
X176659600Y-70720000D03*
X201500000Y-74000000D03*
X248600000Y-69900000D03*
X182700000Y-87200000D03*
X187500000Y-61800000D03*
X160659600Y-87720000D03*
X160659600Y-96720000D03*
X209300000Y-88300000D03*
X160659600Y-67720000D03*
X171659600Y-103720000D03*
X160659600Y-59720000D03*
X234800000Y-77800000D03*
X213200000Y-100900000D03*
X194400000Y-61000000D03*
X248300000Y-79600000D03*
X160659600Y-77720000D03*
%TO.N,+24V*%
X192600000Y-72200000D03*
X173620563Y-62579435D03*
%TO.N,/HALL_OUT*%
X169600000Y-52600000D03*
%TO.N,/ESP_SPI_CLK*%
X172157600Y-89600000D03*
%TO.N,/IMU_SPI_SS*%
X191150000Y-68650000D03*
X185700000Y-60500000D03*
%TO.N,/IMU_SPI_MISO*%
X173885335Y-55794265D03*
X186074265Y-65825735D03*
%TO.N,/IMU_SPI_CLK*%
X171800000Y-52989082D03*
%TO.N,/IMU_SPI_MOSI*%
X178759600Y-59050002D03*
X175611073Y-55420000D03*
X191350000Y-69750000D03*
%TO.N,/ESP_UART_TX*%
X179559600Y-59120000D03*
X179659600Y-62420000D03*
X181459600Y-65900000D03*
%TO.N,/IMU_INT2*%
X182724265Y-55975735D03*
X184744485Y-62255515D03*
%TO.N,/IMU_INT1*%
X193522368Y-65611080D03*
X182669513Y-54542509D03*
%TO.N,/ESP_UART_RX*%
X180359600Y-59119999D03*
X178500000Y-61221000D03*
X183766450Y-64933550D03*
%TO.N,Net-(J3-Pin_2)*%
X219900000Y-70500000D03*
X210000000Y-91600000D03*
%TO.N,/CAN_L*%
X173359600Y-60620000D03*
%TO.N,/CAN_H*%
X172859600Y-59320000D03*
%TO.N,/HALL_PSOM*%
X168900000Y-55600000D03*
X177157921Y-54319000D03*
%TD*%
D20*
%TO.N,+3.3V*%
X181918513Y-57515729D02*
X181918513Y-54231434D01*
X173429000Y-54471000D02*
X175943846Y-54471000D01*
X182649947Y-53500000D02*
X183568585Y-53500000D01*
X181902784Y-57500000D02*
X181918513Y-57515729D01*
X184068585Y-54000000D02*
X184200000Y-54000000D01*
X175943846Y-54471000D02*
X178972846Y-57500000D01*
X178972846Y-57500000D02*
X181902784Y-57500000D01*
X169700000Y-56200000D02*
X171700000Y-56200000D01*
X183568585Y-53500000D02*
X184068585Y-54000000D01*
X181918513Y-54231434D02*
X182649947Y-53500000D01*
X171700000Y-56200000D02*
X173429000Y-54471000D01*
%TO.N,+24V*%
X173620563Y-62579435D02*
X183341128Y-72300000D01*
X183341128Y-72300000D02*
X192500000Y-72300000D01*
X192500000Y-72300000D02*
X192600000Y-72200000D01*
D21*
%TO.N,/HALL_OUT*%
X183610918Y-52389082D02*
X185900000Y-50100000D01*
X169810918Y-52389082D02*
X183610918Y-52389082D01*
X169600000Y-52600000D02*
X169810918Y-52389082D01*
%TO.N,/ESP_SPI_CLK*%
X172157600Y-89600000D02*
X173000000Y-89600000D01*
X173000000Y-89600000D02*
X179600000Y-96200000D01*
%TO.N,/IMU_SPI_SS*%
X190677285Y-68177285D02*
X190383412Y-68177285D01*
X185700000Y-63493873D02*
X185700000Y-60500000D01*
X191150000Y-68650000D02*
X190677285Y-68177285D01*
X190383412Y-68177285D02*
X185700000Y-63493873D01*
%TO.N,/IMU_SPI_MISO*%
X173500000Y-59800000D02*
X181400000Y-67700000D01*
X173500000Y-56179600D02*
X173500000Y-59800000D01*
X173885335Y-55794265D02*
X173500000Y-56179600D01*
X181400000Y-67700000D02*
X181500000Y-67700000D01*
X184200000Y-67700000D02*
X186074265Y-65825735D01*
X181500000Y-67700000D02*
X184200000Y-67700000D01*
%TO.N,/IMU_SPI_CLK*%
X194000000Y-64143547D02*
X194000000Y-65247943D01*
X171800000Y-53000000D02*
X172000000Y-52800000D01*
X184100000Y-52800000D02*
X184800000Y-53500000D01*
X184800000Y-53500000D02*
X184800000Y-54943547D01*
X195902764Y-67149293D02*
X195902764Y-67150707D01*
X195549293Y-66797236D02*
X195550707Y-66797236D01*
X195550707Y-66797236D02*
X195902764Y-67149293D01*
X172000000Y-52800000D02*
X184100000Y-52800000D01*
X194000000Y-65247943D02*
X195549293Y-66797236D01*
X184800000Y-54943547D02*
X194000000Y-64143547D01*
X171800000Y-52989082D02*
X171661600Y-53127482D01*
X203540000Y-67500000D02*
X204740000Y-68700000D01*
X171800000Y-52989082D02*
X171800000Y-53000000D01*
X195902764Y-67150707D02*
X196252057Y-67500000D01*
X196252057Y-67500000D02*
X203540000Y-67500000D01*
%TO.N,/IMU_SPI_MOSI*%
X178759600Y-59050002D02*
X178958600Y-59050002D01*
X190600000Y-68960973D02*
X184143485Y-62504458D01*
X179310658Y-58518999D02*
X178759600Y-59070057D01*
X184143485Y-62053941D02*
X180608543Y-58518999D01*
X178759600Y-58259600D02*
X178759600Y-59050002D01*
X180608543Y-58518999D02*
X179310658Y-58518999D01*
X175920000Y-55420000D02*
X178759600Y-58259600D01*
X184143485Y-62504458D02*
X184143485Y-62053941D01*
X175611073Y-55420000D02*
X175920000Y-55420000D01*
X190600000Y-69000000D02*
X190600000Y-68960973D01*
X178759600Y-59070057D02*
X178759600Y-59050002D01*
X191350000Y-69750000D02*
X190600000Y-69000000D01*
%TO.N,/ESP_UART_TX*%
X177899000Y-61699000D02*
X178620000Y-62420000D01*
X179659600Y-64100000D02*
X179659600Y-62420000D01*
X181459600Y-65900000D02*
X179659600Y-64100000D01*
X177899000Y-60780600D02*
X177899000Y-61699000D01*
X179559600Y-59120000D02*
X177899000Y-60780600D01*
X178620000Y-62420000D02*
X179659600Y-62420000D01*
%TO.N,/IMU_INT2*%
X184544485Y-62055515D02*
X184744485Y-62255515D01*
X182000000Y-59343356D02*
X184544485Y-61887841D01*
X183224265Y-56475735D02*
X183224265Y-57175735D01*
X182724265Y-55975735D02*
X183224265Y-56475735D01*
X183224265Y-57175735D02*
X182000000Y-58400000D01*
X182000000Y-58400000D02*
X182000000Y-59343356D01*
X184544485Y-61887841D02*
X184544485Y-62055515D01*
%TO.N,/IMU_INT1*%
X198960000Y-68000000D02*
X199660000Y-68700000D01*
X193522368Y-65490675D02*
X193599000Y-65414043D01*
X182857491Y-54542509D02*
X182669513Y-54542509D01*
X193599000Y-64309647D02*
X183668840Y-54379487D01*
X193522368Y-65618840D02*
X195903528Y-68000000D01*
X193522368Y-65611080D02*
X193522368Y-65490675D01*
X193522368Y-65611080D02*
X193522368Y-65618840D01*
X183668840Y-54379487D02*
X183020513Y-54379487D01*
X195903528Y-68000000D02*
X198960000Y-68000000D01*
X183020513Y-54379487D02*
X182857491Y-54542509D01*
X193599000Y-65414043D02*
X193599000Y-64309647D01*
%TO.N,/ESP_UART_RX*%
X183766450Y-64866450D02*
X180121000Y-61221000D01*
X180121000Y-61221000D02*
X178500000Y-61221000D01*
X183766450Y-64933550D02*
X183766450Y-64866450D01*
X178500000Y-61221000D02*
X180359600Y-59361400D01*
X180359600Y-59361400D02*
X180359600Y-59119999D01*
%TO.N,Net-(J3-Pin_2)*%
X187800000Y-57376447D02*
X194401000Y-63977447D01*
X194401000Y-63977447D02*
X194401000Y-64901000D01*
X194401000Y-64901000D02*
X196599000Y-67099000D01*
X192000000Y-48100000D02*
X187800000Y-52300000D01*
X192000000Y-46885000D02*
X192000000Y-48100000D01*
X196599000Y-67099000D02*
X216499000Y-67099000D01*
X187800000Y-52300000D02*
X187800000Y-57376447D01*
X210000000Y-91600000D02*
X210000000Y-97440000D01*
X216499000Y-67099000D02*
X219900000Y-70500000D01*
X210000000Y-97440000D02*
X208240000Y-99200000D01*
%TO.N,/CAN_L*%
X173359600Y-60620000D02*
X183839600Y-71100000D01*
X211153668Y-71100000D02*
X212066668Y-70187000D01*
X220100000Y-71800000D02*
X237400000Y-71800000D01*
X183839600Y-71100000D02*
X211153668Y-71100000D01*
X212066668Y-70187000D02*
X218487000Y-70187000D01*
X237400000Y-71800000D02*
X238750000Y-70450000D01*
X238750000Y-70450000D02*
X238750000Y-69860000D01*
X218487000Y-70187000D02*
X220100000Y-71800000D01*
%TO.N,/CAN_H*%
X241310000Y-72300000D02*
X243750000Y-69860000D01*
X212232768Y-70588000D02*
X218188000Y-70588000D01*
X183389657Y-71500000D02*
X211320768Y-71500000D01*
X219900000Y-72300000D02*
X241310000Y-72300000D01*
X172859600Y-59320000D02*
X172758600Y-59421000D01*
X172758600Y-60868943D02*
X183389657Y-71500000D01*
X211320768Y-71500000D02*
X212232768Y-70588000D01*
X218188000Y-70588000D02*
X219900000Y-72300000D01*
X172758600Y-59421000D02*
X172758600Y-60868943D01*
%TO.N,/HALL_PSOM*%
X168900000Y-55600000D02*
X171500000Y-55600000D01*
X171500000Y-55600000D02*
X173180000Y-53920000D01*
X173180000Y-53920000D02*
X176758921Y-53920000D01*
X176758921Y-53920000D02*
X177157921Y-54319000D01*
%TD*%
%TA.AperFunction,Conductor*%
%TO.N,GND*%
G36*
X169073249Y-52298858D02*
G01*
X169119004Y-52351662D01*
X169128948Y-52420820D01*
X169125987Y-52435252D01*
X169099500Y-52534108D01*
X169099500Y-52534110D01*
X169099500Y-52665891D01*
X169133608Y-52793187D01*
X169155572Y-52831229D01*
X169199500Y-52907314D01*
X169292686Y-53000500D01*
X169406814Y-53066392D01*
X169534108Y-53100500D01*
X169534110Y-53100500D01*
X169665890Y-53100500D01*
X169665892Y-53100500D01*
X169793186Y-53066392D01*
X169907314Y-53000500D01*
X170000500Y-52907314D01*
X170066392Y-52793186D01*
X170069526Y-52781486D01*
X170105892Y-52721828D01*
X170168739Y-52691299D01*
X170189301Y-52689582D01*
X171200495Y-52689582D01*
X171267534Y-52709267D01*
X171313289Y-52762071D01*
X171323233Y-52831229D01*
X171320270Y-52845673D01*
X171299500Y-52923190D01*
X171299500Y-53054974D01*
X171311698Y-53100499D01*
X171333608Y-53182269D01*
X171350782Y-53212015D01*
X171399500Y-53296396D01*
X171492686Y-53389582D01*
X171606814Y-53455474D01*
X171734108Y-53489582D01*
X171734110Y-53489582D01*
X171865890Y-53489582D01*
X171865892Y-53489582D01*
X171993186Y-53455474D01*
X172107314Y-53389582D01*
X172200500Y-53296396D01*
X172266392Y-53182268D01*
X172266393Y-53182261D01*
X172268556Y-53177044D01*
X172312399Y-53122642D01*
X172378694Y-53100579D01*
X172383116Y-53100500D01*
X182112982Y-53100500D01*
X182180021Y-53120185D01*
X182225776Y-53172989D01*
X182235720Y-53242147D01*
X182206695Y-53305703D01*
X182200663Y-53312181D01*
X181558026Y-53954817D01*
X181558022Y-53954823D01*
X181498714Y-54057546D01*
X181498713Y-54057551D01*
X181468013Y-54172125D01*
X181468013Y-56925500D01*
X181448328Y-56992539D01*
X181395524Y-57038294D01*
X181344013Y-57049500D01*
X179210811Y-57049500D01*
X179143772Y-57029815D01*
X179123130Y-57013181D01*
X177141130Y-55031181D01*
X177107645Y-54969858D01*
X177112629Y-54900166D01*
X177154501Y-54844233D01*
X177215856Y-54821348D01*
X177215753Y-54820561D01*
X177219175Y-54820110D01*
X177219965Y-54819816D01*
X177221949Y-54819745D01*
X177223804Y-54819500D01*
X177223813Y-54819500D01*
X177351107Y-54785392D01*
X177465235Y-54719500D01*
X177558421Y-54626314D01*
X177624313Y-54512186D01*
X177658421Y-54384892D01*
X177658421Y-54253108D01*
X177624313Y-54125814D01*
X177558421Y-54011686D01*
X177465235Y-53918500D01*
X177408171Y-53885554D01*
X177351108Y-53852608D01*
X177287460Y-53835554D01*
X177223813Y-53818500D01*
X177133754Y-53818500D01*
X177066715Y-53798815D01*
X177046073Y-53782181D01*
X176943434Y-53679542D01*
X176943432Y-53679540D01*
X176933639Y-53673886D01*
X176874912Y-53639980D01*
X176874911Y-53639979D01*
X176849434Y-53633152D01*
X176798483Y-53619500D01*
X173219562Y-53619500D01*
X173140438Y-53619500D01*
X173064010Y-53639978D01*
X172995489Y-53679540D01*
X172995486Y-53679542D01*
X171411848Y-55263181D01*
X171350525Y-55296666D01*
X171324167Y-55299500D01*
X169358676Y-55299500D01*
X169291637Y-55279815D01*
X169270995Y-55263181D01*
X169207316Y-55199502D01*
X169207314Y-55199500D01*
X169107280Y-55141745D01*
X169093187Y-55133608D01*
X169015103Y-55112686D01*
X168965892Y-55099500D01*
X168834108Y-55099500D01*
X168706812Y-55133608D01*
X168592686Y-55199500D01*
X168592683Y-55199502D01*
X168499502Y-55292683D01*
X168499500Y-55292686D01*
X168433608Y-55406812D01*
X168399500Y-55534108D01*
X168399500Y-55665891D01*
X168433608Y-55793187D01*
X168454208Y-55828866D01*
X168499500Y-55907314D01*
X168592686Y-56000500D01*
X168706814Y-56066392D01*
X168834108Y-56100500D01*
X168834110Y-56100500D01*
X168965889Y-56100500D01*
X168965892Y-56100500D01*
X169043410Y-56079729D01*
X169113256Y-56081392D01*
X169171118Y-56120554D01*
X169198623Y-56184782D01*
X169199500Y-56199504D01*
X169199500Y-56265892D01*
X169209730Y-56304071D01*
X169233608Y-56393187D01*
X169258428Y-56436175D01*
X169299500Y-56507314D01*
X169392686Y-56600500D01*
X169481138Y-56651568D01*
X169501425Y-56663281D01*
X169506814Y-56666392D01*
X169634108Y-56700500D01*
X169634110Y-56700500D01*
X169765890Y-56700500D01*
X169765892Y-56700500D01*
X169893186Y-56666392D01*
X169893194Y-56666387D01*
X169900696Y-56663281D01*
X169901249Y-56664618D01*
X169953937Y-56650500D01*
X171759308Y-56650500D01*
X171759309Y-56650500D01*
X171849673Y-56626286D01*
X171873887Y-56619799D01*
X171976614Y-56560489D01*
X173579284Y-54957819D01*
X173640607Y-54924334D01*
X173666965Y-54921500D01*
X175106180Y-54921500D01*
X175173219Y-54941185D01*
X175218974Y-54993989D01*
X175228918Y-55063147D01*
X175213567Y-55107500D01*
X175144682Y-55226810D01*
X175144682Y-55226811D01*
X175144681Y-55226813D01*
X175144681Y-55226814D01*
X175110573Y-55354108D01*
X175110573Y-55485892D01*
X175123492Y-55534108D01*
X175144681Y-55613187D01*
X175150447Y-55623173D01*
X175210573Y-55727314D01*
X175303759Y-55820500D01*
X175400653Y-55876442D01*
X175417883Y-55886390D01*
X175417887Y-55886392D01*
X175545181Y-55920500D01*
X175545183Y-55920500D01*
X175676963Y-55920500D01*
X175676965Y-55920500D01*
X175804259Y-55886392D01*
X175810446Y-55882820D01*
X175821494Y-55876442D01*
X175889394Y-55859968D01*
X175955421Y-55882820D01*
X175971176Y-55896147D01*
X178422781Y-58347752D01*
X178437484Y-58374679D01*
X178454077Y-58400498D01*
X178454968Y-58406698D01*
X178456266Y-58409075D01*
X178459100Y-58435433D01*
X178459100Y-58591325D01*
X178439415Y-58658364D01*
X178422782Y-58679006D01*
X178359100Y-58742688D01*
X178293208Y-58856814D01*
X178285489Y-58885623D01*
X178259100Y-58984110D01*
X178259100Y-59115894D01*
X178262026Y-59126814D01*
X178293208Y-59243189D01*
X178300145Y-59255204D01*
X178359100Y-59357316D01*
X178452286Y-59450502D01*
X178535395Y-59498485D01*
X178583610Y-59549052D01*
X178596832Y-59617660D01*
X178570864Y-59682524D01*
X178561075Y-59693553D01*
X177714489Y-60540140D01*
X177658541Y-60596087D01*
X177658535Y-60596095D01*
X177618982Y-60664604D01*
X177618979Y-60664609D01*
X177611322Y-60693186D01*
X177598500Y-60741038D01*
X177598500Y-61738562D01*
X177603283Y-61756412D01*
X177618979Y-61814991D01*
X177618981Y-61814994D01*
X177638198Y-61848278D01*
X177638199Y-61848279D01*
X177658540Y-61883511D01*
X178379540Y-62604511D01*
X178435489Y-62660460D01*
X178435491Y-62660461D01*
X178435495Y-62660464D01*
X178484868Y-62688969D01*
X178504011Y-62700021D01*
X178580438Y-62720500D01*
X179200924Y-62720500D01*
X179230364Y-62729144D01*
X179260351Y-62735668D01*
X179265366Y-62739422D01*
X179267963Y-62740185D01*
X179288605Y-62756819D01*
X179322781Y-62790995D01*
X179356266Y-62852318D01*
X179359100Y-62878676D01*
X179359100Y-64139562D01*
X179363498Y-64155975D01*
X179379579Y-64215990D01*
X179379580Y-64215991D01*
X179404720Y-64259535D01*
X179419140Y-64284511D01*
X179419142Y-64284513D01*
X180922781Y-65788152D01*
X180956266Y-65849475D01*
X180959100Y-65875833D01*
X180959100Y-65965891D01*
X180993208Y-66093187D01*
X181015193Y-66131265D01*
X181059100Y-66207314D01*
X181152286Y-66300500D01*
X181266414Y-66366392D01*
X181393708Y-66400500D01*
X181393710Y-66400500D01*
X181525490Y-66400500D01*
X181525492Y-66400500D01*
X181652786Y-66366392D01*
X181766914Y-66300500D01*
X181860100Y-66207314D01*
X181925992Y-66093186D01*
X181960100Y-65965892D01*
X181960100Y-65834108D01*
X181925992Y-65706814D01*
X181860100Y-65592686D01*
X181766914Y-65499500D01*
X181662110Y-65438991D01*
X181652787Y-65433608D01*
X181589139Y-65416554D01*
X181525492Y-65399500D01*
X181435433Y-65399500D01*
X181368394Y-65379815D01*
X181347752Y-65363181D01*
X179996419Y-64011848D01*
X179962934Y-63950525D01*
X179960100Y-63924167D01*
X179960100Y-62878676D01*
X179979785Y-62811637D01*
X179996419Y-62790995D01*
X180026704Y-62760710D01*
X180060100Y-62727314D01*
X180125992Y-62613186D01*
X180160100Y-62485892D01*
X180160100Y-62354108D01*
X180125992Y-62226814D01*
X180060100Y-62112686D01*
X179966914Y-62019500D01*
X179909850Y-61986554D01*
X179852787Y-61953608D01*
X179750717Y-61926259D01*
X179725492Y-61919500D01*
X179593708Y-61919500D01*
X179466412Y-61953608D01*
X179352286Y-62019500D01*
X179352283Y-62019502D01*
X179288605Y-62083181D01*
X179227282Y-62116666D01*
X179200924Y-62119500D01*
X178795833Y-62119500D01*
X178766392Y-62110855D01*
X178736406Y-62104332D01*
X178731390Y-62100577D01*
X178728794Y-62099815D01*
X178708152Y-62083181D01*
X178544708Y-61919737D01*
X178511223Y-61858414D01*
X178516207Y-61788722D01*
X178558079Y-61732789D01*
X178600293Y-61712282D01*
X178693186Y-61687392D01*
X178807314Y-61621500D01*
X178870995Y-61557819D01*
X178932318Y-61524334D01*
X178958676Y-61521500D01*
X179945167Y-61521500D01*
X180012206Y-61541185D01*
X180032848Y-61557819D01*
X183231637Y-64756608D01*
X183265122Y-64817931D01*
X183266896Y-64860469D01*
X183265950Y-64867656D01*
X183265950Y-64999441D01*
X183300058Y-65126737D01*
X183320650Y-65162402D01*
X183365950Y-65240864D01*
X183459136Y-65334050D01*
X183573264Y-65399942D01*
X183700558Y-65434050D01*
X183700560Y-65434050D01*
X183832340Y-65434050D01*
X183832342Y-65434050D01*
X183959636Y-65399942D01*
X184073764Y-65334050D01*
X184166950Y-65240864D01*
X184232842Y-65126736D01*
X184266950Y-64999442D01*
X184266950Y-64867658D01*
X184232842Y-64740364D01*
X184166950Y-64626236D01*
X184073764Y-64533050D01*
X183991371Y-64485480D01*
X183959637Y-64467158D01*
X183895989Y-64450104D01*
X183832342Y-64433050D01*
X183832341Y-64433050D01*
X183809383Y-64433050D01*
X183742344Y-64413365D01*
X183721702Y-64396731D01*
X180305512Y-60980541D01*
X180305507Y-60980537D01*
X180291812Y-60972630D01*
X180291810Y-60972630D01*
X180261161Y-60954934D01*
X180236990Y-60940979D01*
X180204666Y-60932318D01*
X180160562Y-60920500D01*
X180160560Y-60920500D01*
X179524833Y-60920500D01*
X179457794Y-60900815D01*
X179412039Y-60848011D01*
X179402095Y-60778853D01*
X179431120Y-60715297D01*
X179437152Y-60708819D01*
X179711863Y-60434108D01*
X180557319Y-59588650D01*
X180582991Y-59568951D01*
X180666914Y-59520499D01*
X180760100Y-59427313D01*
X180800742Y-59356918D01*
X180851308Y-59308703D01*
X180919915Y-59295479D01*
X180984780Y-59321447D01*
X180995810Y-59331237D01*
X183806666Y-62142093D01*
X183840151Y-62203416D01*
X183842985Y-62229774D01*
X183842985Y-62544020D01*
X183843037Y-62544213D01*
X183863464Y-62620449D01*
X183863466Y-62620452D01*
X183891131Y-62668368D01*
X183891133Y-62668370D01*
X183903027Y-62688972D01*
X186358152Y-65144097D01*
X186391637Y-65205420D01*
X186386653Y-65275112D01*
X186344781Y-65331045D01*
X186279317Y-65355462D01*
X186238378Y-65351553D01*
X186173055Y-65334050D01*
X186140157Y-65325235D01*
X186008373Y-65325235D01*
X185881077Y-65359343D01*
X185766951Y-65425235D01*
X185766948Y-65425237D01*
X185673767Y-65518418D01*
X185673765Y-65518421D01*
X185607873Y-65632547D01*
X185573765Y-65759843D01*
X185573765Y-65849901D01*
X185554080Y-65916940D01*
X185537446Y-65937582D01*
X184111848Y-67363181D01*
X184050525Y-67396666D01*
X184024167Y-67399500D01*
X181575833Y-67399500D01*
X181508794Y-67379815D01*
X181488152Y-67363181D01*
X173836819Y-59711848D01*
X173803334Y-59650525D01*
X173800500Y-59624167D01*
X173800500Y-56418765D01*
X173820185Y-56351726D01*
X173872989Y-56305971D01*
X173924500Y-56294765D01*
X173951225Y-56294765D01*
X173951227Y-56294765D01*
X174078521Y-56260657D01*
X174192649Y-56194765D01*
X174285835Y-56101579D01*
X174351727Y-55987451D01*
X174385835Y-55860157D01*
X174385835Y-55728373D01*
X174351727Y-55601079D01*
X174285835Y-55486951D01*
X174192649Y-55393765D01*
X174123961Y-55354108D01*
X174078522Y-55327873D01*
X174014874Y-55310819D01*
X173951227Y-55293765D01*
X173819443Y-55293765D01*
X173692147Y-55327873D01*
X173578021Y-55393765D01*
X173578018Y-55393767D01*
X173484837Y-55486948D01*
X173484835Y-55486951D01*
X173418943Y-55601077D01*
X173384835Y-55728373D01*
X173384835Y-55818430D01*
X173376190Y-55847869D01*
X173369668Y-55877855D01*
X173365912Y-55882872D01*
X173365150Y-55885469D01*
X173348518Y-55906110D01*
X173315490Y-55939139D01*
X173259538Y-55995091D01*
X173259535Y-55995095D01*
X173219982Y-56063604D01*
X173219979Y-56063609D01*
X173199500Y-56140039D01*
X173199500Y-58731320D01*
X173179815Y-58798359D01*
X173127011Y-58844114D01*
X173057853Y-58854058D01*
X173043407Y-58851095D01*
X172925492Y-58819500D01*
X172793708Y-58819500D01*
X172666412Y-58853608D01*
X172552286Y-58919500D01*
X172552283Y-58919502D01*
X172459102Y-59012683D01*
X172459100Y-59012686D01*
X172393208Y-59126812D01*
X172368538Y-59218885D01*
X172359100Y-59254108D01*
X172359100Y-59385892D01*
X172393208Y-59513186D01*
X172413915Y-59549052D01*
X172441487Y-59596806D01*
X172458100Y-59658807D01*
X172458100Y-60908505D01*
X172461314Y-60920500D01*
X172478579Y-60984934D01*
X172478581Y-60984937D01*
X172503335Y-61027811D01*
X172503336Y-61027814D01*
X172518135Y-61053447D01*
X172518141Y-61053455D01*
X173408427Y-61943741D01*
X173441912Y-62005064D01*
X173436928Y-62074756D01*
X173395056Y-62130689D01*
X173382748Y-62138808D01*
X173313252Y-62178933D01*
X173313246Y-62178937D01*
X173220065Y-62272118D01*
X173220063Y-62272121D01*
X173154171Y-62386247D01*
X173127472Y-62485891D01*
X173120063Y-62513543D01*
X173120063Y-62645327D01*
X173124118Y-62660460D01*
X173154171Y-62772622D01*
X173164779Y-62790995D01*
X173220063Y-62886749D01*
X173313249Y-62979935D01*
X173427377Y-63045827D01*
X173427379Y-63045827D01*
X173434889Y-63048939D01*
X173434334Y-63050276D01*
X173481572Y-63077547D01*
X183064514Y-72660490D01*
X183167241Y-72719799D01*
X183191449Y-72726284D01*
X183191452Y-72726286D01*
X183191453Y-72726286D01*
X183221575Y-72734357D01*
X183281819Y-72750500D01*
X183281821Y-72750500D01*
X192559308Y-72750500D01*
X192559309Y-72750500D01*
X192649673Y-72726286D01*
X192673887Y-72719799D01*
X192733830Y-72685189D01*
X192738843Y-72682863D01*
X192742744Y-72682277D01*
X192758953Y-72675563D01*
X192793186Y-72666392D01*
X192907314Y-72600500D01*
X193000500Y-72507314D01*
X193066392Y-72393186D01*
X193100500Y-72265892D01*
X193100500Y-72134108D01*
X193066392Y-72006814D01*
X193054663Y-71986500D01*
X193038191Y-71918601D01*
X193061043Y-71852574D01*
X193115964Y-71809383D01*
X193162051Y-71800500D01*
X211360328Y-71800500D01*
X211360330Y-71800500D01*
X211436757Y-71780021D01*
X211505279Y-71740460D01*
X211561228Y-71684511D01*
X211675492Y-71570247D01*
X213049500Y-71570247D01*
X213049500Y-73309752D01*
X213061131Y-73368229D01*
X213061132Y-73368230D01*
X213105447Y-73434552D01*
X213171769Y-73478867D01*
X213171770Y-73478868D01*
X213230247Y-73490499D01*
X213230250Y-73490500D01*
X213230252Y-73490500D01*
X214969750Y-73490500D01*
X214969751Y-73490499D01*
X214984568Y-73487552D01*
X215028229Y-73478868D01*
X215028229Y-73478867D01*
X215028231Y-73478867D01*
X215094552Y-73434552D01*
X215138867Y-73368231D01*
X215138867Y-73368229D01*
X215138868Y-73368229D01*
X215150499Y-73309752D01*
X215150500Y-73309750D01*
X215150500Y-71570249D01*
X215150499Y-71570247D01*
X215138868Y-71511770D01*
X215138867Y-71511769D01*
X215094552Y-71445447D01*
X215028230Y-71401132D01*
X215028229Y-71401131D01*
X214969752Y-71389500D01*
X214969748Y-71389500D01*
X213230252Y-71389500D01*
X213230247Y-71389500D01*
X213171770Y-71401131D01*
X213171769Y-71401132D01*
X213105447Y-71445447D01*
X213061132Y-71511769D01*
X213061131Y-71511770D01*
X213049500Y-71570247D01*
X211675492Y-71570247D01*
X212320920Y-70924819D01*
X212382243Y-70891334D01*
X212408601Y-70888500D01*
X218012167Y-70888500D01*
X218079206Y-70908185D01*
X218099848Y-70924819D01*
X218612848Y-71437819D01*
X218646333Y-71499142D01*
X218641349Y-71568834D01*
X218599477Y-71624767D01*
X218534013Y-71649184D01*
X218525167Y-71649500D01*
X216830247Y-71649500D01*
X216771770Y-71661131D01*
X216771769Y-71661132D01*
X216705447Y-71705447D01*
X216661132Y-71771769D01*
X216661131Y-71771770D01*
X216649500Y-71830247D01*
X216649500Y-73569752D01*
X216661131Y-73628229D01*
X216661132Y-73628230D01*
X216705447Y-73694552D01*
X216771769Y-73738867D01*
X216771770Y-73738868D01*
X216830247Y-73750499D01*
X216830250Y-73750500D01*
X216830252Y-73750500D01*
X218569750Y-73750500D01*
X218569751Y-73750499D01*
X218584568Y-73747552D01*
X218628229Y-73738868D01*
X218628229Y-73738867D01*
X218628231Y-73738867D01*
X218694552Y-73694552D01*
X218738867Y-73628231D01*
X218738867Y-73628229D01*
X218738868Y-73628229D01*
X218750499Y-73569752D01*
X218750500Y-73569750D01*
X218750500Y-71874833D01*
X218770185Y-71807794D01*
X218822989Y-71762039D01*
X218892147Y-71752095D01*
X218955703Y-71781120D01*
X218962181Y-71787152D01*
X219715489Y-72540460D01*
X219774829Y-72574720D01*
X219784008Y-72580020D01*
X219784012Y-72580022D01*
X219860438Y-72600500D01*
X219860440Y-72600500D01*
X241349560Y-72600500D01*
X241349562Y-72600500D01*
X241425989Y-72580021D01*
X241494511Y-72540460D01*
X241550460Y-72484511D01*
X243025562Y-71009407D01*
X243086883Y-70975924D01*
X243156574Y-70980908D01*
X243182128Y-70993985D01*
X243252402Y-71040941D01*
X243443580Y-71120130D01*
X243629286Y-71157069D01*
X243646530Y-71160499D01*
X243646534Y-71160500D01*
X243646535Y-71160500D01*
X243853466Y-71160500D01*
X243853467Y-71160499D01*
X244056420Y-71120130D01*
X244247598Y-71040941D01*
X244419655Y-70925977D01*
X244565977Y-70779655D01*
X244680941Y-70607598D01*
X244760130Y-70416420D01*
X244800500Y-70213465D01*
X244800500Y-69506535D01*
X244760130Y-69303580D01*
X244680941Y-69112402D01*
X244620353Y-69021725D01*
X244620352Y-69021722D01*
X244576257Y-68955730D01*
X245199500Y-68955730D01*
X245199500Y-70764269D01*
X245202353Y-70794699D01*
X245202353Y-70794701D01*
X245239375Y-70900500D01*
X245247207Y-70922882D01*
X245327850Y-71032150D01*
X245437118Y-71112793D01*
X245458089Y-71120131D01*
X245565299Y-71157646D01*
X245595730Y-71160500D01*
X245595734Y-71160500D01*
X246904270Y-71160500D01*
X246934699Y-71157646D01*
X246934701Y-71157646D01*
X246998790Y-71135219D01*
X247062882Y-71112793D01*
X247172150Y-71032150D01*
X247252793Y-70922882D01*
X247286483Y-70826602D01*
X247297646Y-70794701D01*
X247297646Y-70794699D01*
X247300500Y-70764269D01*
X247300500Y-68955730D01*
X247297646Y-68925300D01*
X247297646Y-68925298D01*
X247252793Y-68797119D01*
X247252792Y-68797117D01*
X247172150Y-68687850D01*
X247062882Y-68607207D01*
X247062880Y-68607206D01*
X246934700Y-68562353D01*
X246904270Y-68559500D01*
X246904266Y-68559500D01*
X245595734Y-68559500D01*
X245595730Y-68559500D01*
X245565300Y-68562353D01*
X245565298Y-68562353D01*
X245437119Y-68607206D01*
X245437117Y-68607207D01*
X245327850Y-68687850D01*
X245247207Y-68797117D01*
X245247206Y-68797119D01*
X245202353Y-68925298D01*
X245202353Y-68925300D01*
X245199500Y-68955730D01*
X244576257Y-68955730D01*
X244565980Y-68940349D01*
X244565974Y-68940341D01*
X244419657Y-68794024D01*
X244302720Y-68715890D01*
X244247598Y-68679059D01*
X244223784Y-68669195D01*
X244056420Y-68599870D01*
X244056412Y-68599868D01*
X243853469Y-68559500D01*
X243853465Y-68559500D01*
X243646535Y-68559500D01*
X243646530Y-68559500D01*
X243443587Y-68599868D01*
X243443579Y-68599870D01*
X243252403Y-68679058D01*
X243080342Y-68794024D01*
X242934024Y-68940342D01*
X242819058Y-69112403D01*
X242739870Y-69303579D01*
X242739868Y-69303587D01*
X242699500Y-69506530D01*
X242699500Y-70213469D01*
X242731707Y-70375384D01*
X242725480Y-70444976D01*
X242697771Y-70487256D01*
X242424751Y-70760277D01*
X242363428Y-70793762D01*
X242293737Y-70788778D01*
X242237803Y-70746907D01*
X242213386Y-70681442D01*
X242226585Y-70616301D01*
X242269408Y-70532257D01*
X242322914Y-70367584D01*
X242350000Y-70196571D01*
X242350000Y-69985000D01*
X241837672Y-69985000D01*
X241850000Y-69938991D01*
X241850000Y-69781009D01*
X241837672Y-69735000D01*
X242350000Y-69735000D01*
X242350000Y-69523428D01*
X242322914Y-69352415D01*
X242269408Y-69187742D01*
X242190804Y-69033475D01*
X242089032Y-68893397D01*
X241966602Y-68770967D01*
X241826524Y-68669195D01*
X241672257Y-68590591D01*
X241507585Y-68537086D01*
X241375000Y-68516086D01*
X241375000Y-69272328D01*
X241328991Y-69260000D01*
X241171009Y-69260000D01*
X241125000Y-69272328D01*
X241125000Y-68516086D01*
X240992414Y-68537086D01*
X240827742Y-68590591D01*
X240673475Y-68669195D01*
X240533397Y-68770967D01*
X240410967Y-68893397D01*
X240309195Y-69033475D01*
X240230591Y-69187742D01*
X240177085Y-69352415D01*
X240150000Y-69523428D01*
X240150000Y-69735000D01*
X240662328Y-69735000D01*
X240650000Y-69781009D01*
X240650000Y-69938991D01*
X240662328Y-69985000D01*
X240150000Y-69985000D01*
X240150000Y-70196571D01*
X240177085Y-70367584D01*
X240230591Y-70532257D01*
X240309195Y-70686524D01*
X240410967Y-70826602D01*
X240533397Y-70949032D01*
X240673475Y-71050804D01*
X240827744Y-71129408D01*
X240992415Y-71182913D01*
X241125000Y-71203913D01*
X241125000Y-70447671D01*
X241171009Y-70460000D01*
X241328991Y-70460000D01*
X241375000Y-70447671D01*
X241375000Y-71203912D01*
X241507584Y-71182913D01*
X241672257Y-71129408D01*
X241756300Y-71086585D01*
X241824969Y-71073688D01*
X241889709Y-71099963D01*
X241929967Y-71157069D01*
X241932961Y-71226875D01*
X241900277Y-71284750D01*
X241221848Y-71963181D01*
X241160525Y-71996666D01*
X241134167Y-71999500D01*
X237924833Y-71999500D01*
X237857794Y-71979815D01*
X237812039Y-71927011D01*
X237802095Y-71857853D01*
X237831120Y-71794297D01*
X237837152Y-71787819D01*
X237975787Y-71649184D01*
X238447812Y-71177157D01*
X238509133Y-71143674D01*
X238559679Y-71143223D01*
X238629287Y-71157069D01*
X238646534Y-71160500D01*
X238646535Y-71160500D01*
X238853466Y-71160500D01*
X238853467Y-71160499D01*
X239056420Y-71120130D01*
X239247598Y-71040941D01*
X239419655Y-70925977D01*
X239565977Y-70779655D01*
X239680941Y-70607598D01*
X239760130Y-70416420D01*
X239800500Y-70213465D01*
X239800500Y-69506535D01*
X239760130Y-69303580D01*
X239680941Y-69112402D01*
X239565977Y-68940345D01*
X239565975Y-68940342D01*
X239419657Y-68794024D01*
X239302720Y-68715890D01*
X239247598Y-68679059D01*
X239223784Y-68669195D01*
X239056420Y-68599870D01*
X239056412Y-68599868D01*
X238853469Y-68559500D01*
X238853465Y-68559500D01*
X238646535Y-68559500D01*
X238646530Y-68559500D01*
X238443587Y-68599868D01*
X238443579Y-68599870D01*
X238252403Y-68679058D01*
X238080342Y-68794024D01*
X237934024Y-68940342D01*
X237819058Y-69112403D01*
X237739870Y-69303579D01*
X237739868Y-69303587D01*
X237699500Y-69506530D01*
X237699500Y-70213469D01*
X237739868Y-70416412D01*
X237739870Y-70416420D01*
X237819059Y-70607599D01*
X237902059Y-70731818D01*
X237922937Y-70798495D01*
X237904452Y-70865875D01*
X237886638Y-70888389D01*
X237311848Y-71463181D01*
X237250525Y-71496666D01*
X237224167Y-71499500D01*
X220275833Y-71499500D01*
X220208794Y-71479815D01*
X220188152Y-71463181D01*
X219928145Y-71203174D01*
X219894660Y-71141851D01*
X219899644Y-71072159D01*
X219941516Y-71016226D01*
X219983728Y-70995720D01*
X220093186Y-70966392D01*
X220207314Y-70900500D01*
X220300500Y-70807314D01*
X220366392Y-70693186D01*
X220400500Y-70565892D01*
X220400500Y-70434108D01*
X220366392Y-70306814D01*
X220300500Y-70192686D01*
X220207314Y-70099500D01*
X220150250Y-70066554D01*
X220093187Y-70033608D01*
X219985642Y-70004792D01*
X219965892Y-69999500D01*
X219875833Y-69999500D01*
X219808794Y-69979815D01*
X219788152Y-69963181D01*
X216976102Y-67151131D01*
X216942617Y-67089808D01*
X216947601Y-67020116D01*
X216989473Y-66964183D01*
X217054937Y-66939766D01*
X217063783Y-66939450D01*
X247439696Y-66939450D01*
X247483813Y-66939450D01*
X247490775Y-66939646D01*
X247588189Y-66945124D01*
X247783021Y-66956081D01*
X247796855Y-66957641D01*
X247835298Y-66964183D01*
X248081990Y-67006160D01*
X248095565Y-67009263D01*
X248373454Y-67089444D01*
X248386597Y-67094050D01*
X248653752Y-67204889D01*
X248666278Y-67210931D01*
X248919338Y-67351036D01*
X248931101Y-67358442D01*
X249166846Y-67526034D01*
X249177718Y-67534721D01*
X249380132Y-67715998D01*
X249393163Y-67727668D01*
X249402998Y-67737526D01*
X249595465Y-67953432D01*
X249604134Y-67964331D01*
X249771175Y-68200451D01*
X249778566Y-68212254D01*
X249913230Y-68456814D01*
X249918068Y-68465599D01*
X249924090Y-68478156D01*
X250034314Y-68745568D01*
X250038889Y-68758720D01*
X250118430Y-69036789D01*
X250121502Y-69050372D01*
X250169362Y-69335607D01*
X250170892Y-69349449D01*
X250186467Y-69638258D01*
X250186435Y-69652184D01*
X250169401Y-69943078D01*
X250168805Y-69949961D01*
X250168491Y-69952693D01*
X250163601Y-69995153D01*
X250163613Y-69995216D01*
X250162515Y-70004792D01*
X250162515Y-70004795D01*
X249142887Y-78892000D01*
X249141495Y-78899346D01*
X249136428Y-78948122D01*
X249135509Y-78955057D01*
X249089356Y-79241155D01*
X249086353Y-79254818D01*
X249009219Y-79530504D01*
X249004696Y-79543741D01*
X248897003Y-79808981D01*
X248891018Y-79821624D01*
X248754137Y-80073046D01*
X248746766Y-80084935D01*
X248582438Y-80319341D01*
X248573775Y-80330324D01*
X248384093Y-80544727D01*
X248374248Y-80554665D01*
X248161617Y-80746347D01*
X248150715Y-80755112D01*
X247917860Y-80921617D01*
X247906041Y-80929099D01*
X247655901Y-81068325D01*
X247643313Y-81074428D01*
X247379093Y-81184590D01*
X247365900Y-81189236D01*
X247090950Y-81268941D01*
X247077315Y-81272072D01*
X246795137Y-81320300D01*
X246781238Y-81321875D01*
X246491212Y-81338252D01*
X246484223Y-81338449D01*
X246461285Y-81338449D01*
X246440836Y-81338449D01*
X246440833Y-81338449D01*
X246430838Y-81338450D01*
X246430837Y-81338449D01*
X246430836Y-81338450D01*
X235344993Y-81338450D01*
X235329294Y-81337452D01*
X235326961Y-81337154D01*
X235326958Y-81337154D01*
X235299151Y-81337991D01*
X235285761Y-81338394D01*
X235285679Y-81338396D01*
X235283844Y-81338450D01*
X235248861Y-81338450D01*
X235244567Y-81339600D01*
X235233952Y-81339917D01*
X235232487Y-81339961D01*
X235232486Y-81339960D01*
X235109731Y-81343637D01*
X234773276Y-81388582D01*
X234443188Y-81467790D01*
X234443186Y-81467790D01*
X234122966Y-81580424D01*
X234122964Y-81580425D01*
X233815979Y-81725299D01*
X233525466Y-81900885D01*
X233525463Y-81900886D01*
X233525460Y-81900889D01*
X233525456Y-81900892D01*
X233254493Y-82105326D01*
X233005900Y-82336485D01*
X232782323Y-82591909D01*
X232782319Y-82591914D01*
X232586115Y-82868908D01*
X232586111Y-82868915D01*
X232419337Y-83164577D01*
X232283759Y-83475773D01*
X232180799Y-83799244D01*
X232180799Y-83799245D01*
X232111554Y-84131543D01*
X232111550Y-84131569D01*
X232076742Y-84469208D01*
X232076742Y-84469215D01*
X232076763Y-84637603D01*
X232076763Y-84637641D01*
X232076764Y-84638943D01*
X232076763Y-84686537D01*
X232077885Y-84689991D01*
X232078156Y-84702610D01*
X232078015Y-84703128D01*
X232078184Y-84705265D01*
X232078184Y-102423473D01*
X232078183Y-102423491D01*
X232078184Y-102475190D01*
X232077989Y-102482144D01*
X232061602Y-102773975D01*
X232060045Y-102787793D01*
X232011672Y-103072507D01*
X232008578Y-103086064D01*
X231928629Y-103363581D01*
X231924036Y-103376706D01*
X231813521Y-103643516D01*
X231807488Y-103656045D01*
X231667794Y-103908805D01*
X231660396Y-103920579D01*
X231493276Y-104156115D01*
X231484606Y-104166987D01*
X231292162Y-104382332D01*
X231282329Y-104392164D01*
X231067000Y-104584595D01*
X231056128Y-104593266D01*
X230820590Y-104760388D01*
X230808816Y-104767786D01*
X230556053Y-104907484D01*
X230543524Y-104913517D01*
X230276714Y-105024032D01*
X230263590Y-105028625D01*
X229986072Y-105108577D01*
X229972514Y-105111671D01*
X229687803Y-105160044D01*
X229673986Y-105161601D01*
X229405214Y-105176694D01*
X229382355Y-105177978D01*
X229375404Y-105178173D01*
X193456637Y-105178173D01*
X193389598Y-105158488D01*
X193343843Y-105105684D01*
X193333899Y-105036526D01*
X193362924Y-104972970D01*
X193398184Y-104944815D01*
X193408438Y-104939333D01*
X193500315Y-104890225D01*
X193778118Y-104704602D01*
X194036390Y-104492644D01*
X194272643Y-104256391D01*
X194484601Y-103998119D01*
X194670224Y-103720316D01*
X194827723Y-103425655D01*
X194955582Y-103116977D01*
X195052569Y-102797252D01*
X195052571Y-102797241D01*
X195052574Y-102797231D01*
X195085487Y-102631758D01*
X195117751Y-102469560D01*
X195150500Y-102137057D01*
X195150500Y-102130247D01*
X200049500Y-102130247D01*
X200049500Y-103869752D01*
X200061131Y-103928229D01*
X200061132Y-103928230D01*
X200105447Y-103994552D01*
X200171769Y-104038867D01*
X200171770Y-104038868D01*
X200230247Y-104050499D01*
X200230250Y-104050500D01*
X200230252Y-104050500D01*
X201969750Y-104050500D01*
X201969751Y-104050499D01*
X201984568Y-104047552D01*
X202028229Y-104038868D01*
X202028229Y-104038867D01*
X202028231Y-104038867D01*
X202094552Y-103994552D01*
X202138867Y-103928231D01*
X202138867Y-103928229D01*
X202138868Y-103928229D01*
X202150499Y-103869752D01*
X202150500Y-103869750D01*
X202150500Y-102489778D01*
X206839500Y-102489778D01*
X206839500Y-102710221D01*
X206873985Y-102927952D01*
X206942103Y-103137603D01*
X206942104Y-103137606D01*
X207042187Y-103334025D01*
X207171752Y-103512358D01*
X207171756Y-103512363D01*
X207327636Y-103668243D01*
X207327641Y-103668247D01*
X207399309Y-103720316D01*
X207505978Y-103797815D01*
X207634375Y-103863237D01*
X207702393Y-103897895D01*
X207702396Y-103897896D01*
X207754743Y-103914904D01*
X207912049Y-103966015D01*
X208129778Y-104000500D01*
X208129779Y-104000500D01*
X208350221Y-104000500D01*
X208350222Y-104000500D01*
X208567951Y-103966015D01*
X208777606Y-103897895D01*
X208974022Y-103797815D01*
X209152365Y-103668242D01*
X209308242Y-103512365D01*
X209437815Y-103334022D01*
X209537895Y-103137606D01*
X209606015Y-102927951D01*
X209640500Y-102710222D01*
X209640500Y-102489778D01*
X216759500Y-102489778D01*
X216759500Y-102710221D01*
X216793985Y-102927952D01*
X216862103Y-103137603D01*
X216862104Y-103137606D01*
X216962187Y-103334025D01*
X217091752Y-103512358D01*
X217091756Y-103512363D01*
X217247636Y-103668243D01*
X217247641Y-103668247D01*
X217319309Y-103720316D01*
X217425978Y-103797815D01*
X217554375Y-103863237D01*
X217622393Y-103897895D01*
X217622396Y-103897896D01*
X217674743Y-103914904D01*
X217832049Y-103966015D01*
X218049778Y-104000500D01*
X218049779Y-104000500D01*
X218270221Y-104000500D01*
X218270222Y-104000500D01*
X218487951Y-103966015D01*
X218697606Y-103897895D01*
X218894022Y-103797815D01*
X219072365Y-103668242D01*
X219228242Y-103512365D01*
X219357815Y-103334022D01*
X219457895Y-103137606D01*
X219526015Y-102927951D01*
X219560500Y-102710222D01*
X219560500Y-102489778D01*
X219526015Y-102272049D01*
X219482153Y-102137053D01*
X219457896Y-102062396D01*
X219457895Y-102062393D01*
X219375150Y-101900000D01*
X219357815Y-101865978D01*
X219312019Y-101802945D01*
X219228247Y-101687641D01*
X219228243Y-101687636D01*
X219072363Y-101531756D01*
X219072358Y-101531752D01*
X218894025Y-101402187D01*
X218894024Y-101402186D01*
X218894022Y-101402185D01*
X218831096Y-101370122D01*
X218697606Y-101302104D01*
X218697603Y-101302103D01*
X218487952Y-101233985D01*
X218379086Y-101216742D01*
X218270222Y-101199500D01*
X218049778Y-101199500D01*
X217977201Y-101210995D01*
X217832047Y-101233985D01*
X217622396Y-101302103D01*
X217622393Y-101302104D01*
X217425974Y-101402187D01*
X217247641Y-101531752D01*
X217247636Y-101531756D01*
X217091756Y-101687636D01*
X217091752Y-101687641D01*
X216962187Y-101865974D01*
X216862104Y-102062393D01*
X216862103Y-102062396D01*
X216793985Y-102272047D01*
X216759500Y-102489778D01*
X209640500Y-102489778D01*
X209606015Y-102272049D01*
X209562153Y-102137053D01*
X209537896Y-102062396D01*
X209537895Y-102062393D01*
X209455150Y-101900000D01*
X209437815Y-101865978D01*
X209392019Y-101802945D01*
X209308247Y-101687641D01*
X209308243Y-101687636D01*
X209152363Y-101531756D01*
X209152358Y-101531752D01*
X208974025Y-101402187D01*
X208974024Y-101402186D01*
X208974022Y-101402185D01*
X208911096Y-101370122D01*
X208777606Y-101302104D01*
X208777603Y-101302103D01*
X208567952Y-101233985D01*
X208459086Y-101216742D01*
X208350222Y-101199500D01*
X208129778Y-101199500D01*
X208057201Y-101210995D01*
X207912047Y-101233985D01*
X207702396Y-101302103D01*
X207702393Y-101302104D01*
X207505974Y-101402187D01*
X207327641Y-101531752D01*
X207327636Y-101531756D01*
X207171756Y-101687636D01*
X207171752Y-101687641D01*
X207042187Y-101865974D01*
X206942104Y-102062393D01*
X206942103Y-102062396D01*
X206873985Y-102272047D01*
X206839500Y-102489778D01*
X202150500Y-102489778D01*
X202150500Y-102130249D01*
X202150499Y-102130247D01*
X202138868Y-102071770D01*
X202138867Y-102071769D01*
X202094552Y-102005447D01*
X202028230Y-101961132D01*
X202028229Y-101961131D01*
X201969752Y-101949500D01*
X201969748Y-101949500D01*
X200230252Y-101949500D01*
X200230247Y-101949500D01*
X200171770Y-101961131D01*
X200171769Y-101961132D01*
X200105447Y-102005447D01*
X200061132Y-102071769D01*
X200061131Y-102071770D01*
X200049500Y-102130247D01*
X195150500Y-102130247D01*
X195150500Y-101802945D01*
X195117751Y-101470442D01*
X195084267Y-101302105D01*
X195052574Y-101142770D01*
X195052571Y-101142759D01*
X195052570Y-101142756D01*
X195052569Y-101142750D01*
X194955582Y-100823025D01*
X194827723Y-100514347D01*
X194818929Y-100497895D01*
X194670230Y-100219697D01*
X194670229Y-100219695D01*
X194670224Y-100219686D01*
X194484601Y-99941883D01*
X194272643Y-99683611D01*
X194272642Y-99683610D01*
X194272638Y-99683605D01*
X194036395Y-99447362D01*
X193778123Y-99235404D01*
X193778122Y-99235403D01*
X193778118Y-99235400D01*
X193560180Y-99089778D01*
X206839500Y-99089778D01*
X206839500Y-99310221D01*
X206873985Y-99527952D01*
X206942103Y-99737603D01*
X206942104Y-99737606D01*
X207042187Y-99934025D01*
X207171752Y-100112358D01*
X207171756Y-100112363D01*
X207327636Y-100268243D01*
X207327641Y-100268247D01*
X207418247Y-100334075D01*
X207505978Y-100397815D01*
X207634375Y-100463237D01*
X207702393Y-100497895D01*
X207702396Y-100497896D01*
X207807221Y-100531955D01*
X207912049Y-100566015D01*
X208129778Y-100600500D01*
X208129779Y-100600500D01*
X208350221Y-100600500D01*
X208350222Y-100600500D01*
X208567951Y-100566015D01*
X208777606Y-100497895D01*
X208974022Y-100397815D01*
X209152365Y-100268242D01*
X209308242Y-100112365D01*
X209437815Y-99934022D01*
X209537895Y-99737606D01*
X209606015Y-99527951D01*
X209640500Y-99310222D01*
X209640500Y-99089778D01*
X216759500Y-99089778D01*
X216759500Y-99310221D01*
X216793985Y-99527952D01*
X216862103Y-99737603D01*
X216862104Y-99737606D01*
X216962187Y-99934025D01*
X217091752Y-100112358D01*
X217091756Y-100112363D01*
X217247636Y-100268243D01*
X217247641Y-100268247D01*
X217338247Y-100334075D01*
X217425978Y-100397815D01*
X217554375Y-100463237D01*
X217622393Y-100497895D01*
X217622396Y-100497896D01*
X217727221Y-100531955D01*
X217832049Y-100566015D01*
X218049778Y-100600500D01*
X218049779Y-100600500D01*
X218270221Y-100600500D01*
X218270222Y-100600500D01*
X218487951Y-100566015D01*
X218697606Y-100497895D01*
X218894022Y-100397815D01*
X219072365Y-100268242D01*
X219228242Y-100112365D01*
X219357815Y-99934022D01*
X219362223Y-99925371D01*
X222300000Y-99925371D01*
X222300000Y-100675000D01*
X222915856Y-100675000D01*
X222900000Y-100734174D01*
X222900000Y-100865826D01*
X222915856Y-100925000D01*
X222300000Y-100925000D01*
X222300000Y-101674628D01*
X222314503Y-101747540D01*
X222314505Y-101747544D01*
X222369760Y-101830239D01*
X222452455Y-101885494D01*
X222452459Y-101885496D01*
X222525371Y-101899999D01*
X222525374Y-101900000D01*
X223275000Y-101900000D01*
X223275000Y-101284144D01*
X223334174Y-101300000D01*
X223465826Y-101300000D01*
X223525000Y-101284144D01*
X223525000Y-101900000D01*
X224274626Y-101900000D01*
X224274628Y-101899999D01*
X224347540Y-101885496D01*
X224347544Y-101885494D01*
X224430239Y-101830239D01*
X224485494Y-101747544D01*
X224485496Y-101747540D01*
X224499999Y-101674628D01*
X224500000Y-101674626D01*
X224500000Y-100925000D01*
X223884144Y-100925000D01*
X223900000Y-100865826D01*
X223900000Y-100734174D01*
X223884144Y-100675000D01*
X224500000Y-100675000D01*
X224500000Y-99925373D01*
X224499999Y-99925371D01*
X224485496Y-99852459D01*
X224485494Y-99852455D01*
X224430239Y-99769760D01*
X224347544Y-99714505D01*
X224347540Y-99714503D01*
X224274627Y-99700000D01*
X223525000Y-99700000D01*
X223525000Y-100315855D01*
X223465826Y-100300000D01*
X223334174Y-100300000D01*
X223275000Y-100315855D01*
X223275000Y-99700000D01*
X222525373Y-99700000D01*
X222452459Y-99714503D01*
X222452455Y-99714505D01*
X222369760Y-99769760D01*
X222314505Y-99852455D01*
X222314503Y-99852459D01*
X222300000Y-99925371D01*
X219362223Y-99925371D01*
X219457895Y-99737606D01*
X219526015Y-99527951D01*
X219560500Y-99310222D01*
X219560500Y-99089778D01*
X219526015Y-98872049D01*
X219457895Y-98662394D01*
X219457895Y-98662393D01*
X219410563Y-98569501D01*
X219357815Y-98465978D01*
X219341260Y-98443192D01*
X219228247Y-98287641D01*
X219228243Y-98287636D01*
X219072363Y-98131756D01*
X219072358Y-98131752D01*
X218894025Y-98002187D01*
X218894024Y-98002186D01*
X218894022Y-98002185D01*
X218831096Y-97970122D01*
X218697606Y-97902104D01*
X218697603Y-97902103D01*
X218487952Y-97833985D01*
X218379086Y-97816742D01*
X218270222Y-97799500D01*
X218049778Y-97799500D01*
X217977201Y-97810995D01*
X217832047Y-97833985D01*
X217622396Y-97902103D01*
X217622393Y-97902104D01*
X217425974Y-98002187D01*
X217247641Y-98131752D01*
X217247636Y-98131756D01*
X217091756Y-98287636D01*
X217091752Y-98287641D01*
X216962187Y-98465974D01*
X216862104Y-98662393D01*
X216862103Y-98662396D01*
X216793985Y-98872047D01*
X216759500Y-99089778D01*
X209640500Y-99089778D01*
X209606015Y-98872049D01*
X209537895Y-98662394D01*
X209537895Y-98662393D01*
X209465611Y-98520530D01*
X209452715Y-98451861D01*
X209478991Y-98387121D01*
X209488406Y-98376564D01*
X210240460Y-97624511D01*
X210280021Y-97555989D01*
X210300500Y-97479562D01*
X210300500Y-94430247D01*
X214869501Y-94430247D01*
X214869501Y-96169752D01*
X214881132Y-96228229D01*
X214881133Y-96228230D01*
X214925448Y-96294552D01*
X214991770Y-96338867D01*
X214991771Y-96338868D01*
X215050248Y-96350499D01*
X215050251Y-96350500D01*
X215050253Y-96350500D01*
X216789751Y-96350500D01*
X216789752Y-96350499D01*
X216804569Y-96347552D01*
X216848230Y-96338868D01*
X216848230Y-96338867D01*
X216848232Y-96338867D01*
X216914553Y-96294552D01*
X216958868Y-96228231D01*
X216958868Y-96228229D01*
X216958869Y-96228229D01*
X216970500Y-96169752D01*
X216970501Y-96169750D01*
X216970501Y-95196530D01*
X217409501Y-95196530D01*
X217409501Y-95403469D01*
X217449869Y-95606412D01*
X217449871Y-95606420D01*
X217515940Y-95765925D01*
X217529060Y-95797598D01*
X217581794Y-95876521D01*
X217644025Y-95969657D01*
X217790343Y-96115975D01*
X217790346Y-96115977D01*
X217962403Y-96230941D01*
X218153581Y-96310130D01*
X218298053Y-96338867D01*
X218356531Y-96350499D01*
X218356535Y-96350500D01*
X218356536Y-96350500D01*
X218563467Y-96350500D01*
X218563468Y-96350499D01*
X218766421Y-96310130D01*
X218957599Y-96230941D01*
X219129656Y-96115977D01*
X219275978Y-95969655D01*
X219390942Y-95797598D01*
X219470131Y-95606420D01*
X219510501Y-95403465D01*
X219510501Y-95196535D01*
X219510500Y-95196530D01*
X219949500Y-95196530D01*
X219949500Y-95403469D01*
X219989868Y-95606412D01*
X219989870Y-95606420D01*
X220055939Y-95765925D01*
X220069059Y-95797598D01*
X220121793Y-95876521D01*
X220184024Y-95969657D01*
X220330342Y-96115975D01*
X220330345Y-96115977D01*
X220502402Y-96230941D01*
X220693580Y-96310130D01*
X220838052Y-96338867D01*
X220896530Y-96350499D01*
X220896534Y-96350500D01*
X220896535Y-96350500D01*
X221103466Y-96350500D01*
X221103467Y-96350499D01*
X221306420Y-96310130D01*
X221497598Y-96230941D01*
X221669655Y-96115977D01*
X221815977Y-95969655D01*
X221930941Y-95797598D01*
X222010130Y-95606420D01*
X222050500Y-95403465D01*
X222050500Y-95196535D01*
X222050499Y-95196530D01*
X222489501Y-95196530D01*
X222489501Y-95403469D01*
X222529869Y-95606412D01*
X222529871Y-95606420D01*
X222595940Y-95765925D01*
X222609060Y-95797598D01*
X222661794Y-95876521D01*
X222724025Y-95969657D01*
X222870343Y-96115975D01*
X222870346Y-96115977D01*
X223042403Y-96230941D01*
X223233581Y-96310130D01*
X223378053Y-96338867D01*
X223436531Y-96350499D01*
X223436535Y-96350500D01*
X223436536Y-96350500D01*
X223643467Y-96350500D01*
X223643468Y-96350499D01*
X223846421Y-96310130D01*
X224037599Y-96230941D01*
X224209656Y-96115977D01*
X224225311Y-96100322D01*
X224298672Y-96026962D01*
X224355975Y-95969658D01*
X224355976Y-95969657D01*
X224355978Y-95969655D01*
X224470942Y-95797598D01*
X224550131Y-95606420D01*
X224590501Y-95403465D01*
X224590501Y-95213428D01*
X224980001Y-95213428D01*
X224980001Y-95386571D01*
X225007086Y-95557584D01*
X225060592Y-95722257D01*
X225139195Y-95876521D01*
X225218098Y-95985124D01*
X225649270Y-95553952D01*
X225679902Y-95607007D01*
X225772994Y-95700099D01*
X225826047Y-95730729D01*
X225394875Y-96161901D01*
X225503479Y-96240805D01*
X225657743Y-96319408D01*
X225822416Y-96372914D01*
X225993430Y-96400000D01*
X226166572Y-96400000D01*
X226337585Y-96372914D01*
X226502258Y-96319408D01*
X226656529Y-96240801D01*
X226765125Y-96161902D01*
X226765126Y-96161901D01*
X226333954Y-95730729D01*
X226387008Y-95700099D01*
X226480100Y-95607007D01*
X226510730Y-95553953D01*
X226941902Y-95985125D01*
X226941903Y-95985124D01*
X227020802Y-95876528D01*
X227099409Y-95722257D01*
X227152915Y-95557584D01*
X227180001Y-95386571D01*
X227180001Y-95213428D01*
X227152915Y-95042415D01*
X227099409Y-94877742D01*
X227020806Y-94723478D01*
X226941902Y-94614874D01*
X226510730Y-95046046D01*
X226480100Y-94992993D01*
X226387008Y-94899901D01*
X226333953Y-94869270D01*
X226765125Y-94438097D01*
X226656522Y-94359194D01*
X226502258Y-94280591D01*
X226337585Y-94227085D01*
X226166572Y-94200000D01*
X225993430Y-94200000D01*
X225822416Y-94227085D01*
X225657743Y-94280591D01*
X225503477Y-94359195D01*
X225503475Y-94359196D01*
X225394875Y-94438096D01*
X225394875Y-94438097D01*
X225826048Y-94869270D01*
X225772994Y-94899901D01*
X225679902Y-94992993D01*
X225649271Y-95046047D01*
X225218098Y-94614874D01*
X225218097Y-94614874D01*
X225139197Y-94723474D01*
X225139196Y-94723476D01*
X225060592Y-94877742D01*
X225007086Y-95042415D01*
X224980001Y-95213428D01*
X224590501Y-95213428D01*
X224590501Y-95196535D01*
X224550131Y-94993580D01*
X224470942Y-94802402D01*
X224355978Y-94630345D01*
X224355976Y-94630342D01*
X224209658Y-94484024D01*
X224041656Y-94371770D01*
X224037599Y-94369059D01*
X224013785Y-94359195D01*
X223846421Y-94289870D01*
X223846413Y-94289868D01*
X223643470Y-94249500D01*
X223643466Y-94249500D01*
X223436536Y-94249500D01*
X223436531Y-94249500D01*
X223233588Y-94289868D01*
X223233580Y-94289870D01*
X223042404Y-94369058D01*
X222870343Y-94484024D01*
X222724025Y-94630342D01*
X222609059Y-94802403D01*
X222529871Y-94993579D01*
X222529869Y-94993587D01*
X222489501Y-95196530D01*
X222050499Y-95196530D01*
X222010130Y-94993580D01*
X221930941Y-94802402D01*
X221815977Y-94630345D01*
X221815975Y-94630342D01*
X221669657Y-94484024D01*
X221501655Y-94371770D01*
X221497598Y-94369059D01*
X221473784Y-94359195D01*
X221306420Y-94289870D01*
X221306412Y-94289868D01*
X221103469Y-94249500D01*
X221103465Y-94249500D01*
X220896535Y-94249500D01*
X220896530Y-94249500D01*
X220693587Y-94289868D01*
X220693579Y-94289870D01*
X220502403Y-94369058D01*
X220330342Y-94484024D01*
X220184024Y-94630342D01*
X220069058Y-94802403D01*
X219989870Y-94993579D01*
X219989868Y-94993587D01*
X219949500Y-95196530D01*
X219510500Y-95196530D01*
X219470131Y-94993580D01*
X219390942Y-94802402D01*
X219275978Y-94630345D01*
X219275976Y-94630342D01*
X219129658Y-94484024D01*
X218961656Y-94371770D01*
X218957599Y-94369059D01*
X218933785Y-94359195D01*
X218766421Y-94289870D01*
X218766413Y-94289868D01*
X218563470Y-94249500D01*
X218563466Y-94249500D01*
X218356536Y-94249500D01*
X218356531Y-94249500D01*
X218153588Y-94289868D01*
X218153580Y-94289870D01*
X217962404Y-94369058D01*
X217790343Y-94484024D01*
X217644025Y-94630342D01*
X217529059Y-94802403D01*
X217449871Y-94993579D01*
X217449869Y-94993587D01*
X217409501Y-95196530D01*
X216970501Y-95196530D01*
X216970501Y-94430249D01*
X216970500Y-94430247D01*
X216958869Y-94371770D01*
X216958868Y-94371769D01*
X216914553Y-94305447D01*
X216848231Y-94261132D01*
X216848230Y-94261131D01*
X216789753Y-94249500D01*
X216789749Y-94249500D01*
X215050253Y-94249500D01*
X215050248Y-94249500D01*
X214991771Y-94261131D01*
X214991770Y-94261132D01*
X214925448Y-94305447D01*
X214881133Y-94371769D01*
X214881132Y-94371770D01*
X214869501Y-94430247D01*
X210300500Y-94430247D01*
X210300500Y-92058676D01*
X210320185Y-91991637D01*
X210336819Y-91970995D01*
X210400500Y-91907314D01*
X210466392Y-91793186D01*
X210500500Y-91665892D01*
X210500500Y-91534108D01*
X210466392Y-91406814D01*
X210400500Y-91292686D01*
X210307314Y-91199500D01*
X210250250Y-91166554D01*
X210193187Y-91133608D01*
X210129539Y-91116554D01*
X210065892Y-91099500D01*
X209934108Y-91099500D01*
X209806812Y-91133608D01*
X209692686Y-91199500D01*
X209692683Y-91199502D01*
X209599502Y-91292683D01*
X209599500Y-91292686D01*
X209533608Y-91406812D01*
X209499500Y-91534108D01*
X209499500Y-91665891D01*
X209533608Y-91793187D01*
X209566554Y-91850250D01*
X209599500Y-91907314D01*
X209599502Y-91907316D01*
X209663181Y-91970995D01*
X209696666Y-92032318D01*
X209699500Y-92058676D01*
X209699500Y-97264166D01*
X209679815Y-97331205D01*
X209663181Y-97351847D01*
X209063443Y-97951584D01*
X209002120Y-97985069D01*
X208932428Y-97980085D01*
X208919466Y-97974387D01*
X208777611Y-97902106D01*
X208777603Y-97902103D01*
X208567952Y-97833985D01*
X208459086Y-97816742D01*
X208350222Y-97799500D01*
X208129778Y-97799500D01*
X208057201Y-97810995D01*
X207912047Y-97833985D01*
X207702396Y-97902103D01*
X207702393Y-97902104D01*
X207505974Y-98002187D01*
X207327641Y-98131752D01*
X207327636Y-98131756D01*
X207171756Y-98287636D01*
X207171752Y-98287641D01*
X207042187Y-98465974D01*
X206942104Y-98662393D01*
X206942103Y-98662396D01*
X206873985Y-98872047D01*
X206839500Y-99089778D01*
X193560180Y-99089778D01*
X193500315Y-99049777D01*
X193500310Y-99049774D01*
X193500303Y-99049770D01*
X193205661Y-98892281D01*
X193205656Y-98892279D01*
X193205651Y-98892277D01*
X193115247Y-98854830D01*
X192896977Y-98764419D01*
X192577241Y-98667429D01*
X192577230Y-98667426D01*
X192249565Y-98602251D01*
X192249548Y-98602248D01*
X191998108Y-98577484D01*
X191917056Y-98569501D01*
X191582944Y-98569501D01*
X191507982Y-98576884D01*
X191250451Y-98602248D01*
X191250434Y-98602251D01*
X190922769Y-98667426D01*
X190922758Y-98667429D01*
X190603022Y-98764419D01*
X190294343Y-98892279D01*
X190294338Y-98892281D01*
X189999696Y-99049770D01*
X189999678Y-99049781D01*
X189721890Y-99235394D01*
X189721876Y-99235404D01*
X189463604Y-99447362D01*
X189227361Y-99683605D01*
X189015403Y-99941877D01*
X189015393Y-99941891D01*
X188829780Y-100219679D01*
X188829769Y-100219697D01*
X188672280Y-100514339D01*
X188672278Y-100514344D01*
X188544418Y-100823023D01*
X188447428Y-101142759D01*
X188447425Y-101142770D01*
X188382250Y-101470435D01*
X188382247Y-101470452D01*
X188349500Y-101802948D01*
X188349500Y-102137053D01*
X188382247Y-102469549D01*
X188382250Y-102469566D01*
X188447425Y-102797231D01*
X188447428Y-102797242D01*
X188544418Y-103116978D01*
X188672278Y-103425657D01*
X188672280Y-103425662D01*
X188829769Y-103720304D01*
X188829773Y-103720311D01*
X188829776Y-103720316D01*
X189015398Y-103998118D01*
X189015403Y-103998124D01*
X189227361Y-104256396D01*
X189463604Y-104492639D01*
X189463609Y-104492643D01*
X189463610Y-104492644D01*
X189721882Y-104704602D01*
X189999685Y-104890225D01*
X189999694Y-104890230D01*
X189999696Y-104890231D01*
X190101816Y-104944815D01*
X190151660Y-104993777D01*
X190167121Y-105061915D01*
X190143290Y-105127594D01*
X190087732Y-105169963D01*
X190043363Y-105178173D01*
X162716635Y-105178173D01*
X162649596Y-105158488D01*
X162603841Y-105105684D01*
X162593897Y-105036526D01*
X162622922Y-104972970D01*
X162658182Y-104944815D01*
X162760315Y-104890224D01*
X163038118Y-104704601D01*
X163296390Y-104492643D01*
X163532643Y-104256390D01*
X163744601Y-103998118D01*
X163930224Y-103720315D01*
X164087723Y-103425654D01*
X164215582Y-103116976D01*
X164312569Y-102797251D01*
X164312571Y-102797241D01*
X164312574Y-102797230D01*
X164345487Y-102631757D01*
X164377751Y-102469559D01*
X164410500Y-102137056D01*
X164410500Y-101802944D01*
X164377751Y-101470441D01*
X164344267Y-101302104D01*
X164312574Y-101142769D01*
X164312571Y-101142758D01*
X164312569Y-101142750D01*
X164312569Y-101142749D01*
X164215582Y-100823024D01*
X164087723Y-100514346D01*
X164078930Y-100497896D01*
X163930230Y-100219696D01*
X163930229Y-100219694D01*
X163930224Y-100219685D01*
X163744601Y-99941882D01*
X163532643Y-99683610D01*
X163532642Y-99683609D01*
X163532638Y-99683604D01*
X163296395Y-99447361D01*
X163038123Y-99235403D01*
X163038119Y-99235400D01*
X163038118Y-99235399D01*
X162760315Y-99049776D01*
X162760310Y-99049773D01*
X162760303Y-99049769D01*
X162465661Y-98892280D01*
X162465656Y-98892278D01*
X162416814Y-98872047D01*
X162375247Y-98854829D01*
X162156977Y-98764418D01*
X161837241Y-98667428D01*
X161837230Y-98667425D01*
X161509565Y-98602250D01*
X161509548Y-98602247D01*
X161258108Y-98577483D01*
X161177056Y-98569500D01*
X160842944Y-98569500D01*
X160767982Y-98576883D01*
X160510451Y-98602247D01*
X160510434Y-98602250D01*
X160182769Y-98667425D01*
X160182758Y-98667428D01*
X159863022Y-98764418D01*
X159554343Y-98892278D01*
X159554338Y-98892280D01*
X159259696Y-99049769D01*
X159259678Y-99049780D01*
X158981890Y-99235393D01*
X158981876Y-99235403D01*
X158723604Y-99447361D01*
X158487361Y-99683604D01*
X158275403Y-99941876D01*
X158275393Y-99941890D01*
X158089780Y-100219678D01*
X158089769Y-100219696D01*
X158073416Y-100250292D01*
X158024454Y-100300137D01*
X157956316Y-100315597D01*
X157890636Y-100291765D01*
X157848268Y-100236208D01*
X157840058Y-100191839D01*
X157840058Y-96105197D01*
X176097500Y-96105197D01*
X176097500Y-96294802D01*
X176134486Y-96480743D01*
X176134488Y-96480751D01*
X176207042Y-96655912D01*
X176312377Y-96813558D01*
X176446441Y-96947622D01*
X176525458Y-97000419D01*
X176604085Y-97052956D01*
X176779249Y-97125512D01*
X176965197Y-97162499D01*
X176965201Y-97162500D01*
X176965202Y-97162500D01*
X177154799Y-97162500D01*
X177154800Y-97162499D01*
X177340751Y-97125512D01*
X177515915Y-97052956D01*
X177673558Y-96947622D01*
X177807622Y-96813558D01*
X177912956Y-96655915D01*
X177985512Y-96480751D01*
X178022500Y-96294798D01*
X178022500Y-96105202D01*
X177985512Y-95919249D01*
X177912956Y-95744085D01*
X177877686Y-95691300D01*
X177807622Y-95586441D01*
X177673558Y-95452377D01*
X177515912Y-95347042D01*
X177340751Y-95274488D01*
X177340743Y-95274486D01*
X177154802Y-95237500D01*
X177154798Y-95237500D01*
X176965202Y-95237500D01*
X176965197Y-95237500D01*
X176779256Y-95274486D01*
X176779248Y-95274488D01*
X176604087Y-95347042D01*
X176446441Y-95452377D01*
X176312377Y-95586441D01*
X176207042Y-95744087D01*
X176134488Y-95919248D01*
X176134486Y-95919256D01*
X176097500Y-96105197D01*
X157840058Y-96105197D01*
X157840058Y-89534108D01*
X171657100Y-89534108D01*
X171657100Y-89665891D01*
X171691208Y-89793187D01*
X171724154Y-89850250D01*
X171757100Y-89907314D01*
X171850286Y-90000500D01*
X171964414Y-90066392D01*
X172091708Y-90100500D01*
X172091710Y-90100500D01*
X172223490Y-90100500D01*
X172223492Y-90100500D01*
X172350786Y-90066392D01*
X172464914Y-90000500D01*
X172528595Y-89936819D01*
X172555522Y-89922115D01*
X172581341Y-89905523D01*
X172587541Y-89904631D01*
X172589918Y-89903334D01*
X172616276Y-89900500D01*
X172824167Y-89900500D01*
X172891206Y-89920185D01*
X172911848Y-89936819D01*
X178680276Y-95705247D01*
X178713761Y-95766570D01*
X178708777Y-95836262D01*
X178707156Y-95840380D01*
X178674489Y-95919244D01*
X178674486Y-95919256D01*
X178637500Y-96105197D01*
X178637500Y-96294802D01*
X178674486Y-96480743D01*
X178674488Y-96480751D01*
X178747042Y-96655912D01*
X178852377Y-96813558D01*
X178986441Y-96947622D01*
X179065458Y-97000419D01*
X179144085Y-97052956D01*
X179319249Y-97125512D01*
X179505197Y-97162499D01*
X179505201Y-97162500D01*
X179505202Y-97162500D01*
X179694799Y-97162500D01*
X179694800Y-97162499D01*
X179880751Y-97125512D01*
X180055915Y-97052956D01*
X180213558Y-96947622D01*
X180347622Y-96813558D01*
X180452956Y-96655915D01*
X180525512Y-96480751D01*
X180562500Y-96294798D01*
X180562500Y-96105202D01*
X180562499Y-96105197D01*
X181177500Y-96105197D01*
X181177500Y-96294802D01*
X181214486Y-96480743D01*
X181214488Y-96480751D01*
X181287042Y-96655912D01*
X181392377Y-96813558D01*
X181526441Y-96947622D01*
X181605458Y-97000419D01*
X181684085Y-97052956D01*
X181859249Y-97125512D01*
X182045197Y-97162499D01*
X182045201Y-97162500D01*
X182045202Y-97162500D01*
X182234799Y-97162500D01*
X182234800Y-97162499D01*
X182420751Y-97125512D01*
X182595915Y-97052956D01*
X182753558Y-96947622D01*
X182887622Y-96813558D01*
X182992956Y-96655915D01*
X183065512Y-96480751D01*
X183102500Y-96294798D01*
X183102500Y-96105202D01*
X183102499Y-96105197D01*
X183717500Y-96105197D01*
X183717500Y-96294802D01*
X183754486Y-96480743D01*
X183754488Y-96480751D01*
X183827042Y-96655912D01*
X183932377Y-96813558D01*
X184066441Y-96947622D01*
X184145458Y-97000419D01*
X184224085Y-97052956D01*
X184399249Y-97125512D01*
X184585197Y-97162499D01*
X184585201Y-97162500D01*
X184585202Y-97162500D01*
X184774799Y-97162500D01*
X184774800Y-97162499D01*
X184960751Y-97125512D01*
X185135915Y-97052956D01*
X185293558Y-96947622D01*
X185427622Y-96813558D01*
X185532956Y-96655915D01*
X185605512Y-96480751D01*
X185642500Y-96294798D01*
X185642500Y-96105202D01*
X185642499Y-96105197D01*
X186257500Y-96105197D01*
X186257500Y-96294802D01*
X186294486Y-96480743D01*
X186294488Y-96480751D01*
X186367042Y-96655912D01*
X186472377Y-96813558D01*
X186606441Y-96947622D01*
X186685458Y-97000419D01*
X186764085Y-97052956D01*
X186939249Y-97125512D01*
X187125197Y-97162499D01*
X187125201Y-97162500D01*
X187125202Y-97162500D01*
X187314799Y-97162500D01*
X187314800Y-97162499D01*
X187500751Y-97125512D01*
X187675915Y-97052956D01*
X187833558Y-96947622D01*
X187833561Y-96947619D01*
X187914655Y-96866526D01*
X187967619Y-96813561D01*
X187967622Y-96813558D01*
X188072956Y-96655915D01*
X188145512Y-96480751D01*
X188182500Y-96294798D01*
X188182500Y-96105202D01*
X188181529Y-96100322D01*
X188748000Y-96100322D01*
X188748000Y-96299677D01*
X188786888Y-96495182D01*
X188786890Y-96495190D01*
X188863176Y-96679360D01*
X188959581Y-96823641D01*
X189369898Y-96413324D01*
X189404311Y-96472930D01*
X189487070Y-96555689D01*
X189546674Y-96590101D01*
X189136357Y-97000417D01*
X189136357Y-97000419D01*
X189280636Y-97096822D01*
X189464809Y-97173109D01*
X189464817Y-97173111D01*
X189660322Y-97211999D01*
X189660326Y-97212000D01*
X189859674Y-97212000D01*
X189859677Y-97211999D01*
X190055182Y-97173111D01*
X190055190Y-97173109D01*
X190239359Y-97096824D01*
X190239367Y-97096819D01*
X190383641Y-97000418D01*
X190383641Y-97000417D01*
X189973325Y-96590101D01*
X190032930Y-96555689D01*
X190115689Y-96472930D01*
X190150101Y-96413325D01*
X190560417Y-96823641D01*
X190560418Y-96823641D01*
X190656819Y-96679367D01*
X190656824Y-96679359D01*
X190733109Y-96495190D01*
X190733111Y-96495182D01*
X190771999Y-96299677D01*
X190772000Y-96299674D01*
X190772000Y-96105197D01*
X191337500Y-96105197D01*
X191337500Y-96294802D01*
X191374486Y-96480743D01*
X191374488Y-96480751D01*
X191447042Y-96655912D01*
X191552377Y-96813558D01*
X191686441Y-96947622D01*
X191765458Y-97000419D01*
X191844085Y-97052956D01*
X192019249Y-97125512D01*
X192205197Y-97162499D01*
X192205201Y-97162500D01*
X192205202Y-97162500D01*
X192394799Y-97162500D01*
X192394800Y-97162499D01*
X192580751Y-97125512D01*
X192755915Y-97052956D01*
X192913558Y-96947622D01*
X193047622Y-96813558D01*
X193152956Y-96655915D01*
X193225512Y-96480751D01*
X193262500Y-96294798D01*
X193262500Y-96105202D01*
X193225512Y-95919249D01*
X193152956Y-95744085D01*
X193117686Y-95691300D01*
X193047622Y-95586441D01*
X192913558Y-95452377D01*
X192755912Y-95347042D01*
X192580751Y-95274488D01*
X192580743Y-95274486D01*
X192394802Y-95237500D01*
X192394798Y-95237500D01*
X192205202Y-95237500D01*
X192205197Y-95237500D01*
X192019256Y-95274486D01*
X192019248Y-95274488D01*
X191844087Y-95347042D01*
X191686441Y-95452377D01*
X191552377Y-95586441D01*
X191447042Y-95744087D01*
X191374488Y-95919248D01*
X191374486Y-95919256D01*
X191337500Y-96105197D01*
X190772000Y-96105197D01*
X190772000Y-96100326D01*
X190771999Y-96100322D01*
X190733111Y-95904817D01*
X190733109Y-95904809D01*
X190656822Y-95720636D01*
X190560419Y-95576357D01*
X190560417Y-95576357D01*
X190150100Y-95986673D01*
X190115689Y-95927070D01*
X190032930Y-95844311D01*
X189973325Y-95809898D01*
X190383641Y-95399581D01*
X190383641Y-95399580D01*
X190239360Y-95303176D01*
X190055190Y-95226890D01*
X190055182Y-95226888D01*
X189859677Y-95188000D01*
X189660322Y-95188000D01*
X189464817Y-95226888D01*
X189464809Y-95226890D01*
X189280639Y-95303176D01*
X189136357Y-95399581D01*
X189136356Y-95399581D01*
X189546674Y-95809898D01*
X189487070Y-95844311D01*
X189404311Y-95927070D01*
X189369898Y-95986673D01*
X188959581Y-95576356D01*
X188959581Y-95576357D01*
X188863176Y-95720639D01*
X188786890Y-95904809D01*
X188786888Y-95904817D01*
X188748000Y-96100322D01*
X188181529Y-96100322D01*
X188145512Y-95919249D01*
X188072956Y-95744085D01*
X188037686Y-95691300D01*
X187967622Y-95586441D01*
X187833558Y-95452377D01*
X187675912Y-95347042D01*
X187500751Y-95274488D01*
X187500743Y-95274486D01*
X187314802Y-95237500D01*
X187314798Y-95237500D01*
X187125202Y-95237500D01*
X187125197Y-95237500D01*
X186939256Y-95274486D01*
X186939248Y-95274488D01*
X186764087Y-95347042D01*
X186606441Y-95452377D01*
X186472377Y-95586441D01*
X186367042Y-95744087D01*
X186294488Y-95919248D01*
X186294486Y-95919256D01*
X186257500Y-96105197D01*
X185642499Y-96105197D01*
X185605512Y-95919249D01*
X185532956Y-95744085D01*
X185497686Y-95691300D01*
X185427622Y-95586441D01*
X185293558Y-95452377D01*
X185135912Y-95347042D01*
X184960751Y-95274488D01*
X184960743Y-95274486D01*
X184774802Y-95237500D01*
X184774798Y-95237500D01*
X184585202Y-95237500D01*
X184585197Y-95237500D01*
X184399256Y-95274486D01*
X184399248Y-95274488D01*
X184224087Y-95347042D01*
X184066441Y-95452377D01*
X183932377Y-95586441D01*
X183827042Y-95744087D01*
X183754488Y-95919248D01*
X183754486Y-95919256D01*
X183717500Y-96105197D01*
X183102499Y-96105197D01*
X183065512Y-95919249D01*
X182992956Y-95744085D01*
X182957686Y-95691300D01*
X182887622Y-95586441D01*
X182753558Y-95452377D01*
X182595912Y-95347042D01*
X182420751Y-95274488D01*
X182420743Y-95274486D01*
X182234802Y-95237500D01*
X182234798Y-95237500D01*
X182045202Y-95237500D01*
X182045197Y-95237500D01*
X181859256Y-95274486D01*
X181859248Y-95274488D01*
X181684087Y-95347042D01*
X181526441Y-95452377D01*
X181392377Y-95586441D01*
X181287042Y-95744087D01*
X181214488Y-95919248D01*
X181214486Y-95919256D01*
X181177500Y-96105197D01*
X180562499Y-96105197D01*
X180525512Y-95919249D01*
X180452956Y-95744085D01*
X180417686Y-95691300D01*
X180347622Y-95586441D01*
X180213558Y-95452377D01*
X180055912Y-95347042D01*
X179880751Y-95274488D01*
X179880743Y-95274486D01*
X179694802Y-95237500D01*
X179694798Y-95237500D01*
X179505202Y-95237500D01*
X179505197Y-95237500D01*
X179319256Y-95274486D01*
X179319244Y-95274489D01*
X179240380Y-95307156D01*
X179170911Y-95314625D01*
X179108432Y-95283350D01*
X179105247Y-95280276D01*
X173184512Y-89359541D01*
X173184507Y-89359537D01*
X173170812Y-89351630D01*
X173170810Y-89351630D01*
X173140161Y-89333934D01*
X173115990Y-89319979D01*
X173090513Y-89313152D01*
X173039562Y-89299500D01*
X173039560Y-89299500D01*
X172616276Y-89299500D01*
X172549237Y-89279815D01*
X172528595Y-89263181D01*
X172464916Y-89199502D01*
X172464914Y-89199500D01*
X172407850Y-89166554D01*
X172350787Y-89133608D01*
X172287139Y-89116554D01*
X172223492Y-89099500D01*
X172091708Y-89099500D01*
X171964412Y-89133608D01*
X171850286Y-89199500D01*
X171850283Y-89199502D01*
X171757102Y-89292683D01*
X171757100Y-89292686D01*
X171691208Y-89406812D01*
X171657100Y-89534108D01*
X157840058Y-89534108D01*
X157840058Y-82513428D01*
X213000000Y-82513428D01*
X213000000Y-82686571D01*
X213027085Y-82857584D01*
X213080591Y-83022257D01*
X213159194Y-83176521D01*
X213238097Y-83285124D01*
X213669269Y-82853952D01*
X213699901Y-82907007D01*
X213792993Y-83000099D01*
X213846046Y-83030729D01*
X213414874Y-83461901D01*
X213523478Y-83540805D01*
X213677742Y-83619408D01*
X213842415Y-83672914D01*
X214013429Y-83700000D01*
X214186571Y-83700000D01*
X214357584Y-83672914D01*
X214522257Y-83619408D01*
X214676528Y-83540801D01*
X214785124Y-83461902D01*
X214785125Y-83461901D01*
X214353953Y-83030729D01*
X214407007Y-83000099D01*
X214500099Y-82907007D01*
X214530729Y-82853953D01*
X214961901Y-83285125D01*
X214961902Y-83285124D01*
X215040801Y-83176528D01*
X215119408Y-83022257D01*
X215172914Y-82857584D01*
X215200000Y-82686571D01*
X215200000Y-82513428D01*
X215172914Y-82342415D01*
X215119408Y-82177742D01*
X215040805Y-82023478D01*
X214961901Y-81914874D01*
X214530729Y-82346046D01*
X214500099Y-82292993D01*
X214407007Y-82199901D01*
X214353952Y-82169270D01*
X214785124Y-81738097D01*
X214676521Y-81659194D01*
X214522257Y-81580591D01*
X214357584Y-81527085D01*
X214186571Y-81500000D01*
X214013429Y-81500000D01*
X213842415Y-81527085D01*
X213677742Y-81580591D01*
X213523476Y-81659195D01*
X213523474Y-81659196D01*
X213414874Y-81738096D01*
X213414874Y-81738097D01*
X213846047Y-82169270D01*
X213792993Y-82199901D01*
X213699901Y-82292993D01*
X213669270Y-82346047D01*
X213238097Y-81914874D01*
X213238096Y-81914874D01*
X213159196Y-82023474D01*
X213159195Y-82023476D01*
X213080591Y-82177742D01*
X213027085Y-82342415D01*
X213000000Y-82513428D01*
X157840058Y-82513428D01*
X157840058Y-80865197D01*
X176097500Y-80865197D01*
X176097500Y-81054802D01*
X176134486Y-81240743D01*
X176134488Y-81240751D01*
X176207042Y-81415912D01*
X176312377Y-81573558D01*
X176446441Y-81707622D01*
X176551300Y-81777686D01*
X176604085Y-81812956D01*
X176779249Y-81885512D01*
X176965197Y-81922499D01*
X176965201Y-81922500D01*
X176965202Y-81922500D01*
X177154799Y-81922500D01*
X177154800Y-81922499D01*
X177340751Y-81885512D01*
X177515915Y-81812956D01*
X177673558Y-81707622D01*
X177807622Y-81573558D01*
X177912956Y-81415915D01*
X177985512Y-81240751D01*
X178022500Y-81054798D01*
X178022500Y-80865202D01*
X178022499Y-80865197D01*
X178637500Y-80865197D01*
X178637500Y-81054802D01*
X178674486Y-81240743D01*
X178674488Y-81240751D01*
X178747042Y-81415912D01*
X178852377Y-81573558D01*
X178986441Y-81707622D01*
X179091300Y-81777686D01*
X179144085Y-81812956D01*
X179319249Y-81885512D01*
X179505197Y-81922499D01*
X179505201Y-81922500D01*
X179505202Y-81922500D01*
X179694799Y-81922500D01*
X179694800Y-81922499D01*
X179880751Y-81885512D01*
X180055915Y-81812956D01*
X180213558Y-81707622D01*
X180347622Y-81573558D01*
X180452956Y-81415915D01*
X180525512Y-81240751D01*
X180562500Y-81054798D01*
X180562500Y-80865202D01*
X180562499Y-80865197D01*
X181177500Y-80865197D01*
X181177500Y-81054802D01*
X181214486Y-81240743D01*
X181214488Y-81240751D01*
X181287042Y-81415912D01*
X181392377Y-81573558D01*
X181526441Y-81707622D01*
X181631300Y-81777686D01*
X181684085Y-81812956D01*
X181859249Y-81885512D01*
X182045197Y-81922499D01*
X182045201Y-81922500D01*
X182045202Y-81922500D01*
X182234799Y-81922500D01*
X182234800Y-81922499D01*
X182420751Y-81885512D01*
X182595915Y-81812956D01*
X182753558Y-81707622D01*
X182887622Y-81573558D01*
X182992956Y-81415915D01*
X183065512Y-81240751D01*
X183102500Y-81054798D01*
X183102500Y-80865202D01*
X183102499Y-80865197D01*
X183717500Y-80865197D01*
X183717500Y-81054802D01*
X183754486Y-81240743D01*
X183754488Y-81240751D01*
X183827042Y-81415912D01*
X183932377Y-81573558D01*
X184066441Y-81707622D01*
X184171300Y-81777686D01*
X184224085Y-81812956D01*
X184399249Y-81885512D01*
X184585197Y-81922499D01*
X184585201Y-81922500D01*
X184585202Y-81922500D01*
X184774799Y-81922500D01*
X184774800Y-81922499D01*
X184960751Y-81885512D01*
X185135915Y-81812956D01*
X185293558Y-81707622D01*
X185427622Y-81573558D01*
X185532956Y-81415915D01*
X185605512Y-81240751D01*
X185642500Y-81054798D01*
X185642500Y-80865202D01*
X185642499Y-80865197D01*
X186257500Y-80865197D01*
X186257500Y-81054802D01*
X186294486Y-81240743D01*
X186294488Y-81240751D01*
X186367042Y-81415912D01*
X186472377Y-81573558D01*
X186606441Y-81707622D01*
X186711300Y-81777686D01*
X186764085Y-81812956D01*
X186939249Y-81885512D01*
X187125197Y-81922499D01*
X187125201Y-81922500D01*
X187125202Y-81922500D01*
X187314799Y-81922500D01*
X187314800Y-81922499D01*
X187500751Y-81885512D01*
X187675915Y-81812956D01*
X187833558Y-81707622D01*
X187967622Y-81573558D01*
X188072956Y-81415915D01*
X188145512Y-81240751D01*
X188182500Y-81054798D01*
X188182500Y-80865202D01*
X188182499Y-80865197D01*
X188797500Y-80865197D01*
X188797500Y-81054802D01*
X188834486Y-81240743D01*
X188834488Y-81240751D01*
X188907042Y-81415912D01*
X189012377Y-81573558D01*
X189146441Y-81707622D01*
X189251300Y-81777686D01*
X189304085Y-81812956D01*
X189479249Y-81885512D01*
X189665197Y-81922499D01*
X189665201Y-81922500D01*
X189665202Y-81922500D01*
X189854799Y-81922500D01*
X189854800Y-81922499D01*
X190040751Y-81885512D01*
X190215915Y-81812956D01*
X190373558Y-81707622D01*
X190507622Y-81573558D01*
X190612956Y-81415915D01*
X190685512Y-81240751D01*
X190722500Y-81054798D01*
X190722500Y-80865202D01*
X190722499Y-80865197D01*
X191337500Y-80865197D01*
X191337500Y-81054802D01*
X191374486Y-81240743D01*
X191374488Y-81240751D01*
X191447042Y-81415912D01*
X191552377Y-81573558D01*
X191686441Y-81707622D01*
X191791300Y-81777686D01*
X191844085Y-81812956D01*
X192019249Y-81885512D01*
X192205197Y-81922499D01*
X192205201Y-81922500D01*
X192205202Y-81922500D01*
X192394799Y-81922500D01*
X192394800Y-81922499D01*
X192580751Y-81885512D01*
X192755915Y-81812956D01*
X192913558Y-81707622D01*
X192913561Y-81707619D01*
X192923506Y-81697675D01*
X193047619Y-81573561D01*
X193047622Y-81573558D01*
X193118293Y-81467791D01*
X193152956Y-81415915D01*
X193225512Y-81240751D01*
X193262500Y-81054798D01*
X193262500Y-80865202D01*
X193225512Y-80679249D01*
X193152956Y-80504085D01*
X193060966Y-80366412D01*
X193047622Y-80346441D01*
X192913558Y-80212377D01*
X192755912Y-80107042D01*
X192654422Y-80065004D01*
X192580751Y-80034488D01*
X192580743Y-80034486D01*
X192394802Y-79997500D01*
X192394798Y-79997500D01*
X192205202Y-79997500D01*
X192205197Y-79997500D01*
X192019256Y-80034486D01*
X192019248Y-80034488D01*
X191844087Y-80107042D01*
X191686441Y-80212377D01*
X191552377Y-80346441D01*
X191447042Y-80504087D01*
X191374488Y-80679248D01*
X191374486Y-80679256D01*
X191337500Y-80865197D01*
X190722499Y-80865197D01*
X190685512Y-80679249D01*
X190612956Y-80504085D01*
X190520966Y-80366412D01*
X190507622Y-80346441D01*
X190373558Y-80212377D01*
X190215912Y-80107042D01*
X190040751Y-80034488D01*
X190040743Y-80034486D01*
X189854802Y-79997500D01*
X189854798Y-79997500D01*
X189665202Y-79997500D01*
X189665197Y-79997500D01*
X189479256Y-80034486D01*
X189479248Y-80034488D01*
X189304087Y-80107042D01*
X189146441Y-80212377D01*
X189012377Y-80346441D01*
X188907042Y-80504087D01*
X188834488Y-80679248D01*
X188834486Y-80679256D01*
X188797500Y-80865197D01*
X188182499Y-80865197D01*
X188145512Y-80679249D01*
X188072956Y-80504085D01*
X187980966Y-80366412D01*
X187967622Y-80346441D01*
X187833558Y-80212377D01*
X187675912Y-80107042D01*
X187500751Y-80034488D01*
X187500743Y-80034486D01*
X187314802Y-79997500D01*
X187314798Y-79997500D01*
X187125202Y-79997500D01*
X187125197Y-79997500D01*
X186939256Y-80034486D01*
X186939248Y-80034488D01*
X186764087Y-80107042D01*
X186606441Y-80212377D01*
X186472377Y-80346441D01*
X186367042Y-80504087D01*
X186294488Y-80679248D01*
X186294486Y-80679256D01*
X186257500Y-80865197D01*
X185642499Y-80865197D01*
X185605512Y-80679249D01*
X185532956Y-80504085D01*
X185440966Y-80366412D01*
X185427622Y-80346441D01*
X185293558Y-80212377D01*
X185135912Y-80107042D01*
X184960751Y-80034488D01*
X184960743Y-80034486D01*
X184774802Y-79997500D01*
X184774798Y-79997500D01*
X184585202Y-79997500D01*
X184585197Y-79997500D01*
X184399256Y-80034486D01*
X184399248Y-80034488D01*
X184224087Y-80107042D01*
X184066441Y-80212377D01*
X183932377Y-80346441D01*
X183827042Y-80504087D01*
X183754488Y-80679248D01*
X183754486Y-80679256D01*
X183717500Y-80865197D01*
X183102499Y-80865197D01*
X183065512Y-80679249D01*
X182992956Y-80504085D01*
X182900966Y-80366412D01*
X182887622Y-80346441D01*
X182753558Y-80212377D01*
X182595912Y-80107042D01*
X182420751Y-80034488D01*
X182420743Y-80034486D01*
X182234802Y-79997500D01*
X182234798Y-79997500D01*
X182045202Y-79997500D01*
X182045197Y-79997500D01*
X181859256Y-80034486D01*
X181859248Y-80034488D01*
X181684087Y-80107042D01*
X181526441Y-80212377D01*
X181392377Y-80346441D01*
X181287042Y-80504087D01*
X181214488Y-80679248D01*
X181214486Y-80679256D01*
X181177500Y-80865197D01*
X180562499Y-80865197D01*
X180525512Y-80679249D01*
X180452956Y-80504085D01*
X180360966Y-80366412D01*
X180347622Y-80346441D01*
X180213558Y-80212377D01*
X180055912Y-80107042D01*
X179880751Y-80034488D01*
X179880743Y-80034486D01*
X179694802Y-79997500D01*
X179694798Y-79997500D01*
X179505202Y-79997500D01*
X179505197Y-79997500D01*
X179319256Y-80034486D01*
X179319248Y-80034488D01*
X179144087Y-80107042D01*
X178986441Y-80212377D01*
X178852377Y-80346441D01*
X178747042Y-80504087D01*
X178674488Y-80679248D01*
X178674486Y-80679256D01*
X178637500Y-80865197D01*
X178022499Y-80865197D01*
X177985512Y-80679249D01*
X177912956Y-80504085D01*
X177820966Y-80366412D01*
X177807622Y-80346441D01*
X177673558Y-80212377D01*
X177515912Y-80107042D01*
X177340751Y-80034488D01*
X177340743Y-80034486D01*
X177154802Y-79997500D01*
X177154798Y-79997500D01*
X176965202Y-79997500D01*
X176965197Y-79997500D01*
X176779256Y-80034486D01*
X176779248Y-80034488D01*
X176604087Y-80107042D01*
X176446441Y-80212377D01*
X176312377Y-80346441D01*
X176207042Y-80504087D01*
X176134488Y-80679248D01*
X176134486Y-80679256D01*
X176097500Y-80865197D01*
X157840058Y-80865197D01*
X157840058Y-79956530D01*
X213049500Y-79956530D01*
X213049500Y-80163469D01*
X213089868Y-80366412D01*
X213089870Y-80366420D01*
X213169058Y-80557596D01*
X213284024Y-80729657D01*
X213430342Y-80875975D01*
X213430345Y-80875977D01*
X213602402Y-80990941D01*
X213793580Y-81070130D01*
X213996530Y-81110499D01*
X213996534Y-81110500D01*
X213996535Y-81110500D01*
X214203466Y-81110500D01*
X214203467Y-81110499D01*
X214406420Y-81070130D01*
X214597598Y-80990941D01*
X214769655Y-80875977D01*
X214915977Y-80729655D01*
X215030941Y-80557598D01*
X215110130Y-80366420D01*
X215150500Y-80163465D01*
X215150500Y-79956535D01*
X215110130Y-79753580D01*
X215030941Y-79562402D01*
X214915977Y-79390345D01*
X214915975Y-79390342D01*
X214769657Y-79244024D01*
X214679749Y-79183950D01*
X214597598Y-79129059D01*
X214406420Y-79049870D01*
X214406412Y-79049868D01*
X214203469Y-79009500D01*
X214203465Y-79009500D01*
X213996535Y-79009500D01*
X213996530Y-79009500D01*
X213793587Y-79049868D01*
X213793579Y-79049870D01*
X213602403Y-79129058D01*
X213430342Y-79244024D01*
X213284024Y-79390342D01*
X213169058Y-79562403D01*
X213089870Y-79753579D01*
X213089868Y-79753587D01*
X213049500Y-79956530D01*
X157840058Y-79956530D01*
X157840058Y-77416529D01*
X213049500Y-77416529D01*
X213049500Y-77623468D01*
X213089868Y-77826411D01*
X213089870Y-77826419D01*
X213169058Y-78017595D01*
X213284024Y-78189656D01*
X213430342Y-78335974D01*
X213430345Y-78335976D01*
X213602402Y-78450940D01*
X213793580Y-78530129D01*
X213996530Y-78570498D01*
X213996534Y-78570499D01*
X213996535Y-78570499D01*
X214203466Y-78570499D01*
X214203467Y-78570498D01*
X214406420Y-78530129D01*
X214597598Y-78450940D01*
X214769655Y-78335976D01*
X214915977Y-78189654D01*
X215030941Y-78017597D01*
X215110130Y-77826419D01*
X215150500Y-77623464D01*
X215150500Y-77416534D01*
X215110130Y-77213579D01*
X215030941Y-77022401D01*
X214984619Y-76953074D01*
X237645500Y-76953074D01*
X237645500Y-77126925D01*
X237672697Y-77298639D01*
X237672697Y-77298642D01*
X237726418Y-77463978D01*
X237726420Y-77463981D01*
X237805347Y-77618884D01*
X237907535Y-77759533D01*
X238030467Y-77882465D01*
X238171116Y-77984653D01*
X238326019Y-78063580D01*
X238326021Y-78063581D01*
X238491358Y-78117302D01*
X238491359Y-78117302D01*
X238491362Y-78117303D01*
X238663074Y-78144500D01*
X238663075Y-78144500D01*
X238836925Y-78144500D01*
X238836926Y-78144500D01*
X239008638Y-78117303D01*
X239008641Y-78117302D01*
X239008642Y-78117302D01*
X239173978Y-78063581D01*
X239173978Y-78063580D01*
X239173981Y-78063580D01*
X239328884Y-77984653D01*
X239469533Y-77882465D01*
X239592465Y-77759533D01*
X239694653Y-77618884D01*
X239773580Y-77463981D01*
X239773581Y-77463978D01*
X239827302Y-77298642D01*
X239827302Y-77298641D01*
X239827303Y-77298638D01*
X239854500Y-77126926D01*
X239854500Y-76953074D01*
X245145500Y-76953074D01*
X245145500Y-77126925D01*
X245172697Y-77298639D01*
X245172697Y-77298642D01*
X245226418Y-77463978D01*
X245226420Y-77463981D01*
X245305347Y-77618884D01*
X245407535Y-77759533D01*
X245530467Y-77882465D01*
X245671116Y-77984653D01*
X245826019Y-78063580D01*
X245826021Y-78063581D01*
X245991358Y-78117302D01*
X245991359Y-78117302D01*
X245991362Y-78117303D01*
X246163074Y-78144500D01*
X246163075Y-78144500D01*
X246336925Y-78144500D01*
X246336926Y-78144500D01*
X246508638Y-78117303D01*
X246508641Y-78117302D01*
X246508642Y-78117302D01*
X246673978Y-78063581D01*
X246673978Y-78063580D01*
X246673981Y-78063580D01*
X246828884Y-77984653D01*
X246969533Y-77882465D01*
X247092465Y-77759533D01*
X247194653Y-77618884D01*
X247273580Y-77463981D01*
X247273581Y-77463978D01*
X247327302Y-77298642D01*
X247327302Y-77298641D01*
X247327303Y-77298638D01*
X247354500Y-77126926D01*
X247354500Y-76953074D01*
X247327303Y-76781362D01*
X247327302Y-76781358D01*
X247327302Y-76781357D01*
X247273581Y-76616021D01*
X247194652Y-76461115D01*
X247092465Y-76320467D01*
X246969533Y-76197535D01*
X246828884Y-76095347D01*
X246701613Y-76030499D01*
X246673978Y-76016418D01*
X246508641Y-75962697D01*
X246379854Y-75942299D01*
X246336926Y-75935500D01*
X246163074Y-75935500D01*
X246105836Y-75944565D01*
X245991360Y-75962697D01*
X245991357Y-75962697D01*
X245826021Y-76016418D01*
X245671115Y-76095347D01*
X245590869Y-76153649D01*
X245530467Y-76197535D01*
X245530465Y-76197537D01*
X245530464Y-76197537D01*
X245407537Y-76320464D01*
X245407537Y-76320465D01*
X245407535Y-76320467D01*
X245363649Y-76380869D01*
X245305347Y-76461115D01*
X245226418Y-76616021D01*
X245172697Y-76781357D01*
X245172697Y-76781360D01*
X245145500Y-76953074D01*
X239854500Y-76953074D01*
X239827303Y-76781362D01*
X239827302Y-76781358D01*
X239827302Y-76781357D01*
X239773581Y-76616021D01*
X239694652Y-76461115D01*
X239592465Y-76320467D01*
X239469533Y-76197535D01*
X239328884Y-76095347D01*
X239201613Y-76030499D01*
X239173978Y-76016418D01*
X239008641Y-75962697D01*
X238879854Y-75942299D01*
X238836926Y-75935500D01*
X238663074Y-75935500D01*
X238605836Y-75944565D01*
X238491360Y-75962697D01*
X238491357Y-75962697D01*
X238326021Y-76016418D01*
X238171115Y-76095347D01*
X238090869Y-76153649D01*
X238030467Y-76197535D01*
X238030465Y-76197537D01*
X238030464Y-76197537D01*
X237907537Y-76320464D01*
X237907537Y-76320465D01*
X237907535Y-76320467D01*
X237863649Y-76380869D01*
X237805347Y-76461115D01*
X237726418Y-76616021D01*
X237672697Y-76781357D01*
X237672697Y-76781360D01*
X237645500Y-76953074D01*
X214984619Y-76953074D01*
X214915977Y-76850344D01*
X214915975Y-76850341D01*
X214769657Y-76704023D01*
X214637948Y-76616019D01*
X214597598Y-76589058D01*
X214406420Y-76509869D01*
X214406412Y-76509867D01*
X214203469Y-76469499D01*
X214203465Y-76469499D01*
X213996535Y-76469499D01*
X213996530Y-76469499D01*
X213793587Y-76509867D01*
X213793579Y-76509869D01*
X213602403Y-76589057D01*
X213430342Y-76704023D01*
X213284024Y-76850341D01*
X213169058Y-77022402D01*
X213089870Y-77213578D01*
X213089868Y-77213586D01*
X213049500Y-77416529D01*
X157840058Y-77416529D01*
X157840058Y-74876530D01*
X213049500Y-74876530D01*
X213049500Y-75083469D01*
X213089868Y-75286412D01*
X213089870Y-75286420D01*
X213169058Y-75477596D01*
X213284024Y-75649657D01*
X213430342Y-75795975D01*
X213430345Y-75795977D01*
X213602402Y-75910941D01*
X213793580Y-75990130D01*
X213925740Y-76016418D01*
X213996530Y-76030499D01*
X213996534Y-76030500D01*
X213996535Y-76030500D01*
X214203466Y-76030500D01*
X214203467Y-76030499D01*
X214406420Y-75990130D01*
X214597598Y-75910941D01*
X214769655Y-75795977D01*
X214915977Y-75649655D01*
X215030941Y-75477598D01*
X215110130Y-75286420D01*
X215150500Y-75083465D01*
X215150500Y-74876535D01*
X215110130Y-74673580D01*
X215030941Y-74482402D01*
X214915977Y-74310345D01*
X214915975Y-74310342D01*
X214769657Y-74164024D01*
X214683626Y-74106541D01*
X214597598Y-74049059D01*
X214406420Y-73969870D01*
X214406412Y-73969868D01*
X214203469Y-73929500D01*
X214203465Y-73929500D01*
X213996535Y-73929500D01*
X213996530Y-73929500D01*
X213793587Y-73969868D01*
X213793579Y-73969870D01*
X213602403Y-74049058D01*
X213430342Y-74164024D01*
X213284024Y-74310342D01*
X213169058Y-74482403D01*
X213089870Y-74673579D01*
X213089868Y-74673587D01*
X213049500Y-74876530D01*
X157840058Y-74876530D01*
X157840058Y-57296869D01*
X157859743Y-57229830D01*
X157912547Y-57184075D01*
X157981705Y-57174131D01*
X158045261Y-57203156D01*
X158073417Y-57238418D01*
X158079769Y-57250303D01*
X158079780Y-57250321D01*
X158265393Y-57528109D01*
X158265403Y-57528123D01*
X158477361Y-57786395D01*
X158713604Y-58022638D01*
X158713609Y-58022642D01*
X158713610Y-58022643D01*
X158971882Y-58234601D01*
X159249685Y-58420224D01*
X159249694Y-58420229D01*
X159249696Y-58420230D01*
X159544338Y-58577719D01*
X159544340Y-58577719D01*
X159544346Y-58577723D01*
X159853024Y-58705582D01*
X160172749Y-58802569D01*
X160172755Y-58802570D01*
X160172758Y-58802571D01*
X160172769Y-58802574D01*
X160378243Y-58843444D01*
X160500441Y-58867751D01*
X160832944Y-58900500D01*
X160832947Y-58900500D01*
X161167053Y-58900500D01*
X161167056Y-58900500D01*
X161499559Y-58867751D01*
X161661757Y-58835487D01*
X161827230Y-58802574D01*
X161827241Y-58802571D01*
X161827241Y-58802570D01*
X161827251Y-58802569D01*
X162146976Y-58705582D01*
X162455654Y-58577723D01*
X162750315Y-58420224D01*
X163028118Y-58234601D01*
X163286390Y-58022643D01*
X163522643Y-57786390D01*
X163734601Y-57528118D01*
X163920224Y-57250315D01*
X164077723Y-56955654D01*
X164205582Y-56646976D01*
X164302569Y-56327251D01*
X164302571Y-56327241D01*
X164302574Y-56327230D01*
X164340873Y-56134684D01*
X164367751Y-55999559D01*
X164400500Y-55667056D01*
X164400500Y-55332944D01*
X164367751Y-55000441D01*
X164331881Y-54820110D01*
X164302574Y-54672769D01*
X164302571Y-54672758D01*
X164302570Y-54672755D01*
X164302569Y-54672749D01*
X164205582Y-54353024D01*
X164077723Y-54044346D01*
X164060264Y-54011683D01*
X163920230Y-53749696D01*
X163920229Y-53749694D01*
X163920224Y-53749685D01*
X163734601Y-53471882D01*
X163522643Y-53213610D01*
X163522642Y-53213609D01*
X163522638Y-53213604D01*
X163286395Y-52977361D01*
X163028123Y-52765403D01*
X163028122Y-52765402D01*
X163028118Y-52765399D01*
X162750315Y-52579776D01*
X162750310Y-52579773D01*
X162750303Y-52579769D01*
X162624508Y-52512531D01*
X162574664Y-52463569D01*
X162559203Y-52395431D01*
X162583034Y-52329752D01*
X162638592Y-52287383D01*
X162682961Y-52279173D01*
X169006210Y-52279173D01*
X169073249Y-52298858D01*
G37*
%TD.AperFunction*%
%TA.AperFunction,Conductor*%
G36*
X183560046Y-54699672D02*
G01*
X183580688Y-54716306D01*
X193262181Y-64397799D01*
X193295666Y-64459122D01*
X193298500Y-64485480D01*
X193298500Y-65090811D01*
X193278815Y-65157850D01*
X193236502Y-65198196D01*
X193215054Y-65210580D01*
X193215051Y-65210582D01*
X193121870Y-65303763D01*
X193121868Y-65303766D01*
X193055976Y-65417892D01*
X193021868Y-65545188D01*
X193021868Y-65676971D01*
X193055976Y-65804267D01*
X193068817Y-65826507D01*
X193121868Y-65918394D01*
X193215054Y-66011580D01*
X193329182Y-66077472D01*
X193456476Y-66111580D01*
X193456478Y-66111580D01*
X193538775Y-66111580D01*
X193605814Y-66131265D01*
X193626456Y-66147899D01*
X195719017Y-68240460D01*
X195787540Y-68280022D01*
X195863966Y-68300500D01*
X198517290Y-68300500D01*
X198584329Y-68320185D01*
X198630084Y-68372989D01*
X198640028Y-68442147D01*
X198638907Y-68448691D01*
X198609500Y-68596530D01*
X198609500Y-68803469D01*
X198649868Y-69006412D01*
X198649870Y-69006420D01*
X198729058Y-69197596D01*
X198844024Y-69369657D01*
X198990342Y-69515975D01*
X198990345Y-69515977D01*
X199162402Y-69630941D01*
X199353580Y-69710130D01*
X199556530Y-69750499D01*
X199556534Y-69750500D01*
X199556535Y-69750500D01*
X199763466Y-69750500D01*
X199763467Y-69750499D01*
X199966420Y-69710130D01*
X200157598Y-69630941D01*
X200329655Y-69515977D01*
X200475977Y-69369655D01*
X200590941Y-69197598D01*
X200670130Y-69006420D01*
X200710500Y-68803465D01*
X200710500Y-68596535D01*
X200670130Y-68393580D01*
X200590941Y-68202402D01*
X200475977Y-68030345D01*
X200475975Y-68030342D01*
X200457814Y-68012181D01*
X200424329Y-67950858D01*
X200429313Y-67881166D01*
X200471185Y-67825233D01*
X200536649Y-67800816D01*
X200545495Y-67800500D01*
X201314505Y-67800500D01*
X201381544Y-67820185D01*
X201427299Y-67872989D01*
X201437243Y-67942147D01*
X201408218Y-68005703D01*
X201402186Y-68012181D01*
X201384025Y-68030341D01*
X201384024Y-68030342D01*
X201269058Y-68202403D01*
X201189870Y-68393579D01*
X201189868Y-68393587D01*
X201149500Y-68596530D01*
X201149500Y-68803469D01*
X201189868Y-69006412D01*
X201189870Y-69006420D01*
X201269058Y-69197596D01*
X201384024Y-69369657D01*
X201530342Y-69515975D01*
X201530345Y-69515977D01*
X201702402Y-69630941D01*
X201893580Y-69710130D01*
X202096530Y-69750499D01*
X202096534Y-69750500D01*
X202096535Y-69750500D01*
X202303466Y-69750500D01*
X202303467Y-69750499D01*
X202506420Y-69710130D01*
X202697598Y-69630941D01*
X202869655Y-69515977D01*
X203015977Y-69369655D01*
X203130941Y-69197598D01*
X203210130Y-69006420D01*
X203250500Y-68803465D01*
X203250500Y-68596535D01*
X203210130Y-68393580D01*
X203130941Y-68202402D01*
X203015977Y-68030345D01*
X203015975Y-68030342D01*
X202997814Y-68012181D01*
X202964329Y-67950858D01*
X202969313Y-67881166D01*
X203011185Y-67825233D01*
X203076649Y-67800816D01*
X203085495Y-67800500D01*
X203364167Y-67800500D01*
X203431206Y-67820185D01*
X203451848Y-67836819D01*
X203752924Y-68137895D01*
X203786409Y-68199218D01*
X203781425Y-68268910D01*
X203779804Y-68273029D01*
X203729870Y-68393579D01*
X203729868Y-68393587D01*
X203689500Y-68596530D01*
X203689500Y-68803469D01*
X203729868Y-69006412D01*
X203729870Y-69006420D01*
X203809058Y-69197596D01*
X203924024Y-69369657D01*
X204070342Y-69515975D01*
X204070345Y-69515977D01*
X204242402Y-69630941D01*
X204433580Y-69710130D01*
X204636530Y-69750499D01*
X204636534Y-69750500D01*
X204636535Y-69750500D01*
X204843466Y-69750500D01*
X204843467Y-69750499D01*
X205046420Y-69710130D01*
X205237598Y-69630941D01*
X205409655Y-69515977D01*
X205555977Y-69369655D01*
X205670941Y-69197598D01*
X205750130Y-69006420D01*
X205790500Y-68803465D01*
X205790500Y-68596535D01*
X205790499Y-68596530D01*
X206229500Y-68596530D01*
X206229500Y-68803469D01*
X206269868Y-69006412D01*
X206269870Y-69006420D01*
X206349058Y-69197596D01*
X206464024Y-69369657D01*
X206610342Y-69515975D01*
X206610345Y-69515977D01*
X206782402Y-69630941D01*
X206973580Y-69710130D01*
X207176530Y-69750499D01*
X207176534Y-69750500D01*
X207176535Y-69750500D01*
X207383466Y-69750500D01*
X207383467Y-69750499D01*
X207586420Y-69710130D01*
X207777598Y-69630941D01*
X207949655Y-69515977D01*
X208095977Y-69369655D01*
X208210941Y-69197598D01*
X208290130Y-69006420D01*
X208330500Y-68803465D01*
X208330500Y-68596535D01*
X208330499Y-68596530D01*
X208769501Y-68596530D01*
X208769501Y-68803469D01*
X208809869Y-69006412D01*
X208809871Y-69006420D01*
X208889059Y-69197596D01*
X209004025Y-69369657D01*
X209150343Y-69515975D01*
X209150346Y-69515977D01*
X209322403Y-69630941D01*
X209513581Y-69710130D01*
X209716531Y-69750499D01*
X209716535Y-69750500D01*
X209716536Y-69750500D01*
X209923467Y-69750500D01*
X209923468Y-69750499D01*
X210126421Y-69710130D01*
X210317599Y-69630941D01*
X210489656Y-69515977D01*
X210635978Y-69369655D01*
X210750942Y-69197598D01*
X210830131Y-69006420D01*
X210870501Y-68803465D01*
X210870501Y-68596535D01*
X210830131Y-68393580D01*
X210750942Y-68202402D01*
X210635978Y-68030345D01*
X210635976Y-68030342D01*
X210489658Y-67884024D01*
X210322617Y-67772412D01*
X210317599Y-67769059D01*
X210277523Y-67752459D01*
X210126421Y-67689870D01*
X210126413Y-67689868D01*
X209923470Y-67649500D01*
X209923466Y-67649500D01*
X209716536Y-67649500D01*
X209716531Y-67649500D01*
X209513588Y-67689868D01*
X209513580Y-67689870D01*
X209322404Y-67769058D01*
X209150343Y-67884024D01*
X209004025Y-68030342D01*
X208889059Y-68202403D01*
X208809871Y-68393579D01*
X208809869Y-68393587D01*
X208769501Y-68596530D01*
X208330499Y-68596530D01*
X208290130Y-68393580D01*
X208210941Y-68202402D01*
X208095977Y-68030345D01*
X208095975Y-68030342D01*
X207949657Y-67884024D01*
X207782616Y-67772412D01*
X207777598Y-67769059D01*
X207737522Y-67752459D01*
X207586420Y-67689870D01*
X207586412Y-67689868D01*
X207383469Y-67649500D01*
X207383465Y-67649500D01*
X207176535Y-67649500D01*
X207176530Y-67649500D01*
X206973587Y-67689868D01*
X206973579Y-67689870D01*
X206782403Y-67769058D01*
X206610342Y-67884024D01*
X206464024Y-68030342D01*
X206349058Y-68202403D01*
X206269870Y-68393579D01*
X206269868Y-68393587D01*
X206229500Y-68596530D01*
X205790499Y-68596530D01*
X205750130Y-68393580D01*
X205670941Y-68202402D01*
X205555977Y-68030345D01*
X205555975Y-68030342D01*
X205409657Y-67884024D01*
X205242616Y-67772412D01*
X205237598Y-67769059D01*
X205197522Y-67752459D01*
X205046420Y-67689870D01*
X205046412Y-67689868D01*
X204843469Y-67649500D01*
X204843465Y-67649500D01*
X204636535Y-67649500D01*
X204636530Y-67649500D01*
X204433587Y-67689868D01*
X204433579Y-67689870D01*
X204313029Y-67739804D01*
X204243559Y-67747273D01*
X204181080Y-67715998D01*
X204177895Y-67712924D01*
X204076152Y-67611181D01*
X204042667Y-67549858D01*
X204047651Y-67480166D01*
X204089523Y-67424233D01*
X204154987Y-67399816D01*
X204163833Y-67399500D01*
X213865460Y-67399500D01*
X213932499Y-67419185D01*
X213978254Y-67471989D01*
X213988198Y-67541147D01*
X213959173Y-67604703D01*
X213934351Y-67626602D01*
X213869760Y-67669760D01*
X213814505Y-67752455D01*
X213814503Y-67752459D01*
X213800000Y-67825371D01*
X213800000Y-68575000D01*
X214415856Y-68575000D01*
X214400000Y-68634174D01*
X214400000Y-68765826D01*
X214415856Y-68825000D01*
X213800000Y-68825000D01*
X213800000Y-69574628D01*
X213814503Y-69647540D01*
X213814504Y-69647543D01*
X213845285Y-69693610D01*
X213866162Y-69760287D01*
X213847677Y-69827667D01*
X213795698Y-69874357D01*
X213742182Y-69886500D01*
X212864015Y-69886500D01*
X212796976Y-69866815D01*
X212751221Y-69814011D01*
X212741277Y-69744853D01*
X212770302Y-69681297D01*
X212816562Y-69647939D01*
X212857596Y-69630942D01*
X212857596Y-69630941D01*
X212857598Y-69630941D01*
X213029655Y-69515977D01*
X213175977Y-69369655D01*
X213290941Y-69197598D01*
X213370130Y-69006420D01*
X213410500Y-68803465D01*
X213410500Y-68596535D01*
X213370130Y-68393580D01*
X213290941Y-68202402D01*
X213175977Y-68030345D01*
X213175975Y-68030342D01*
X213029657Y-67884024D01*
X212862616Y-67772412D01*
X212857598Y-67769059D01*
X212817522Y-67752459D01*
X212666420Y-67689870D01*
X212666412Y-67689868D01*
X212463469Y-67649500D01*
X212463465Y-67649500D01*
X212256535Y-67649500D01*
X212256530Y-67649500D01*
X212053587Y-67689868D01*
X212053579Y-67689870D01*
X211862403Y-67769058D01*
X211690342Y-67884024D01*
X211544024Y-68030342D01*
X211429058Y-68202403D01*
X211349870Y-68393579D01*
X211349868Y-68393587D01*
X211309500Y-68596530D01*
X211309500Y-68803469D01*
X211349868Y-69006412D01*
X211349870Y-69006420D01*
X211429058Y-69197596D01*
X211544024Y-69369657D01*
X211690342Y-69515975D01*
X211690345Y-69515977D01*
X211862402Y-69630941D01*
X211964241Y-69673124D01*
X212018645Y-69716964D01*
X212040710Y-69783258D01*
X212023431Y-69850958D01*
X211974025Y-69897685D01*
X211961984Y-69903949D01*
X211950679Y-69906979D01*
X211902992Y-69934511D01*
X211900663Y-69935855D01*
X211900645Y-69935865D01*
X211882157Y-69946539D01*
X211882155Y-69946541D01*
X211065516Y-70763181D01*
X211004193Y-70796666D01*
X210977835Y-70799500D01*
X184015433Y-70799500D01*
X183948394Y-70779815D01*
X183927752Y-70763181D01*
X181376752Y-68212181D01*
X181343267Y-68150858D01*
X181348251Y-68081166D01*
X181390123Y-68025233D01*
X181455587Y-68000816D01*
X181464433Y-68000500D01*
X184239560Y-68000500D01*
X184239562Y-68000500D01*
X184315989Y-67980021D01*
X184384511Y-67940460D01*
X184440460Y-67884511D01*
X185962416Y-66362553D01*
X186023739Y-66329069D01*
X186050097Y-66326235D01*
X186140155Y-66326235D01*
X186140157Y-66326235D01*
X186267451Y-66292127D01*
X186381579Y-66226235D01*
X186474765Y-66133049D01*
X186540657Y-66018921D01*
X186574765Y-65891627D01*
X186574765Y-65759843D01*
X186548446Y-65661618D01*
X186550109Y-65591770D01*
X186589272Y-65533908D01*
X186653500Y-65506404D01*
X186722402Y-65517991D01*
X186755902Y-65541846D01*
X190295420Y-69081364D01*
X190315458Y-69107623D01*
X190319758Y-69115164D01*
X190319979Y-69115989D01*
X190339904Y-69150500D01*
X190340038Y-69150732D01*
X190340144Y-69150918D01*
X190359537Y-69184507D01*
X190359541Y-69184512D01*
X190813181Y-69638152D01*
X190846666Y-69699475D01*
X190849500Y-69725833D01*
X190849500Y-69815891D01*
X190883608Y-69943187D01*
X190895152Y-69963181D01*
X190949500Y-70057314D01*
X191042686Y-70150500D01*
X191156814Y-70216392D01*
X191284108Y-70250500D01*
X191284110Y-70250500D01*
X191415890Y-70250500D01*
X191415892Y-70250500D01*
X191543186Y-70216392D01*
X191657314Y-70150500D01*
X191750500Y-70057314D01*
X191816392Y-69943186D01*
X191850500Y-69815892D01*
X191850500Y-69684108D01*
X191816392Y-69556814D01*
X191750500Y-69442686D01*
X191657314Y-69349500D01*
X191577791Y-69303587D01*
X191543185Y-69283607D01*
X191497251Y-69271299D01*
X191437591Y-69234934D01*
X191407063Y-69172087D01*
X191415358Y-69102711D01*
X191453866Y-69053144D01*
X191457302Y-69050506D01*
X191457314Y-69050500D01*
X191550500Y-68957314D01*
X191616392Y-68843186D01*
X191650500Y-68715892D01*
X191650500Y-68584108D01*
X191616392Y-68456814D01*
X191550500Y-68342686D01*
X191457314Y-68249500D01*
X191375740Y-68202403D01*
X191343187Y-68183608D01*
X191279539Y-68166554D01*
X191215892Y-68149500D01*
X191125833Y-68149500D01*
X191058794Y-68129815D01*
X191038152Y-68113181D01*
X190861797Y-67936826D01*
X190861789Y-67936820D01*
X190793280Y-67897267D01*
X190793275Y-67897264D01*
X190767798Y-67890437D01*
X190716847Y-67876785D01*
X190716845Y-67876785D01*
X190559245Y-67876785D01*
X190492206Y-67857100D01*
X190471564Y-67840466D01*
X186036819Y-63405721D01*
X186003334Y-63344398D01*
X186000500Y-63318040D01*
X186000500Y-60958676D01*
X186020185Y-60891637D01*
X186036819Y-60870995D01*
X186059803Y-60848011D01*
X186100500Y-60807314D01*
X186166392Y-60693186D01*
X186200500Y-60565892D01*
X186200500Y-60434108D01*
X186166392Y-60306814D01*
X186100500Y-60192686D01*
X186007314Y-60099500D01*
X185950250Y-60066554D01*
X185893187Y-60033608D01*
X185829539Y-60016554D01*
X185765892Y-59999500D01*
X185634108Y-59999500D01*
X185506812Y-60033608D01*
X185392686Y-60099500D01*
X185392683Y-60099502D01*
X185299502Y-60192683D01*
X185299500Y-60192686D01*
X185233608Y-60306812D01*
X185199500Y-60434108D01*
X185199500Y-60565891D01*
X185233608Y-60693187D01*
X185250553Y-60722536D01*
X185299500Y-60807314D01*
X185299502Y-60807316D01*
X185363181Y-60870995D01*
X185396666Y-60932318D01*
X185399500Y-60958676D01*
X185399500Y-61926259D01*
X185379815Y-61993298D01*
X185327011Y-62039053D01*
X185257853Y-62048997D01*
X185194297Y-62019972D01*
X185168113Y-61988260D01*
X185144985Y-61948201D01*
X185051799Y-61855015D01*
X184982472Y-61814989D01*
X184937672Y-61789123D01*
X184905371Y-61780468D01*
X184865203Y-61769705D01*
X184805543Y-61733341D01*
X184789911Y-61711932D01*
X184784945Y-61703330D01*
X184728996Y-61647381D01*
X182336819Y-59255204D01*
X182303334Y-59193881D01*
X182300500Y-59167523D01*
X182300500Y-58575833D01*
X182320185Y-58508794D01*
X182336819Y-58488152D01*
X183464721Y-57360250D01*
X183464725Y-57360246D01*
X183473083Y-57345769D01*
X183504286Y-57291724D01*
X183524765Y-57215297D01*
X183524765Y-56436173D01*
X183504287Y-56359747D01*
X183464725Y-56291224D01*
X183261084Y-56087583D01*
X183227599Y-56026260D01*
X183224765Y-55999902D01*
X183224765Y-55909845D01*
X183224765Y-55909843D01*
X183190657Y-55782549D01*
X183124765Y-55668421D01*
X183031579Y-55575235D01*
X182960345Y-55534108D01*
X182917452Y-55509343D01*
X182833871Y-55486948D01*
X182790157Y-55475235D01*
X182658373Y-55475235D01*
X182525106Y-55510943D01*
X182500111Y-55510347D01*
X182475366Y-55513906D01*
X182465785Y-55509530D01*
X182455256Y-55509280D01*
X182434552Y-55495267D01*
X182411810Y-55484881D01*
X182406115Y-55476019D01*
X182397394Y-55470117D01*
X182387553Y-55447136D01*
X182374036Y-55426103D01*
X182371756Y-55410245D01*
X182369890Y-55405888D01*
X182369013Y-55391168D01*
X182369013Y-55141745D01*
X182388698Y-55074706D01*
X182441502Y-55028951D01*
X182510660Y-55019007D01*
X182525084Y-55021965D01*
X182603621Y-55043009D01*
X182603624Y-55043009D01*
X182735403Y-55043009D01*
X182735405Y-55043009D01*
X182862699Y-55008901D01*
X182976827Y-54943009D01*
X183070013Y-54849823D01*
X183132273Y-54741986D01*
X183182841Y-54693771D01*
X183239660Y-54679987D01*
X183493007Y-54679987D01*
X183560046Y-54699672D01*
G37*
%TD.AperFunction*%
%TA.AperFunction,Conductor*%
G36*
X216390206Y-67419185D02*
G01*
X216410848Y-67435819D01*
X218656905Y-69681876D01*
X218690390Y-69743199D01*
X218685406Y-69812891D01*
X218643534Y-69868824D01*
X218578070Y-69893241D01*
X218537131Y-69889332D01*
X218526562Y-69886500D01*
X216057818Y-69886500D01*
X215990779Y-69866815D01*
X215945024Y-69814011D01*
X215935080Y-69744853D01*
X215954715Y-69693610D01*
X215985495Y-69647543D01*
X215985496Y-69647540D01*
X215999999Y-69574628D01*
X216000000Y-69574626D01*
X216000000Y-68825000D01*
X215384144Y-68825000D01*
X215400000Y-68765826D01*
X215400000Y-68634174D01*
X215384144Y-68575000D01*
X216000000Y-68575000D01*
X216000000Y-67825373D01*
X215999999Y-67825371D01*
X215985496Y-67752459D01*
X215985494Y-67752455D01*
X215930239Y-67669760D01*
X215865649Y-67626602D01*
X215820844Y-67572990D01*
X215812137Y-67503665D01*
X215842291Y-67440638D01*
X215901734Y-67403918D01*
X215934540Y-67399500D01*
X216323167Y-67399500D01*
X216390206Y-67419185D01*
G37*
%TD.AperFunction*%
%TA.AperFunction,Conductor*%
G36*
X188926703Y-36045546D02*
G01*
X188971634Y-36047794D01*
X188971634Y-36047793D01*
X188997823Y-36049104D01*
X188997859Y-36049104D01*
X197489031Y-36473791D01*
X197495940Y-36474331D01*
X197780792Y-36504690D01*
X197787018Y-36505354D01*
X197800760Y-36507605D01*
X198083073Y-36570300D01*
X198096475Y-36574077D01*
X198224964Y-36618214D01*
X198369992Y-36668032D01*
X198382879Y-36673286D01*
X198488434Y-36723398D01*
X198644123Y-36797311D01*
X198656346Y-36803979D01*
X198902043Y-36956513D01*
X198913442Y-36964510D01*
X198922437Y-36971606D01*
X199140493Y-37143633D01*
X199150910Y-37152846D01*
X199243378Y-37244375D01*
X199356446Y-37356295D01*
X199365777Y-37366631D01*
X199547207Y-37591844D01*
X199555319Y-37603160D01*
X199710352Y-37847289D01*
X199717140Y-37859435D01*
X199843820Y-38119397D01*
X199849207Y-38132236D01*
X199945952Y-38404786D01*
X199949866Y-38418150D01*
X200015435Y-38699800D01*
X200017826Y-38713517D01*
X200051407Y-39000754D01*
X200052245Y-39014654D01*
X200053408Y-39303847D01*
X200052682Y-39317752D01*
X200021417Y-39605244D01*
X200019137Y-39618981D01*
X199954800Y-39905768D01*
X199953085Y-39912517D01*
X199939014Y-39962038D01*
X199939012Y-39962042D01*
X199939013Y-39962043D01*
X195343323Y-56134684D01*
X195306063Y-56193790D01*
X195242763Y-56223369D01*
X195173521Y-56214030D01*
X195120319Y-56168738D01*
X195100050Y-56101873D01*
X195102428Y-56076599D01*
X195109384Y-56041627D01*
X195117752Y-55999559D01*
X195150501Y-55667056D01*
X195150501Y-55332944D01*
X195117752Y-55000441D01*
X195081882Y-54820110D01*
X195052575Y-54672769D01*
X195052572Y-54672758D01*
X195052571Y-54672755D01*
X195052570Y-54672749D01*
X194955583Y-54353024D01*
X194827724Y-54044346D01*
X194810265Y-54011683D01*
X194670231Y-53749696D01*
X194670230Y-53749694D01*
X194670225Y-53749685D01*
X194484602Y-53471882D01*
X194272644Y-53213610D01*
X194272643Y-53213609D01*
X194272639Y-53213604D01*
X194036396Y-52977361D01*
X193778124Y-52765403D01*
X193778123Y-52765402D01*
X193778119Y-52765399D01*
X193500316Y-52579776D01*
X193500311Y-52579773D01*
X193500304Y-52579769D01*
X193205662Y-52422280D01*
X193205657Y-52422278D01*
X193202137Y-52420820D01*
X192967523Y-52323639D01*
X192896978Y-52294418D01*
X192577242Y-52197428D01*
X192577231Y-52197425D01*
X192249566Y-52132250D01*
X192249549Y-52132247D01*
X191998109Y-52107483D01*
X191917057Y-52099500D01*
X191582945Y-52099500D01*
X191507983Y-52106883D01*
X191250452Y-52132247D01*
X191250435Y-52132250D01*
X190922770Y-52197425D01*
X190922759Y-52197428D01*
X190603023Y-52294418D01*
X190294344Y-52422278D01*
X190294339Y-52422280D01*
X189999697Y-52579769D01*
X189999679Y-52579780D01*
X189721891Y-52765393D01*
X189721877Y-52765403D01*
X189463605Y-52977361D01*
X189227362Y-53213604D01*
X189015404Y-53471876D01*
X189015394Y-53471890D01*
X188829781Y-53749678D01*
X188829770Y-53749696D01*
X188672281Y-54044338D01*
X188672279Y-54044343D01*
X188544419Y-54353022D01*
X188447429Y-54672758D01*
X188447426Y-54672769D01*
X188382251Y-55000434D01*
X188382248Y-55000451D01*
X188362644Y-55199500D01*
X188349501Y-55332944D01*
X188349501Y-55667056D01*
X188359345Y-55767004D01*
X188382248Y-55999548D01*
X188382251Y-55999565D01*
X188447426Y-56327230D01*
X188447429Y-56327241D01*
X188544419Y-56646977D01*
X188672279Y-56955656D01*
X188672281Y-56955661D01*
X188829770Y-57250303D01*
X188829781Y-57250321D01*
X189015394Y-57528109D01*
X189015404Y-57528123D01*
X189227362Y-57786395D01*
X189463605Y-58022638D01*
X189463610Y-58022642D01*
X189463611Y-58022643D01*
X189721883Y-58234601D01*
X189999686Y-58420224D01*
X189999695Y-58420229D01*
X189999697Y-58420230D01*
X190294339Y-58577719D01*
X190294341Y-58577719D01*
X190294347Y-58577723D01*
X190603025Y-58705582D01*
X190922750Y-58802569D01*
X190922756Y-58802570D01*
X190922759Y-58802571D01*
X190922770Y-58802574D01*
X191128244Y-58843444D01*
X191250442Y-58867751D01*
X191582945Y-58900500D01*
X191582948Y-58900500D01*
X191917054Y-58900500D01*
X191917057Y-58900500D01*
X192249560Y-58867751D01*
X192411758Y-58835487D01*
X192577231Y-58802574D01*
X192577242Y-58802571D01*
X192577242Y-58802570D01*
X192577252Y-58802569D01*
X192896977Y-58705582D01*
X193205655Y-58577723D01*
X193500316Y-58420224D01*
X193778119Y-58234601D01*
X194036391Y-58022643D01*
X194272644Y-57786390D01*
X194484602Y-57528118D01*
X194670225Y-57250315D01*
X194827724Y-56955654D01*
X194908478Y-56760696D01*
X194952318Y-56706295D01*
X195018612Y-56684230D01*
X195086311Y-56701509D01*
X195133922Y-56752646D01*
X195146328Y-56821406D01*
X195142316Y-56842045D01*
X195127699Y-56893484D01*
X195127680Y-56893512D01*
X195083522Y-57048952D01*
X195036402Y-57272590D01*
X195004865Y-57498963D01*
X195004865Y-57498964D01*
X194989065Y-57726957D01*
X194989064Y-57726961D01*
X194989060Y-57795515D01*
X194989058Y-57795565D01*
X194989058Y-63583785D01*
X194989057Y-63587620D01*
X194989049Y-63587647D01*
X194989052Y-63811924D01*
X195025219Y-64155978D01*
X195079932Y-64413365D01*
X195097149Y-64494357D01*
X195202289Y-64817931D01*
X195204058Y-64823374D01*
X195297668Y-65033620D01*
X195306953Y-65102870D01*
X195277325Y-65166146D01*
X195218191Y-65203360D01*
X195148324Y-65202695D01*
X195096708Y-65171737D01*
X194737819Y-64812848D01*
X194704334Y-64751525D01*
X194701500Y-64725167D01*
X194701500Y-63937887D01*
X194701499Y-63937883D01*
X194692176Y-63903087D01*
X194681022Y-63861459D01*
X194641460Y-63792936D01*
X188136819Y-57288295D01*
X188103334Y-57226972D01*
X188100500Y-57200614D01*
X188100500Y-52475832D01*
X188120185Y-52408793D01*
X188136814Y-52388156D01*
X191875562Y-48649407D01*
X191936883Y-48615924D01*
X192006575Y-48620908D01*
X192032128Y-48633985D01*
X192102402Y-48680941D01*
X192293580Y-48760130D01*
X192496530Y-48800499D01*
X192496534Y-48800500D01*
X192496535Y-48800500D01*
X192703466Y-48800500D01*
X192703467Y-48800499D01*
X192906420Y-48760130D01*
X193097598Y-48680941D01*
X193269655Y-48565977D01*
X193415977Y-48419655D01*
X193530941Y-48247598D01*
X193610130Y-48056420D01*
X193650500Y-47853465D01*
X193650500Y-47146535D01*
X193650499Y-47146530D01*
X194049500Y-47146530D01*
X194049500Y-47853469D01*
X194089868Y-48056412D01*
X194089870Y-48056420D01*
X194107921Y-48100000D01*
X194169059Y-48247598D01*
X194198625Y-48291847D01*
X194284024Y-48419657D01*
X194430342Y-48565975D01*
X194430345Y-48565977D01*
X194602402Y-48680941D01*
X194793580Y-48760130D01*
X194996530Y-48800499D01*
X194996534Y-48800500D01*
X194996535Y-48800500D01*
X195203466Y-48800500D01*
X195203467Y-48800499D01*
X195406420Y-48760130D01*
X195597598Y-48680941D01*
X195769655Y-48565977D01*
X195915977Y-48419655D01*
X196030941Y-48247598D01*
X196110130Y-48056420D01*
X196150500Y-47853465D01*
X196150500Y-47146535D01*
X196110130Y-46943580D01*
X196030941Y-46752402D01*
X195915977Y-46580345D01*
X195915975Y-46580342D01*
X195769657Y-46434024D01*
X195683626Y-46376541D01*
X195597598Y-46319059D01*
X195534225Y-46292809D01*
X195406420Y-46239870D01*
X195406412Y-46239868D01*
X195203469Y-46199500D01*
X195203465Y-46199500D01*
X194996535Y-46199500D01*
X194996530Y-46199500D01*
X194793587Y-46239868D01*
X194793579Y-46239870D01*
X194602403Y-46319058D01*
X194430342Y-46434024D01*
X194284024Y-46580342D01*
X194169058Y-46752403D01*
X194089870Y-46943579D01*
X194089868Y-46943587D01*
X194049500Y-47146530D01*
X193650499Y-47146530D01*
X193610130Y-46943580D01*
X193530941Y-46752402D01*
X193415977Y-46580345D01*
X193415975Y-46580342D01*
X193269657Y-46434024D01*
X193183626Y-46376541D01*
X193097598Y-46319059D01*
X193034225Y-46292809D01*
X192906420Y-46239870D01*
X192906412Y-46239868D01*
X192703469Y-46199500D01*
X192703465Y-46199500D01*
X192496535Y-46199500D01*
X192496530Y-46199500D01*
X192293587Y-46239868D01*
X192293579Y-46239870D01*
X192102403Y-46319058D01*
X191930342Y-46434024D01*
X191784024Y-46580342D01*
X191669058Y-46752403D01*
X191589870Y-46943579D01*
X191589868Y-46943587D01*
X191549500Y-47146530D01*
X191549500Y-47853469D01*
X191581707Y-48015384D01*
X191580999Y-48023290D01*
X191583774Y-48030729D01*
X191577930Y-48057591D01*
X191575480Y-48084976D01*
X191570230Y-48092985D01*
X191568922Y-48099002D01*
X191547771Y-48127256D01*
X191411681Y-48263346D01*
X191350358Y-48296831D01*
X191280666Y-48291847D01*
X191224733Y-48249975D01*
X191200316Y-48184511D01*
X191200000Y-48175665D01*
X191200000Y-47625000D01*
X190687672Y-47625000D01*
X190700000Y-47578991D01*
X190700000Y-47421009D01*
X190687672Y-47375000D01*
X191200000Y-47375000D01*
X191200000Y-46602172D01*
X191199999Y-46602155D01*
X191193598Y-46542627D01*
X191193596Y-46542620D01*
X191143354Y-46407913D01*
X191143350Y-46407906D01*
X191057190Y-46292812D01*
X191057187Y-46292809D01*
X190942093Y-46206649D01*
X190942086Y-46206645D01*
X190807379Y-46156403D01*
X190807372Y-46156401D01*
X190747844Y-46150000D01*
X190225000Y-46150000D01*
X190225000Y-46912328D01*
X190178991Y-46900000D01*
X190021009Y-46900000D01*
X189975000Y-46912328D01*
X189975000Y-46150000D01*
X189452155Y-46150000D01*
X189392627Y-46156401D01*
X189392620Y-46156403D01*
X189257913Y-46206645D01*
X189257906Y-46206649D01*
X189142812Y-46292809D01*
X189142809Y-46292812D01*
X189056649Y-46407906D01*
X189056645Y-46407913D01*
X189006403Y-46542620D01*
X189006401Y-46542627D01*
X189000000Y-46602155D01*
X189000000Y-47375000D01*
X189512328Y-47375000D01*
X189500000Y-47421009D01*
X189500000Y-47578991D01*
X189512328Y-47625000D01*
X189000000Y-47625000D01*
X189000000Y-48397844D01*
X189006401Y-48457372D01*
X189006403Y-48457379D01*
X189056645Y-48592086D01*
X189056649Y-48592093D01*
X189142809Y-48707187D01*
X189142812Y-48707190D01*
X189257906Y-48793350D01*
X189257913Y-48793354D01*
X189392620Y-48843596D01*
X189392627Y-48843598D01*
X189452155Y-48849999D01*
X189452172Y-48850000D01*
X189975000Y-48850000D01*
X189975000Y-48087671D01*
X190021009Y-48100000D01*
X190178991Y-48100000D01*
X190225000Y-48087671D01*
X190225000Y-48850000D01*
X190525665Y-48850000D01*
X190592704Y-48869685D01*
X190638459Y-48922489D01*
X190648403Y-48991647D01*
X190619378Y-49055203D01*
X190613346Y-49061681D01*
X187615489Y-52059540D01*
X187559541Y-52115487D01*
X187559535Y-52115495D01*
X187519982Y-52184004D01*
X187519979Y-52184009D01*
X187499500Y-52260439D01*
X187499500Y-56918714D01*
X187479815Y-56985753D01*
X187427011Y-57031508D01*
X187357853Y-57041452D01*
X187294297Y-57012427D01*
X187287819Y-57006395D01*
X185136819Y-54855395D01*
X185103334Y-54794072D01*
X185100500Y-54767714D01*
X185100500Y-53460439D01*
X185099170Y-53455474D01*
X185080021Y-53384011D01*
X185080017Y-53384004D01*
X185040464Y-53315495D01*
X185040458Y-53315487D01*
X184284512Y-52559541D01*
X184284511Y-52559540D01*
X184278111Y-52555845D01*
X184215989Y-52519979D01*
X184168520Y-52507259D01*
X184159408Y-52503162D01*
X184140153Y-52486673D01*
X184118507Y-52473479D01*
X184114063Y-52464330D01*
X184106339Y-52457716D01*
X184099055Y-52433434D01*
X184087979Y-52410632D01*
X184089186Y-52400534D01*
X184086264Y-52390792D01*
X184093264Y-52366426D01*
X184096274Y-52341256D01*
X184103610Y-52330416D01*
X184105558Y-52323639D01*
X184112051Y-52317945D01*
X184122578Y-52302392D01*
X185238152Y-51186819D01*
X185299475Y-51153334D01*
X185325833Y-51150500D01*
X186769750Y-51150500D01*
X186769751Y-51150499D01*
X186784568Y-51147552D01*
X186828229Y-51138868D01*
X186828229Y-51138867D01*
X186828231Y-51138867D01*
X186894552Y-51094552D01*
X186938867Y-51028231D01*
X186938867Y-51028229D01*
X186938868Y-51028229D01*
X186950499Y-50969752D01*
X186950500Y-50969750D01*
X186950500Y-49230249D01*
X186950499Y-49230247D01*
X186938868Y-49171770D01*
X186938867Y-49171769D01*
X186894552Y-49105447D01*
X186828230Y-49061132D01*
X186828229Y-49061131D01*
X186769752Y-49049500D01*
X186769748Y-49049500D01*
X185030252Y-49049500D01*
X185030247Y-49049500D01*
X184971770Y-49061131D01*
X184971769Y-49061132D01*
X184905447Y-49105447D01*
X184861132Y-49171769D01*
X184861131Y-49171770D01*
X184849500Y-49230247D01*
X184849500Y-50674167D01*
X184829815Y-50741206D01*
X184813181Y-50761848D01*
X183522766Y-52052263D01*
X183461443Y-52085748D01*
X183435085Y-52088582D01*
X181320322Y-52088582D01*
X181253283Y-52068897D01*
X181207528Y-52016093D01*
X181197584Y-51946935D01*
X181226609Y-51883379D01*
X181261122Y-51855626D01*
X181362766Y-51800403D01*
X181634638Y-51615513D01*
X181886792Y-51404521D01*
X182116731Y-51169517D01*
X182116733Y-51169514D01*
X182116734Y-51169514D01*
X182322175Y-50912832D01*
X182322176Y-50912831D01*
X182322176Y-50912830D01*
X182322180Y-50912826D01*
X182501104Y-50636990D01*
X182651733Y-50344740D01*
X182772574Y-50038968D01*
X182812495Y-49898404D01*
X182812502Y-49898394D01*
X182812499Y-49898394D01*
X184025355Y-45630247D01*
X184849500Y-45630247D01*
X184849500Y-47369752D01*
X184861131Y-47428229D01*
X184861132Y-47428230D01*
X184905447Y-47494552D01*
X184971769Y-47538867D01*
X184971770Y-47538868D01*
X185030247Y-47550499D01*
X185030250Y-47550500D01*
X185030252Y-47550500D01*
X186769750Y-47550500D01*
X186769751Y-47550499D01*
X186784568Y-47547552D01*
X186828229Y-47538868D01*
X186828229Y-47538867D01*
X186828231Y-47538867D01*
X186894552Y-47494552D01*
X186938867Y-47428231D01*
X186938867Y-47428229D01*
X186938868Y-47428229D01*
X186950499Y-47369752D01*
X186950500Y-47369750D01*
X186950500Y-45630249D01*
X186950499Y-45630247D01*
X186938868Y-45571770D01*
X186938867Y-45571769D01*
X186894552Y-45505447D01*
X186828230Y-45461132D01*
X186828229Y-45461131D01*
X186769752Y-45449500D01*
X186769748Y-45449500D01*
X185030252Y-45449500D01*
X185030247Y-45449500D01*
X184971770Y-45461131D01*
X184971769Y-45461132D01*
X184905447Y-45505447D01*
X184861132Y-45571769D01*
X184861131Y-45571770D01*
X184849500Y-45630247D01*
X184025355Y-45630247D01*
X185559041Y-40233074D01*
X188995500Y-40233074D01*
X188995500Y-40406925D01*
X189022697Y-40578639D01*
X189022697Y-40578642D01*
X189076418Y-40743978D01*
X189076420Y-40743981D01*
X189155347Y-40898884D01*
X189257535Y-41039533D01*
X189380467Y-41162465D01*
X189521116Y-41264653D01*
X189676019Y-41343580D01*
X189676021Y-41343581D01*
X189841358Y-41397302D01*
X189841359Y-41397302D01*
X189841362Y-41397303D01*
X190013074Y-41424500D01*
X190013075Y-41424500D01*
X190186925Y-41424500D01*
X190186926Y-41424500D01*
X190358638Y-41397303D01*
X190358641Y-41397302D01*
X190358642Y-41397302D01*
X190523978Y-41343581D01*
X190523978Y-41343580D01*
X190523981Y-41343580D01*
X190678884Y-41264653D01*
X190819533Y-41162465D01*
X190942465Y-41039533D01*
X191044653Y-40898884D01*
X191123580Y-40743981D01*
X191177303Y-40578638D01*
X191204500Y-40406926D01*
X191204500Y-40233074D01*
X193995500Y-40233074D01*
X193995500Y-40406925D01*
X194022697Y-40578639D01*
X194022697Y-40578642D01*
X194076418Y-40743978D01*
X194076420Y-40743981D01*
X194155347Y-40898884D01*
X194257535Y-41039533D01*
X194380467Y-41162465D01*
X194521116Y-41264653D01*
X194676019Y-41343580D01*
X194676021Y-41343581D01*
X194841358Y-41397302D01*
X194841359Y-41397302D01*
X194841362Y-41397303D01*
X195013074Y-41424500D01*
X195013075Y-41424500D01*
X195186925Y-41424500D01*
X195186926Y-41424500D01*
X195358638Y-41397303D01*
X195358641Y-41397302D01*
X195358642Y-41397302D01*
X195523978Y-41343581D01*
X195523978Y-41343580D01*
X195523981Y-41343580D01*
X195678884Y-41264653D01*
X195819533Y-41162465D01*
X195942465Y-41039533D01*
X196044653Y-40898884D01*
X196123580Y-40743981D01*
X196177303Y-40578638D01*
X196204500Y-40406926D01*
X196204500Y-40233074D01*
X196177303Y-40061362D01*
X196177302Y-40061358D01*
X196177302Y-40061357D01*
X196123581Y-39896021D01*
X196044652Y-39741115D01*
X195942465Y-39600467D01*
X195819533Y-39477535D01*
X195678884Y-39375347D01*
X195523978Y-39296418D01*
X195358641Y-39242697D01*
X195229854Y-39222299D01*
X195186926Y-39215500D01*
X195013074Y-39215500D01*
X194955836Y-39224565D01*
X194841360Y-39242697D01*
X194841357Y-39242697D01*
X194676021Y-39296418D01*
X194521115Y-39375347D01*
X194440869Y-39433649D01*
X194380467Y-39477535D01*
X194380465Y-39477537D01*
X194380464Y-39477537D01*
X194257537Y-39600464D01*
X194257537Y-39600465D01*
X194257535Y-39600467D01*
X194244084Y-39618981D01*
X194155347Y-39741115D01*
X194076418Y-39896021D01*
X194022697Y-40061357D01*
X194022697Y-40061360D01*
X193995500Y-40233074D01*
X191204500Y-40233074D01*
X191177303Y-40061362D01*
X191177302Y-40061358D01*
X191177302Y-40061357D01*
X191123581Y-39896021D01*
X191044652Y-39741115D01*
X190942465Y-39600467D01*
X190819533Y-39477535D01*
X190678884Y-39375347D01*
X190523978Y-39296418D01*
X190358641Y-39242697D01*
X190229854Y-39222299D01*
X190186926Y-39215500D01*
X190013074Y-39215500D01*
X189955836Y-39224565D01*
X189841360Y-39242697D01*
X189841357Y-39242697D01*
X189676021Y-39296418D01*
X189521115Y-39375347D01*
X189440869Y-39433649D01*
X189380467Y-39477535D01*
X189380465Y-39477537D01*
X189380464Y-39477537D01*
X189257537Y-39600464D01*
X189257537Y-39600465D01*
X189257535Y-39600467D01*
X189244084Y-39618981D01*
X189155347Y-39741115D01*
X189076418Y-39896021D01*
X189022697Y-40061357D01*
X189022697Y-40061360D01*
X188995500Y-40233074D01*
X185559041Y-40233074D01*
X186179554Y-38049435D01*
X186179559Y-38049429D01*
X186191625Y-38006956D01*
X186193695Y-38000383D01*
X186242419Y-37859435D01*
X186289018Y-37724630D01*
X186294279Y-37711788D01*
X186346060Y-37603160D01*
X186418325Y-37451560D01*
X186424976Y-37439408D01*
X186577338Y-37194660D01*
X186585303Y-37183333D01*
X186764062Y-36957148D01*
X186773251Y-36946773D01*
X186976160Y-36741995D01*
X186986446Y-36732715D01*
X187210982Y-36551887D01*
X187222248Y-36543811D01*
X187465579Y-36389216D01*
X187477664Y-36382457D01*
X187736754Y-36256024D01*
X187749530Y-36250652D01*
X188021113Y-36153974D01*
X188034423Y-36150059D01*
X188315115Y-36084337D01*
X188328763Y-36081938D01*
X188615042Y-36048000D01*
X188628884Y-36047141D01*
X188919822Y-36045394D01*
X188926703Y-36045546D01*
G37*
%TD.AperFunction*%
%TD*%
M02*
