%TF.GenerationSoftware,KiCad,Pcbnew,9.0.4*%
%TF.CreationDate,2026-02-28T23:21:01-06:00*%
%TF.ProjectId,Wheels Board,57686565-6c73-4204-926f-6172642e6b69,rev?*%
%TF.SameCoordinates,Original*%
%TF.FileFunction,Profile,NP*%
%FSLAX46Y46*%
G04 Gerber Fmt 4.6, Leading zero omitted, Abs format (unit mm)*
G04 Created by KiCad (PCBNEW 9.0.4) date 2026-02-28 23:21:01*
%MOMM*%
%LPD*%
G01*
G04 APERTURE LIST*
%TA.AperFunction,Profile*%
%ADD10C,0.200000*%
%TD*%
G04 APERTURE END LIST*
D10*
X195403809Y-57021183D02*
X200243431Y-39990125D01*
X232378684Y-102478676D02*
G75*
G02*
X229378687Y-105478684I-2999984J-24D01*
G01*
X161039558Y-105478673D02*
G75*
G02*
X157539627Y-101978674I42J3499973D01*
G01*
X182528429Y-49798702D02*
G75*
G02*
X179642723Y-51978745I-2885729J819902D01*
G01*
X185903507Y-37921519D02*
X182528431Y-49798703D01*
X162639558Y-55478673D02*
G75*
G02*
X159439558Y-55478673I-1600000J0D01*
G01*
X159439558Y-55478673D02*
G75*
G02*
X162639558Y-55478673I1600000J0D01*
G01*
X235288423Y-81638950D02*
X246488423Y-81638950D01*
X161039558Y-105478673D02*
X229378687Y-105478673D01*
X195289558Y-63638953D02*
X195289558Y-57841217D01*
X157539558Y-55478676D02*
G75*
G02*
X161039561Y-51978758I3499942J-24D01*
G01*
X193389558Y-55478673D02*
G75*
G02*
X190189558Y-55478673I-1600000J0D01*
G01*
X190189558Y-55478673D02*
G75*
G02*
X193389558Y-55478673I1600000J0D01*
G01*
X179633237Y-51978673D02*
X161039561Y-51978673D01*
X157539558Y-55478676D02*
X157539558Y-101978674D01*
X232378684Y-102478676D02*
X232378684Y-84638948D01*
X197507539Y-36173842D02*
G75*
G02*
X200243364Y-39990106I-149939J-2996258D01*
G01*
X195289558Y-57841217D02*
G75*
G02*
X195403803Y-57021181I2999342J117D01*
G01*
X247487290Y-66638950D02*
X198289556Y-66638950D01*
X247487290Y-66638950D02*
G75*
G02*
X250467647Y-69982263I10J-3000050D01*
G01*
X232377264Y-84638948D02*
G75*
G02*
X235288422Y-81638922I3001436J-52D01*
G01*
X162639558Y-101978673D02*
G75*
G02*
X159439558Y-101978673I-1600000J0D01*
G01*
X159439558Y-101978673D02*
G75*
G02*
X162639558Y-101978673I1600000J0D01*
G01*
X249434956Y-78982677D02*
X250467573Y-69982254D01*
X193389558Y-101978673D02*
G75*
G02*
X190189558Y-101978673I-1600000J0D01*
G01*
X190189558Y-101978673D02*
G75*
G02*
X193389558Y-101978673I1600000J0D01*
G01*
X198289556Y-66638950D02*
G75*
G02*
X195289550Y-63638953I44J3000050D01*
G01*
X249434956Y-78982677D02*
G75*
G02*
X246488423Y-81638911I-2946456J306077D01*
G01*
X197507539Y-36173842D02*
X188939116Y-35745291D01*
X185903507Y-37921519D02*
G75*
G02*
X188939118Y-35745244I2885693J-819881D01*
G01*
M02*
