%TF.GenerationSoftware,KiCad,Pcbnew,9.0.4*%
%TF.CreationDate,2026-02-14T22:29:30-06:00*%
%TF.ProjectId,Wheels Board,57686565-6c73-4204-926f-6172642e6b69,rev?*%
%TF.SameCoordinates,Original*%
%TF.FileFunction,Paste,Top*%
%TF.FilePolarity,Positive*%
%FSLAX46Y46*%
G04 Gerber Fmt 4.6, Leading zero omitted, Abs format (unit mm)*
G04 Created by KiCad (PCBNEW 9.0.4) date 2026-02-14 22:29:30*
%MOMM*%
%LPD*%
G01*
G04 APERTURE LIST*
G04 Aperture macros list*
%AMRoundRect*
0 Rectangle with rounded corners*
0 $1 Rounding radius*
0 $2 $3 $4 $5 $6 $7 $8 $9 X,Y pos of 4 corners*
0 Add a 4 corners polygon primitive as box body*
4,1,4,$2,$3,$4,$5,$6,$7,$8,$9,$2,$3,0*
0 Add four circle primitives for the rounded corners*
1,1,$1+$1,$2,$3*
1,1,$1+$1,$4,$5*
1,1,$1+$1,$6,$7*
1,1,$1+$1,$8,$9*
0 Add four rect primitives between the rounded corners*
20,1,$1+$1,$2,$3,$4,$5,0*
20,1,$1+$1,$4,$5,$6,$7,0*
20,1,$1+$1,$6,$7,$8,$9,0*
20,1,$1+$1,$8,$9,$2,$3,0*%
G04 Aperture macros list end*
%ADD10RoundRect,0.237500X-0.237500X0.300000X-0.237500X-0.300000X0.237500X-0.300000X0.237500X0.300000X0*%
%ADD11RoundRect,0.237500X0.237500X-0.300000X0.237500X0.300000X-0.237500X0.300000X-0.237500X-0.300000X0*%
%ADD12RoundRect,0.237500X0.237500X-0.250000X0.237500X0.250000X-0.237500X0.250000X-0.237500X-0.250000X0*%
%ADD13R,0.910000X1.220000*%
%ADD14RoundRect,0.237500X0.250000X0.237500X-0.250000X0.237500X-0.250000X-0.237500X0.250000X-0.237500X0*%
%ADD15RoundRect,0.237500X0.300000X0.237500X-0.300000X0.237500X-0.300000X-0.237500X0.300000X-0.237500X0*%
%ADD16RoundRect,0.237500X-0.237500X0.250000X-0.237500X-0.250000X0.237500X-0.250000X0.237500X0.250000X0*%
%ADD17RoundRect,0.237500X0.237500X-0.287500X0.237500X0.287500X-0.237500X0.287500X-0.237500X-0.287500X0*%
%ADD18RoundRect,0.237500X0.287500X0.237500X-0.287500X0.237500X-0.287500X-0.237500X0.287500X-0.237500X0*%
%ADD19R,0.650000X1.528000*%
%ADD20R,0.351536X0.576580*%
%ADD21R,0.576580X0.351536*%
%ADD22RoundRect,0.237500X-0.250000X-0.237500X0.250000X-0.237500X0.250000X0.237500X-0.250000X0.237500X0*%
%ADD23RoundRect,0.250000X0.250000X-0.250000X0.250000X0.250000X-0.250000X0.250000X-0.250000X-0.250000X0*%
%ADD24R,0.550000X1.800000*%
%ADD25RoundRect,0.237500X-0.300000X-0.237500X0.300000X-0.237500X0.300000X0.237500X-0.300000X0.237500X0*%
%ADD26RoundRect,0.150000X-0.825000X-0.150000X0.825000X-0.150000X0.825000X0.150000X-0.825000X0.150000X0*%
%ADD27RoundRect,0.250000X1.750000X2.500000X-1.750000X2.500000X-1.750000X-2.500000X1.750000X-2.500000X0*%
%ADD28RoundRect,0.237500X-0.237500X0.287500X-0.237500X-0.287500X0.237500X-0.287500X0.237500X0.287500X0*%
G04 APERTURE END LIST*
D10*
%TO.C,C9*%
X84600000Y-88424998D03*
X84600000Y-90150000D03*
%TD*%
D11*
%TO.C,C8*%
X77489000Y-89534802D03*
X77489000Y-87809800D03*
%TD*%
D12*
%TO.C,R2*%
X86800000Y-81212500D03*
X86800000Y-79387500D03*
%TD*%
D13*
%TO.C,D7*%
X102464999Y-69000000D03*
X105735001Y-69000000D03*
%TD*%
D14*
%TO.C,R4*%
X113412500Y-86600000D03*
X111587500Y-86600000D03*
%TD*%
D15*
%TO.C,C4*%
X109600000Y-91500000D03*
X107874998Y-91500000D03*
%TD*%
D12*
%TO.C,R10*%
X80250002Y-82862499D03*
X80250002Y-81037499D03*
%TD*%
D16*
%TO.C,R1*%
X88900000Y-72825000D03*
X88900000Y-74650000D03*
%TD*%
D15*
%TO.C,C10*%
X74962501Y-95200000D03*
X73237499Y-95200000D03*
%TD*%
D17*
%TO.C,D2(5V)*%
X88900000Y-71174999D03*
X88900000Y-69425001D03*
%TD*%
D18*
%TO.C,D5*%
X113374999Y-85100000D03*
X111625001Y-85100000D03*
%TD*%
D11*
%TO.C,C6*%
X83400000Y-82812500D03*
X83400000Y-81087498D03*
%TD*%
D19*
%TO.C,U4*%
X82955001Y-84639000D03*
X81685001Y-84639000D03*
X80415001Y-84639000D03*
X79145001Y-84639000D03*
X79145001Y-90061000D03*
X80415001Y-90061000D03*
X81685001Y-90061000D03*
X82955001Y-90061000D03*
%TD*%
D15*
%TO.C,C12*%
X74962501Y-96700000D03*
X73237499Y-96700000D03*
%TD*%
D20*
%TO.C,U1*%
X112887500Y-90689700D03*
X112387499Y-90689700D03*
X111887499Y-90689700D03*
X111387498Y-90689700D03*
D21*
X111181199Y-91400001D03*
X111181199Y-91900000D03*
X111181199Y-92399999D03*
D20*
X111387498Y-93110300D03*
X111887499Y-93110300D03*
X112387499Y-93110300D03*
X112887500Y-93110300D03*
D21*
X113093799Y-92399999D03*
X113093799Y-91900000D03*
X113093799Y-91400001D03*
%TD*%
D11*
%TO.C,C7*%
X78749999Y-82837501D03*
X78749999Y-81112499D03*
%TD*%
D22*
%TO.C,R7*%
X111724999Y-94600000D03*
X113549999Y-94600000D03*
%TD*%
D23*
%TO.C,D6*%
X86400000Y-90199998D03*
X86400000Y-87700000D03*
%TD*%
D11*
%TO.C,C5*%
X81800000Y-82812500D03*
X81800000Y-81087498D03*
%TD*%
D15*
%TO.C,C3*%
X109600000Y-93100000D03*
X107874998Y-93100000D03*
%TD*%
D24*
%TO.C,J4*%
X122489600Y-104370000D03*
X122489600Y-100070000D03*
X123289600Y-104370000D03*
X123289600Y-100070000D03*
X124089600Y-104370001D03*
X124089600Y-100069999D03*
X124889600Y-104370000D03*
X124889600Y-100070000D03*
X125689599Y-104370000D03*
X125689599Y-100070000D03*
X126489597Y-104370000D03*
X126489597Y-100070000D03*
X127289600Y-104370000D03*
X127289600Y-100070000D03*
X128089601Y-104370000D03*
X128089601Y-100070000D03*
X128889600Y-104370000D03*
X128889600Y-100070000D03*
X129689600Y-104370001D03*
X129689600Y-100069999D03*
X130489600Y-104370000D03*
X130489600Y-100070000D03*
X131289600Y-104370000D03*
X131289600Y-100070000D03*
%TD*%
D25*
%TO.C,C2*%
X95237499Y-74800000D03*
X96962501Y-74800000D03*
%TD*%
D22*
%TO.C,R8*%
X111312499Y-89100000D03*
X113137499Y-89100000D03*
%TD*%
D26*
%TO.C,U5*%
X127425000Y-58295000D03*
X127425000Y-59565000D03*
X127425000Y-60835000D03*
X127425000Y-62105000D03*
X132375000Y-62105000D03*
X132375000Y-60835000D03*
X132375000Y-59565000D03*
X132375000Y-58295000D03*
%TD*%
D18*
%TO.C,D3*%
X86774999Y-82800000D03*
X85025001Y-82800000D03*
%TD*%
D15*
%TO.C,C1*%
X109600000Y-89900000D03*
X107874998Y-89900000D03*
%TD*%
%TO.C,C11*%
X74962501Y-98200000D03*
X73237499Y-98200000D03*
%TD*%
D27*
%TO.C,L1*%
X86499999Y-97487499D03*
X77999999Y-97487499D03*
%TD*%
D16*
%TO.C,R3*%
X103788604Y-82722677D03*
X103788604Y-84547677D03*
%TD*%
D28*
%TO.C,D4*%
X105344239Y-82760178D03*
X105344239Y-84510176D03*
%TD*%
D12*
%TO.C,R9*%
X75939600Y-87832199D03*
X75939600Y-86007199D03*
%TD*%
M02*
