M48
; DRILL file {KiCad 9.0.4} date 2026-02-14T22:30:00-0600
; FORMAT={-:-/ absolute / metric / decimal}
; #@! TF.CreationDate,2026-02-14T22:30:00-06:00
; #@! TF.GenerationSoftware,Kicad,Pcbnew,9.0.4
; #@! TF.FileFunction,Plated,1,2,PTH
FMAT,2
METRIC
; #@! TA.AperFunction,Plated,PTH,ViaDrill
T1C0.300
; #@! TA.AperFunction,Plated,PTH,ComponentDrill
T2C0.889
; #@! TA.AperFunction,Plated,PTH,ComponentDrill
T3C1.000
; #@! TA.AperFunction,Plated,PTH,ComponentDrill
T4C1.200
; #@! TA.AperFunction,Plated,PTH,ComponentDrill
T5C1.600
; #@! TA.AperFunction,Plated,PTH,ComponentDrill
T6C3.200
%
G90
G05
T1
X56.25Y-80.0
X57.0Y-68.25
X68.0Y-68.25
X70.3Y-80.1
X72.75Y-90.0
X74.1Y-79.9
X74.25Y-104.0
X76.25Y-81.75
X77.4Y-81.4
X77.5Y-80.6
X79.75Y-69.5
X81.25Y-92.5
X82.25Y-104.0
X90.25Y-68.25
X90.5Y-89.2
X93.9Y-74.3
X94.0Y-100.5
X98.1Y-83.7
X98.2Y-93.6
X100.5Y-68.25
X100.551Y-84.7
X102.0Y-99.0
X104.824Y-101.724
X105.501Y-96.851
X106.0Y-39.0
X107.25Y-101.5
X107.8Y-96.3
X108.0Y-67.1
X108.6Y-88.5
X108.8Y-50.7
X109.0Y-96.9
X109.6Y-81.7
X110.0Y-63.0
X110.0Y-94.2
X110.4Y-88.5
X111.2Y-69.2
X113.997Y-93.303
X114.0Y-78.0
X114.1Y-97.8
X115.049Y-38.039
X115.9Y-94.2
X116.9Y-98.6
X117.0Y-104.25
X119.7Y-95.9
X120.0Y-49.0
X122.0Y-60.0
X123.3Y-98.6
X123.4Y-96.1
X124.0Y-70.0
X124.0Y-79.0
X124.0Y-95.3
X124.1Y-98.6
X124.4Y-63.4
X124.9Y-98.67
X125.0Y-94.0
X126.05Y-98.3
X126.502Y-103.401
X127.0Y-87.0
X128.049Y-102.3
X128.9Y-97.9
X129.774Y-101.926
X130.3Y-97.1
X130.8Y-98.4
X131.551Y-96.851
X132.0Y-54.0
X132.0Y-104.0
X133.6Y-64.7
X135.0Y-70.0
X135.0Y-80.0
X135.0Y-90.0
X135.0Y-98.0
X135.6Y-60.4
X143.0Y-61.0
X143.0Y-70.0
X143.0Y-80.0
X143.0Y-90.0
X143.0Y-98.0
T2
X111.298Y-66.78
X111.298Y-82.02
X113.838Y-66.78
X113.838Y-82.02
X116.378Y-66.78
X116.378Y-82.02
X118.918Y-66.78
X118.918Y-82.02
X121.459Y-66.78
X121.459Y-82.02
X123.998Y-66.78
X123.998Y-82.02
X126.538Y-66.78
X126.538Y-82.02
T3
X69.7Y-74.0
X89.46Y-81.1
X90.61Y-103.8
X92.0Y-81.1
X92.9Y-84.7
X93.15Y-103.8
X94.54Y-81.1
X95.2Y-69.7
X95.69Y-103.8
X97.08Y-81.1
X98.23Y-103.8
X99.62Y-81.1
X100.77Y-103.8
X103.16Y-87.1
X103.31Y-103.8
X105.3Y-73.9
X105.3Y-76.44
X105.3Y-78.98
X105.7Y-87.1
X105.85Y-103.8
X109.52Y-42.2
X112.06Y-42.2
X114.6Y-42.2
X116.5Y-49.0
T4
X58.1Y-78.04
X60.6Y-78.04
X63.1Y-78.04
X65.6Y-78.04
T5
X74.84Y-70.6
X74.84Y-74.0
X84.76Y-70.6
X84.76Y-74.0
T6
X111.91Y-102.22
X111.91Y-55.75
X142.65Y-55.75
X142.66Y-102.22
M30
