%TF.GenerationSoftware,KiCad,Pcbnew,9.0.4*%
%TF.CreationDate,2026-02-14T22:29:30-06:00*%
%TF.ProjectId,Wheels Board,57686565-6c73-4204-926f-6172642e6b69,rev?*%
%TF.SameCoordinates,Original*%
%TF.FileFunction,Copper,L2,Bot*%
%TF.FilePolarity,Positive*%
%FSLAX46Y46*%
G04 Gerber Fmt 4.6, Leading zero omitted, Abs format (unit mm)*
G04 Created by KiCad (PCBNEW 9.0.4) date 2026-02-14 22:29:30*
%MOMM*%
%LPD*%
G01*
G04 APERTURE LIST*
G04 Aperture macros list*
%AMRoundRect*
0 Rectangle with rounded corners*
0 $1 Rounding radius*
0 $2 $3 $4 $5 $6 $7 $8 $9 X,Y pos of 4 corners*
0 Add a 4 corners polygon primitive as box body*
4,1,4,$2,$3,$4,$5,$6,$7,$8,$9,$2,$3,0*
0 Add four circle primitives for the rounded corners*
1,1,$1+$1,$2,$3*
1,1,$1+$1,$4,$5*
1,1,$1+$1,$6,$7*
1,1,$1+$1,$8,$9*
0 Add four rect primitives between the rounded corners*
20,1,$1+$1,$2,$3,$4,$5,0*
20,1,$1+$1,$4,$5,$6,$7,0*
20,1,$1+$1,$6,$7,$8,$9,0*
20,1,$1+$1,$8,$9,$2,$3,0*%
G04 Aperture macros list end*
%TA.AperFunction,ComponentPad*%
%ADD10R,1.700000X1.700000*%
%TD*%
%TA.AperFunction,ComponentPad*%
%ADD11C,1.700000*%
%TD*%
%TA.AperFunction,ComponentPad*%
%ADD12RoundRect,0.250000X0.600000X-0.850000X0.600000X0.850000X-0.600000X0.850000X-0.600000X-0.850000X0*%
%TD*%
%TA.AperFunction,ComponentPad*%
%ADD13O,1.700000X2.200000*%
%TD*%
%TA.AperFunction,ComponentPad*%
%ADD14C,1.524000*%
%TD*%
%TA.AperFunction,ComponentPad*%
%ADD15C,3.600000*%
%TD*%
%TA.AperFunction,ConnectorPad*%
%ADD16C,6.400000*%
%TD*%
%TA.AperFunction,ComponentPad*%
%ADD17C,2.400000*%
%TD*%
%TA.AperFunction,ViaPad*%
%ADD18C,0.600000*%
%TD*%
%TA.AperFunction,Conductor*%
%ADD19C,0.500000*%
%TD*%
%TA.AperFunction,Conductor*%
%ADD20C,0.200000*%
%TD*%
G04 APERTURE END LIST*
D10*
%TO.P,Hall_out,1,Pin_1*%
%TO.N,/HALL_OUT*%
X116500000Y-49000000D03*
%TD*%
%TO.P,J7,1,Pin_1*%
%TO.N,GND*%
X90610000Y-103800000D03*
D11*
%TO.P,J7,2,Pin_2*%
%TO.N,/IMU_INT1*%
X93150000Y-103800000D03*
%TO.P,J7,3,Pin_3*%
%TO.N,/IMU_INT2*%
X95689999Y-103800000D03*
%TO.P,J7,4,Pin_4*%
%TO.N,/IMU_SPI_MISO*%
X98230000Y-103800000D03*
%TO.P,J7,5,Pin_5*%
%TO.N,/IMU_SPI_MOSI*%
X100770000Y-103800000D03*
%TO.P,J7,6,Pin_6*%
%TO.N,/IMU_SPI_CLK*%
X103310000Y-103800000D03*
%TO.P,J7,7,Pin_7*%
%TO.N,/IMU_SPI_SS*%
X105850000Y-103800000D03*
%TD*%
D12*
%TO.P,J6,1,Pin_1*%
%TO.N,+24V*%
X58100000Y-78040000D03*
D13*
%TO.P,J6,2,Pin_2*%
%TO.N,/CAN_H*%
X60600000Y-78040000D03*
%TO.P,J6,3,Pin_3*%
%TO.N,GND*%
X63100000Y-78040000D03*
%TO.P,J6,4,Pin_4*%
%TO.N,/CAN_L*%
X65600000Y-78040000D03*
%TD*%
D10*
%TO.P,J2,1,Pin_1*%
%TO.N,+24V*%
X92900000Y-84700000D03*
%TD*%
%TO.P,J9,1,Pin_1*%
%TO.N,+5V*%
X95200000Y-69700000D03*
%TD*%
%TO.P,J5,1,Pin_1*%
%TO.N,+3.3V*%
X105700000Y-87100000D03*
D11*
%TO.P,J5,2,Pin_2*%
%TO.N,GND*%
X103160000Y-87100000D03*
%TD*%
D14*
%TO.P,U2,1,GPIO1_A0_D0*%
%TO.N,/XIAO_HEARTBEAT_LED*%
X111298500Y-82020000D03*
%TO.P,U2,2,GPIO2_A1_D1*%
%TO.N,/EXTRA_GPIO1*%
X113838500Y-82020000D03*
%TO.P,U2,3,GPIO3_A2_D2*%
%TO.N,/EXTRA_GPIO2*%
X116378500Y-82020000D03*
%TO.P,U2,4,GPIO4_A3_D3*%
%TO.N,/ESP_SPI_SS*%
X118918500Y-82020000D03*
%TO.P,U2,5,GPIO5_A4_D4_SDA*%
%TO.N,unconnected-(U2-GPIO5_A4_D4_SDA-Pad5)*%
X121458500Y-82020000D03*
%TO.P,U2,6,GPIO6_A5_D5_SCL*%
%TO.N,unconnected-(U2-GPIO6_A5_D5_SCL-Pad6)_1*%
X123998500Y-82020000D03*
%TO.P,U2,7,GPIO43_A6_D6_TX*%
%TO.N,/ESP_UART_TX*%
X126538500Y-82020000D03*
%TO.P,U2,8,GPIO44_D7_RX*%
%TO.N,/ESP_UART_RX*%
X126538500Y-66780000D03*
%TO.P,U2,9,GPIO7_A8_D8_SCK*%
%TO.N,/ESP_SPI_CLK*%
X123998500Y-66780000D03*
%TO.P,U2,10,GPIO8_A9_D9_MISO*%
%TO.N,/ESP_SPI_MISO*%
X121458500Y-66780000D03*
%TO.P,U2,11,GPIO9_A10_D10_MOSI*%
%TO.N,/ESP_SPI_MOSI*%
X118918500Y-66780000D03*
%TO.P,U2,12,3V3*%
%TO.N,unconnected-(U2-3V3-Pad12)*%
X116378500Y-66780000D03*
%TO.P,U2,13,GND*%
%TO.N,GND*%
X113838500Y-66780000D03*
%TO.P,U2,14,5V*%
%TO.N,Net-(U2-5V)*%
X111298500Y-66780000D03*
%TD*%
D10*
%TO.P,J10,1,Pin_1*%
%TO.N,GND*%
X69700000Y-74000000D03*
%TD*%
D15*
%TO.P,J4,25,MNT*%
%TO.N,unconnected-(J4-MNT-Pad25)*%
X142659600Y-102220000D03*
D16*
%TO.N,unconnected-(J4-MNT-Pad25)_2*%
X142659600Y-102220000D03*
D15*
%TO.P,J4,26,MNT*%
%TO.N,unconnected-(J4-MNT-Pad26)_2*%
X111909599Y-102220000D03*
D16*
%TO.N,unconnected-(J4-MNT-Pad26)*%
X111909599Y-102220000D03*
D15*
%TO.P,J4,27,MNT*%
%TO.N,unconnected-(J4-MNT-Pad27)_2*%
X111909600Y-55749999D03*
D16*
%TO.N,unconnected-(J4-MNT-Pad27)_1*%
X111909600Y-55749999D03*
D15*
%TO.P,J4,28,MNT*%
%TO.N,unconnected-(J4-MNT-Pad28)_2*%
X142649600Y-55750000D03*
D16*
%TO.N,unconnected-(J4-MNT-Pad28)*%
X142649600Y-55750000D03*
%TD*%
D10*
%TO.P,J3,1,Pin_1*%
%TO.N,GND*%
X114600000Y-42200000D03*
D11*
%TO.P,J3,2,Pin_2*%
%TO.N,/HALL_OUT*%
X112060000Y-42200000D03*
%TO.P,J3,3,Pin_3*%
%TO.N,Net-(J3-Pin_3)*%
X109520001Y-42200000D03*
%TD*%
D10*
%TO.P,J1,1,Pin_1*%
%TO.N,/ESP_SPI_SS*%
X99620000Y-81100000D03*
D11*
%TO.P,J1,2,Pin_2*%
%TO.N,/ESP_SPI_CLK*%
X97080000Y-81100000D03*
%TO.P,J1,3,Pin_3*%
%TO.N,/ESP_SPI_MISO*%
X94540001Y-81100000D03*
%TO.P,J1,4,Pin_4*%
%TO.N,/ESP_SPI_MOSI*%
X92000000Y-81100000D03*
%TO.P,J1,5,Pin_5*%
%TO.N,GND*%
X89460000Y-81100000D03*
%TD*%
D10*
%TO.P,J8,1,Pin_1*%
%TO.N,/ESP_UART_RX*%
X105300000Y-73900000D03*
D11*
%TO.P,J8,2,Pin_2*%
%TO.N,/ESP_UART_TX*%
X105300000Y-76440000D03*
%TO.P,J8,3,Pin_3*%
%TO.N,GND*%
X105300000Y-78979999D03*
%TD*%
D17*
%TO.P,F1,1*%
%TO.N,+5V*%
X74840000Y-70600000D03*
X74840000Y-74000000D03*
%TO.P,F1,2*%
%TO.N,Net-(J3-Pin_3)*%
X84760000Y-70600000D03*
X84760000Y-74000000D03*
%TD*%
D18*
%TO.N,+3.3V*%
X115900000Y-94200000D03*
X110000000Y-94200000D03*
X109600000Y-81700000D03*
X133600000Y-64700000D03*
%TO.N,GND*%
X110000000Y-63000000D03*
X108800000Y-50700000D03*
X125000000Y-94000000D03*
X68000000Y-68250000D03*
X79750000Y-69500000D03*
X135000000Y-70000000D03*
X98100000Y-83700000D03*
X90250000Y-68250000D03*
X111200000Y-69200000D03*
X94000000Y-100500000D03*
X76250000Y-81750000D03*
X108000000Y-67100000D03*
X98200000Y-93600000D03*
X106000000Y-39000000D03*
X57000000Y-68250000D03*
X135000000Y-90000000D03*
X135000000Y-98000000D03*
X117000000Y-104250000D03*
X124000000Y-70000000D03*
X81250000Y-92500000D03*
X114000000Y-78000000D03*
X135000000Y-80000000D03*
X127000000Y-87000000D03*
X100500000Y-68250000D03*
X102000000Y-99000000D03*
X135600000Y-60400000D03*
X72750000Y-90000000D03*
X143000000Y-70000000D03*
X143000000Y-61000000D03*
X74250000Y-104000000D03*
X115048633Y-38039182D03*
X124000000Y-79000000D03*
X143000000Y-90000000D03*
X120000000Y-49000000D03*
X132000000Y-54000000D03*
X143000000Y-98000000D03*
X70300000Y-80100000D03*
X107250000Y-101500000D03*
X93900000Y-74300000D03*
X56250000Y-80000000D03*
X82250000Y-104000000D03*
X122000000Y-60000000D03*
X90500000Y-89200000D03*
X143000000Y-80000000D03*
%TO.N,+24V*%
X131551000Y-96851000D03*
X100551000Y-84700000D03*
%TO.N,+5V*%
X74100000Y-79900000D03*
%TO.N,/ESP_SPI_CLK*%
X124400000Y-63400000D03*
%TO.N,/IMU_SPI_SS*%
X113996900Y-93303100D03*
X104824265Y-101724265D03*
%TO.N,/IMU_SPI_MISO*%
X126050000Y-98300000D03*
X129774265Y-101925735D03*
X107800000Y-96300000D03*
X119700000Y-95900000D03*
%TO.N,/IMU_SPI_CLK*%
X114100000Y-97800000D03*
X132000000Y-104000000D03*
%TO.N,/IMU_SPI_MOSI*%
X124900000Y-98669998D03*
X128048527Y-102300000D03*
X109000000Y-96900000D03*
%TO.N,/ESP_UART_TX*%
X124100000Y-98600000D03*
X124000000Y-95300000D03*
%TO.N,/IMU_INT1*%
X116900000Y-98600000D03*
X108600000Y-88500000D03*
X110400000Y-88500000D03*
X105500735Y-96850735D03*
%TO.N,/ESP_UART_RX*%
X123300000Y-98600000D03*
X123400000Y-96100000D03*
%TO.N,/CAN_L*%
X77500000Y-80600000D03*
X130300000Y-97100000D03*
%TO.N,/CAN_H*%
X130800000Y-98400000D03*
X77400000Y-81400000D03*
%TO.N,/HALL_PSOM*%
X128900000Y-97900000D03*
X126501679Y-103401000D03*
%TD*%
D19*
%TO.N,+3.3V*%
X112549000Y-78751000D02*
X119549000Y-78751000D01*
X115900000Y-94200000D02*
X110000000Y-94200000D01*
X109600000Y-81700000D02*
X112549000Y-78751000D01*
X119549000Y-78751000D02*
X133600000Y-64700000D01*
%TO.N,+24V*%
X120750000Y-86250000D02*
X131351000Y-96851000D01*
X106528232Y-84949000D02*
X107829232Y-86250000D01*
X131351000Y-96851000D02*
X131551000Y-96851000D01*
X107829232Y-86250000D02*
X120750000Y-86250000D01*
X100551000Y-84700000D02*
X100800000Y-84949000D01*
X100800000Y-84949000D02*
X106528232Y-84949000D01*
%TO.N,+5V*%
X74100000Y-79900000D02*
X74100000Y-78600000D01*
X74100000Y-78600000D02*
X74840000Y-77860000D01*
X74840000Y-77860000D02*
X74840000Y-74000000D01*
D20*
%TO.N,/ESP_SPI_CLK*%
X124400000Y-63400000D02*
X124400000Y-63700000D01*
X123998500Y-64101500D02*
X123998500Y-66780000D01*
X124400000Y-63700000D02*
X123998500Y-64101500D01*
%TO.N,/IMU_SPI_SS*%
X113693800Y-93000000D02*
X108501527Y-93000000D01*
X113996900Y-93303100D02*
X113693800Y-93000000D01*
X108501527Y-93000000D02*
X104824265Y-96677262D01*
X129689600Y-104970000D02*
X129659600Y-105000000D01*
X104824265Y-96677262D02*
X104824265Y-101724265D01*
%TO.N,/IMU_SPI_MISO*%
X129774265Y-101674265D02*
X129774265Y-101925735D01*
X119400000Y-95600000D02*
X108500000Y-95600000D01*
X108500000Y-95600000D02*
X107800000Y-96300000D01*
X126050000Y-98300000D02*
X126400000Y-98300000D01*
X126400000Y-98300000D02*
X129774265Y-101674265D01*
X119700000Y-95900000D02*
X119400000Y-95600000D01*
%TO.N,/IMU_SPI_CLK*%
X114100000Y-97800000D02*
X114600000Y-97800000D01*
X114600000Y-97800000D02*
X116402000Y-99602000D01*
X125900000Y-103649264D02*
X126620736Y-104370000D01*
X132000000Y-104000000D02*
X131630000Y-104370000D01*
X123152000Y-99602000D02*
X125900000Y-102350000D01*
X126620000Y-104370000D02*
X126800000Y-104370000D01*
X125900000Y-102350000D02*
X125900000Y-103649264D01*
X126620736Y-104370000D02*
X126800000Y-104370000D01*
X116402000Y-99602000D02*
X123152000Y-99602000D01*
X131630000Y-104370000D02*
X126800000Y-104370000D01*
%TO.N,/IMU_SPI_MOSI*%
X126250000Y-102000000D02*
X123451000Y-99201000D01*
X123900000Y-99201000D02*
X124368998Y-99201000D01*
X123900000Y-99201000D02*
X123250000Y-99201000D01*
X128048527Y-102300000D02*
X127748527Y-102000000D01*
X127748527Y-102000000D02*
X126250000Y-102000000D01*
X114267100Y-96900000D02*
X109000000Y-96900000D01*
X123451000Y-99201000D02*
X123250000Y-99201000D01*
X123250000Y-99201000D02*
X116568100Y-99201000D01*
X124368998Y-99201000D02*
X124900000Y-98669998D01*
X116568100Y-99201000D02*
X114267100Y-96900000D01*
%TO.N,/ESP_UART_TX*%
X124000000Y-95300000D02*
X124100000Y-95400000D01*
X124100000Y-95400000D02*
X124100000Y-98600000D01*
%TO.N,/IMU_INT1*%
X114433200Y-96499000D02*
X113499000Y-96499000D01*
X109249943Y-96300000D02*
X109248943Y-96299000D01*
X113499000Y-96499000D02*
X113300000Y-96300000D01*
X108750057Y-96300000D02*
X108649943Y-96300000D01*
X109248943Y-96299000D02*
X108751057Y-96299000D01*
X105551000Y-96901000D02*
X105500735Y-96850735D01*
X108600000Y-88500000D02*
X110400000Y-88500000D01*
X108048943Y-96901000D02*
X105551000Y-96901000D01*
X116534200Y-98600000D02*
X114433200Y-96499000D01*
X108751057Y-96299000D02*
X108750057Y-96300000D01*
X108649943Y-96300000D02*
X108048943Y-96901000D01*
X116900000Y-98600000D02*
X116534200Y-98600000D01*
X113300000Y-96300000D02*
X109249943Y-96300000D01*
%TO.N,/ESP_UART_RX*%
X123300000Y-96200000D02*
X123300000Y-98600000D01*
X123400000Y-96100000D02*
X123300000Y-96200000D01*
%TO.N,/CAN_L*%
X100700000Y-86900000D02*
X102100000Y-85500000D01*
X106300000Y-85500000D02*
X107800000Y-87000000D01*
X83800000Y-86900000D02*
X100700000Y-86900000D01*
X107800000Y-87000000D02*
X120200000Y-87000000D01*
X120200000Y-87000000D02*
X130300000Y-97100000D01*
X102100000Y-85500000D02*
X106300000Y-85500000D01*
X77500000Y-80600000D02*
X83800000Y-86900000D01*
%TO.N,/CAN_H*%
X108100000Y-87600000D02*
X119900000Y-87600000D01*
X130700000Y-98400000D02*
X130800000Y-98400000D01*
X77600000Y-81400000D02*
X83700000Y-87500000D01*
X83700000Y-87500000D02*
X100400000Y-87500000D01*
X77400000Y-81400000D02*
X77600000Y-81400000D01*
X102100000Y-89200000D02*
X106500000Y-89200000D01*
X119900000Y-87600000D02*
X130700000Y-98400000D01*
X100400000Y-87500000D02*
X102100000Y-89200000D01*
X106500000Y-89200000D02*
X108100000Y-87600000D01*
%TO.N,/HALL_PSOM*%
X127132900Y-103000000D02*
X126902679Y-103000000D01*
X129089600Y-98089600D02*
X129489600Y-98089600D01*
X126902679Y-103000000D02*
X126501679Y-103401000D01*
X130750000Y-99350000D02*
X130750000Y-102500000D01*
X127951057Y-103001000D02*
X127133900Y-103001000D01*
X129489600Y-98089600D02*
X130750000Y-99350000D01*
X130250000Y-103000000D02*
X127952057Y-103000000D01*
X127133900Y-103001000D02*
X127132900Y-103000000D01*
X128900000Y-97900000D02*
X129089600Y-98089600D01*
X127952057Y-103000000D02*
X127951057Y-103001000D01*
X130750000Y-102500000D02*
X130250000Y-103000000D01*
%TD*%
%TA.AperFunction,Conductor*%
%TO.N,GND*%
G36*
X115061646Y-36318526D02*
G01*
X115072685Y-36319212D01*
X115361729Y-36353481D01*
X115372644Y-36355399D01*
X115656053Y-36421758D01*
X115666671Y-36424880D01*
X115940889Y-36522497D01*
X115951102Y-36526791D01*
X116212683Y-36654439D01*
X116222354Y-36659849D01*
X116468034Y-36815934D01*
X116477041Y-36822391D01*
X116703733Y-37004952D01*
X116711961Y-37012375D01*
X116916826Y-37219124D01*
X116924173Y-37227419D01*
X117104654Y-37455776D01*
X117111028Y-37464841D01*
X117264857Y-37711937D01*
X117270178Y-37721658D01*
X117395423Y-37984391D01*
X117399624Y-37994645D01*
X117495761Y-38272732D01*
X117497424Y-38278019D01*
X117497425Y-38278020D01*
X117504998Y-38304672D01*
X117509629Y-38320971D01*
X117510828Y-38325193D01*
X117510836Y-38325217D01*
X118920371Y-43285492D01*
X120842746Y-50050498D01*
X120884165Y-50196253D01*
X120884290Y-50196606D01*
X120916580Y-50310291D01*
X120916581Y-50310292D01*
X121037419Y-50616045D01*
X121037423Y-50616054D01*
X121037424Y-50616056D01*
X121188055Y-50908303D01*
X121366982Y-51184135D01*
X121572433Y-51440822D01*
X121572437Y-51440826D01*
X121802376Y-51675823D01*
X122054521Y-51886801D01*
X122054538Y-51886814D01*
X122200535Y-51986097D01*
X122326406Y-52071694D01*
X122615307Y-52228647D01*
X122918375Y-52356115D01*
X123232609Y-52452836D01*
X123554900Y-52517852D01*
X123882056Y-52550519D01*
X124046447Y-52550500D01*
X124094042Y-52550500D01*
X141026543Y-52550500D01*
X141084734Y-52569407D01*
X141120698Y-52618907D01*
X141120698Y-52680093D01*
X141084734Y-52729593D01*
X141073211Y-52736810D01*
X140899287Y-52829773D01*
X140621480Y-53015400D01*
X140363215Y-53227352D01*
X140126952Y-53463615D01*
X139915000Y-53721880D01*
X139729373Y-53999687D01*
X139571886Y-54294327D01*
X139571873Y-54294354D01*
X139444014Y-54603032D01*
X139347031Y-54922746D01*
X139281848Y-55250444D01*
X139249100Y-55582946D01*
X139249100Y-55917053D01*
X139281848Y-56249555D01*
X139347031Y-56577253D01*
X139444014Y-56896967D01*
X139571873Y-57205645D01*
X139571886Y-57205672D01*
X139729373Y-57500312D01*
X139868593Y-57708667D01*
X139914998Y-57778117D01*
X139915000Y-57778119D01*
X140095678Y-57998277D01*
X140126957Y-58036390D01*
X140363210Y-58272643D01*
X140621482Y-58484601D01*
X140760383Y-58577412D01*
X140899287Y-58670226D01*
X141193925Y-58827712D01*
X141193946Y-58827723D01*
X141502624Y-58955582D01*
X141502626Y-58955582D01*
X141502632Y-58955585D01*
X141778976Y-59039412D01*
X141822349Y-59052569D01*
X142150041Y-59117751D01*
X142482544Y-59150500D01*
X142482547Y-59150500D01*
X142816653Y-59150500D01*
X142816656Y-59150500D01*
X143149159Y-59117751D01*
X143476851Y-59052569D01*
X143666457Y-58995052D01*
X143796567Y-58955585D01*
X143796569Y-58955583D01*
X143796576Y-58955582D01*
X144105254Y-58827723D01*
X144249240Y-58750760D01*
X144399912Y-58670226D01*
X144399916Y-58670223D01*
X144677718Y-58484601D01*
X144935990Y-58272643D01*
X145172243Y-58036390D01*
X145384201Y-57778118D01*
X145569824Y-57500315D01*
X145569826Y-57500312D01*
X145662758Y-57326448D01*
X145706863Y-57284041D01*
X145767471Y-57275658D01*
X145821432Y-57304500D01*
X145848134Y-57359551D01*
X145849068Y-57373116D01*
X145849068Y-100578174D01*
X145830161Y-100636365D01*
X145780661Y-100672329D01*
X145719475Y-100672329D01*
X145669975Y-100636365D01*
X145662758Y-100624842D01*
X145579826Y-100469687D01*
X145487012Y-100330783D01*
X145394201Y-100191882D01*
X145182243Y-99933610D01*
X144945990Y-99697357D01*
X144687718Y-99485399D01*
X144538226Y-99385511D01*
X144409912Y-99299773D01*
X144115272Y-99142286D01*
X144115260Y-99142280D01*
X144115254Y-99142277D01*
X144115249Y-99142274D01*
X144115245Y-99142273D01*
X143806567Y-99014414D01*
X143486853Y-98917431D01*
X143266377Y-98873576D01*
X143159159Y-98852249D01*
X143159157Y-98852248D01*
X142916091Y-98828308D01*
X142826656Y-98819500D01*
X142492544Y-98819500D01*
X142394300Y-98829176D01*
X142160044Y-98852248D01*
X141832346Y-98917431D01*
X141512632Y-99014414D01*
X141203954Y-99142273D01*
X141203927Y-99142286D01*
X140909287Y-99299773D01*
X140631480Y-99485400D01*
X140373215Y-99697352D01*
X140136952Y-99933615D01*
X139925000Y-100191880D01*
X139739373Y-100469687D01*
X139581886Y-100764327D01*
X139581873Y-100764354D01*
X139454014Y-101073032D01*
X139357031Y-101392746D01*
X139291848Y-101720444D01*
X139266255Y-101980292D01*
X139259100Y-102052944D01*
X139259100Y-102387056D01*
X139264854Y-102445475D01*
X139291848Y-102719555D01*
X139357031Y-103047253D01*
X139454014Y-103366967D01*
X139581873Y-103675645D01*
X139581886Y-103675672D01*
X139739373Y-103970312D01*
X139830319Y-104106420D01*
X139924999Y-104248118D01*
X140136957Y-104506390D01*
X140373210Y-104742643D01*
X140631482Y-104954601D01*
X140770383Y-105047412D01*
X140909287Y-105140226D01*
X141139338Y-105263190D01*
X141181745Y-105307295D01*
X141190128Y-105367904D01*
X141161286Y-105421864D01*
X141106235Y-105448566D01*
X141092670Y-105449500D01*
X129851515Y-105449500D01*
X129793324Y-105430593D01*
X129757360Y-105381093D01*
X129757360Y-105319907D01*
X129793324Y-105270407D01*
X129802005Y-105264768D01*
X129844111Y-105240460D01*
X129930060Y-105154511D01*
X129969621Y-105085988D01*
X129990100Y-105009562D01*
X129990100Y-104930438D01*
X129969621Y-104854012D01*
X129949406Y-104818999D01*
X129936685Y-104759152D01*
X129961572Y-104703256D01*
X130014560Y-104672663D01*
X130035143Y-104670500D01*
X131669563Y-104670500D01*
X131669563Y-104670499D01*
X131745989Y-104650021D01*
X131814511Y-104610460D01*
X131870460Y-104554511D01*
X131895475Y-104529495D01*
X131949991Y-104501719D01*
X131965478Y-104500500D01*
X132065890Y-104500500D01*
X132065892Y-104500500D01*
X132193186Y-104466392D01*
X132193188Y-104466390D01*
X132193190Y-104466390D01*
X132307309Y-104400503D01*
X132307309Y-104400502D01*
X132307314Y-104400500D01*
X132400500Y-104307314D01*
X132433330Y-104250451D01*
X132466390Y-104193190D01*
X132466390Y-104193188D01*
X132466392Y-104193186D01*
X132500500Y-104065892D01*
X132500500Y-103934108D01*
X132466392Y-103806814D01*
X132466390Y-103806811D01*
X132466390Y-103806809D01*
X132400503Y-103692690D01*
X132400501Y-103692688D01*
X132400500Y-103692686D01*
X132307314Y-103599500D01*
X132307311Y-103599498D01*
X132307309Y-103599496D01*
X132193189Y-103533609D01*
X132193191Y-103533609D01*
X132143799Y-103520375D01*
X132065892Y-103499500D01*
X131934108Y-103499500D01*
X131856200Y-103520375D01*
X131806809Y-103533609D01*
X131692690Y-103599496D01*
X131599496Y-103692690D01*
X131533609Y-103806809D01*
X131533608Y-103806814D01*
X131501941Y-103925000D01*
X131499500Y-103934109D01*
X131499500Y-103970500D01*
X131480593Y-104028691D01*
X131431093Y-104064655D01*
X131400500Y-104069500D01*
X126786215Y-104069500D01*
X126778617Y-104067031D01*
X126770728Y-104068281D01*
X126750072Y-104057756D01*
X126728024Y-104050593D01*
X126716211Y-104040504D01*
X126689879Y-104014172D01*
X126662102Y-103959655D01*
X126671673Y-103899223D01*
X126710381Y-103858433D01*
X126808993Y-103801500D01*
X126902179Y-103708314D01*
X126913429Y-103688828D01*
X126968069Y-103594190D01*
X126968069Y-103594188D01*
X126968071Y-103594186D01*
X127002179Y-103466892D01*
X127002179Y-103400500D01*
X127021086Y-103342309D01*
X127070586Y-103306345D01*
X127101179Y-103301500D01*
X127990620Y-103301500D01*
X127991782Y-103301347D01*
X128004704Y-103300500D01*
X130289563Y-103300500D01*
X130289563Y-103300499D01*
X130365989Y-103280021D01*
X130434511Y-103240460D01*
X130490460Y-103184511D01*
X130990460Y-102684511D01*
X131030022Y-102615988D01*
X131050500Y-102539562D01*
X131050500Y-102460438D01*
X131050500Y-99310438D01*
X131047644Y-99299779D01*
X131047644Y-99299776D01*
X131047643Y-99299777D01*
X131047643Y-99299776D01*
X131030022Y-99234012D01*
X131030019Y-99234006D01*
X130990463Y-99165493D01*
X130990461Y-99165491D01*
X130990460Y-99165489D01*
X130876392Y-99051421D01*
X130848617Y-98996907D01*
X130858188Y-98936475D01*
X130901453Y-98893210D01*
X130920767Y-98885796D01*
X130993186Y-98866392D01*
X131107314Y-98800500D01*
X131200500Y-98707314D01*
X131260087Y-98604107D01*
X131266390Y-98593190D01*
X131266390Y-98593188D01*
X131266392Y-98593186D01*
X131300500Y-98465892D01*
X131300500Y-98334108D01*
X131266392Y-98206814D01*
X131266390Y-98206811D01*
X131266390Y-98206809D01*
X131200503Y-98092690D01*
X131200501Y-98092688D01*
X131200500Y-98092686D01*
X131107314Y-97999500D01*
X131107311Y-97999498D01*
X131107309Y-97999496D01*
X130993189Y-97933609D01*
X130993191Y-97933609D01*
X130943799Y-97920375D01*
X130865892Y-97899500D01*
X130734108Y-97899500D01*
X130702847Y-97907876D01*
X130641746Y-97904671D01*
X130607223Y-97882252D01*
X130455243Y-97730272D01*
X130427466Y-97675755D01*
X130437037Y-97615323D01*
X130480302Y-97572058D01*
X130487368Y-97568801D01*
X130493178Y-97566394D01*
X130493186Y-97566392D01*
X130607314Y-97500500D01*
X130700500Y-97407314D01*
X130704434Y-97400500D01*
X130766390Y-97293190D01*
X130766390Y-97293188D01*
X130766392Y-97293186D01*
X130800500Y-97165892D01*
X130800500Y-97165884D01*
X130800853Y-97163205D01*
X130801689Y-97161450D01*
X130802179Y-97159624D01*
X130802517Y-97159714D01*
X130827189Y-97107978D01*
X130880957Y-97078777D01*
X130941619Y-97086758D01*
X130969010Y-97106114D01*
X131074385Y-97211488D01*
X131074390Y-97211492D01*
X131177108Y-97270797D01*
X131177110Y-97270797D01*
X131177113Y-97270799D01*
X131200010Y-97276934D01*
X131291691Y-97301500D01*
X131314330Y-97301500D01*
X131324660Y-97303731D01*
X131335395Y-97309975D01*
X131353258Y-97314761D01*
X131357814Y-97317392D01*
X131485108Y-97351500D01*
X131485110Y-97351500D01*
X131616890Y-97351500D01*
X131616892Y-97351500D01*
X131744186Y-97317392D01*
X131744188Y-97317390D01*
X131744190Y-97317390D01*
X131858309Y-97251503D01*
X131858309Y-97251502D01*
X131858314Y-97251500D01*
X131951500Y-97158314D01*
X131989102Y-97093186D01*
X132017390Y-97044190D01*
X132017390Y-97044188D01*
X132017392Y-97044186D01*
X132051500Y-96916892D01*
X132051500Y-96785108D01*
X132017392Y-96657814D01*
X132017390Y-96657811D01*
X132017390Y-96657809D01*
X131951503Y-96543690D01*
X131951501Y-96543688D01*
X131951500Y-96543686D01*
X131858314Y-96450500D01*
X131858311Y-96450498D01*
X131858309Y-96450496D01*
X131744189Y-96384609D01*
X131744191Y-96384609D01*
X131676202Y-96366392D01*
X131616892Y-96350500D01*
X131616890Y-96350500D01*
X131528611Y-96350500D01*
X131470420Y-96331593D01*
X131458607Y-96321504D01*
X127836603Y-92699500D01*
X121026614Y-85889511D01*
X121026611Y-85889509D01*
X121026610Y-85889508D01*
X121026609Y-85889507D01*
X120923890Y-85830202D01*
X120923886Y-85830200D01*
X120899673Y-85823712D01*
X120899673Y-85823713D01*
X120809309Y-85799500D01*
X120809307Y-85799500D01*
X108056844Y-85799500D01*
X107998653Y-85780593D01*
X107986840Y-85770504D01*
X107745429Y-85529093D01*
X106804846Y-84588511D01*
X106804843Y-84588509D01*
X106804842Y-84588508D01*
X106804841Y-84588507D01*
X106702122Y-84529202D01*
X106702118Y-84529200D01*
X106677905Y-84522712D01*
X106677905Y-84522713D01*
X106587541Y-84498500D01*
X106587539Y-84498500D01*
X101069749Y-84498500D01*
X101011558Y-84479593D01*
X100984012Y-84448999D01*
X100951501Y-84392688D01*
X100951500Y-84392686D01*
X100858314Y-84299500D01*
X100858311Y-84299498D01*
X100858309Y-84299496D01*
X100744189Y-84233609D01*
X100744191Y-84233609D01*
X100694799Y-84220375D01*
X100616892Y-84199500D01*
X100485108Y-84199500D01*
X100407200Y-84220375D01*
X100357809Y-84233609D01*
X100243690Y-84299496D01*
X100150496Y-84392690D01*
X100084609Y-84506809D01*
X100084608Y-84506814D01*
X100050500Y-84634108D01*
X100050500Y-84765892D01*
X100076770Y-84863935D01*
X100084609Y-84893190D01*
X100150496Y-85007309D01*
X100150498Y-85007311D01*
X100150500Y-85007314D01*
X100243686Y-85100500D01*
X100357814Y-85166392D01*
X100362887Y-85167751D01*
X100407270Y-85193374D01*
X100523385Y-85309488D01*
X100523390Y-85309492D01*
X100626107Y-85368796D01*
X100626109Y-85368797D01*
X100626113Y-85368799D01*
X100650322Y-85375284D01*
X100650325Y-85375287D01*
X100650326Y-85375286D01*
X100740688Y-85399499D01*
X100740690Y-85399500D01*
X100740691Y-85399500D01*
X101536521Y-85399500D01*
X101594712Y-85418407D01*
X101630676Y-85467907D01*
X101630676Y-85529093D01*
X101606525Y-85568504D01*
X100604525Y-86570504D01*
X100550008Y-86598281D01*
X100534521Y-86599500D01*
X83965479Y-86599500D01*
X83907288Y-86580593D01*
X83895475Y-86570504D01*
X81155224Y-83830253D01*
X91849500Y-83830253D01*
X91849500Y-85569746D01*
X91849501Y-85569758D01*
X91861132Y-85628227D01*
X91861133Y-85628231D01*
X91905448Y-85694552D01*
X91971769Y-85738867D01*
X92016231Y-85747711D01*
X92030241Y-85750498D01*
X92030246Y-85750498D01*
X92030252Y-85750500D01*
X92030253Y-85750500D01*
X93769747Y-85750500D01*
X93769748Y-85750500D01*
X93828231Y-85738867D01*
X93894552Y-85694552D01*
X93938867Y-85628231D01*
X93950500Y-85569748D01*
X93950500Y-83830252D01*
X93938867Y-83771769D01*
X93894552Y-83705448D01*
X93894548Y-83705445D01*
X93828233Y-83661134D01*
X93828231Y-83661133D01*
X93828228Y-83661132D01*
X93828227Y-83661132D01*
X93769758Y-83649501D01*
X93769748Y-83649500D01*
X92030252Y-83649500D01*
X92030251Y-83649500D01*
X92030241Y-83649501D01*
X91971772Y-83661132D01*
X91971766Y-83661134D01*
X91905451Y-83705445D01*
X91905445Y-83705451D01*
X91861134Y-83771766D01*
X91861132Y-83771772D01*
X91849501Y-83830241D01*
X91849500Y-83830253D01*
X81155224Y-83830253D01*
X78338395Y-81013424D01*
X88360000Y-81013424D01*
X88360000Y-81186575D01*
X88387084Y-81357579D01*
X88440588Y-81522248D01*
X88519195Y-81676523D01*
X88598096Y-81785124D01*
X89029269Y-81353950D01*
X89059901Y-81407007D01*
X89152993Y-81500099D01*
X89206046Y-81530729D01*
X88774874Y-81961902D01*
X88883476Y-82040804D01*
X89037751Y-82119411D01*
X89202420Y-82172915D01*
X89373425Y-82200000D01*
X89546575Y-82200000D01*
X89717579Y-82172915D01*
X89882248Y-82119411D01*
X90036524Y-82040804D01*
X90036528Y-82040802D01*
X90145124Y-81961902D01*
X89713952Y-81530730D01*
X89767007Y-81500099D01*
X89860099Y-81407007D01*
X89890730Y-81353952D01*
X90321902Y-81785124D01*
X90400802Y-81676528D01*
X90400804Y-81676524D01*
X90479411Y-81522248D01*
X90532915Y-81357579D01*
X90560000Y-81186575D01*
X90560000Y-81013429D01*
X90559007Y-81007162D01*
X90559007Y-81007158D01*
X90557324Y-80996532D01*
X90949500Y-80996532D01*
X90949500Y-81203467D01*
X90989869Y-81406418D01*
X91069058Y-81597597D01*
X91184020Y-81769651D01*
X91184023Y-81769655D01*
X91330345Y-81915977D01*
X91502402Y-82030941D01*
X91693580Y-82110130D01*
X91896535Y-82150500D01*
X91896536Y-82150500D01*
X92103464Y-82150500D01*
X92103465Y-82150500D01*
X92306420Y-82110130D01*
X92497598Y-82030941D01*
X92669655Y-81915977D01*
X92815977Y-81769655D01*
X92930941Y-81597598D01*
X93010130Y-81406420D01*
X93050500Y-81203465D01*
X93050500Y-80996535D01*
X93050499Y-80996532D01*
X93489501Y-80996532D01*
X93489501Y-81203467D01*
X93529870Y-81406418D01*
X93609059Y-81597597D01*
X93724021Y-81769651D01*
X93724024Y-81769655D01*
X93870346Y-81915977D01*
X94042403Y-82030941D01*
X94233581Y-82110130D01*
X94436536Y-82150500D01*
X94436537Y-82150500D01*
X94643465Y-82150500D01*
X94643466Y-82150500D01*
X94846421Y-82110130D01*
X95037599Y-82030941D01*
X95209656Y-81915977D01*
X95355978Y-81769655D01*
X95470942Y-81597598D01*
X95550131Y-81406420D01*
X95590501Y-81203465D01*
X95590501Y-80996535D01*
X95590500Y-80996532D01*
X96029500Y-80996532D01*
X96029500Y-81203467D01*
X96069869Y-81406418D01*
X96149058Y-81597597D01*
X96264020Y-81769651D01*
X96264023Y-81769655D01*
X96410345Y-81915977D01*
X96582402Y-82030941D01*
X96773580Y-82110130D01*
X96976535Y-82150500D01*
X96976536Y-82150500D01*
X97183464Y-82150500D01*
X97183465Y-82150500D01*
X97386420Y-82110130D01*
X97577598Y-82030941D01*
X97749655Y-81915977D01*
X97895977Y-81769655D01*
X98010941Y-81597598D01*
X98090130Y-81406420D01*
X98130500Y-81203465D01*
X98130500Y-80996535D01*
X98090130Y-80793580D01*
X98010941Y-80602402D01*
X97895977Y-80430345D01*
X97749655Y-80284023D01*
X97669182Y-80230253D01*
X98569500Y-80230253D01*
X98569500Y-81969746D01*
X98569501Y-81969758D01*
X98581132Y-82028227D01*
X98581134Y-82028233D01*
X98589534Y-82040804D01*
X98625448Y-82094552D01*
X98691769Y-82138867D01*
X98736231Y-82147711D01*
X98750241Y-82150498D01*
X98750246Y-82150498D01*
X98750252Y-82150500D01*
X98750253Y-82150500D01*
X100489747Y-82150500D01*
X100489748Y-82150500D01*
X100548231Y-82138867D01*
X100614552Y-82094552D01*
X100658867Y-82028231D01*
X100670500Y-81969748D01*
X100670500Y-81634108D01*
X109099500Y-81634108D01*
X109099500Y-81765892D01*
X109121698Y-81848736D01*
X109133609Y-81893190D01*
X109199496Y-82007309D01*
X109199498Y-82007311D01*
X109199500Y-82007314D01*
X109292686Y-82100500D01*
X109292688Y-82100501D01*
X109292690Y-82100503D01*
X109406810Y-82166390D01*
X109406808Y-82166390D01*
X109406812Y-82166391D01*
X109406814Y-82166392D01*
X109534108Y-82200500D01*
X109534110Y-82200500D01*
X109665890Y-82200500D01*
X109665892Y-82200500D01*
X109793186Y-82166392D01*
X109793188Y-82166390D01*
X109793190Y-82166390D01*
X109907309Y-82100503D01*
X109907309Y-82100502D01*
X109907314Y-82100500D01*
X110000500Y-82007314D01*
X110066392Y-81893186D01*
X110067750Y-81888114D01*
X110093373Y-81843728D01*
X110185704Y-81751397D01*
X110240219Y-81723622D01*
X110300651Y-81733193D01*
X110343916Y-81776458D01*
X110353487Y-81836890D01*
X110352804Y-81840716D01*
X110336000Y-81925196D01*
X110336000Y-82114800D01*
X110372987Y-82300748D01*
X110372989Y-82300754D01*
X110445543Y-82475914D01*
X110445544Y-82475915D01*
X110550878Y-82633558D01*
X110684942Y-82767622D01*
X110842585Y-82872956D01*
X111017749Y-82945512D01*
X111203702Y-82982500D01*
X111203703Y-82982500D01*
X111393297Y-82982500D01*
X111393298Y-82982500D01*
X111579251Y-82945512D01*
X111754415Y-82872956D01*
X111912058Y-82767622D01*
X112046122Y-82633558D01*
X112151456Y-82475915D01*
X112224012Y-82300751D01*
X112261000Y-82114798D01*
X112261000Y-81925202D01*
X112260999Y-81925199D01*
X112876000Y-81925199D01*
X112876000Y-82114800D01*
X112912987Y-82300748D01*
X112912989Y-82300754D01*
X112985543Y-82475914D01*
X112985544Y-82475915D01*
X113090878Y-82633558D01*
X113224942Y-82767622D01*
X113382585Y-82872956D01*
X113557749Y-82945512D01*
X113743702Y-82982500D01*
X113743703Y-82982500D01*
X113933297Y-82982500D01*
X113933298Y-82982500D01*
X114119251Y-82945512D01*
X114294415Y-82872956D01*
X114452058Y-82767622D01*
X114586122Y-82633558D01*
X114691456Y-82475915D01*
X114764012Y-82300751D01*
X114801000Y-82114798D01*
X114801000Y-81925202D01*
X114800999Y-81925199D01*
X115416000Y-81925199D01*
X115416000Y-82114800D01*
X115452987Y-82300748D01*
X115452989Y-82300754D01*
X115525543Y-82475914D01*
X115525544Y-82475915D01*
X115630878Y-82633558D01*
X115764942Y-82767622D01*
X115922585Y-82872956D01*
X116097749Y-82945512D01*
X116283702Y-82982500D01*
X116283703Y-82982500D01*
X116473297Y-82982500D01*
X116473298Y-82982500D01*
X116659251Y-82945512D01*
X116834415Y-82872956D01*
X116992058Y-82767622D01*
X117126122Y-82633558D01*
X117231456Y-82475915D01*
X117304012Y-82300751D01*
X117341000Y-82114798D01*
X117341000Y-81925202D01*
X117340999Y-81925199D01*
X117956000Y-81925199D01*
X117956000Y-82114800D01*
X117992987Y-82300748D01*
X117992989Y-82300754D01*
X118065543Y-82475914D01*
X118065544Y-82475915D01*
X118170878Y-82633558D01*
X118304942Y-82767622D01*
X118462585Y-82872956D01*
X118637749Y-82945512D01*
X118823702Y-82982500D01*
X118823703Y-82982500D01*
X119013297Y-82982500D01*
X119013298Y-82982500D01*
X119199251Y-82945512D01*
X119374415Y-82872956D01*
X119532058Y-82767622D01*
X119666122Y-82633558D01*
X119771456Y-82475915D01*
X119844012Y-82300751D01*
X119881000Y-82114798D01*
X119881000Y-81925202D01*
X119880999Y-81925199D01*
X120496000Y-81925199D01*
X120496000Y-82114800D01*
X120532987Y-82300748D01*
X120532989Y-82300754D01*
X120605543Y-82475914D01*
X120605544Y-82475915D01*
X120710878Y-82633558D01*
X120844942Y-82767622D01*
X121002585Y-82872956D01*
X121177749Y-82945512D01*
X121363702Y-82982500D01*
X121363703Y-82982500D01*
X121553297Y-82982500D01*
X121553298Y-82982500D01*
X121739251Y-82945512D01*
X121914415Y-82872956D01*
X122072058Y-82767622D01*
X122206122Y-82633558D01*
X122311456Y-82475915D01*
X122384012Y-82300751D01*
X122421000Y-82114798D01*
X122421000Y-81925202D01*
X122420999Y-81925199D01*
X123036000Y-81925199D01*
X123036000Y-82114800D01*
X123072987Y-82300748D01*
X123072989Y-82300754D01*
X123145543Y-82475914D01*
X123145544Y-82475915D01*
X123250878Y-82633558D01*
X123384942Y-82767622D01*
X123542585Y-82872956D01*
X123717749Y-82945512D01*
X123903702Y-82982500D01*
X123903703Y-82982500D01*
X124093297Y-82982500D01*
X124093298Y-82982500D01*
X124279251Y-82945512D01*
X124454415Y-82872956D01*
X124612058Y-82767622D01*
X124746122Y-82633558D01*
X124851456Y-82475915D01*
X124924012Y-82300751D01*
X124961000Y-82114798D01*
X124961000Y-81925202D01*
X124960999Y-81925199D01*
X125576000Y-81925199D01*
X125576000Y-82114800D01*
X125612987Y-82300748D01*
X125612989Y-82300754D01*
X125685543Y-82475914D01*
X125685544Y-82475915D01*
X125790878Y-82633558D01*
X125924942Y-82767622D01*
X126082585Y-82872956D01*
X126257749Y-82945512D01*
X126443702Y-82982500D01*
X126443703Y-82982500D01*
X126633297Y-82982500D01*
X126633298Y-82982500D01*
X126819251Y-82945512D01*
X126994415Y-82872956D01*
X127152058Y-82767622D01*
X127286122Y-82633558D01*
X127391456Y-82475915D01*
X127464012Y-82300751D01*
X127501000Y-82114798D01*
X127501000Y-81925202D01*
X127464012Y-81739249D01*
X127391456Y-81564085D01*
X127286122Y-81406442D01*
X127152058Y-81272378D01*
X126994415Y-81167044D01*
X126994416Y-81167044D01*
X126994414Y-81167043D01*
X126819254Y-81094489D01*
X126819248Y-81094487D01*
X126633300Y-81057500D01*
X126633298Y-81057500D01*
X126443702Y-81057500D01*
X126443699Y-81057500D01*
X126257751Y-81094487D01*
X126257745Y-81094489D01*
X126082585Y-81167043D01*
X125924942Y-81272378D01*
X125924938Y-81272381D01*
X125790881Y-81406438D01*
X125790878Y-81406442D01*
X125685543Y-81564085D01*
X125612989Y-81739245D01*
X125612987Y-81739251D01*
X125576000Y-81925199D01*
X124960999Y-81925199D01*
X124924012Y-81739249D01*
X124851456Y-81564085D01*
X124746122Y-81406442D01*
X124612058Y-81272378D01*
X124454415Y-81167044D01*
X124454416Y-81167044D01*
X124454414Y-81167043D01*
X124279254Y-81094489D01*
X124279248Y-81094487D01*
X124093300Y-81057500D01*
X124093298Y-81057500D01*
X123903702Y-81057500D01*
X123903699Y-81057500D01*
X123717751Y-81094487D01*
X123717745Y-81094489D01*
X123542585Y-81167043D01*
X123384942Y-81272378D01*
X123384938Y-81272381D01*
X123250881Y-81406438D01*
X123250878Y-81406442D01*
X123145543Y-81564085D01*
X123072989Y-81739245D01*
X123072987Y-81739251D01*
X123036000Y-81925199D01*
X122420999Y-81925199D01*
X122384012Y-81739249D01*
X122311456Y-81564085D01*
X122206122Y-81406442D01*
X122072058Y-81272378D01*
X121914415Y-81167044D01*
X121914416Y-81167044D01*
X121914414Y-81167043D01*
X121739254Y-81094489D01*
X121739248Y-81094487D01*
X121553300Y-81057500D01*
X121553298Y-81057500D01*
X121363702Y-81057500D01*
X121363699Y-81057500D01*
X121177751Y-81094487D01*
X121177745Y-81094489D01*
X121002585Y-81167043D01*
X120844942Y-81272378D01*
X120844938Y-81272381D01*
X120710881Y-81406438D01*
X120710878Y-81406442D01*
X120605543Y-81564085D01*
X120532989Y-81739245D01*
X120532987Y-81739251D01*
X120496000Y-81925199D01*
X119880999Y-81925199D01*
X119844012Y-81739249D01*
X119771456Y-81564085D01*
X119666122Y-81406442D01*
X119532058Y-81272378D01*
X119374415Y-81167044D01*
X119374416Y-81167044D01*
X119374414Y-81167043D01*
X119199254Y-81094489D01*
X119199248Y-81094487D01*
X119013300Y-81057500D01*
X119013298Y-81057500D01*
X118823702Y-81057500D01*
X118823699Y-81057500D01*
X118637751Y-81094487D01*
X118637745Y-81094489D01*
X118462585Y-81167043D01*
X118304942Y-81272378D01*
X118304938Y-81272381D01*
X118170881Y-81406438D01*
X118170878Y-81406442D01*
X118065543Y-81564085D01*
X117992989Y-81739245D01*
X117992987Y-81739251D01*
X117956000Y-81925199D01*
X117340999Y-81925199D01*
X117304012Y-81739249D01*
X117231456Y-81564085D01*
X117126122Y-81406442D01*
X116992058Y-81272378D01*
X116834415Y-81167044D01*
X116834416Y-81167044D01*
X116834414Y-81167043D01*
X116659254Y-81094489D01*
X116659248Y-81094487D01*
X116473300Y-81057500D01*
X116473298Y-81057500D01*
X116283702Y-81057500D01*
X116283699Y-81057500D01*
X116097751Y-81094487D01*
X116097745Y-81094489D01*
X115922585Y-81167043D01*
X115764942Y-81272378D01*
X115764938Y-81272381D01*
X115630881Y-81406438D01*
X115630878Y-81406442D01*
X115525543Y-81564085D01*
X115452989Y-81739245D01*
X115452987Y-81739251D01*
X115416000Y-81925199D01*
X114800999Y-81925199D01*
X114764012Y-81739249D01*
X114691456Y-81564085D01*
X114586122Y-81406442D01*
X114452058Y-81272378D01*
X114294415Y-81167044D01*
X114294416Y-81167044D01*
X114294414Y-81167043D01*
X114119254Y-81094489D01*
X114119248Y-81094487D01*
X113933300Y-81057500D01*
X113933298Y-81057500D01*
X113743702Y-81057500D01*
X113743699Y-81057500D01*
X113557751Y-81094487D01*
X113557745Y-81094489D01*
X113382585Y-81167043D01*
X113224942Y-81272378D01*
X113224938Y-81272381D01*
X113090881Y-81406438D01*
X113090878Y-81406442D01*
X112985543Y-81564085D01*
X112912989Y-81739245D01*
X112912987Y-81739251D01*
X112876000Y-81925199D01*
X112260999Y-81925199D01*
X112224012Y-81739249D01*
X112151456Y-81564085D01*
X112046122Y-81406442D01*
X111912058Y-81272378D01*
X111754415Y-81167044D01*
X111754416Y-81167044D01*
X111754414Y-81167043D01*
X111579254Y-81094489D01*
X111579248Y-81094487D01*
X111393300Y-81057500D01*
X111393298Y-81057500D01*
X111203702Y-81057500D01*
X111203696Y-81057500D01*
X111119216Y-81074304D01*
X111058455Y-81067112D01*
X111013525Y-81025579D01*
X111001589Y-80965569D01*
X111027206Y-80910004D01*
X111029856Y-80907246D01*
X112706608Y-79230496D01*
X112761125Y-79202719D01*
X112776612Y-79201500D01*
X119608309Y-79201500D01*
X119698669Y-79177287D01*
X119698672Y-79177287D01*
X119714701Y-79172992D01*
X119722887Y-79170799D01*
X119825614Y-79111489D01*
X133743730Y-65193372D01*
X133788119Y-65167749D01*
X133793186Y-65166392D01*
X133907314Y-65100500D01*
X134000500Y-65007314D01*
X134066392Y-64893186D01*
X134100500Y-64765892D01*
X134100500Y-64634108D01*
X134066392Y-64506814D01*
X134066390Y-64506810D01*
X134066390Y-64506809D01*
X134000503Y-64392690D01*
X134000501Y-64392688D01*
X134000500Y-64392686D01*
X133907314Y-64299500D01*
X133907311Y-64299498D01*
X133907309Y-64299496D01*
X133793189Y-64233609D01*
X133793191Y-64233609D01*
X133743799Y-64220375D01*
X133665892Y-64199500D01*
X133534108Y-64199500D01*
X133456200Y-64220375D01*
X133406809Y-64233609D01*
X133292690Y-64299496D01*
X133199496Y-64392690D01*
X133133609Y-64506810D01*
X133133608Y-64506813D01*
X133132246Y-64511895D01*
X133106625Y-64556269D01*
X119391393Y-78271504D01*
X119336876Y-78299281D01*
X119321389Y-78300500D01*
X112489691Y-78300500D01*
X112404280Y-78323386D01*
X112404279Y-78323385D01*
X112375115Y-78331200D01*
X112272386Y-78390510D01*
X109456271Y-81206624D01*
X109411899Y-81232244D01*
X109406819Y-81233605D01*
X109406810Y-81233609D01*
X109292690Y-81299496D01*
X109199496Y-81392690D01*
X109133609Y-81506809D01*
X109118262Y-81564085D01*
X109099500Y-81634108D01*
X100670500Y-81634108D01*
X100670500Y-80230252D01*
X100658867Y-80171769D01*
X100614552Y-80105448D01*
X100614548Y-80105445D01*
X100548233Y-80061134D01*
X100548231Y-80061133D01*
X100548228Y-80061132D01*
X100548227Y-80061132D01*
X100489758Y-80049501D01*
X100489748Y-80049500D01*
X98750252Y-80049500D01*
X98750251Y-80049500D01*
X98750241Y-80049501D01*
X98691772Y-80061132D01*
X98691766Y-80061134D01*
X98625451Y-80105445D01*
X98625445Y-80105451D01*
X98581134Y-80171766D01*
X98581132Y-80171772D01*
X98569501Y-80230241D01*
X98569500Y-80230253D01*
X97669182Y-80230253D01*
X97577597Y-80169058D01*
X97386418Y-80089869D01*
X97183467Y-80049500D01*
X97183465Y-80049500D01*
X96976535Y-80049500D01*
X96976532Y-80049500D01*
X96773581Y-80089869D01*
X96582402Y-80169058D01*
X96410348Y-80284020D01*
X96264020Y-80430348D01*
X96149058Y-80602402D01*
X96069869Y-80793581D01*
X96029500Y-80996532D01*
X95590500Y-80996532D01*
X95550131Y-80793580D01*
X95470942Y-80602402D01*
X95355978Y-80430345D01*
X95209656Y-80284023D01*
X95129183Y-80230253D01*
X95037598Y-80169058D01*
X94846419Y-80089869D01*
X94643468Y-80049500D01*
X94643466Y-80049500D01*
X94436536Y-80049500D01*
X94436533Y-80049500D01*
X94233582Y-80089869D01*
X94042403Y-80169058D01*
X93870349Y-80284020D01*
X93724021Y-80430348D01*
X93609059Y-80602402D01*
X93529870Y-80793581D01*
X93489501Y-80996532D01*
X93050499Y-80996532D01*
X93010130Y-80793580D01*
X92930941Y-80602402D01*
X92815977Y-80430345D01*
X92669655Y-80284023D01*
X92589182Y-80230253D01*
X92497597Y-80169058D01*
X92306418Y-80089869D01*
X92103467Y-80049500D01*
X92103465Y-80049500D01*
X91896535Y-80049500D01*
X91896532Y-80049500D01*
X91693581Y-80089869D01*
X91502402Y-80169058D01*
X91330348Y-80284020D01*
X91184020Y-80430348D01*
X91069058Y-80602402D01*
X90989869Y-80793581D01*
X90949500Y-80996532D01*
X90557324Y-80996532D01*
X90532915Y-80842420D01*
X90479411Y-80677751D01*
X90400804Y-80523476D01*
X90321902Y-80414874D01*
X89890729Y-80846046D01*
X89860099Y-80792993D01*
X89767007Y-80699901D01*
X89713950Y-80669269D01*
X90145124Y-80238096D01*
X90036523Y-80159195D01*
X89882248Y-80080588D01*
X89717579Y-80027084D01*
X89546575Y-80000000D01*
X89373425Y-80000000D01*
X89202420Y-80027084D01*
X89037751Y-80080588D01*
X88883472Y-80159197D01*
X88774874Y-80238096D01*
X89206047Y-80669269D01*
X89152993Y-80699901D01*
X89059901Y-80792993D01*
X89029269Y-80846047D01*
X88598096Y-80414874D01*
X88519197Y-80523472D01*
X88440588Y-80677751D01*
X88387084Y-80842420D01*
X88360000Y-81013424D01*
X78338395Y-81013424D01*
X78029496Y-80704525D01*
X78001719Y-80650008D01*
X78000500Y-80634521D01*
X78000500Y-80534109D01*
X77973329Y-80432704D01*
X77966392Y-80406814D01*
X77900500Y-80292686D01*
X77807314Y-80199500D01*
X77807311Y-80199498D01*
X77807309Y-80199496D01*
X77693189Y-80133609D01*
X77693191Y-80133609D01*
X77642105Y-80119921D01*
X77565892Y-80099500D01*
X77434108Y-80099500D01*
X77357895Y-80119921D01*
X77306809Y-80133609D01*
X77192690Y-80199496D01*
X77099496Y-80292690D01*
X77033609Y-80406809D01*
X77033608Y-80406814D01*
X76999500Y-80534108D01*
X76999500Y-80665892D01*
X77002678Y-80677751D01*
X77033609Y-80793190D01*
X77092765Y-80895649D01*
X77105487Y-80955497D01*
X77080601Y-81011393D01*
X77077033Y-81015152D01*
X76999500Y-81092685D01*
X76999496Y-81092690D01*
X76933609Y-81206809D01*
X76926428Y-81233609D01*
X76899500Y-81334108D01*
X76899500Y-81465892D01*
X76926304Y-81565925D01*
X76933609Y-81593190D01*
X76999496Y-81707309D01*
X76999498Y-81707311D01*
X76999500Y-81707314D01*
X77092686Y-81800500D01*
X77092688Y-81800501D01*
X77092690Y-81800503D01*
X77206810Y-81866390D01*
X77206808Y-81866390D01*
X77206812Y-81866391D01*
X77206814Y-81866392D01*
X77334108Y-81900500D01*
X77334110Y-81900500D01*
X77465891Y-81900500D01*
X77465892Y-81900500D01*
X77576017Y-81870992D01*
X77637117Y-81874193D01*
X77671643Y-81896614D01*
X83515489Y-87740460D01*
X83515491Y-87740461D01*
X83515492Y-87740462D01*
X83515493Y-87740463D01*
X83584008Y-87780020D01*
X83584006Y-87780020D01*
X83584010Y-87780021D01*
X83584012Y-87780022D01*
X83660438Y-87800500D01*
X100234521Y-87800500D01*
X100292712Y-87819407D01*
X100304525Y-87829496D01*
X101859540Y-89384511D01*
X101859539Y-89384511D01*
X101915489Y-89440460D01*
X101984007Y-89480019D01*
X101984011Y-89480021D01*
X102060435Y-89500499D01*
X102060437Y-89500500D01*
X102060438Y-89500500D01*
X106539563Y-89500500D01*
X106539563Y-89500499D01*
X106615989Y-89480021D01*
X106684511Y-89440460D01*
X106740460Y-89384511D01*
X108032792Y-88092178D01*
X108087307Y-88064403D01*
X108147739Y-88073974D01*
X108191004Y-88117239D01*
X108200575Y-88177671D01*
X108188531Y-88211684D01*
X108133608Y-88306812D01*
X108110869Y-88391676D01*
X108099500Y-88434108D01*
X108099500Y-88565892D01*
X108129579Y-88678151D01*
X108133609Y-88693190D01*
X108199496Y-88807309D01*
X108199498Y-88807311D01*
X108199500Y-88807314D01*
X108292686Y-88900500D01*
X108292688Y-88900501D01*
X108292690Y-88900503D01*
X108406810Y-88966390D01*
X108406808Y-88966390D01*
X108406812Y-88966391D01*
X108406814Y-88966392D01*
X108534108Y-89000500D01*
X108534110Y-89000500D01*
X108665890Y-89000500D01*
X108665892Y-89000500D01*
X108793186Y-88966392D01*
X108793188Y-88966390D01*
X108793190Y-88966390D01*
X108907309Y-88900503D01*
X108907309Y-88900502D01*
X108907314Y-88900500D01*
X108978319Y-88829494D01*
X109032834Y-88801719D01*
X109048321Y-88800500D01*
X109951679Y-88800500D01*
X110009870Y-88819407D01*
X110021676Y-88829490D01*
X110092686Y-88900500D01*
X110092688Y-88900501D01*
X110092690Y-88900503D01*
X110206810Y-88966390D01*
X110206808Y-88966390D01*
X110206812Y-88966391D01*
X110206814Y-88966392D01*
X110334108Y-89000500D01*
X110334110Y-89000500D01*
X110465890Y-89000500D01*
X110465892Y-89000500D01*
X110593186Y-88966392D01*
X110593188Y-88966390D01*
X110593190Y-88966390D01*
X110707309Y-88900503D01*
X110707309Y-88900502D01*
X110707314Y-88900500D01*
X110800500Y-88807314D01*
X110866392Y-88693186D01*
X110900500Y-88565892D01*
X110900500Y-88434108D01*
X110866392Y-88306814D01*
X110866390Y-88306811D01*
X110866390Y-88306809D01*
X110800503Y-88192690D01*
X110800501Y-88192688D01*
X110800500Y-88192686D01*
X110707314Y-88099500D01*
X110682608Y-88085236D01*
X110641668Y-88039767D01*
X110635272Y-87978917D01*
X110665865Y-87925929D01*
X110721760Y-87901042D01*
X110732109Y-87900500D01*
X119734521Y-87900500D01*
X119792712Y-87919407D01*
X119804525Y-87929496D01*
X129126240Y-97251211D01*
X129154017Y-97305728D01*
X129144446Y-97366160D01*
X129101181Y-97409425D01*
X129040749Y-97418996D01*
X129030617Y-97416842D01*
X128965892Y-97399500D01*
X128834108Y-97399500D01*
X128769386Y-97416842D01*
X128706809Y-97433609D01*
X128592690Y-97499496D01*
X128499496Y-97592690D01*
X128433609Y-97706809D01*
X128426294Y-97734109D01*
X128399500Y-97834108D01*
X128399500Y-97965892D01*
X128419480Y-98040460D01*
X128433609Y-98093190D01*
X128499496Y-98207309D01*
X128499498Y-98207311D01*
X128499500Y-98207314D01*
X128592686Y-98300500D01*
X128592688Y-98300501D01*
X128592690Y-98300503D01*
X128706810Y-98366390D01*
X128706808Y-98366390D01*
X128706812Y-98366391D01*
X128706814Y-98366392D01*
X128834108Y-98400500D01*
X128834110Y-98400500D01*
X128965891Y-98400500D01*
X128965892Y-98400500D01*
X129001748Y-98390892D01*
X129043385Y-98390896D01*
X129043602Y-98389253D01*
X129050036Y-98390100D01*
X129050038Y-98390100D01*
X129129162Y-98390100D01*
X129324121Y-98390100D01*
X129382312Y-98409007D01*
X129394125Y-98419096D01*
X130420504Y-99445475D01*
X130448281Y-99499992D01*
X130449500Y-99515479D01*
X130449500Y-101759983D01*
X130430593Y-101818174D01*
X130381093Y-101854138D01*
X130319907Y-101854138D01*
X130270407Y-101818174D01*
X130254873Y-101785606D01*
X130253530Y-101780593D01*
X130240657Y-101732549D01*
X130240655Y-101732546D01*
X130240655Y-101732544D01*
X130174768Y-101618425D01*
X130174766Y-101618423D01*
X130174765Y-101618421D01*
X130081579Y-101525235D01*
X130018635Y-101488894D01*
X129998135Y-101473164D01*
X129958776Y-101433805D01*
X128311482Y-99786511D01*
X126584511Y-98059540D01*
X126551463Y-98040460D01*
X126515989Y-98019979D01*
X126482265Y-98010942D01*
X126475463Y-98007974D01*
X126465204Y-97998874D01*
X126445056Y-97987241D01*
X126357314Y-97899500D01*
X126357309Y-97899496D01*
X126243189Y-97833609D01*
X126243191Y-97833609D01*
X126193799Y-97820375D01*
X126115892Y-97799500D01*
X125984108Y-97799500D01*
X125906200Y-97820375D01*
X125856809Y-97833609D01*
X125742690Y-97899496D01*
X125649496Y-97992690D01*
X125583609Y-98106809D01*
X125569830Y-98158234D01*
X125549500Y-98234108D01*
X125549500Y-98365892D01*
X125556199Y-98390892D01*
X125583609Y-98493190D01*
X125649496Y-98607309D01*
X125649498Y-98607311D01*
X125649500Y-98607314D01*
X125742686Y-98700500D01*
X125742688Y-98700501D01*
X125742690Y-98700503D01*
X125856810Y-98766390D01*
X125856808Y-98766390D01*
X125856812Y-98766391D01*
X125856814Y-98766392D01*
X125984108Y-98800500D01*
X125984110Y-98800500D01*
X126115890Y-98800500D01*
X126115892Y-98800500D01*
X126243186Y-98766392D01*
X126303073Y-98731815D01*
X126362920Y-98719094D01*
X126418816Y-98743980D01*
X126422577Y-98747548D01*
X129290652Y-101615623D01*
X129318429Y-101670140D01*
X129309547Y-101726216D01*
X129310357Y-101726552D01*
X129308960Y-101729923D01*
X129308858Y-101730572D01*
X129308158Y-101731860D01*
X129307874Y-101732544D01*
X129292438Y-101790155D01*
X129273765Y-101859843D01*
X129273765Y-101991627D01*
X129293656Y-102065863D01*
X129307874Y-102118925D01*
X129373761Y-102233044D01*
X129373763Y-102233046D01*
X129373765Y-102233049D01*
X129466951Y-102326235D01*
X129466953Y-102326236D01*
X129466955Y-102326238D01*
X129581075Y-102392125D01*
X129581073Y-102392125D01*
X129581077Y-102392126D01*
X129581079Y-102392127D01*
X129708373Y-102426235D01*
X129708375Y-102426235D01*
X129840155Y-102426235D01*
X129840157Y-102426235D01*
X129967451Y-102392127D01*
X129967453Y-102392125D01*
X129967455Y-102392125D01*
X130081574Y-102326238D01*
X130081574Y-102326237D01*
X130081579Y-102326235D01*
X130174765Y-102233049D01*
X130199241Y-102190655D01*
X130240655Y-102118925D01*
X130240655Y-102118923D01*
X130240657Y-102118921D01*
X130254874Y-102065861D01*
X130288197Y-102014549D01*
X130345318Y-101992622D01*
X130404419Y-102008457D01*
X130442924Y-102056007D01*
X130449500Y-102091486D01*
X130449500Y-102334521D01*
X130430593Y-102392712D01*
X130420504Y-102404525D01*
X130154525Y-102670504D01*
X130100008Y-102698281D01*
X130084521Y-102699500D01*
X128567277Y-102699500D01*
X128509086Y-102680593D01*
X128473122Y-102631093D01*
X128473122Y-102569907D01*
X128481540Y-102551000D01*
X128502048Y-102515479D01*
X128514919Y-102493186D01*
X128549027Y-102365892D01*
X128549027Y-102234108D01*
X128514919Y-102106814D01*
X128514917Y-102106811D01*
X128514917Y-102106809D01*
X128449030Y-101992690D01*
X128449028Y-101992688D01*
X128449027Y-101992686D01*
X128355841Y-101899500D01*
X128355838Y-101899498D01*
X128355836Y-101899496D01*
X128241716Y-101833609D01*
X128241718Y-101833609D01*
X128184112Y-101818174D01*
X128114419Y-101799500D01*
X128014005Y-101799500D01*
X127955814Y-101780593D01*
X127944007Y-101770509D01*
X127933038Y-101759540D01*
X127933035Y-101759538D01*
X127921195Y-101752702D01*
X127921195Y-101752701D01*
X127864516Y-101719979D01*
X127864512Y-101719977D01*
X127788091Y-101699500D01*
X127788089Y-101699500D01*
X126415479Y-101699500D01*
X126357288Y-101680593D01*
X126345475Y-101670504D01*
X124345424Y-99670453D01*
X124317647Y-99615936D01*
X124327218Y-99555504D01*
X124370483Y-99512239D01*
X124402514Y-99502295D01*
X124408551Y-99501500D01*
X124408560Y-99501500D01*
X124484987Y-99481021D01*
X124553509Y-99441460D01*
X124609458Y-99385511D01*
X124795473Y-99199494D01*
X124849990Y-99171717D01*
X124865477Y-99170498D01*
X124965890Y-99170498D01*
X124965892Y-99170498D01*
X125093186Y-99136390D01*
X125093188Y-99136388D01*
X125093190Y-99136388D01*
X125207309Y-99070501D01*
X125207309Y-99070500D01*
X125207314Y-99070498D01*
X125300500Y-98977312D01*
X125324077Y-98936475D01*
X125366390Y-98863188D01*
X125366390Y-98863186D01*
X125366392Y-98863184D01*
X125400500Y-98735890D01*
X125400500Y-98604106D01*
X125366392Y-98476812D01*
X125366390Y-98476809D01*
X125366390Y-98476807D01*
X125300503Y-98362688D01*
X125300501Y-98362686D01*
X125300500Y-98362684D01*
X125207314Y-98269498D01*
X125207311Y-98269496D01*
X125207309Y-98269494D01*
X125093189Y-98203607D01*
X125093191Y-98203607D01*
X125034271Y-98187820D01*
X124965892Y-98169498D01*
X124834108Y-98169498D01*
X124765729Y-98187820D01*
X124706809Y-98203607D01*
X124587067Y-98272742D01*
X124586172Y-98271193D01*
X124580961Y-98276405D01*
X124559266Y-98279840D01*
X124538562Y-98287162D01*
X124529680Y-98284526D01*
X124520529Y-98285976D01*
X124500959Y-98276004D01*
X124479905Y-98269758D01*
X124466017Y-98258203D01*
X124429494Y-98221680D01*
X124401719Y-98167166D01*
X124401719Y-98167165D01*
X124400500Y-98151679D01*
X124400500Y-95633840D01*
X124413763Y-95584341D01*
X124466392Y-95493186D01*
X124500500Y-95365892D01*
X124500500Y-95234108D01*
X124466392Y-95106814D01*
X124466390Y-95106811D01*
X124466390Y-95106809D01*
X124400503Y-94992690D01*
X124400501Y-94992688D01*
X124400500Y-94992686D01*
X124307314Y-94899500D01*
X124307311Y-94899498D01*
X124307309Y-94899496D01*
X124193189Y-94833609D01*
X124193191Y-94833609D01*
X124143799Y-94820375D01*
X124065892Y-94799500D01*
X123934108Y-94799500D01*
X123856200Y-94820375D01*
X123806809Y-94833609D01*
X123692690Y-94899496D01*
X123599496Y-94992690D01*
X123533609Y-95106809D01*
X123533608Y-95106814D01*
X123499500Y-95234108D01*
X123499500Y-95365892D01*
X123528702Y-95474879D01*
X123525500Y-95535978D01*
X123486995Y-95583528D01*
X123433076Y-95599500D01*
X123334108Y-95599500D01*
X123256200Y-95620375D01*
X123206809Y-95633609D01*
X123092690Y-95699496D01*
X122999496Y-95792690D01*
X122933609Y-95906809D01*
X122920816Y-95954555D01*
X122899500Y-96034108D01*
X122899500Y-96165892D01*
X122933608Y-96293186D01*
X122986236Y-96384341D01*
X122999500Y-96433840D01*
X122999500Y-98151679D01*
X122980593Y-98209870D01*
X122970509Y-98221676D01*
X122933987Y-98258199D01*
X122899497Y-98292689D01*
X122899496Y-98292690D01*
X122833609Y-98406809D01*
X122833608Y-98406814D01*
X122799500Y-98534108D01*
X122799500Y-98665892D01*
X122828970Y-98775879D01*
X122825768Y-98836978D01*
X122787263Y-98884528D01*
X122733344Y-98900500D01*
X117466656Y-98900500D01*
X117408465Y-98881593D01*
X117372501Y-98832093D01*
X117371029Y-98775880D01*
X117400500Y-98665892D01*
X117400500Y-98534108D01*
X117366392Y-98406814D01*
X117366390Y-98406811D01*
X117366390Y-98406809D01*
X117300503Y-98292690D01*
X117300501Y-98292688D01*
X117300500Y-98292686D01*
X117207314Y-98199500D01*
X117207311Y-98199498D01*
X117207309Y-98199496D01*
X117093189Y-98133609D01*
X117093191Y-98133609D01*
X117028934Y-98116392D01*
X116965892Y-98099500D01*
X116834108Y-98099500D01*
X116771066Y-98116392D01*
X116706810Y-98133609D01*
X116636908Y-98173967D01*
X116577060Y-98186688D01*
X116521164Y-98161801D01*
X116517405Y-98158234D01*
X115570659Y-97211488D01*
X114617711Y-96258540D01*
X114617708Y-96258538D01*
X114597284Y-96246746D01*
X114597284Y-96246745D01*
X114549190Y-96218979D01*
X114549185Y-96218977D01*
X114472764Y-96198500D01*
X114472762Y-96198500D01*
X113664479Y-96198500D01*
X113656881Y-96196031D01*
X113648992Y-96197281D01*
X113628337Y-96186757D01*
X113606288Y-96179593D01*
X113594476Y-96169504D01*
X113494475Y-96069504D01*
X113466697Y-96014988D01*
X113476268Y-95954555D01*
X113519532Y-95911291D01*
X113564478Y-95900500D01*
X119106013Y-95900500D01*
X119164204Y-95919407D01*
X119200168Y-95968907D01*
X119201635Y-95973861D01*
X119229177Y-96076650D01*
X119233609Y-96093190D01*
X119299496Y-96207309D01*
X119299498Y-96207311D01*
X119299500Y-96207314D01*
X119392686Y-96300500D01*
X119392688Y-96300501D01*
X119392690Y-96300503D01*
X119506810Y-96366390D01*
X119506808Y-96366390D01*
X119506812Y-96366391D01*
X119506814Y-96366392D01*
X119634108Y-96400500D01*
X119634110Y-96400500D01*
X119765890Y-96400500D01*
X119765892Y-96400500D01*
X119893186Y-96366392D01*
X119893188Y-96366390D01*
X119893190Y-96366390D01*
X120007309Y-96300503D01*
X120007309Y-96300502D01*
X120007314Y-96300500D01*
X120100500Y-96207314D01*
X120166392Y-96093186D01*
X120200500Y-95965892D01*
X120200500Y-95834108D01*
X120166392Y-95706814D01*
X120166390Y-95706811D01*
X120166390Y-95706809D01*
X120100503Y-95592690D01*
X120100501Y-95592688D01*
X120100500Y-95592686D01*
X120007314Y-95499500D01*
X120007311Y-95499498D01*
X120007309Y-95499496D01*
X119893189Y-95433609D01*
X119893191Y-95433609D01*
X119843799Y-95420375D01*
X119765892Y-95399500D01*
X119665478Y-95399500D01*
X119607287Y-95380593D01*
X119595480Y-95370509D01*
X119584511Y-95359540D01*
X119584508Y-95359538D01*
X119515992Y-95319980D01*
X119515988Y-95319978D01*
X119439564Y-95299500D01*
X119439562Y-95299500D01*
X108460438Y-95299500D01*
X108460435Y-95299500D01*
X108384011Y-95319978D01*
X108384007Y-95319980D01*
X108315489Y-95359539D01*
X107904524Y-95770504D01*
X107850008Y-95798281D01*
X107834521Y-95799500D01*
X107734108Y-95799500D01*
X107656200Y-95820375D01*
X107606809Y-95833609D01*
X107492690Y-95899496D01*
X107399496Y-95992690D01*
X107333609Y-96106809D01*
X107333608Y-96106814D01*
X107299500Y-96234108D01*
X107299500Y-96365892D01*
X107328970Y-96475879D01*
X107325768Y-96536978D01*
X107287263Y-96584528D01*
X107233344Y-96600500D01*
X105991347Y-96600500D01*
X105933156Y-96581593D01*
X105905610Y-96550999D01*
X105901235Y-96543421D01*
X105808049Y-96450235D01*
X105808046Y-96450233D01*
X105808044Y-96450231D01*
X105709439Y-96393301D01*
X105668498Y-96347831D01*
X105662103Y-96286981D01*
X105688933Y-96237563D01*
X108597002Y-93329496D01*
X108651519Y-93301719D01*
X108667006Y-93300500D01*
X113402082Y-93300500D01*
X113460273Y-93319407D01*
X113496237Y-93368907D01*
X113497709Y-93373877D01*
X113530509Y-93496290D01*
X113590964Y-93601000D01*
X113603686Y-93660848D01*
X113578799Y-93716744D01*
X113525811Y-93747337D01*
X113505228Y-93749500D01*
X110247239Y-93749500D01*
X110197741Y-93736238D01*
X110193186Y-93733608D01*
X110181934Y-93730593D01*
X110065892Y-93699500D01*
X109934108Y-93699500D01*
X109869752Y-93716744D01*
X109806809Y-93733609D01*
X109692690Y-93799496D01*
X109599496Y-93892690D01*
X109533609Y-94006809D01*
X109533608Y-94006814D01*
X109499500Y-94134108D01*
X109499500Y-94265892D01*
X109529579Y-94378151D01*
X109533609Y-94393190D01*
X109599496Y-94507309D01*
X109599498Y-94507311D01*
X109599500Y-94507314D01*
X109692686Y-94600500D01*
X109692688Y-94600501D01*
X109692690Y-94600503D01*
X109806810Y-94666390D01*
X109806808Y-94666390D01*
X109806812Y-94666391D01*
X109806814Y-94666392D01*
X109934108Y-94700500D01*
X109934110Y-94700500D01*
X110065890Y-94700500D01*
X110065892Y-94700500D01*
X110193186Y-94666392D01*
X110197741Y-94663761D01*
X110247239Y-94650500D01*
X115652761Y-94650500D01*
X115702258Y-94663761D01*
X115706814Y-94666392D01*
X115834108Y-94700500D01*
X115834110Y-94700500D01*
X115965890Y-94700500D01*
X115965892Y-94700500D01*
X116093186Y-94666392D01*
X116093188Y-94666390D01*
X116093190Y-94666390D01*
X116207309Y-94600503D01*
X116207309Y-94600502D01*
X116207314Y-94600500D01*
X116300500Y-94507314D01*
X116366392Y-94393186D01*
X116400500Y-94265892D01*
X116400500Y-94134108D01*
X116366392Y-94006814D01*
X116366390Y-94006811D01*
X116366390Y-94006809D01*
X116300503Y-93892690D01*
X116300501Y-93892688D01*
X116300500Y-93892686D01*
X116207314Y-93799500D01*
X116207311Y-93799498D01*
X116207309Y-93799496D01*
X116093189Y-93733609D01*
X116093191Y-93733609D01*
X116030248Y-93716744D01*
X115965892Y-93699500D01*
X115834108Y-93699500D01*
X115769752Y-93716744D01*
X115706813Y-93733608D01*
X115702259Y-93736238D01*
X115652761Y-93749500D01*
X114488572Y-93749500D01*
X114430381Y-93730593D01*
X114394417Y-93681093D01*
X114394417Y-93619907D01*
X114402836Y-93601000D01*
X114463290Y-93496290D01*
X114463290Y-93496288D01*
X114463292Y-93496286D01*
X114497400Y-93368992D01*
X114497400Y-93237208D01*
X114463292Y-93109914D01*
X114463290Y-93109911D01*
X114463290Y-93109909D01*
X114397403Y-92995790D01*
X114397401Y-92995788D01*
X114397400Y-92995786D01*
X114304214Y-92902600D01*
X114304211Y-92902598D01*
X114304209Y-92902596D01*
X114190089Y-92836709D01*
X114190091Y-92836709D01*
X114140699Y-92823475D01*
X114062792Y-92802600D01*
X113962378Y-92802600D01*
X113904187Y-92783693D01*
X113892380Y-92773609D01*
X113878311Y-92759540D01*
X113878308Y-92759538D01*
X113809792Y-92719980D01*
X113809788Y-92719978D01*
X113733364Y-92699500D01*
X113733362Y-92699500D01*
X108541089Y-92699500D01*
X108461965Y-92699500D01*
X108415188Y-92712033D01*
X108385534Y-92719979D01*
X108317020Y-92759536D01*
X104639754Y-96436802D01*
X104639753Y-96436801D01*
X104583804Y-96492751D01*
X104544245Y-96561269D01*
X104544243Y-96561273D01*
X104523765Y-96637697D01*
X104523765Y-101275944D01*
X104504858Y-101334135D01*
X104494774Y-101345941D01*
X104447970Y-101392746D01*
X104423762Y-101416954D01*
X104423761Y-101416955D01*
X104357874Y-101531074D01*
X104357873Y-101531079D01*
X104323765Y-101658373D01*
X104323765Y-101790157D01*
X104353062Y-101899496D01*
X104357874Y-101917455D01*
X104423761Y-102031574D01*
X104423763Y-102031576D01*
X104423765Y-102031579D01*
X104516951Y-102124765D01*
X104516953Y-102124766D01*
X104516955Y-102124768D01*
X104631075Y-102190655D01*
X104631073Y-102190655D01*
X104631077Y-102190656D01*
X104631079Y-102190657D01*
X104758373Y-102224765D01*
X104758375Y-102224765D01*
X104890155Y-102224765D01*
X104890157Y-102224765D01*
X105017451Y-102190657D01*
X105017453Y-102190655D01*
X105017455Y-102190655D01*
X105131574Y-102124768D01*
X105131574Y-102124767D01*
X105131579Y-102124765D01*
X105224765Y-102031579D01*
X105247257Y-101992622D01*
X105290655Y-101917455D01*
X105290655Y-101917453D01*
X105290657Y-101917451D01*
X105324765Y-101790157D01*
X105324765Y-101658373D01*
X105290657Y-101531079D01*
X105290655Y-101531076D01*
X105290655Y-101531074D01*
X105224768Y-101416955D01*
X105224766Y-101416953D01*
X105224765Y-101416951D01*
X105153759Y-101345945D01*
X105125984Y-101291431D01*
X105124765Y-101275944D01*
X105124765Y-97383069D01*
X105143672Y-97324878D01*
X105193172Y-97288914D01*
X105254358Y-97288914D01*
X105273257Y-97297328D01*
X105307549Y-97317127D01*
X105434843Y-97351235D01*
X105434845Y-97351235D01*
X105566625Y-97351235D01*
X105566627Y-97351235D01*
X105693921Y-97317127D01*
X105693923Y-97317125D01*
X105693925Y-97317125D01*
X105808044Y-97251238D01*
X105808044Y-97251237D01*
X105808049Y-97251235D01*
X105828789Y-97230494D01*
X105883304Y-97202719D01*
X105898791Y-97201500D01*
X108088506Y-97201500D01*
X108088506Y-97201499D01*
X108164932Y-97181021D01*
X108233454Y-97141460D01*
X108268800Y-97106114D01*
X108289404Y-97085511D01*
X108359129Y-97015785D01*
X108413645Y-96988007D01*
X108474077Y-96997578D01*
X108517342Y-97040842D01*
X108524759Y-97060164D01*
X108533607Y-97093185D01*
X108533609Y-97093189D01*
X108599496Y-97207309D01*
X108599498Y-97207311D01*
X108599500Y-97207314D01*
X108692686Y-97300500D01*
X108692688Y-97300501D01*
X108692690Y-97300503D01*
X108806810Y-97366390D01*
X108806808Y-97366390D01*
X108806812Y-97366391D01*
X108806814Y-97366392D01*
X108934108Y-97400500D01*
X108934110Y-97400500D01*
X109065890Y-97400500D01*
X109065892Y-97400500D01*
X109193186Y-97366392D01*
X109193188Y-97366390D01*
X109193190Y-97366390D01*
X109307309Y-97300503D01*
X109307309Y-97300502D01*
X109307314Y-97300500D01*
X109378319Y-97229494D01*
X109432834Y-97201719D01*
X109448321Y-97200500D01*
X113767891Y-97200500D01*
X113826082Y-97219407D01*
X113862046Y-97268907D01*
X113862046Y-97330093D01*
X113826082Y-97379593D01*
X113817397Y-97385232D01*
X113804320Y-97392782D01*
X113792687Y-97399499D01*
X113699496Y-97492690D01*
X113633609Y-97606809D01*
X113633608Y-97606814D01*
X113599500Y-97734108D01*
X113599500Y-97865892D01*
X113614713Y-97922668D01*
X113633609Y-97993190D01*
X113699496Y-98107309D01*
X113699498Y-98107311D01*
X113699500Y-98107314D01*
X113792686Y-98200500D01*
X113792688Y-98200501D01*
X113792690Y-98200503D01*
X113906810Y-98266390D01*
X113906808Y-98266390D01*
X113906812Y-98266391D01*
X113906814Y-98266392D01*
X114034108Y-98300500D01*
X114034110Y-98300500D01*
X114165890Y-98300500D01*
X114165892Y-98300500D01*
X114293186Y-98266392D01*
X114293188Y-98266390D01*
X114293190Y-98266390D01*
X114407314Y-98200500D01*
X114421416Y-98186398D01*
X114475931Y-98158619D01*
X114536364Y-98168189D01*
X114561425Y-98186396D01*
X116161540Y-99786511D01*
X116161539Y-99786511D01*
X116217489Y-99842460D01*
X116286007Y-99882019D01*
X116286011Y-99882021D01*
X116362435Y-99902499D01*
X116362437Y-99902500D01*
X116362438Y-99902500D01*
X122986521Y-99902500D01*
X123044712Y-99921407D01*
X123056525Y-99931496D01*
X125570504Y-102445475D01*
X125598281Y-102499992D01*
X125599500Y-102515479D01*
X125599500Y-103688828D01*
X125619977Y-103765249D01*
X125619979Y-103765254D01*
X125640904Y-103801498D01*
X125640905Y-103801498D01*
X125640906Y-103801500D01*
X125659540Y-103833775D01*
X126016536Y-104190771D01*
X126372529Y-104546764D01*
X126377765Y-104552735D01*
X126379538Y-104554508D01*
X126379540Y-104554511D01*
X126435489Y-104610460D01*
X126435491Y-104610461D01*
X126504007Y-104650019D01*
X126504011Y-104650021D01*
X126580435Y-104670499D01*
X126580437Y-104670500D01*
X126580438Y-104670500D01*
X126581174Y-104670500D01*
X126760438Y-104670500D01*
X129331377Y-104670500D01*
X129389568Y-104689407D01*
X129425532Y-104738907D01*
X129425532Y-104800093D01*
X129417117Y-104818992D01*
X129395255Y-104856860D01*
X129379578Y-104884014D01*
X129379577Y-104884015D01*
X129359100Y-104960435D01*
X129359100Y-105039564D01*
X129379577Y-105115984D01*
X129379578Y-105115985D01*
X129379579Y-105115988D01*
X129419140Y-105184511D01*
X129475089Y-105240460D01*
X129517186Y-105264764D01*
X129558126Y-105310233D01*
X129564522Y-105371083D01*
X129533929Y-105424071D01*
X129478034Y-105448958D01*
X129467685Y-105449500D01*
X113476529Y-105449500D01*
X113418338Y-105430593D01*
X113382374Y-105381093D01*
X113382374Y-105319907D01*
X113418338Y-105270407D01*
X113429861Y-105263190D01*
X113659911Y-105140226D01*
X113659914Y-105140224D01*
X113937717Y-104954601D01*
X114195989Y-104742643D01*
X114432242Y-104506390D01*
X114644200Y-104248118D01*
X114829823Y-103970315D01*
X114849013Y-103934414D01*
X114939430Y-103765254D01*
X114987322Y-103675654D01*
X115115181Y-103366976D01*
X115125162Y-103334075D01*
X115170531Y-103184511D01*
X115212168Y-103047251D01*
X115277350Y-102719559D01*
X115310099Y-102387056D01*
X115310099Y-102052944D01*
X115277350Y-101720441D01*
X115212168Y-101392749D01*
X115176736Y-101275944D01*
X115115184Y-101073032D01*
X115099067Y-101034121D01*
X114987322Y-100764346D01*
X114912756Y-100624842D01*
X114829825Y-100469687D01*
X114737011Y-100330783D01*
X114644200Y-100191882D01*
X114432242Y-99933610D01*
X114195989Y-99697357D01*
X113937717Y-99485399D01*
X113788225Y-99385511D01*
X113659911Y-99299773D01*
X113365271Y-99142286D01*
X113365259Y-99142280D01*
X113365253Y-99142277D01*
X113365248Y-99142274D01*
X113365244Y-99142273D01*
X113056566Y-99014414D01*
X112736852Y-98917431D01*
X112516376Y-98873576D01*
X112409158Y-98852249D01*
X112409156Y-98852248D01*
X112166090Y-98828308D01*
X112076655Y-98819500D01*
X111742543Y-98819500D01*
X111644299Y-98829176D01*
X111410043Y-98852248D01*
X111082345Y-98917431D01*
X110762631Y-99014414D01*
X110453953Y-99142273D01*
X110453926Y-99142286D01*
X110159286Y-99299773D01*
X109881479Y-99485400D01*
X109623214Y-99697352D01*
X109386951Y-99933615D01*
X109174999Y-100191880D01*
X108989372Y-100469687D01*
X108831885Y-100764327D01*
X108831872Y-100764354D01*
X108704013Y-101073032D01*
X108607030Y-101392746D01*
X108541847Y-101720444D01*
X108516254Y-101980292D01*
X108509099Y-102052944D01*
X108509099Y-102387056D01*
X108514853Y-102445475D01*
X108541847Y-102719555D01*
X108607030Y-103047253D01*
X108704013Y-103366967D01*
X108831872Y-103675645D01*
X108831885Y-103675672D01*
X108989372Y-103970312D01*
X109080318Y-104106420D01*
X109174998Y-104248118D01*
X109386956Y-104506390D01*
X109623209Y-104742643D01*
X109881481Y-104954601D01*
X110020382Y-105047412D01*
X110159286Y-105140226D01*
X110389337Y-105263190D01*
X110431744Y-105307295D01*
X110440127Y-105367904D01*
X110411285Y-105421864D01*
X110356234Y-105448566D01*
X110342669Y-105449500D01*
X74366014Y-105449500D01*
X74358033Y-105449499D01*
X74358031Y-105449499D01*
X74336781Y-105449499D01*
X74313204Y-105449499D01*
X74313203Y-105449498D01*
X74307656Y-105449343D01*
X74013741Y-105432841D01*
X74002709Y-105431598D01*
X73715228Y-105382755D01*
X73704404Y-105380285D01*
X73424194Y-105299560D01*
X73413715Y-105295893D01*
X73144313Y-105184304D01*
X73134310Y-105179487D01*
X72879092Y-105038432D01*
X72869691Y-105032525D01*
X72631873Y-104863782D01*
X72623193Y-104856860D01*
X72417079Y-104672663D01*
X72405756Y-104662544D01*
X72397909Y-104654696D01*
X72393731Y-104650021D01*
X72203608Y-104437267D01*
X72196692Y-104428596D01*
X72027940Y-104190756D01*
X72022047Y-104181376D01*
X71880988Y-103926139D01*
X71876174Y-103916142D01*
X71870924Y-103903467D01*
X71764580Y-103646715D01*
X71760928Y-103636277D01*
X71680199Y-103356035D01*
X71677734Y-103345231D01*
X71628894Y-103057732D01*
X71627652Y-103046700D01*
X71620881Y-102926060D01*
X71620843Y-102925375D01*
X89510000Y-102925375D01*
X89510000Y-103674999D01*
X89510001Y-103675000D01*
X90125856Y-103675000D01*
X90110000Y-103734174D01*
X90110000Y-103865826D01*
X90125856Y-103925000D01*
X89510001Y-103925000D01*
X89510000Y-103925001D01*
X89510000Y-104674624D01*
X89524506Y-104747546D01*
X89524507Y-104747548D01*
X89579758Y-104830237D01*
X89579762Y-104830241D01*
X89662451Y-104885492D01*
X89662453Y-104885493D01*
X89735375Y-104899999D01*
X89735377Y-104900000D01*
X90484999Y-104900000D01*
X90485000Y-104899999D01*
X90485000Y-104284144D01*
X90544174Y-104300000D01*
X90675826Y-104300000D01*
X90735000Y-104284144D01*
X90735000Y-104899999D01*
X90735001Y-104900000D01*
X91484623Y-104900000D01*
X91484624Y-104899999D01*
X91557546Y-104885493D01*
X91557548Y-104885492D01*
X91640237Y-104830241D01*
X91640241Y-104830237D01*
X91695492Y-104747548D01*
X91695493Y-104747546D01*
X91709999Y-104674624D01*
X91710000Y-104674622D01*
X91710000Y-103925001D01*
X91709999Y-103925000D01*
X91094144Y-103925000D01*
X91110000Y-103865826D01*
X91110000Y-103734174D01*
X91099914Y-103696532D01*
X92099500Y-103696532D01*
X92099500Y-103903467D01*
X92139869Y-104106418D01*
X92219058Y-104297597D01*
X92334020Y-104469651D01*
X92334023Y-104469655D01*
X92480345Y-104615977D01*
X92652402Y-104730941D01*
X92843580Y-104810130D01*
X93046535Y-104850500D01*
X93046536Y-104850500D01*
X93253464Y-104850500D01*
X93253465Y-104850500D01*
X93456420Y-104810130D01*
X93647598Y-104730941D01*
X93819655Y-104615977D01*
X93965977Y-104469655D01*
X94080941Y-104297598D01*
X94160130Y-104106420D01*
X94200500Y-103903465D01*
X94200500Y-103696535D01*
X94200499Y-103696532D01*
X94639499Y-103696532D01*
X94639499Y-103903467D01*
X94679868Y-104106418D01*
X94759057Y-104297597D01*
X94874019Y-104469651D01*
X94874022Y-104469655D01*
X95020344Y-104615977D01*
X95192401Y-104730941D01*
X95383579Y-104810130D01*
X95586534Y-104850500D01*
X95586535Y-104850500D01*
X95793463Y-104850500D01*
X95793464Y-104850500D01*
X95996419Y-104810130D01*
X96187597Y-104730941D01*
X96359654Y-104615977D01*
X96505976Y-104469655D01*
X96620940Y-104297598D01*
X96700129Y-104106420D01*
X96740499Y-103903465D01*
X96740499Y-103696535D01*
X96740498Y-103696532D01*
X97179500Y-103696532D01*
X97179500Y-103903467D01*
X97219869Y-104106418D01*
X97299058Y-104297597D01*
X97414020Y-104469651D01*
X97414023Y-104469655D01*
X97560345Y-104615977D01*
X97732402Y-104730941D01*
X97923580Y-104810130D01*
X98126535Y-104850500D01*
X98126536Y-104850500D01*
X98333464Y-104850500D01*
X98333465Y-104850500D01*
X98536420Y-104810130D01*
X98727598Y-104730941D01*
X98899655Y-104615977D01*
X99045977Y-104469655D01*
X99160941Y-104297598D01*
X99240130Y-104106420D01*
X99280500Y-103903465D01*
X99280500Y-103696535D01*
X99280499Y-103696532D01*
X99719500Y-103696532D01*
X99719500Y-103903467D01*
X99759869Y-104106418D01*
X99839058Y-104297597D01*
X99954020Y-104469651D01*
X99954023Y-104469655D01*
X100100345Y-104615977D01*
X100272402Y-104730941D01*
X100463580Y-104810130D01*
X100666535Y-104850500D01*
X100666536Y-104850500D01*
X100873464Y-104850500D01*
X100873465Y-104850500D01*
X101076420Y-104810130D01*
X101267598Y-104730941D01*
X101439655Y-104615977D01*
X101585977Y-104469655D01*
X101700941Y-104297598D01*
X101780130Y-104106420D01*
X101820500Y-103903465D01*
X101820500Y-103696535D01*
X101820499Y-103696532D01*
X102259500Y-103696532D01*
X102259500Y-103903467D01*
X102299869Y-104106418D01*
X102379058Y-104297597D01*
X102494020Y-104469651D01*
X102494023Y-104469655D01*
X102640345Y-104615977D01*
X102812402Y-104730941D01*
X103003580Y-104810130D01*
X103206535Y-104850500D01*
X103206536Y-104850500D01*
X103413464Y-104850500D01*
X103413465Y-104850500D01*
X103616420Y-104810130D01*
X103807598Y-104730941D01*
X103979655Y-104615977D01*
X104125977Y-104469655D01*
X104240941Y-104297598D01*
X104320130Y-104106420D01*
X104360500Y-103903465D01*
X104360500Y-103696535D01*
X104360499Y-103696532D01*
X104799500Y-103696532D01*
X104799500Y-103903467D01*
X104839869Y-104106418D01*
X104919058Y-104297597D01*
X105034020Y-104469651D01*
X105034023Y-104469655D01*
X105180345Y-104615977D01*
X105352402Y-104730941D01*
X105543580Y-104810130D01*
X105746535Y-104850500D01*
X105746536Y-104850500D01*
X105953464Y-104850500D01*
X105953465Y-104850500D01*
X106156420Y-104810130D01*
X106347598Y-104730941D01*
X106519655Y-104615977D01*
X106665977Y-104469655D01*
X106780941Y-104297598D01*
X106860130Y-104106420D01*
X106900500Y-103903465D01*
X106900500Y-103696535D01*
X106860130Y-103493580D01*
X106780941Y-103302402D01*
X106665977Y-103130345D01*
X106519655Y-102984023D01*
X106439031Y-102930152D01*
X106347597Y-102869058D01*
X106156418Y-102789869D01*
X105953467Y-102749500D01*
X105953465Y-102749500D01*
X105746535Y-102749500D01*
X105746532Y-102749500D01*
X105543581Y-102789869D01*
X105352402Y-102869058D01*
X105180348Y-102984020D01*
X105034020Y-103130348D01*
X104919058Y-103302402D01*
X104839869Y-103493581D01*
X104799500Y-103696532D01*
X104360499Y-103696532D01*
X104320130Y-103493580D01*
X104240941Y-103302402D01*
X104125977Y-103130345D01*
X103979655Y-102984023D01*
X103899031Y-102930152D01*
X103807597Y-102869058D01*
X103616418Y-102789869D01*
X103413467Y-102749500D01*
X103413465Y-102749500D01*
X103206535Y-102749500D01*
X103206532Y-102749500D01*
X103003581Y-102789869D01*
X102812402Y-102869058D01*
X102640348Y-102984020D01*
X102494020Y-103130348D01*
X102379058Y-103302402D01*
X102299869Y-103493581D01*
X102259500Y-103696532D01*
X101820499Y-103696532D01*
X101780130Y-103493580D01*
X101700941Y-103302402D01*
X101585977Y-103130345D01*
X101439655Y-102984023D01*
X101359031Y-102930152D01*
X101267597Y-102869058D01*
X101076418Y-102789869D01*
X100873467Y-102749500D01*
X100873465Y-102749500D01*
X100666535Y-102749500D01*
X100666532Y-102749500D01*
X100463581Y-102789869D01*
X100272402Y-102869058D01*
X100100348Y-102984020D01*
X99954020Y-103130348D01*
X99839058Y-103302402D01*
X99759869Y-103493581D01*
X99719500Y-103696532D01*
X99280499Y-103696532D01*
X99240130Y-103493580D01*
X99160941Y-103302402D01*
X99045977Y-103130345D01*
X98899655Y-102984023D01*
X98819031Y-102930152D01*
X98727597Y-102869058D01*
X98536418Y-102789869D01*
X98333467Y-102749500D01*
X98333465Y-102749500D01*
X98126535Y-102749500D01*
X98126532Y-102749500D01*
X97923581Y-102789869D01*
X97732402Y-102869058D01*
X97560348Y-102984020D01*
X97414020Y-103130348D01*
X97299058Y-103302402D01*
X97219869Y-103493581D01*
X97179500Y-103696532D01*
X96740498Y-103696532D01*
X96700129Y-103493580D01*
X96620940Y-103302402D01*
X96505976Y-103130345D01*
X96359654Y-102984023D01*
X96279030Y-102930152D01*
X96187596Y-102869058D01*
X95996417Y-102789869D01*
X95793466Y-102749500D01*
X95793464Y-102749500D01*
X95586534Y-102749500D01*
X95586531Y-102749500D01*
X95383580Y-102789869D01*
X95192401Y-102869058D01*
X95020347Y-102984020D01*
X94874019Y-103130348D01*
X94759057Y-103302402D01*
X94679868Y-103493581D01*
X94639499Y-103696532D01*
X94200499Y-103696532D01*
X94160130Y-103493580D01*
X94080941Y-103302402D01*
X93965977Y-103130345D01*
X93819655Y-102984023D01*
X93739031Y-102930152D01*
X93647597Y-102869058D01*
X93456418Y-102789869D01*
X93253467Y-102749500D01*
X93253465Y-102749500D01*
X93046535Y-102749500D01*
X93046532Y-102749500D01*
X92843581Y-102789869D01*
X92652402Y-102869058D01*
X92480348Y-102984020D01*
X92334020Y-103130348D01*
X92219058Y-103302402D01*
X92139869Y-103493581D01*
X92099500Y-103696532D01*
X91099914Y-103696532D01*
X91094144Y-103675000D01*
X91709999Y-103675000D01*
X91710000Y-103674999D01*
X91710000Y-102925377D01*
X91709999Y-102925375D01*
X91695493Y-102852453D01*
X91695492Y-102852451D01*
X91640241Y-102769762D01*
X91640237Y-102769758D01*
X91557548Y-102714507D01*
X91557546Y-102714506D01*
X91484624Y-102700000D01*
X90735001Y-102700000D01*
X90735000Y-102700001D01*
X90735000Y-103315855D01*
X90675826Y-103300000D01*
X90544174Y-103300000D01*
X90485000Y-103315855D01*
X90485000Y-102700001D01*
X90484999Y-102700000D01*
X89735375Y-102700000D01*
X89662453Y-102714506D01*
X89662451Y-102714507D01*
X89579762Y-102769758D01*
X89579758Y-102769762D01*
X89524507Y-102852451D01*
X89524506Y-102852453D01*
X89510000Y-102925375D01*
X71620843Y-102925375D01*
X71611098Y-102751755D01*
X71610942Y-102746203D01*
X71610943Y-102714506D01*
X71610944Y-102702418D01*
X71610942Y-102702414D01*
X71610943Y-102695537D01*
X71610942Y-102695507D01*
X71610942Y-84957870D01*
X71610943Y-84957867D01*
X71610942Y-84910272D01*
X71610942Y-84870713D01*
X71610942Y-84864236D01*
X71610921Y-84863948D01*
X71610921Y-84737302D01*
X71574758Y-84393256D01*
X71574757Y-84393255D01*
X71574757Y-84393247D01*
X71502831Y-84054873D01*
X71502831Y-84054872D01*
X71429846Y-83830253D01*
X71395928Y-83725866D01*
X71349025Y-83620522D01*
X71255223Y-83409838D01*
X71255214Y-83409821D01*
X71082255Y-83110249D01*
X71082250Y-83110240D01*
X70878911Y-82830368D01*
X70647432Y-82573283D01*
X70647420Y-82573272D01*
X70390350Y-82341802D01*
X70390341Y-82341795D01*
X70110478Y-82138460D01*
X70110473Y-82138457D01*
X69810894Y-81965494D01*
X69810891Y-81965492D01*
X69810885Y-81965489D01*
X69494853Y-81824779D01*
X69165845Y-81717874D01*
X69165842Y-81717873D01*
X69165838Y-81717872D01*
X68827465Y-81645945D01*
X68483419Y-81609780D01*
X68483417Y-81609779D01*
X68350010Y-81609777D01*
X68350008Y-81609777D01*
X68350007Y-81609777D01*
X68310448Y-81609777D01*
X68262854Y-81609776D01*
X68262851Y-81609777D01*
X57241351Y-81609777D01*
X57235809Y-81609622D01*
X57218700Y-81608662D01*
X56942377Y-81593168D01*
X56931365Y-81591929D01*
X56644355Y-81543248D01*
X56633548Y-81540786D01*
X56353769Y-81460326D01*
X56343307Y-81456671D01*
X56074289Y-81345451D01*
X56064300Y-81340650D01*
X55809395Y-81200056D01*
X55800005Y-81194169D01*
X55562407Y-81025961D01*
X55553734Y-81019061D01*
X55336427Y-80825351D01*
X55328580Y-80817525D01*
X55134290Y-80600747D01*
X55127367Y-80592093D01*
X54958514Y-80354942D01*
X54952601Y-80345568D01*
X54811316Y-80091034D01*
X54806499Y-80081081D01*
X54694545Y-79812340D01*
X54690865Y-79801894D01*
X54688591Y-79794065D01*
X54609649Y-79522323D01*
X54607165Y-79511552D01*
X54557343Y-79222551D01*
X54556563Y-79217121D01*
X54316804Y-77135725D01*
X57049500Y-77135725D01*
X57049500Y-78944274D01*
X57052353Y-78974694D01*
X57052355Y-78974703D01*
X57097207Y-79102883D01*
X57177845Y-79212144D01*
X57177847Y-79212146D01*
X57177850Y-79212150D01*
X57177853Y-79212152D01*
X57177855Y-79212154D01*
X57287116Y-79292792D01*
X57287117Y-79292792D01*
X57287118Y-79292793D01*
X57415301Y-79337646D01*
X57445725Y-79340499D01*
X57445727Y-79340500D01*
X57445734Y-79340500D01*
X58754273Y-79340500D01*
X58754273Y-79340499D01*
X58784699Y-79337646D01*
X58912882Y-79292793D01*
X59022150Y-79212150D01*
X59102793Y-79102882D01*
X59147646Y-78974699D01*
X59150499Y-78944273D01*
X59150500Y-78944273D01*
X59150500Y-77686532D01*
X59549500Y-77686532D01*
X59549500Y-78393467D01*
X59589869Y-78596418D01*
X59669058Y-78787597D01*
X59784020Y-78959651D01*
X59784023Y-78959655D01*
X59930345Y-79105977D01*
X60102402Y-79220941D01*
X60293580Y-79300130D01*
X60496535Y-79340500D01*
X60496536Y-79340500D01*
X60703464Y-79340500D01*
X60703465Y-79340500D01*
X60906420Y-79300130D01*
X61097598Y-79220941D01*
X61269655Y-79105977D01*
X61415977Y-78959655D01*
X61530941Y-78787598D01*
X61610130Y-78596420D01*
X61650500Y-78393465D01*
X61650500Y-77703424D01*
X62000000Y-77703424D01*
X62000000Y-77914999D01*
X62000001Y-77915000D01*
X62512328Y-77915000D01*
X62500000Y-77961009D01*
X62500000Y-78118991D01*
X62512328Y-78165000D01*
X62000001Y-78165000D01*
X62000000Y-78165001D01*
X62000000Y-78376575D01*
X62027084Y-78547579D01*
X62080588Y-78712248D01*
X62159195Y-78866524D01*
X62159197Y-78866528D01*
X62260962Y-79006596D01*
X62383403Y-79129037D01*
X62523471Y-79230802D01*
X62523475Y-79230804D01*
X62677751Y-79309411D01*
X62842420Y-79362915D01*
X62975000Y-79383913D01*
X62975000Y-78627671D01*
X63021009Y-78640000D01*
X63178991Y-78640000D01*
X63225000Y-78627671D01*
X63225000Y-79383912D01*
X63357579Y-79362915D01*
X63522248Y-79309411D01*
X63676524Y-79230804D01*
X63676528Y-79230802D01*
X63816596Y-79129037D01*
X63939037Y-79006596D01*
X64040802Y-78866528D01*
X64040804Y-78866524D01*
X64119411Y-78712248D01*
X64172915Y-78547579D01*
X64200000Y-78376575D01*
X64200000Y-78165001D01*
X64199999Y-78165000D01*
X63687672Y-78165000D01*
X63700000Y-78118991D01*
X63700000Y-77961009D01*
X63687672Y-77915000D01*
X64199999Y-77915000D01*
X64200000Y-77914999D01*
X64200000Y-77703429D01*
X64199007Y-77697162D01*
X64199007Y-77697158D01*
X64197324Y-77686532D01*
X64549500Y-77686532D01*
X64549500Y-78393467D01*
X64589869Y-78596418D01*
X64669058Y-78787597D01*
X64784020Y-78959651D01*
X64784023Y-78959655D01*
X64930345Y-79105977D01*
X65102402Y-79220941D01*
X65293580Y-79300130D01*
X65496535Y-79340500D01*
X65496536Y-79340500D01*
X65703464Y-79340500D01*
X65703465Y-79340500D01*
X65906420Y-79300130D01*
X66097598Y-79220941D01*
X66269655Y-79105977D01*
X66415977Y-78959655D01*
X66530941Y-78787598D01*
X66610130Y-78596420D01*
X66650500Y-78393465D01*
X66650500Y-77686535D01*
X66610130Y-77483580D01*
X66530941Y-77292402D01*
X66415977Y-77120345D01*
X66269655Y-76974023D01*
X66215141Y-76937598D01*
X66097597Y-76859058D01*
X65906418Y-76779869D01*
X65703467Y-76739500D01*
X65703465Y-76739500D01*
X65496535Y-76739500D01*
X65496532Y-76739500D01*
X65293581Y-76779869D01*
X65102402Y-76859058D01*
X64930348Y-76974020D01*
X64784020Y-77120348D01*
X64669058Y-77292402D01*
X64589869Y-77483581D01*
X64549500Y-77686532D01*
X64197324Y-77686532D01*
X64172915Y-77532420D01*
X64119411Y-77367751D01*
X64040804Y-77213475D01*
X64040802Y-77213471D01*
X63939037Y-77073403D01*
X63816596Y-76950962D01*
X63676528Y-76849197D01*
X63676524Y-76849195D01*
X63522248Y-76770588D01*
X63357579Y-76717084D01*
X63225000Y-76696085D01*
X63225000Y-77452328D01*
X63178991Y-77440000D01*
X63021009Y-77440000D01*
X62975000Y-77452328D01*
X62975000Y-76696086D01*
X62974999Y-76696085D01*
X62842420Y-76717084D01*
X62677751Y-76770588D01*
X62523475Y-76849195D01*
X62523471Y-76849197D01*
X62383403Y-76950962D01*
X62260962Y-77073403D01*
X62159197Y-77213471D01*
X62159195Y-77213475D01*
X62080588Y-77367751D01*
X62027084Y-77532420D01*
X62000000Y-77703424D01*
X61650500Y-77703424D01*
X61650500Y-77686535D01*
X61610130Y-77483580D01*
X61530941Y-77292402D01*
X61415977Y-77120345D01*
X61269655Y-76974023D01*
X61215141Y-76937598D01*
X61097597Y-76859058D01*
X60906418Y-76779869D01*
X60703467Y-76739500D01*
X60703465Y-76739500D01*
X60496535Y-76739500D01*
X60496532Y-76739500D01*
X60293581Y-76779869D01*
X60102402Y-76859058D01*
X59930348Y-76974020D01*
X59784020Y-77120348D01*
X59669058Y-77292402D01*
X59589869Y-77483581D01*
X59549500Y-77686532D01*
X59150500Y-77686532D01*
X59150500Y-77135727D01*
X59150499Y-77135725D01*
X59147646Y-77105305D01*
X59147646Y-77105301D01*
X59102793Y-76977118D01*
X59083489Y-76950962D01*
X59022154Y-76867855D01*
X59022152Y-76867853D01*
X59022150Y-76867850D01*
X59022146Y-76867847D01*
X59022144Y-76867845D01*
X58912883Y-76787207D01*
X58784703Y-76742355D01*
X58784694Y-76742353D01*
X58754274Y-76739500D01*
X58754266Y-76739500D01*
X57445734Y-76739500D01*
X57445725Y-76739500D01*
X57415305Y-76742353D01*
X57415296Y-76742355D01*
X57287116Y-76787207D01*
X57177855Y-76867845D01*
X57177845Y-76867855D01*
X57097207Y-76977116D01*
X57052355Y-77105296D01*
X57052353Y-77105305D01*
X57049500Y-77135725D01*
X54316804Y-77135725D01*
X54044264Y-74769746D01*
X53966576Y-74095322D01*
X53855591Y-73131841D01*
X53854846Y-73125375D01*
X68600000Y-73125375D01*
X68600000Y-73874999D01*
X68600001Y-73875000D01*
X69215856Y-73875000D01*
X69200000Y-73934174D01*
X69200000Y-74065826D01*
X69215856Y-74125000D01*
X68600001Y-74125000D01*
X68600000Y-74125001D01*
X68600000Y-74874624D01*
X68614506Y-74947546D01*
X68614507Y-74947548D01*
X68669758Y-75030237D01*
X68669762Y-75030241D01*
X68752451Y-75085492D01*
X68752453Y-75085493D01*
X68825375Y-75099999D01*
X68825377Y-75100000D01*
X69574999Y-75100000D01*
X69575000Y-75099999D01*
X69575000Y-74484144D01*
X69634174Y-74500000D01*
X69765826Y-74500000D01*
X69825000Y-74484144D01*
X69825000Y-75099999D01*
X69825001Y-75100000D01*
X70574623Y-75100000D01*
X70574624Y-75099999D01*
X70647546Y-75085493D01*
X70647548Y-75085492D01*
X70730237Y-75030241D01*
X70730241Y-75030237D01*
X70785492Y-74947548D01*
X70785493Y-74947546D01*
X70799999Y-74874624D01*
X70800000Y-74874622D01*
X70800000Y-74125001D01*
X70799999Y-74125000D01*
X70184144Y-74125000D01*
X70200000Y-74065826D01*
X70200000Y-73934174D01*
X70188103Y-73889774D01*
X73439500Y-73889774D01*
X73439500Y-74110225D01*
X73473984Y-74327948D01*
X73542102Y-74537599D01*
X73542104Y-74537602D01*
X73542105Y-74537606D01*
X73642185Y-74734022D01*
X73771758Y-74912365D01*
X73927635Y-75068242D01*
X74105978Y-75197815D01*
X74302394Y-75297895D01*
X74317116Y-75302678D01*
X74321091Y-75303970D01*
X74370591Y-75339932D01*
X74389500Y-75398123D01*
X74389500Y-77632389D01*
X74370593Y-77690580D01*
X74360504Y-77702393D01*
X73739507Y-78323390D01*
X73680200Y-78426112D01*
X73680200Y-78426113D01*
X73680201Y-78426114D01*
X73655013Y-78520119D01*
X73649500Y-78540692D01*
X73649500Y-79652761D01*
X73636238Y-79702259D01*
X73633608Y-79706813D01*
X73633608Y-79706814D01*
X73599500Y-79834108D01*
X73599500Y-79965892D01*
X73621903Y-80049501D01*
X73633609Y-80093190D01*
X73699496Y-80207309D01*
X73699498Y-80207311D01*
X73699500Y-80207314D01*
X73792686Y-80300500D01*
X73792688Y-80300501D01*
X73792690Y-80300503D01*
X73906810Y-80366390D01*
X73906808Y-80366390D01*
X73906812Y-80366391D01*
X73906814Y-80366392D01*
X74034108Y-80400500D01*
X74034110Y-80400500D01*
X74165890Y-80400500D01*
X74165892Y-80400500D01*
X74293186Y-80366392D01*
X74293188Y-80366390D01*
X74293190Y-80366390D01*
X74407309Y-80300503D01*
X74407309Y-80300502D01*
X74407314Y-80300500D01*
X74500500Y-80207314D01*
X74500503Y-80207309D01*
X74566390Y-80093190D01*
X74566390Y-80093188D01*
X74566392Y-80093186D01*
X74600500Y-79965892D01*
X74600500Y-79834108D01*
X74566392Y-79706814D01*
X74557998Y-79692275D01*
X74554683Y-79681236D01*
X74554949Y-79669366D01*
X74550500Y-79652761D01*
X74550500Y-78893423D01*
X104200000Y-78893423D01*
X104200000Y-79066574D01*
X104227084Y-79237578D01*
X104280588Y-79402247D01*
X104359195Y-79556522D01*
X104438096Y-79665123D01*
X104869269Y-79233949D01*
X104899901Y-79287006D01*
X104992993Y-79380098D01*
X105046046Y-79410728D01*
X104614874Y-79841901D01*
X104723476Y-79920803D01*
X104877751Y-79999410D01*
X105042420Y-80052914D01*
X105213425Y-80079999D01*
X105386575Y-80079999D01*
X105557579Y-80052914D01*
X105722248Y-79999410D01*
X105876524Y-79920803D01*
X105876528Y-79920801D01*
X105985124Y-79841901D01*
X105553952Y-79410729D01*
X105607007Y-79380098D01*
X105700099Y-79287006D01*
X105730730Y-79233951D01*
X106161902Y-79665123D01*
X106240802Y-79556527D01*
X106240804Y-79556523D01*
X106319411Y-79402247D01*
X106372915Y-79237578D01*
X106400000Y-79066574D01*
X106400000Y-78893423D01*
X106372915Y-78722419D01*
X106319411Y-78557750D01*
X106240804Y-78403475D01*
X106161902Y-78294873D01*
X105730729Y-78726045D01*
X105700099Y-78672992D01*
X105607007Y-78579900D01*
X105553950Y-78549268D01*
X105985124Y-78118095D01*
X105876523Y-78039194D01*
X105722248Y-77960587D01*
X105557579Y-77907083D01*
X105386575Y-77879999D01*
X105213425Y-77879999D01*
X105042420Y-77907083D01*
X104877751Y-77960587D01*
X104723472Y-78039196D01*
X104614874Y-78118095D01*
X105046047Y-78549268D01*
X104992993Y-78579900D01*
X104899901Y-78672992D01*
X104869269Y-78726046D01*
X104438096Y-78294873D01*
X104359197Y-78403471D01*
X104280588Y-78557750D01*
X104227084Y-78722419D01*
X104200000Y-78893423D01*
X74550500Y-78893423D01*
X74550500Y-78827610D01*
X74569407Y-78769419D01*
X74579490Y-78757612D01*
X75200489Y-78136614D01*
X75259799Y-78033887D01*
X75266286Y-78009673D01*
X75290500Y-77919309D01*
X75290500Y-76336532D01*
X104249500Y-76336532D01*
X104249500Y-76543467D01*
X104289869Y-76746418D01*
X104369058Y-76937597D01*
X104481116Y-77105305D01*
X104484023Y-77109655D01*
X104630345Y-77255977D01*
X104802402Y-77370941D01*
X104993580Y-77450130D01*
X105196535Y-77490500D01*
X105196536Y-77490500D01*
X105403464Y-77490500D01*
X105403465Y-77490500D01*
X105606420Y-77450130D01*
X105797598Y-77370941D01*
X105969655Y-77255977D01*
X106115977Y-77109655D01*
X106230941Y-76937598D01*
X106310130Y-76746420D01*
X106350500Y-76543465D01*
X106350500Y-76336535D01*
X106310130Y-76133580D01*
X106230941Y-75942402D01*
X106115977Y-75770345D01*
X105969655Y-75624023D01*
X105797598Y-75509059D01*
X105797599Y-75509059D01*
X105797597Y-75509058D01*
X105606418Y-75429869D01*
X105403467Y-75389500D01*
X105403465Y-75389500D01*
X105196535Y-75389500D01*
X105196532Y-75389500D01*
X104993581Y-75429869D01*
X104802402Y-75509058D01*
X104630348Y-75624020D01*
X104484020Y-75770348D01*
X104369058Y-75942402D01*
X104289869Y-76133581D01*
X104249500Y-76336532D01*
X75290500Y-76336532D01*
X75290500Y-75398125D01*
X75309407Y-75339934D01*
X75358905Y-75303971D01*
X75377606Y-75297895D01*
X75574022Y-75197815D01*
X75752365Y-75068242D01*
X75908242Y-74912365D01*
X76037815Y-74734022D01*
X76137895Y-74537606D01*
X76206015Y-74327951D01*
X76227390Y-74192993D01*
X76240500Y-74110225D01*
X76240500Y-73889774D01*
X83359500Y-73889774D01*
X83359500Y-74110225D01*
X83393984Y-74327948D01*
X83462102Y-74537599D01*
X83462104Y-74537602D01*
X83462105Y-74537606D01*
X83562185Y-74734022D01*
X83691758Y-74912365D01*
X83847635Y-75068242D01*
X84025978Y-75197815D01*
X84222394Y-75297895D01*
X84432049Y-75366015D01*
X84519140Y-75379809D01*
X84649775Y-75400500D01*
X84649778Y-75400500D01*
X84870225Y-75400500D01*
X84979086Y-75383257D01*
X85087951Y-75366015D01*
X85297606Y-75297895D01*
X85494022Y-75197815D01*
X85672365Y-75068242D01*
X85828242Y-74912365D01*
X85957815Y-74734022D01*
X86057895Y-74537606D01*
X86126015Y-74327951D01*
X86147390Y-74192993D01*
X86160500Y-74110225D01*
X86160500Y-73889774D01*
X86126015Y-73672051D01*
X86126015Y-73672049D01*
X86057895Y-73462394D01*
X85957815Y-73265978D01*
X85828242Y-73087635D01*
X85770860Y-73030253D01*
X104249500Y-73030253D01*
X104249500Y-74769746D01*
X104249501Y-74769758D01*
X104261132Y-74828227D01*
X104261133Y-74828231D01*
X104305448Y-74894552D01*
X104371769Y-74938867D01*
X104415401Y-74947546D01*
X104430241Y-74950498D01*
X104430246Y-74950498D01*
X104430252Y-74950500D01*
X104430253Y-74950500D01*
X106169747Y-74950500D01*
X106169748Y-74950500D01*
X106228231Y-74938867D01*
X106294552Y-74894552D01*
X106338867Y-74828231D01*
X106350500Y-74769748D01*
X106350500Y-73030252D01*
X106338867Y-72971769D01*
X106294552Y-72905448D01*
X106294548Y-72905445D01*
X106228233Y-72861134D01*
X106228231Y-72861133D01*
X106228228Y-72861132D01*
X106228227Y-72861132D01*
X106169758Y-72849501D01*
X106169748Y-72849500D01*
X104430252Y-72849500D01*
X104430251Y-72849500D01*
X104430241Y-72849501D01*
X104371772Y-72861132D01*
X104371766Y-72861134D01*
X104305451Y-72905445D01*
X104305445Y-72905451D01*
X104261134Y-72971766D01*
X104261132Y-72971772D01*
X104249501Y-73030241D01*
X104249500Y-73030253D01*
X85770860Y-73030253D01*
X85672365Y-72931758D01*
X85494022Y-72802185D01*
X85494021Y-72802184D01*
X85494019Y-72802183D01*
X85404825Y-72756736D01*
X85297606Y-72702105D01*
X85297602Y-72702104D01*
X85297599Y-72702102D01*
X85087948Y-72633984D01*
X84870225Y-72599500D01*
X84870222Y-72599500D01*
X84649778Y-72599500D01*
X84649775Y-72599500D01*
X84432051Y-72633984D01*
X84222400Y-72702102D01*
X84025980Y-72802183D01*
X83944841Y-72861134D01*
X83847635Y-72931758D01*
X83691758Y-73087635D01*
X83664337Y-73125377D01*
X83562183Y-73265980D01*
X83462102Y-73462400D01*
X83393984Y-73672051D01*
X83359500Y-73889774D01*
X76240500Y-73889774D01*
X76206015Y-73672051D01*
X76206015Y-73672049D01*
X76137895Y-73462394D01*
X76037815Y-73265978D01*
X75908242Y-73087635D01*
X75752365Y-72931758D01*
X75574022Y-72802185D01*
X75574021Y-72802184D01*
X75574019Y-72802183D01*
X75484825Y-72756736D01*
X75377606Y-72702105D01*
X75377602Y-72702104D01*
X75377599Y-72702102D01*
X75167948Y-72633984D01*
X74950225Y-72599500D01*
X74950222Y-72599500D01*
X74729778Y-72599500D01*
X74729775Y-72599500D01*
X74512051Y-72633984D01*
X74302400Y-72702102D01*
X74105980Y-72802183D01*
X74024841Y-72861134D01*
X73927635Y-72931758D01*
X73771758Y-73087635D01*
X73744337Y-73125377D01*
X73642183Y-73265980D01*
X73542102Y-73462400D01*
X73473984Y-73672051D01*
X73439500Y-73889774D01*
X70188103Y-73889774D01*
X70184144Y-73875000D01*
X70799999Y-73875000D01*
X70800000Y-73874999D01*
X70800000Y-73125377D01*
X70799999Y-73125375D01*
X70785493Y-73052453D01*
X70785492Y-73052451D01*
X70730241Y-72969762D01*
X70730237Y-72969758D01*
X70647548Y-72914507D01*
X70647546Y-72914506D01*
X70574624Y-72900000D01*
X69825001Y-72900000D01*
X69825000Y-72900001D01*
X69825000Y-73515855D01*
X69765826Y-73500000D01*
X69634174Y-73500000D01*
X69575000Y-73515855D01*
X69575000Y-72900001D01*
X69574999Y-72900000D01*
X68825375Y-72900000D01*
X68752453Y-72914506D01*
X68752451Y-72914507D01*
X68669762Y-72969758D01*
X68669758Y-72969762D01*
X68614507Y-73052451D01*
X68614506Y-73052453D01*
X68600000Y-73125375D01*
X53854846Y-73125375D01*
X53584738Y-70780513D01*
X53583881Y-70773070D01*
X56995500Y-70773070D01*
X56995500Y-70946929D01*
X57022695Y-71118633D01*
X57076420Y-71283981D01*
X57101915Y-71334019D01*
X57155347Y-71438884D01*
X57257535Y-71579533D01*
X57380467Y-71702465D01*
X57521116Y-71804653D01*
X57676019Y-71883580D01*
X57841362Y-71937303D01*
X57841363Y-71937303D01*
X57841366Y-71937304D01*
X58013071Y-71964500D01*
X58013074Y-71964500D01*
X58186929Y-71964500D01*
X58358633Y-71937304D01*
X58358634Y-71937303D01*
X58358638Y-71937303D01*
X58523981Y-71883580D01*
X58678884Y-71804653D01*
X58819533Y-71702465D01*
X58942465Y-71579533D01*
X59044653Y-71438884D01*
X59123580Y-71283981D01*
X59177303Y-71118638D01*
X59204500Y-70946926D01*
X59204500Y-70773074D01*
X59204500Y-70773070D01*
X64495500Y-70773070D01*
X64495500Y-70946929D01*
X64522695Y-71118633D01*
X64576420Y-71283981D01*
X64601915Y-71334019D01*
X64655347Y-71438884D01*
X64757535Y-71579533D01*
X64880467Y-71702465D01*
X65021116Y-71804653D01*
X65176019Y-71883580D01*
X65341362Y-71937303D01*
X65341363Y-71937303D01*
X65341366Y-71937304D01*
X65513071Y-71964500D01*
X65513074Y-71964500D01*
X65686929Y-71964500D01*
X65858633Y-71937304D01*
X65858634Y-71937303D01*
X65858638Y-71937303D01*
X66023981Y-71883580D01*
X66178884Y-71804653D01*
X66319533Y-71702465D01*
X66442465Y-71579533D01*
X66544653Y-71438884D01*
X66623580Y-71283981D01*
X66677303Y-71118638D01*
X66704500Y-70946926D01*
X66704500Y-70773074D01*
X66704500Y-70773070D01*
X66677304Y-70601366D01*
X66667030Y-70569746D01*
X66641046Y-70489774D01*
X73439500Y-70489774D01*
X73439500Y-70710225D01*
X73473984Y-70927948D01*
X73542102Y-71137599D01*
X73542104Y-71137602D01*
X73542105Y-71137606D01*
X73596736Y-71244825D01*
X73616687Y-71283981D01*
X73642185Y-71334022D01*
X73771758Y-71512365D01*
X73927635Y-71668242D01*
X74105978Y-71797815D01*
X74302394Y-71897895D01*
X74512049Y-71966015D01*
X74599140Y-71979809D01*
X74729775Y-72000500D01*
X74729778Y-72000500D01*
X74950225Y-72000500D01*
X75059086Y-71983257D01*
X75167951Y-71966015D01*
X75377606Y-71897895D01*
X75574022Y-71797815D01*
X75752365Y-71668242D01*
X75908242Y-71512365D01*
X76037815Y-71334022D01*
X76137895Y-71137606D01*
X76206015Y-70927951D01*
X76235963Y-70738867D01*
X76240500Y-70710225D01*
X76240500Y-70489774D01*
X83359500Y-70489774D01*
X83359500Y-70710225D01*
X83393984Y-70927948D01*
X83462102Y-71137599D01*
X83462104Y-71137602D01*
X83462105Y-71137606D01*
X83516736Y-71244825D01*
X83536687Y-71283981D01*
X83562185Y-71334022D01*
X83691758Y-71512365D01*
X83847635Y-71668242D01*
X84025978Y-71797815D01*
X84222394Y-71897895D01*
X84432049Y-71966015D01*
X84519140Y-71979809D01*
X84649775Y-72000500D01*
X84649778Y-72000500D01*
X84870225Y-72000500D01*
X84979086Y-71983257D01*
X85087951Y-71966015D01*
X85297606Y-71897895D01*
X85494022Y-71797815D01*
X85672365Y-71668242D01*
X85828242Y-71512365D01*
X85957815Y-71334022D01*
X86057895Y-71137606D01*
X86126015Y-70927951D01*
X86155963Y-70738867D01*
X86160500Y-70710225D01*
X86160500Y-70489774D01*
X86126015Y-70272051D01*
X86126015Y-70272049D01*
X86057895Y-70062394D01*
X85957815Y-69865978D01*
X85828242Y-69687635D01*
X85672365Y-69531758D01*
X85494022Y-69402185D01*
X85494021Y-69402184D01*
X85494019Y-69402183D01*
X85404825Y-69356736D01*
X85297606Y-69302105D01*
X85297602Y-69302104D01*
X85297599Y-69302102D01*
X85087948Y-69233984D01*
X84870225Y-69199500D01*
X84870222Y-69199500D01*
X84649778Y-69199500D01*
X84649775Y-69199500D01*
X84432051Y-69233984D01*
X84222400Y-69302102D01*
X84025980Y-69402183D01*
X84000462Y-69420723D01*
X83847635Y-69531758D01*
X83691758Y-69687635D01*
X83634009Y-69767120D01*
X83562183Y-69865980D01*
X83462102Y-70062400D01*
X83393984Y-70272051D01*
X83359500Y-70489774D01*
X76240500Y-70489774D01*
X76206015Y-70272051D01*
X76206015Y-70272049D01*
X76137895Y-70062394D01*
X76037815Y-69865978D01*
X75908242Y-69687635D01*
X75752365Y-69531758D01*
X75574022Y-69402185D01*
X75574021Y-69402184D01*
X75574019Y-69402183D01*
X75484825Y-69356736D01*
X75377606Y-69302105D01*
X75377602Y-69302104D01*
X75377599Y-69302102D01*
X75167948Y-69233984D01*
X74950225Y-69199500D01*
X74950222Y-69199500D01*
X74729778Y-69199500D01*
X74729775Y-69199500D01*
X74512051Y-69233984D01*
X74302400Y-69302102D01*
X74105980Y-69402183D01*
X74080462Y-69420723D01*
X73927635Y-69531758D01*
X73771758Y-69687635D01*
X73714009Y-69767120D01*
X73642183Y-69865980D01*
X73542102Y-70062400D01*
X73473984Y-70272051D01*
X73439500Y-70489774D01*
X66641046Y-70489774D01*
X66623580Y-70436019D01*
X66544653Y-70281116D01*
X66442465Y-70140467D01*
X66319533Y-70017535D01*
X66178884Y-69915347D01*
X66178883Y-69915346D01*
X66178881Y-69915345D01*
X66023981Y-69836420D01*
X65858633Y-69782695D01*
X65686929Y-69755500D01*
X65686926Y-69755500D01*
X65513074Y-69755500D01*
X65513071Y-69755500D01*
X65341366Y-69782695D01*
X65176018Y-69836420D01*
X65021118Y-69915345D01*
X64880468Y-70017534D01*
X64757534Y-70140468D01*
X64655345Y-70281118D01*
X64576420Y-70436018D01*
X64522695Y-70601366D01*
X64495500Y-70773070D01*
X59204500Y-70773070D01*
X59177304Y-70601366D01*
X59167030Y-70569746D01*
X59123580Y-70436019D01*
X59044653Y-70281116D01*
X58942465Y-70140467D01*
X58819533Y-70017535D01*
X58678884Y-69915347D01*
X58678883Y-69915346D01*
X58678881Y-69915345D01*
X58523981Y-69836420D01*
X58358633Y-69782695D01*
X58186929Y-69755500D01*
X58186926Y-69755500D01*
X58013074Y-69755500D01*
X58013071Y-69755500D01*
X57841366Y-69782695D01*
X57676018Y-69836420D01*
X57521118Y-69915345D01*
X57380468Y-70017534D01*
X57257534Y-70140468D01*
X57155345Y-70281118D01*
X57076420Y-70436018D01*
X57022695Y-70601366D01*
X56995500Y-70773070D01*
X53583881Y-70773070D01*
X53527212Y-70281118D01*
X53520396Y-70221950D01*
X53519916Y-70216419D01*
X53510896Y-70062400D01*
X53502679Y-69922093D01*
X53502655Y-69910977D01*
X53518379Y-69619366D01*
X53519600Y-69608321D01*
X53567923Y-69320303D01*
X53570370Y-69309482D01*
X53650690Y-69028676D01*
X53654334Y-69018202D01*
X53731802Y-68830253D01*
X94149500Y-68830253D01*
X94149500Y-70569746D01*
X94149501Y-70569758D01*
X94155788Y-70601362D01*
X94161133Y-70628231D01*
X94205448Y-70694552D01*
X94271769Y-70738867D01*
X94316231Y-70747711D01*
X94330241Y-70750498D01*
X94330246Y-70750498D01*
X94330252Y-70750500D01*
X94330253Y-70750500D01*
X96069747Y-70750500D01*
X96069748Y-70750500D01*
X96128231Y-70738867D01*
X96194552Y-70694552D01*
X96238867Y-70628231D01*
X96250500Y-70569748D01*
X96250500Y-68830252D01*
X96238867Y-68771769D01*
X96194552Y-68705448D01*
X96194548Y-68705445D01*
X96128233Y-68661134D01*
X96128231Y-68661133D01*
X96128228Y-68661132D01*
X96128227Y-68661132D01*
X96069758Y-68649501D01*
X96069748Y-68649500D01*
X94330252Y-68649500D01*
X94330251Y-68649500D01*
X94330241Y-68649501D01*
X94271772Y-68661132D01*
X94271766Y-68661134D01*
X94205451Y-68705445D01*
X94205445Y-68705451D01*
X94161134Y-68771766D01*
X94161132Y-68771772D01*
X94149501Y-68830241D01*
X94149500Y-68830253D01*
X53731802Y-68830253D01*
X53765631Y-68748180D01*
X53770428Y-68738176D01*
X53911300Y-68482335D01*
X53917192Y-68472927D01*
X54085858Y-68234503D01*
X54092769Y-68225814D01*
X54287110Y-68007798D01*
X54294942Y-67999948D01*
X54512506Y-67805097D01*
X54521160Y-67798181D01*
X54759213Y-67628943D01*
X54768593Y-67623039D01*
X55024110Y-67481568D01*
X55034095Y-67476750D01*
X55303868Y-67364819D01*
X55314336Y-67361151D01*
X55594938Y-67280181D01*
X55605756Y-67277708D01*
X55893673Y-67228710D01*
X55904706Y-67227464D01*
X56198562Y-67210932D01*
X56204123Y-67210777D01*
X105445861Y-67210777D01*
X105445989Y-67210768D01*
X105572536Y-67210769D01*
X105916586Y-67174612D01*
X106254971Y-67102689D01*
X106583985Y-66995788D01*
X106642615Y-66969685D01*
X106844784Y-66879675D01*
X106900022Y-66855082D01*
X107194270Y-66685199D01*
X110336000Y-66685199D01*
X110336000Y-66874800D01*
X110372987Y-67060748D01*
X110372989Y-67060754D01*
X110445543Y-67235914D01*
X110473468Y-67277706D01*
X110550878Y-67393558D01*
X110684942Y-67527622D01*
X110842585Y-67632956D01*
X111017749Y-67705512D01*
X111203702Y-67742500D01*
X111203703Y-67742500D01*
X111393297Y-67742500D01*
X111393298Y-67742500D01*
X111579251Y-67705512D01*
X111754415Y-67632956D01*
X111912058Y-67527622D01*
X112046122Y-67393558D01*
X112151456Y-67235915D01*
X112224012Y-67060751D01*
X112261000Y-66874798D01*
X112261000Y-66685202D01*
X112260999Y-66685199D01*
X112260029Y-66680324D01*
X112826500Y-66680324D01*
X112826500Y-66879675D01*
X112865389Y-67075188D01*
X112941676Y-67259360D01*
X112941680Y-67259369D01*
X113038080Y-67403640D01*
X113448397Y-66993322D01*
X113482811Y-67052930D01*
X113565570Y-67135689D01*
X113625174Y-67170101D01*
X113214858Y-67580418D01*
X113359139Y-67676823D01*
X113543311Y-67753110D01*
X113738824Y-67791999D01*
X113738828Y-67792000D01*
X113938172Y-67792000D01*
X113938175Y-67791999D01*
X114133688Y-67753110D01*
X114317861Y-67676823D01*
X114462140Y-67580418D01*
X114051824Y-67170102D01*
X114111430Y-67135689D01*
X114194189Y-67052930D01*
X114228602Y-66993324D01*
X114638918Y-67403640D01*
X114735323Y-67259361D01*
X114811610Y-67075188D01*
X114850499Y-66879675D01*
X114850500Y-66879672D01*
X114850500Y-66685199D01*
X115416000Y-66685199D01*
X115416000Y-66874800D01*
X115452987Y-67060748D01*
X115452989Y-67060754D01*
X115525543Y-67235914D01*
X115553468Y-67277706D01*
X115630878Y-67393558D01*
X115764942Y-67527622D01*
X115922585Y-67632956D01*
X116097749Y-67705512D01*
X116283702Y-67742500D01*
X116283703Y-67742500D01*
X116473297Y-67742500D01*
X116473298Y-67742500D01*
X116659251Y-67705512D01*
X116834415Y-67632956D01*
X116992058Y-67527622D01*
X117126122Y-67393558D01*
X117231456Y-67235915D01*
X117304012Y-67060751D01*
X117341000Y-66874798D01*
X117341000Y-66685202D01*
X117340999Y-66685199D01*
X117956000Y-66685199D01*
X117956000Y-66874800D01*
X117992987Y-67060748D01*
X117992989Y-67060754D01*
X118065543Y-67235914D01*
X118093468Y-67277706D01*
X118170878Y-67393558D01*
X118304942Y-67527622D01*
X118462585Y-67632956D01*
X118637749Y-67705512D01*
X118823702Y-67742500D01*
X118823703Y-67742500D01*
X119013297Y-67742500D01*
X119013298Y-67742500D01*
X119199251Y-67705512D01*
X119374415Y-67632956D01*
X119532058Y-67527622D01*
X119666122Y-67393558D01*
X119771456Y-67235915D01*
X119844012Y-67060751D01*
X119881000Y-66874798D01*
X119881000Y-66685202D01*
X119880999Y-66685199D01*
X120496000Y-66685199D01*
X120496000Y-66874800D01*
X120532987Y-67060748D01*
X120532989Y-67060754D01*
X120605543Y-67235914D01*
X120633468Y-67277706D01*
X120710878Y-67393558D01*
X120844942Y-67527622D01*
X121002585Y-67632956D01*
X121177749Y-67705512D01*
X121363702Y-67742500D01*
X121363703Y-67742500D01*
X121553297Y-67742500D01*
X121553298Y-67742500D01*
X121739251Y-67705512D01*
X121914415Y-67632956D01*
X122072058Y-67527622D01*
X122206122Y-67393558D01*
X122311456Y-67235915D01*
X122384012Y-67060751D01*
X122421000Y-66874798D01*
X122421000Y-66685202D01*
X122420999Y-66685199D01*
X123036000Y-66685199D01*
X123036000Y-66874800D01*
X123072987Y-67060748D01*
X123072989Y-67060754D01*
X123145543Y-67235914D01*
X123173468Y-67277706D01*
X123250878Y-67393558D01*
X123384942Y-67527622D01*
X123542585Y-67632956D01*
X123717749Y-67705512D01*
X123903702Y-67742500D01*
X123903703Y-67742500D01*
X124093297Y-67742500D01*
X124093298Y-67742500D01*
X124279251Y-67705512D01*
X124454415Y-67632956D01*
X124612058Y-67527622D01*
X124746122Y-67393558D01*
X124851456Y-67235915D01*
X124924012Y-67060751D01*
X124961000Y-66874798D01*
X124961000Y-66685202D01*
X124960999Y-66685199D01*
X125576000Y-66685199D01*
X125576000Y-66874800D01*
X125612987Y-67060748D01*
X125612989Y-67060754D01*
X125685543Y-67235914D01*
X125713468Y-67277706D01*
X125790878Y-67393558D01*
X125924942Y-67527622D01*
X126082585Y-67632956D01*
X126257749Y-67705512D01*
X126443702Y-67742500D01*
X126443703Y-67742500D01*
X126633297Y-67742500D01*
X126633298Y-67742500D01*
X126819251Y-67705512D01*
X126994415Y-67632956D01*
X127152058Y-67527622D01*
X127286122Y-67393558D01*
X127391456Y-67235915D01*
X127464012Y-67060751D01*
X127501000Y-66874798D01*
X127501000Y-66685202D01*
X127464012Y-66499249D01*
X127391456Y-66324085D01*
X127286122Y-66166442D01*
X127152058Y-66032378D01*
X126994415Y-65927044D01*
X126994416Y-65927044D01*
X126994414Y-65927043D01*
X126819254Y-65854489D01*
X126819248Y-65854487D01*
X126633300Y-65817500D01*
X126633298Y-65817500D01*
X126443702Y-65817500D01*
X126443699Y-65817500D01*
X126257751Y-65854487D01*
X126257745Y-65854489D01*
X126082585Y-65927043D01*
X125924942Y-66032378D01*
X125924938Y-66032381D01*
X125790881Y-66166438D01*
X125790878Y-66166442D01*
X125685543Y-66324085D01*
X125612989Y-66499245D01*
X125612987Y-66499251D01*
X125576000Y-66685199D01*
X124960999Y-66685199D01*
X124924012Y-66499249D01*
X124851456Y-66324085D01*
X124746122Y-66166442D01*
X124612058Y-66032378D01*
X124454415Y-65927044D01*
X124454413Y-65927043D01*
X124360113Y-65887982D01*
X124313588Y-65848244D01*
X124299000Y-65796518D01*
X124299000Y-64266978D01*
X124317907Y-64208787D01*
X124327990Y-64196980D01*
X124640460Y-63884511D01*
X124666524Y-63839364D01*
X124702766Y-63803125D01*
X124707314Y-63800500D01*
X124800500Y-63707314D01*
X124815563Y-63681225D01*
X124866390Y-63593190D01*
X124866390Y-63593188D01*
X124866392Y-63593186D01*
X124900500Y-63465892D01*
X124900500Y-63334108D01*
X124866392Y-63206814D01*
X124866390Y-63206811D01*
X124866390Y-63206809D01*
X124800503Y-63092690D01*
X124800501Y-63092688D01*
X124800500Y-63092686D01*
X124707314Y-62999500D01*
X124707311Y-62999498D01*
X124707309Y-62999496D01*
X124593189Y-62933609D01*
X124593191Y-62933609D01*
X124543799Y-62920375D01*
X124465892Y-62899500D01*
X124334108Y-62899500D01*
X124256200Y-62920375D01*
X124206809Y-62933609D01*
X124092690Y-62999496D01*
X123999496Y-63092690D01*
X123933609Y-63206809D01*
X123933608Y-63206814D01*
X123899500Y-63334108D01*
X123899500Y-63465892D01*
X123933608Y-63593186D01*
X123933609Y-63593188D01*
X123949883Y-63621376D01*
X123962604Y-63681225D01*
X123937716Y-63737120D01*
X123934162Y-63740865D01*
X123813989Y-63861040D01*
X123813988Y-63861039D01*
X123758039Y-63916989D01*
X123718480Y-63985507D01*
X123718478Y-63985511D01*
X123698000Y-64061935D01*
X123698000Y-65796518D01*
X123679093Y-65854709D01*
X123636887Y-65887982D01*
X123542584Y-65927044D01*
X123384942Y-66032378D01*
X123384938Y-66032381D01*
X123250881Y-66166438D01*
X123250878Y-66166442D01*
X123145543Y-66324085D01*
X123072989Y-66499245D01*
X123072987Y-66499251D01*
X123036000Y-66685199D01*
X122420999Y-66685199D01*
X122384012Y-66499249D01*
X122311456Y-66324085D01*
X122206122Y-66166442D01*
X122072058Y-66032378D01*
X121914415Y-65927044D01*
X121914416Y-65927044D01*
X121914414Y-65927043D01*
X121739254Y-65854489D01*
X121739248Y-65854487D01*
X121553300Y-65817500D01*
X121553298Y-65817500D01*
X121363702Y-65817500D01*
X121363699Y-65817500D01*
X121177751Y-65854487D01*
X121177745Y-65854489D01*
X121002585Y-65927043D01*
X120844942Y-66032378D01*
X120844938Y-66032381D01*
X120710881Y-66166438D01*
X120710878Y-66166442D01*
X120605543Y-66324085D01*
X120532989Y-66499245D01*
X120532987Y-66499251D01*
X120496000Y-66685199D01*
X119880999Y-66685199D01*
X119844012Y-66499249D01*
X119771456Y-66324085D01*
X119666122Y-66166442D01*
X119532058Y-66032378D01*
X119374415Y-65927044D01*
X119374416Y-65927044D01*
X119374414Y-65927043D01*
X119199254Y-65854489D01*
X119199248Y-65854487D01*
X119013300Y-65817500D01*
X119013298Y-65817500D01*
X118823702Y-65817500D01*
X118823699Y-65817500D01*
X118637751Y-65854487D01*
X118637745Y-65854489D01*
X118462585Y-65927043D01*
X118304942Y-66032378D01*
X118304938Y-66032381D01*
X118170881Y-66166438D01*
X118170878Y-66166442D01*
X118065543Y-66324085D01*
X117992989Y-66499245D01*
X117992987Y-66499251D01*
X117956000Y-66685199D01*
X117340999Y-66685199D01*
X117304012Y-66499249D01*
X117231456Y-66324085D01*
X117126122Y-66166442D01*
X116992058Y-66032378D01*
X116834415Y-65927044D01*
X116834416Y-65927044D01*
X116834414Y-65927043D01*
X116659254Y-65854489D01*
X116659248Y-65854487D01*
X116473300Y-65817500D01*
X116473298Y-65817500D01*
X116283702Y-65817500D01*
X116283699Y-65817500D01*
X116097751Y-65854487D01*
X116097745Y-65854489D01*
X115922585Y-65927043D01*
X115764942Y-66032378D01*
X115764938Y-66032381D01*
X115630881Y-66166438D01*
X115630878Y-66166442D01*
X115525543Y-66324085D01*
X115452989Y-66499245D01*
X115452987Y-66499251D01*
X115416000Y-66685199D01*
X114850500Y-66685199D01*
X114850500Y-66680327D01*
X114850499Y-66680324D01*
X114811610Y-66484811D01*
X114735323Y-66300639D01*
X114638918Y-66156358D01*
X114228601Y-66566674D01*
X114194189Y-66507070D01*
X114111430Y-66424311D01*
X114051822Y-66389897D01*
X114462140Y-65979580D01*
X114317869Y-65883180D01*
X114317860Y-65883176D01*
X114133688Y-65806889D01*
X113938175Y-65768000D01*
X113738824Y-65768000D01*
X113543311Y-65806889D01*
X113359138Y-65883176D01*
X113214858Y-65979580D01*
X113625175Y-66389897D01*
X113565570Y-66424311D01*
X113482811Y-66507070D01*
X113448397Y-66566675D01*
X113038080Y-66156358D01*
X112941676Y-66300638D01*
X112865389Y-66484811D01*
X112826500Y-66680324D01*
X112260029Y-66680324D01*
X112232534Y-66542092D01*
X112224012Y-66499249D01*
X112151456Y-66324085D01*
X112046122Y-66166442D01*
X111912058Y-66032378D01*
X111754415Y-65927044D01*
X111754416Y-65927044D01*
X111754414Y-65927043D01*
X111579254Y-65854489D01*
X111579248Y-65854487D01*
X111393300Y-65817500D01*
X111393298Y-65817500D01*
X111203702Y-65817500D01*
X111203699Y-65817500D01*
X111017751Y-65854487D01*
X111017745Y-65854489D01*
X110842585Y-65927043D01*
X110684942Y-66032378D01*
X110684938Y-66032381D01*
X110550881Y-66166438D01*
X110550878Y-66166442D01*
X110445543Y-66324085D01*
X110372989Y-66499245D01*
X110372987Y-66499251D01*
X110336000Y-66685199D01*
X107194270Y-66685199D01*
X107199619Y-66682111D01*
X107479495Y-66478771D01*
X107736582Y-66247289D01*
X107904775Y-66060492D01*
X107968059Y-65990210D01*
X107968060Y-65990208D01*
X107968065Y-65990203D01*
X108171406Y-65710328D01*
X108344377Y-65410730D01*
X108485085Y-65094694D01*
X108591986Y-64765681D01*
X108663910Y-64427296D01*
X108700069Y-64083246D01*
X108700068Y-63910274D01*
X108700068Y-63862679D01*
X108700068Y-58160136D01*
X108700069Y-58160133D01*
X108700068Y-58112538D01*
X108700068Y-58072982D01*
X108700068Y-58066528D01*
X108700057Y-58066368D01*
X108700054Y-58036390D01*
X108700051Y-57998270D01*
X108684243Y-57770280D01*
X108652709Y-57543929D01*
X108605598Y-57320300D01*
X108587065Y-57255054D01*
X108585187Y-57248442D01*
X108585187Y-57248426D01*
X108574376Y-57210380D01*
X108573038Y-57205672D01*
X108559266Y-57157198D01*
X108559254Y-57157167D01*
X108111916Y-55582945D01*
X108509100Y-55582945D01*
X108509100Y-55917052D01*
X108541848Y-56249554D01*
X108607031Y-56577252D01*
X108704014Y-56896966D01*
X108831873Y-57205644D01*
X108831886Y-57205671D01*
X108989373Y-57500311D01*
X109067406Y-57617094D01*
X109174999Y-57778117D01*
X109386957Y-58036389D01*
X109623210Y-58272642D01*
X109881482Y-58484600D01*
X110020383Y-58577411D01*
X110159287Y-58670225D01*
X110453927Y-58827712D01*
X110453946Y-58827722D01*
X110762624Y-58955581D01*
X110762626Y-58955581D01*
X110762632Y-58955584D01*
X111038976Y-59039411D01*
X111082349Y-59052568D01*
X111410041Y-59117750D01*
X111742544Y-59150499D01*
X111742547Y-59150499D01*
X112076653Y-59150499D01*
X112076656Y-59150499D01*
X112409159Y-59117750D01*
X112736851Y-59052568D01*
X112926457Y-58995051D01*
X113056567Y-58955584D01*
X113056569Y-58955582D01*
X113056576Y-58955581D01*
X113365254Y-58827722D01*
X113509240Y-58750759D01*
X113659912Y-58670225D01*
X113659915Y-58670223D01*
X113937718Y-58484600D01*
X114195990Y-58272642D01*
X114432243Y-58036389D01*
X114644201Y-57778117D01*
X114829824Y-57500314D01*
X114897813Y-57373116D01*
X114945424Y-57284041D01*
X114987323Y-57205653D01*
X115115182Y-56896975D01*
X115115183Y-56896968D01*
X115115185Y-56896966D01*
X115212168Y-56577252D01*
X115212169Y-56577250D01*
X115277351Y-56249558D01*
X115310100Y-55917055D01*
X115310100Y-55582943D01*
X115277351Y-55250440D01*
X115212169Y-54922748D01*
X115115185Y-54603032D01*
X115115185Y-54603031D01*
X115059301Y-54468114D01*
X114987323Y-54294345D01*
X114987313Y-54294326D01*
X114829826Y-53999686D01*
X114692256Y-53793800D01*
X114644201Y-53721881D01*
X114432243Y-53463609D01*
X114195990Y-53227356D01*
X113937718Y-53015398D01*
X113810832Y-52930615D01*
X113659912Y-52829772D01*
X113365272Y-52672285D01*
X113365260Y-52672279D01*
X113365254Y-52672276D01*
X113365249Y-52672273D01*
X113365245Y-52672272D01*
X113056567Y-52544413D01*
X112736853Y-52447430D01*
X112516377Y-52403575D01*
X112409159Y-52382248D01*
X112409157Y-52382247D01*
X112166091Y-52358307D01*
X112076656Y-52349499D01*
X111742544Y-52349499D01*
X111644300Y-52359175D01*
X111410044Y-52382247D01*
X111082346Y-52447430D01*
X110762632Y-52544413D01*
X110453954Y-52672272D01*
X110453927Y-52672285D01*
X110159287Y-52829772D01*
X109881480Y-53015399D01*
X109623215Y-53227351D01*
X109386952Y-53463614D01*
X109175000Y-53721879D01*
X108989373Y-53999686D01*
X108831886Y-54294326D01*
X108831873Y-54294353D01*
X108704014Y-54603031D01*
X108607031Y-54922745D01*
X108541848Y-55250443D01*
X108509100Y-55582945D01*
X108111916Y-55582945D01*
X105994125Y-48130253D01*
X115449500Y-48130253D01*
X115449500Y-49869746D01*
X115449501Y-49869758D01*
X115461132Y-49928227D01*
X115461134Y-49928233D01*
X115505445Y-49994548D01*
X115505448Y-49994552D01*
X115571769Y-50038867D01*
X115616231Y-50047711D01*
X115630241Y-50050498D01*
X115630246Y-50050498D01*
X115630252Y-50050500D01*
X115630253Y-50050500D01*
X117369747Y-50050500D01*
X117369748Y-50050500D01*
X117428231Y-50038867D01*
X117494552Y-49994552D01*
X117538867Y-49928231D01*
X117550500Y-49869748D01*
X117550500Y-48130252D01*
X117538867Y-48071769D01*
X117494552Y-48005448D01*
X117494548Y-48005445D01*
X117428233Y-47961134D01*
X117428231Y-47961133D01*
X117428228Y-47961132D01*
X117428227Y-47961132D01*
X117369758Y-47949501D01*
X117369748Y-47949500D01*
X115630252Y-47949500D01*
X115630251Y-47949500D01*
X115630241Y-47949501D01*
X115571772Y-47961132D01*
X115571766Y-47961134D01*
X115505451Y-48005445D01*
X115505445Y-48005451D01*
X115461134Y-48071766D01*
X115461132Y-48071772D01*
X115449501Y-48130241D01*
X115449500Y-48130253D01*
X105994125Y-48130253D01*
X104279556Y-42096532D01*
X108469501Y-42096532D01*
X108469501Y-42303467D01*
X108509870Y-42506418D01*
X108589059Y-42697597D01*
X108589060Y-42697598D01*
X108704024Y-42869655D01*
X108850346Y-43015977D01*
X109022403Y-43130941D01*
X109213581Y-43210130D01*
X109416536Y-43250500D01*
X109416537Y-43250500D01*
X109623465Y-43250500D01*
X109623466Y-43250500D01*
X109826421Y-43210130D01*
X110017599Y-43130941D01*
X110189656Y-43015977D01*
X110335978Y-42869655D01*
X110450942Y-42697598D01*
X110530131Y-42506420D01*
X110570501Y-42303465D01*
X110570501Y-42096535D01*
X110570500Y-42096532D01*
X111009500Y-42096532D01*
X111009500Y-42303467D01*
X111049869Y-42506418D01*
X111129058Y-42697597D01*
X111129059Y-42697598D01*
X111244023Y-42869655D01*
X111390345Y-43015977D01*
X111562402Y-43130941D01*
X111753580Y-43210130D01*
X111956535Y-43250500D01*
X111956536Y-43250500D01*
X112163464Y-43250500D01*
X112163465Y-43250500D01*
X112366420Y-43210130D01*
X112557598Y-43130941D01*
X112729655Y-43015977D01*
X112875977Y-42869655D01*
X112990941Y-42697598D01*
X113070130Y-42506420D01*
X113110500Y-42303465D01*
X113110500Y-42096535D01*
X113070130Y-41893580D01*
X112990941Y-41702402D01*
X112875977Y-41530345D01*
X112729655Y-41384023D01*
X112729651Y-41384020D01*
X112641882Y-41325375D01*
X113500000Y-41325375D01*
X113500000Y-42074999D01*
X113500001Y-42075000D01*
X114115856Y-42075000D01*
X114100000Y-42134174D01*
X114100000Y-42265826D01*
X114115856Y-42325000D01*
X113500001Y-42325000D01*
X113500000Y-42325001D01*
X113500000Y-43074624D01*
X113514506Y-43147546D01*
X113514507Y-43147548D01*
X113569758Y-43230237D01*
X113569762Y-43230241D01*
X113652451Y-43285492D01*
X113652453Y-43285493D01*
X113725375Y-43299999D01*
X113725377Y-43300000D01*
X114474999Y-43300000D01*
X114475000Y-43299999D01*
X114475000Y-42684144D01*
X114534174Y-42700000D01*
X114665826Y-42700000D01*
X114725000Y-42684144D01*
X114725000Y-43299999D01*
X114725001Y-43300000D01*
X115474623Y-43300000D01*
X115474624Y-43299999D01*
X115547546Y-43285493D01*
X115547548Y-43285492D01*
X115630237Y-43230241D01*
X115630241Y-43230237D01*
X115685492Y-43147548D01*
X115685493Y-43147546D01*
X115699999Y-43074624D01*
X115700000Y-43074622D01*
X115700000Y-42325001D01*
X115699999Y-42325000D01*
X115084144Y-42325000D01*
X115100000Y-42265826D01*
X115100000Y-42134174D01*
X115084144Y-42075000D01*
X115699999Y-42075000D01*
X115700000Y-42074999D01*
X115700000Y-41325377D01*
X115699999Y-41325375D01*
X115685493Y-41252453D01*
X115685492Y-41252451D01*
X115630241Y-41169762D01*
X115630237Y-41169758D01*
X115547548Y-41114507D01*
X115547546Y-41114506D01*
X115474624Y-41100000D01*
X114725001Y-41100000D01*
X114725000Y-41100001D01*
X114725000Y-41715855D01*
X114665826Y-41700000D01*
X114534174Y-41700000D01*
X114475000Y-41715855D01*
X114475000Y-41100001D01*
X114474999Y-41100000D01*
X113725375Y-41100000D01*
X113652453Y-41114506D01*
X113652451Y-41114507D01*
X113569762Y-41169758D01*
X113569758Y-41169762D01*
X113514507Y-41252451D01*
X113514506Y-41252453D01*
X113500000Y-41325375D01*
X112641882Y-41325375D01*
X112557597Y-41269058D01*
X112366418Y-41189869D01*
X112163467Y-41149500D01*
X112163465Y-41149500D01*
X111956535Y-41149500D01*
X111956532Y-41149500D01*
X111753581Y-41189869D01*
X111562402Y-41269058D01*
X111390348Y-41384020D01*
X111244020Y-41530348D01*
X111129058Y-41702402D01*
X111049869Y-41893581D01*
X111009500Y-42096532D01*
X110570500Y-42096532D01*
X110530131Y-41893580D01*
X110450942Y-41702402D01*
X110335978Y-41530345D01*
X110189656Y-41384023D01*
X110189652Y-41384020D01*
X110017598Y-41269058D01*
X109826419Y-41189869D01*
X109623468Y-41149500D01*
X109623466Y-41149500D01*
X109416536Y-41149500D01*
X109416533Y-41149500D01*
X109213582Y-41189869D01*
X109022403Y-41269058D01*
X108850349Y-41384020D01*
X108704021Y-41530348D01*
X108589059Y-41702402D01*
X108509870Y-41893581D01*
X108469501Y-42096532D01*
X104279556Y-42096532D01*
X103735508Y-40181979D01*
X103734139Y-40176590D01*
X103669607Y-39888949D01*
X103667786Y-39877982D01*
X103636210Y-39587676D01*
X103635631Y-39576574D01*
X103636008Y-39482738D01*
X103636803Y-39284560D01*
X103637471Y-39273486D01*
X103671378Y-38983433D01*
X103673281Y-38972510D01*
X103739499Y-38688072D01*
X103742617Y-38677428D01*
X103840307Y-38402215D01*
X103844607Y-38391970D01*
X103972523Y-38129474D01*
X103977937Y-38119786D01*
X104134497Y-37873258D01*
X104140960Y-37864244D01*
X104324162Y-37636838D01*
X104331610Y-37628589D01*
X104445689Y-37515671D01*
X104539158Y-37423153D01*
X104547472Y-37415801D01*
X104776739Y-37234938D01*
X104785834Y-37228559D01*
X104930655Y-37138654D01*
X105033933Y-37074540D01*
X105043671Y-37069227D01*
X105307488Y-36943991D01*
X105317775Y-36939798D01*
X105593961Y-36844935D01*
X105604650Y-36841923D01*
X105889726Y-36778625D01*
X105900675Y-36776831D01*
X106194036Y-36745577D01*
X106199564Y-36745145D01*
X106244127Y-36742917D01*
X106244128Y-36742916D01*
X114704722Y-36319758D01*
X114704730Y-36319759D01*
X114717488Y-36319120D01*
X114717489Y-36319121D01*
X114760897Y-36316949D01*
X114762252Y-36316881D01*
X114762255Y-36316882D01*
X114767752Y-36316760D01*
X115061646Y-36318526D01*
G37*
%TD.AperFunction*%
%TA.AperFunction,Conductor*%
G36*
X106192712Y-85819407D02*
G01*
X106204525Y-85829496D01*
X106255525Y-85880496D01*
X106283302Y-85935013D01*
X106273731Y-85995445D01*
X106230466Y-86038710D01*
X106185521Y-86049500D01*
X104830252Y-86049500D01*
X104830251Y-86049500D01*
X104830241Y-86049501D01*
X104771772Y-86061132D01*
X104771766Y-86061134D01*
X104705451Y-86105445D01*
X104705445Y-86105451D01*
X104661134Y-86171766D01*
X104661132Y-86171772D01*
X104649501Y-86230241D01*
X104649500Y-86230253D01*
X104649500Y-87969746D01*
X104649501Y-87969758D01*
X104661132Y-88028227D01*
X104661134Y-88028233D01*
X104703863Y-88092180D01*
X104705448Y-88094552D01*
X104771769Y-88138867D01*
X104816231Y-88147711D01*
X104830241Y-88150498D01*
X104830246Y-88150498D01*
X104830252Y-88150500D01*
X104830253Y-88150500D01*
X106569747Y-88150500D01*
X106569748Y-88150500D01*
X106628231Y-88138867D01*
X106694552Y-88094552D01*
X106738867Y-88028231D01*
X106750500Y-87969748D01*
X106750500Y-86614479D01*
X106769407Y-86556288D01*
X106818907Y-86520324D01*
X106880093Y-86520324D01*
X106919504Y-86544475D01*
X107559540Y-87184511D01*
X107559539Y-87184511D01*
X107615489Y-87240460D01*
X107684007Y-87280019D01*
X107684005Y-87280019D01*
X107684009Y-87280020D01*
X107684011Y-87280021D01*
X107760438Y-87300500D01*
X107760442Y-87300500D01*
X107763655Y-87301361D01*
X107814969Y-87334685D01*
X107836896Y-87391807D01*
X107821060Y-87450907D01*
X107808036Y-87466992D01*
X106404525Y-88870504D01*
X106350008Y-88898281D01*
X106334521Y-88899500D01*
X102265479Y-88899500D01*
X102207288Y-88880593D01*
X102195475Y-88870504D01*
X100691963Y-87366992D01*
X100664186Y-87312475D01*
X100673757Y-87252043D01*
X100717022Y-87208778D01*
X100736344Y-87201361D01*
X100739557Y-87200500D01*
X100739562Y-87200500D01*
X100815989Y-87180021D01*
X100815992Y-87180019D01*
X100815993Y-87180019D01*
X100840576Y-87165826D01*
X100884511Y-87140460D01*
X100940460Y-87084511D01*
X101011547Y-87013424D01*
X102060000Y-87013424D01*
X102060000Y-87186575D01*
X102087084Y-87357579D01*
X102140588Y-87522248D01*
X102219195Y-87676523D01*
X102298096Y-87785124D01*
X102729269Y-87353950D01*
X102759901Y-87407007D01*
X102852993Y-87500099D01*
X102906046Y-87530729D01*
X102474874Y-87961902D01*
X102583476Y-88040804D01*
X102737751Y-88119411D01*
X102902420Y-88172915D01*
X103073425Y-88200000D01*
X103246575Y-88200000D01*
X103417579Y-88172915D01*
X103582248Y-88119411D01*
X103736524Y-88040804D01*
X103736528Y-88040802D01*
X103845124Y-87961902D01*
X103413952Y-87530730D01*
X103467007Y-87500099D01*
X103560099Y-87407007D01*
X103590730Y-87353952D01*
X104021902Y-87785124D01*
X104100802Y-87676528D01*
X104100804Y-87676524D01*
X104179411Y-87522248D01*
X104232915Y-87357579D01*
X104260000Y-87186575D01*
X104260000Y-87013424D01*
X104232915Y-86842420D01*
X104179411Y-86677751D01*
X104100804Y-86523476D01*
X104021902Y-86414874D01*
X103590729Y-86846046D01*
X103560099Y-86792993D01*
X103467007Y-86699901D01*
X103413950Y-86669269D01*
X103845124Y-86238096D01*
X103736523Y-86159195D01*
X103582248Y-86080588D01*
X103417579Y-86027084D01*
X103246575Y-86000000D01*
X103073425Y-86000000D01*
X102902420Y-86027084D01*
X102737751Y-86080588D01*
X102583472Y-86159197D01*
X102474874Y-86238096D01*
X102906047Y-86669269D01*
X102852993Y-86699901D01*
X102759901Y-86792993D01*
X102729269Y-86846047D01*
X102298096Y-86414874D01*
X102219197Y-86523472D01*
X102140588Y-86677751D01*
X102087084Y-86842420D01*
X102060000Y-87013424D01*
X101011547Y-87013424D01*
X102195475Y-85829496D01*
X102249992Y-85801719D01*
X102265479Y-85800500D01*
X106134521Y-85800500D01*
X106192712Y-85819407D01*
G37*
%TD.AperFunction*%
%TD*%
M02*
