M48
; DRILL file {KiCad 9.0.4} date 2026-02-28T23:21:59-0600
; FORMAT={-:-/ absolute / inch / decimal}
; #@! TF.CreationDate,2026-02-28T23:21:59-06:00
; #@! TF.GenerationSoftware,Kicad,Pcbnew,9.0.4
; #@! TF.FileFunction,Plated,1,2,PTH
FMAT,2
INCH
; #@! TA.AperFunction,Plated,PTH,ViaDrill
T1C0.0118
; #@! TA.AperFunction,Plated,PTH,ViaDrill
T2C0.0236
; #@! TA.AperFunction,Plated,PTH,ComponentDrill
T3C0.0350
; #@! TA.AperFunction,Plated,PTH,ComponentDrill
T4C0.0394
; #@! TA.AperFunction,Plated,PTH,ComponentDrill
T5C0.0472
; #@! TA.AperFunction,Plated,PTH,ComponentDrill
T6C0.0630
; #@! TA.AperFunction,Plated,PTH,ComponentDrill
T7C0.1260
%
G90
G05
T1
X2.1614Y-2.7323
X2.2146Y-3.1496
X2.6772Y-2.687
X2.7677Y-3.1535
X2.8642Y-3.5433
X2.9232Y-4.0945
X2.9774Y-3.1722
X3.002Y-3.2185
X3.0354Y-3.1969
X3.1398Y-2.7362
X3.1988Y-3.6417
X3.2382Y-4.0945
X3.5079Y-3.5945
X3.5531Y-2.687
X3.6969Y-2.9252
X3.7008Y-3.9567
X3.7992Y-3.4961
X3.8661Y-3.685
X3.9567Y-2.687
X3.9921Y-3.3189
X4.0157Y-3.8976
X4.0709Y-3.4213
X4.1269Y-4.0049
X4.1536Y-3.813
X4.1732Y-1.5354
X4.189Y-3.6614
X4.2224Y-3.9961
X4.2283Y-3.3543
X4.2441Y-3.7913
X4.252Y-2.6417
X4.2598Y-3.1693
X4.2756Y-3.4843
X4.2795Y-3.1417
X4.2835Y-1.9961
X4.2913Y-3.815
X4.3307Y-2.4803
X4.3307Y-3.7087
X4.3465Y-3.4843
X4.378Y-2.7244
X4.4881Y-3.6734
X4.4882Y-3.0709
X4.4882Y-3.7677
X4.4921Y-3.8504
X4.5295Y-1.4976
X4.563Y-3.7087
X4.5709Y-3.3858
X4.6024Y-3.8819
X4.6063Y-3.1063
X4.6063Y-4.1043
X4.7126Y-1.8976
X4.7126Y-3.7756
X4.7598Y-3.5276
X4.8031Y-2.3622
X4.811Y-3.4705
X4.8543Y-3.8819
X4.8583Y-3.7835
X4.8819Y-2.7559
X4.8819Y-3.1102
X4.8819Y-3.752
X4.8858Y-3.8819
X4.8976Y-2.4961
X4.9173Y-3.8846
X4.9213Y-3.7008
X4.9626Y-3.8701
X4.9803Y-4.061
X5.0Y-3.4252
X5.0413Y-4.0276
X5.0748Y-3.8543
X5.0906Y-2.7008
X5.1092Y-4.0128
X5.1299Y-3.8228
X5.1496Y-3.874
X5.1575Y-3.7992
X5.1969Y-2.126
X5.1969Y-4.0945
X5.2126Y-2.5827
X5.315Y-2.7559
X5.315Y-3.1496
X5.315Y-3.5433
X5.315Y-3.8583
X5.378Y-2.3228
X5.6299Y-2.4016
X5.6299Y-2.7559
X5.6299Y-3.1496
X5.6299Y-3.5433
X5.6299Y-3.8583
T2
X2.9173Y-3.185
T3
X4.3818Y-2.6291
X4.3818Y-3.2291
X4.4818Y-2.6291
X4.4818Y-3.2291
X4.5818Y-2.6291
X4.5818Y-3.2291
X4.6818Y-2.6291
X4.6818Y-3.2291
X4.7818Y-2.6291
X4.7818Y-3.2291
X4.8818Y-2.6291
X4.8818Y-3.2291
X4.9818Y-2.6291
X4.9818Y-3.2291
T4
X2.7402Y-2.8504
X3.5142Y-3.4094
X3.5673Y-4.0866
X3.6024Y-3.563
X3.6142Y-3.4094
X3.6197Y-3.7362
X3.6496Y-2.7402
X3.6673Y-4.0866
X3.7142Y-3.4094
X3.7197Y-3.7362
X3.7673Y-4.0866
X3.8142Y-3.4094
X3.8197Y-3.7362
X3.8673Y-4.0866
X3.9142Y-3.4094
X3.9197Y-3.7362
X3.9673Y-4.0866
X4.0197Y-3.7362
X4.0673Y-4.0866
X4.1614Y-3.4291
X4.1673Y-4.0866
X4.6654Y-1.9803
T5
X2.2657Y-2.7504
X2.3642Y-2.7504
X2.4626Y-2.7504
X2.561Y-2.7504
X4.2953Y-1.8835
X4.3937Y-1.8835
X4.4921Y-1.8835
T6
X2.9465Y-2.7795
X2.9465Y-2.9134
X3.337Y-2.7795
X3.337Y-2.9134
T7
X4.4059Y-4.0244
X4.4059Y-2.1949
X5.6161Y-2.1949
X5.6165Y-4.0244
M30
