%TF.GenerationSoftware,KiCad,Pcbnew,9.0.4*%
%TF.CreationDate,2026-02-26T19:32:07-06:00*%
%TF.ProjectId,Wheels Board,57686565-6c73-4204-926f-6172642e6b69,rev?*%
%TF.SameCoordinates,Original*%
%TF.FileFunction,Soldermask,Top*%
%TF.FilePolarity,Negative*%
%FSLAX46Y46*%
G04 Gerber Fmt 4.6, Leading zero omitted, Abs format (unit mm)*
G04 Created by KiCad (PCBNEW 9.0.4) date 2026-02-26 19:32:07*
%MOMM*%
%LPD*%
G01*
G04 APERTURE LIST*
G04 Aperture macros list*
%AMRoundRect*
0 Rectangle with rounded corners*
0 $1 Rounding radius*
0 $2 $3 $4 $5 $6 $7 $8 $9 X,Y pos of 4 corners*
0 Add a 4 corners polygon primitive as box body*
4,1,4,$2,$3,$4,$5,$6,$7,$8,$9,$2,$3,0*
0 Add four circle primitives for the rounded corners*
1,1,$1+$1,$2,$3*
1,1,$1+$1,$4,$5*
1,1,$1+$1,$6,$7*
1,1,$1+$1,$8,$9*
0 Add four rect primitives between the rounded corners*
20,1,$1+$1,$2,$3,$4,$5,0*
20,1,$1+$1,$4,$5,$6,$7,0*
20,1,$1+$1,$6,$7,$8,$9,0*
20,1,$1+$1,$8,$9,$2,$3,0*%
G04 Aperture macros list end*
%ADD10C,0.000000*%
%ADD11RoundRect,0.237500X-0.237500X0.300000X-0.237500X-0.300000X0.237500X-0.300000X0.237500X0.300000X0*%
%ADD12RoundRect,0.237500X0.237500X-0.300000X0.237500X0.300000X-0.237500X0.300000X-0.237500X-0.300000X0*%
%ADD13R,1.700000X1.700000*%
%ADD14RoundRect,0.237500X0.237500X-0.250000X0.237500X0.250000X-0.237500X0.250000X-0.237500X-0.250000X0*%
%ADD15C,1.700000*%
%ADD16RoundRect,0.250000X-0.600000X0.850000X-0.600000X-0.850000X0.600000X-0.850000X0.600000X0.850000X0*%
%ADD17O,1.700000X2.200000*%
%ADD18RoundRect,0.102000X0.455000X0.610000X-0.455000X0.610000X-0.455000X-0.610000X0.455000X-0.610000X0*%
%ADD19RoundRect,0.237500X0.250000X0.237500X-0.250000X0.237500X-0.250000X-0.237500X0.250000X-0.237500X0*%
%ADD20RoundRect,0.237500X0.300000X0.237500X-0.300000X0.237500X-0.300000X-0.237500X0.300000X-0.237500X0*%
%ADD21RoundRect,0.237500X-0.237500X0.250000X-0.237500X-0.250000X0.237500X-0.250000X0.237500X0.250000X0*%
%ADD22RoundRect,0.237500X0.237500X-0.287500X0.237500X0.287500X-0.237500X0.287500X-0.237500X-0.287500X0*%
%ADD23RoundRect,0.152400X-0.609600X1.063600X-0.609600X-1.063600X0.609600X-1.063600X0.609600X1.063600X0*%
%ADD24C,1.524000*%
%ADD25RoundRect,0.152400X0.609600X-1.063600X0.609600X1.063600X-0.609600X1.063600X-0.609600X-1.063600X0*%
%ADD26RoundRect,0.237500X0.287500X0.237500X-0.287500X0.237500X-0.287500X-0.237500X0.287500X-0.237500X0*%
%ADD27R,0.650000X1.528000*%
%ADD28R,0.351536X0.576580*%
%ADD29R,0.576580X0.351536*%
%ADD30RoundRect,0.237500X-0.250000X-0.237500X0.250000X-0.237500X0.250000X0.237500X-0.250000X0.237500X0*%
%ADD31RoundRect,0.250000X0.250000X-0.250000X0.250000X0.250000X-0.250000X0.250000X-0.250000X-0.250000X0*%
%ADD32RoundRect,0.102000X0.275000X0.900000X-0.275000X0.900000X-0.275000X-0.900000X0.275000X-0.900000X0*%
%ADD33C,3.600000*%
%ADD34C,6.400000*%
%ADD35RoundRect,0.150000X-0.825000X-0.150000X0.825000X-0.150000X0.825000X0.150000X-0.825000X0.150000X0*%
%ADD36RoundRect,0.250000X1.750000X2.500000X-1.750000X2.500000X-1.750000X-2.500000X1.750000X-2.500000X0*%
%ADD37C,2.604000*%
%ADD38RoundRect,0.237500X-0.237500X0.287500X-0.237500X-0.287500X0.237500X-0.287500X0.237500X0.287500X0*%
G04 APERTURE END LIST*
D10*
%TO.C,LOGO1*%
G36*
X37836356Y-152505975D02*
G01*
X37861555Y-153639903D01*
X38882090Y-153653546D01*
X39902626Y-153667189D01*
X39902626Y-153918129D01*
X39902626Y-154169070D01*
X38566313Y-154169070D01*
X37230000Y-154169070D01*
X37243396Y-152770558D01*
X37256793Y-151372046D01*
X37533975Y-151372046D01*
X37811158Y-151372046D01*
X37836356Y-152505975D01*
G37*
G36*
X50701435Y-152019268D02*
G01*
X50701435Y-152246054D01*
X49920284Y-152246054D01*
X49139133Y-152246054D01*
X49139133Y-152498038D01*
X49139133Y-152750022D01*
X49920284Y-152750022D01*
X50701435Y-152750022D01*
X50701435Y-153455578D01*
X50701435Y-154161133D01*
X49693498Y-154161133D01*
X48685562Y-154161133D01*
X48685562Y-153934348D01*
X48685562Y-153707562D01*
X49466713Y-153707562D01*
X50247863Y-153707562D01*
X50247863Y-153455578D01*
X50247863Y-153203594D01*
X49466713Y-153203594D01*
X48685562Y-153203594D01*
X48685562Y-152498038D01*
X48685562Y-151792483D01*
X49693498Y-151792483D01*
X50701435Y-151792483D01*
X50701435Y-152019268D01*
G37*
G36*
X43712390Y-151355940D02*
G01*
X43909174Y-151372046D01*
X43922570Y-152770558D01*
X43935966Y-154169070D01*
X43609240Y-154169070D01*
X43282514Y-154169070D01*
X43268265Y-153602106D01*
X43254015Y-153035141D01*
X42159544Y-153021564D01*
X41065072Y-153007986D01*
X41050813Y-153575929D01*
X41036555Y-154143871D01*
X40720773Y-154158896D01*
X40404991Y-154173921D01*
X40418392Y-152772984D01*
X40431793Y-151372046D01*
X40688253Y-151357095D01*
X40887352Y-151361931D01*
X40995925Y-151404490D01*
X41001290Y-151410314D01*
X41026837Y-151487643D01*
X41049613Y-151640313D01*
X41066438Y-151842871D01*
X41072409Y-151979631D01*
X41086951Y-152480776D01*
X42170483Y-152480776D01*
X43254015Y-152480776D01*
X43268314Y-151939544D01*
X43277623Y-151681625D01*
X43297333Y-151508849D01*
X43339343Y-151405579D01*
X43415552Y-151356175D01*
X43537860Y-151345000D01*
X43712390Y-151355940D01*
G37*
G36*
X45941951Y-151351950D02*
G01*
X46265079Y-151355794D01*
X46733287Y-151364263D01*
X47111217Y-151376939D01*
X47409385Y-151397926D01*
X47638306Y-151431327D01*
X47808496Y-151481248D01*
X47930470Y-151551791D01*
X48014744Y-151647062D01*
X48071834Y-151771164D01*
X48112255Y-151928202D01*
X48140914Y-152087926D01*
X48151343Y-152290384D01*
X48127750Y-152512875D01*
X48077257Y-152721418D01*
X48006984Y-152882036D01*
X47962933Y-152937230D01*
X47898692Y-153003146D01*
X47898859Y-153055452D01*
X47965850Y-153135642D01*
X47975061Y-153145455D01*
X48031125Y-153220421D01*
X48067792Y-153317845D01*
X48090878Y-153462704D01*
X48106196Y-153679975D01*
X48108000Y-153716499D01*
X48129638Y-154169070D01*
X47795894Y-154169070D01*
X47462150Y-154169070D01*
X47462150Y-153873485D01*
X47449904Y-153666783D01*
X47407460Y-153523421D01*
X47357698Y-153445112D01*
X47253247Y-153312324D01*
X46299365Y-153312324D01*
X45345483Y-153312324D01*
X45345483Y-153740697D01*
X45345483Y-154169070D01*
X45017904Y-154169070D01*
X44690324Y-154169070D01*
X44690324Y-152784117D01*
X44690324Y-152321186D01*
X44690324Y-151901213D01*
X45345483Y-151901213D01*
X45345483Y-152321186D01*
X45349750Y-152518723D01*
X45361104Y-152676444D01*
X45377378Y-152768082D01*
X45383281Y-152779169D01*
X45443381Y-152790269D01*
X45587806Y-152798274D01*
X45800126Y-152802831D01*
X46063907Y-152803589D01*
X46362720Y-152800196D01*
X46364281Y-152800168D01*
X46701044Y-152793077D01*
X46951527Y-152784680D01*
X47130243Y-152773474D01*
X47251703Y-152757955D01*
X47330421Y-152736621D01*
X47380911Y-152707967D01*
X47397415Y-152693163D01*
X47462757Y-152575032D01*
X47486969Y-152383567D01*
X47487348Y-152348532D01*
X47477353Y-152179199D01*
X47438972Y-152072266D01*
X47368372Y-151997554D01*
X47318282Y-151963616D01*
X47253985Y-151938671D01*
X47160376Y-151921357D01*
X47022350Y-151910317D01*
X46824802Y-151904193D01*
X46552626Y-151901624D01*
X46297440Y-151901213D01*
X45345483Y-151901213D01*
X44690324Y-151901213D01*
X44690324Y-151399165D01*
X44816170Y-151367579D01*
X44899326Y-151359796D01*
X45068367Y-151354220D01*
X45308409Y-151350973D01*
X45604566Y-151350176D01*
X45941951Y-151351950D01*
G37*
%TD*%
D11*
%TO.C,C9*%
X84600000Y-88424998D03*
X84600000Y-90150000D03*
%TD*%
D12*
%TO.C,C8*%
X77489000Y-89534802D03*
X77489000Y-87809800D03*
%TD*%
D13*
%TO.C,J11*%
X118500000Y-50300000D03*
%TD*%
D14*
%TO.C,R2*%
X86800000Y-81212500D03*
X86800000Y-79387500D03*
%TD*%
D13*
%TO.C,J7*%
X90610000Y-103800000D03*
D15*
X93150000Y-103800000D03*
X95689999Y-103800000D03*
X98230000Y-103800000D03*
X100770000Y-103800000D03*
X103310000Y-103800000D03*
X105850000Y-103800000D03*
%TD*%
D16*
%TO.C,J6*%
X65050000Y-69860000D03*
D17*
X62550000Y-69860000D03*
X60050000Y-69860000D03*
X57550000Y-69860000D03*
%TD*%
D13*
%TO.C,J2*%
X91500000Y-90500000D03*
%TD*%
D18*
%TO.C,D7*%
X102464999Y-69000000D03*
X105735001Y-69000000D03*
%TD*%
D13*
%TO.C,J12*%
X102100000Y-94900000D03*
D15*
X99560000Y-94900000D03*
X97020001Y-94900000D03*
X94480000Y-94900000D03*
X91940000Y-94900000D03*
%TD*%
D19*
%TO.C,R4*%
X113412500Y-86600000D03*
X111587500Y-86600000D03*
%TD*%
D20*
%TO.C,C4*%
X109600000Y-91500000D03*
X107874998Y-91500000D03*
%TD*%
D13*
%TO.C,J9*%
X92700000Y-69600000D03*
%TD*%
D14*
%TO.C,R10*%
X80250002Y-82862499D03*
X80250002Y-81037499D03*
%TD*%
D21*
%TO.C,R1*%
X88900000Y-72825000D03*
X88900000Y-74650000D03*
%TD*%
D20*
%TO.C,C10*%
X74962501Y-95200000D03*
X73237499Y-95200000D03*
%TD*%
D22*
%TO.C,D2*%
X88900000Y-71174999D03*
X88900000Y-69425001D03*
%TD*%
D23*
%TO.C,U2*%
X111298500Y-82855000D03*
D24*
X111298500Y-82020000D03*
D23*
X113838500Y-82855000D03*
D24*
X113838500Y-82020000D03*
D23*
X116378500Y-82855000D03*
D24*
X116378500Y-82020000D03*
D23*
X118918500Y-82855000D03*
D24*
X118918500Y-82020000D03*
D23*
X121458500Y-82855000D03*
D24*
X121458500Y-82020000D03*
D23*
X123998500Y-82855000D03*
D24*
X123998500Y-82020000D03*
D23*
X126538500Y-82855000D03*
D24*
X126538500Y-82020000D03*
X126538500Y-66780000D03*
D25*
X126538500Y-65945000D03*
D24*
X123998500Y-66780000D03*
D25*
X123998500Y-65945000D03*
D24*
X121458500Y-66780000D03*
D25*
X121458500Y-65945000D03*
D24*
X118918500Y-66780000D03*
D25*
X118918500Y-65945000D03*
D24*
X116378500Y-66780000D03*
D25*
X116378500Y-65945000D03*
D24*
X113838500Y-66780000D03*
D25*
X113838500Y-65945000D03*
D24*
X111298500Y-66780000D03*
D25*
X111298500Y-65945000D03*
%TD*%
D26*
%TO.C,D5*%
X113374999Y-85100000D03*
X111625001Y-85100000D03*
%TD*%
D12*
%TO.C,C6*%
X83400000Y-82812500D03*
X83400000Y-81087498D03*
%TD*%
D27*
%TO.C,U4*%
X82955001Y-84639000D03*
X81685001Y-84639000D03*
X80415001Y-84639000D03*
X79145001Y-84639000D03*
X79145001Y-90061000D03*
X80415001Y-90061000D03*
X81685001Y-90061000D03*
X82955001Y-90061000D03*
%TD*%
D20*
%TO.C,C12*%
X74962501Y-96700000D03*
X73237499Y-96700000D03*
%TD*%
D28*
%TO.C,U1*%
X112887500Y-90689700D03*
X112387499Y-90689700D03*
X111887499Y-90689700D03*
X111387498Y-90689700D03*
D29*
X111181199Y-91400001D03*
X111181199Y-91900000D03*
X111181199Y-92399999D03*
D28*
X111387498Y-93110300D03*
X111887499Y-93110300D03*
X112387499Y-93110300D03*
X112887500Y-93110300D03*
D29*
X113093799Y-92399999D03*
X113093799Y-91900000D03*
X113093799Y-91400001D03*
%TD*%
D12*
%TO.C,C7*%
X78749999Y-82837501D03*
X78749999Y-81112499D03*
%TD*%
D30*
%TO.C,R7*%
X111724999Y-94600000D03*
X113549999Y-94600000D03*
%TD*%
D31*
%TO.C,D6*%
X86400000Y-90199998D03*
X86400000Y-87700000D03*
%TD*%
D13*
%TO.C,J10*%
X69600000Y-72400000D03*
%TD*%
D12*
%TO.C,C5*%
X81800000Y-82812500D03*
X81800000Y-81087498D03*
%TD*%
D20*
%TO.C,C3*%
X109600000Y-93100000D03*
X107874998Y-93100000D03*
%TD*%
D32*
%TO.C,J4*%
X122489600Y-104370000D03*
X122489600Y-100070000D03*
X123289600Y-104370000D03*
X123289600Y-100070000D03*
X124089600Y-104370001D03*
X124089600Y-100069999D03*
X124889600Y-104370000D03*
X124889600Y-100070000D03*
X125689599Y-104370000D03*
X125689599Y-100070000D03*
X126489597Y-104370000D03*
X126489597Y-100070000D03*
X127289600Y-104370000D03*
X127289600Y-100070000D03*
X128089601Y-104370000D03*
X128089601Y-100070000D03*
X128889600Y-104370000D03*
X128889600Y-100070000D03*
X129689600Y-104370001D03*
X129689600Y-100069999D03*
X130489600Y-104370000D03*
X130489600Y-100070000D03*
X131289600Y-104370000D03*
X131289600Y-100070000D03*
D33*
X142659600Y-102220000D03*
D34*
X142659600Y-102220000D03*
D33*
X111909599Y-102220000D03*
D34*
X111909599Y-102220000D03*
D33*
X111909600Y-55749999D03*
D34*
X111909600Y-55749999D03*
D33*
X142649600Y-55750000D03*
D34*
X142649600Y-55750000D03*
%TD*%
D12*
%TO.C,C2*%
X92700000Y-75362501D03*
X92700000Y-73637499D03*
%TD*%
D30*
%TO.C,R8*%
X111312499Y-89100000D03*
X113137499Y-89100000D03*
%TD*%
D35*
%TO.C,U5*%
X127425000Y-58295000D03*
X127425000Y-59565000D03*
X127425000Y-60835000D03*
X127425000Y-62105000D03*
X132375000Y-62105000D03*
X132375000Y-60835000D03*
X132375000Y-59565000D03*
X132375000Y-58295000D03*
%TD*%
D13*
%TO.C,J3*%
X108860000Y-47385000D03*
D15*
X111400000Y-47385000D03*
X113939999Y-47385000D03*
%TD*%
D13*
%TO.C,J8*%
X105700000Y-87100000D03*
%TD*%
%TO.C,J1*%
X99420000Y-86600000D03*
D15*
X96880000Y-86600000D03*
X94340001Y-86600000D03*
X91800000Y-86600000D03*
X89260000Y-86600000D03*
%TD*%
D26*
%TO.C,D3*%
X86774999Y-82800000D03*
X85025001Y-82800000D03*
%TD*%
D20*
%TO.C,C1*%
X109600000Y-89900000D03*
X107874998Y-89900000D03*
%TD*%
%TO.C,C11*%
X74962501Y-98200000D03*
X73237499Y-98200000D03*
%TD*%
D36*
%TO.C,L1*%
X86499999Y-97487499D03*
X77999999Y-97487499D03*
%TD*%
D21*
%TO.C,R3*%
X103788604Y-82722677D03*
X103788604Y-84547677D03*
%TD*%
D37*
%TO.C,F1*%
X74840000Y-70600000D03*
X74840000Y-74000000D03*
X84760000Y-70600000D03*
X84760000Y-74000000D03*
%TD*%
D38*
%TO.C,D4*%
X105344239Y-82760178D03*
X105344239Y-84510176D03*
%TD*%
D14*
%TO.C,R9*%
X75939600Y-87832199D03*
X75939600Y-86007199D03*
%TD*%
M02*
