%TF.GenerationSoftware,KiCad,Pcbnew,9.0.4*%
%TF.CreationDate,2026-02-26T19:32:07-06:00*%
%TF.ProjectId,Wheels Board,57686565-6c73-4204-926f-6172642e6b69,rev?*%
%TF.SameCoordinates,Original*%
%TF.FileFunction,Copper,L2,Bot*%
%TF.FilePolarity,Positive*%
%FSLAX46Y46*%
G04 Gerber Fmt 4.6, Leading zero omitted, Abs format (unit mm)*
G04 Created by KiCad (PCBNEW 9.0.4) date 2026-02-26 19:32:07*
%MOMM*%
%LPD*%
G01*
G04 APERTURE LIST*
G04 Aperture macros list*
%AMRoundRect*
0 Rectangle with rounded corners*
0 $1 Rounding radius*
0 $2 $3 $4 $5 $6 $7 $8 $9 X,Y pos of 4 corners*
0 Add a 4 corners polygon primitive as box body*
4,1,4,$2,$3,$4,$5,$6,$7,$8,$9,$2,$3,0*
0 Add four circle primitives for the rounded corners*
1,1,$1+$1,$2,$3*
1,1,$1+$1,$4,$5*
1,1,$1+$1,$6,$7*
1,1,$1+$1,$8,$9*
0 Add four rect primitives between the rounded corners*
20,1,$1+$1,$2,$3,$4,$5,0*
20,1,$1+$1,$4,$5,$6,$7,0*
20,1,$1+$1,$6,$7,$8,$9,0*
20,1,$1+$1,$8,$9,$2,$3,0*%
G04 Aperture macros list end*
%TA.AperFunction,ComponentPad*%
%ADD10R,1.700000X1.700000*%
%TD*%
%TA.AperFunction,ComponentPad*%
%ADD11C,1.700000*%
%TD*%
%TA.AperFunction,ComponentPad*%
%ADD12RoundRect,0.250000X-0.600000X0.850000X-0.600000X-0.850000X0.600000X-0.850000X0.600000X0.850000X0*%
%TD*%
%TA.AperFunction,ComponentPad*%
%ADD13O,1.700000X2.200000*%
%TD*%
%TA.AperFunction,ComponentPad*%
%ADD14C,1.524000*%
%TD*%
%TA.AperFunction,ComponentPad*%
%ADD15C,3.600000*%
%TD*%
%TA.AperFunction,ConnectorPad*%
%ADD16C,6.400000*%
%TD*%
%TA.AperFunction,ComponentPad*%
%ADD17C,2.400000*%
%TD*%
%TA.AperFunction,ViaPad*%
%ADD18C,0.600000*%
%TD*%
%TA.AperFunction,ViaPad*%
%ADD19C,0.900000*%
%TD*%
%TA.AperFunction,Conductor*%
%ADD20C,0.500000*%
%TD*%
%TA.AperFunction,Conductor*%
%ADD21C,0.200000*%
%TD*%
G04 APERTURE END LIST*
D10*
%TO.P,J11,1,Pin_1*%
%TO.N,/HALL_OUT*%
X118500000Y-50300000D03*
%TD*%
%TO.P,J7,1,Pin_1*%
%TO.N,GND*%
X90610000Y-103800000D03*
D11*
%TO.P,J7,2,Pin_2*%
%TO.N,/IMU_INT1*%
X93150000Y-103800000D03*
%TO.P,J7,3,Pin_3*%
%TO.N,/IMU_INT2*%
X95689999Y-103800000D03*
%TO.P,J7,4,Pin_4*%
%TO.N,/IMU_SPI_MISO*%
X98230000Y-103800000D03*
%TO.P,J7,5,Pin_5*%
%TO.N,/IMU_SPI_MOSI*%
X100770000Y-103800000D03*
%TO.P,J7,6,Pin_6*%
%TO.N,/IMU_SPI_CLK*%
X103310000Y-103800000D03*
%TO.P,J7,7,Pin_7*%
%TO.N,/IMU_SPI_SS*%
X105850000Y-103800000D03*
%TD*%
D12*
%TO.P,J6,1,Pin_1*%
%TO.N,+24V*%
X65050000Y-69860000D03*
D13*
%TO.P,J6,2,Pin_2*%
%TO.N,/CAN_H*%
X62550000Y-69860000D03*
%TO.P,J6,3,Pin_3*%
%TO.N,GND*%
X60050000Y-69860000D03*
%TO.P,J6,4,Pin_4*%
%TO.N,/CAN_L*%
X57550000Y-69860000D03*
%TD*%
D10*
%TO.P,J2,1,Pin_1*%
%TO.N,+24V*%
X91500000Y-90500000D03*
%TD*%
%TO.P,J12,1,Pin_1*%
%TO.N,/ESP_UART_RX*%
X102100000Y-94900000D03*
D11*
%TO.P,J12,2,Pin_2*%
%TO.N,/ESP_UART_TX*%
X99560000Y-94900000D03*
%TO.P,J12,3,Pin_3*%
%TO.N,/EXTRA_GPIO1*%
X97020001Y-94900000D03*
%TO.P,J12,4,Pin_4*%
%TO.N,/EXTRA_GPIO2*%
X94480000Y-94900000D03*
%TO.P,J12,5,Pin_5*%
%TO.N,GND*%
X91940000Y-94900000D03*
%TD*%
D10*
%TO.P,J9,1,Pin_1*%
%TO.N,+5V*%
X92700000Y-69600000D03*
%TD*%
D14*
%TO.P,U2,1,GPIO1_A0_D0*%
%TO.N,/XIAO_HEARTBEAT_LED*%
X111298500Y-82020000D03*
%TO.P,U2,2,GPIO2_A1_D1*%
%TO.N,/EXTRA_GPIO1*%
X113838500Y-82020000D03*
%TO.P,U2,3,GPIO3_A2_D2*%
%TO.N,/EXTRA_GPIO2*%
X116378500Y-82020000D03*
%TO.P,U2,4,GPIO4_A3_D3*%
%TO.N,/ESP_SPI_SS*%
X118918500Y-82020000D03*
%TO.P,U2,5,GPIO5_A4_D4_SDA*%
%TO.N,unconnected-(U2-GPIO5_A4_D4_SDA-Pad5)*%
X121458500Y-82020000D03*
%TO.P,U2,6,GPIO6_A5_D5_SCL*%
%TO.N,unconnected-(U2-GPIO6_A5_D5_SCL-Pad6)_1*%
X123998500Y-82020000D03*
%TO.P,U2,7,GPIO43_A6_D6_TX*%
%TO.N,/ESP_UART_TX*%
X126538500Y-82020000D03*
%TO.P,U2,8,GPIO44_D7_RX*%
%TO.N,/ESP_UART_RX*%
X126538500Y-66780000D03*
%TO.P,U2,9,GPIO7_A8_D8_SCK*%
%TO.N,/ESP_SPI_CLK*%
X123998500Y-66780000D03*
%TO.P,U2,10,GPIO8_A9_D9_MISO*%
%TO.N,/ESP_SPI_MISO*%
X121458500Y-66780000D03*
%TO.P,U2,11,GPIO9_A10_D10_MOSI*%
%TO.N,/ESP_SPI_MOSI*%
X118918500Y-66780000D03*
%TO.P,U2,12,3V3*%
%TO.N,unconnected-(U2-3V3-Pad12)*%
X116378500Y-66780000D03*
%TO.P,U2,13,GND*%
%TO.N,GND*%
X113838500Y-66780000D03*
%TO.P,U2,14,5V*%
%TO.N,Net-(U2-5V)*%
X111298500Y-66780000D03*
%TD*%
D10*
%TO.P,J10,1,Pin_1*%
%TO.N,GND*%
X69600000Y-72400000D03*
%TD*%
D15*
%TO.P,J4,25,MNT*%
%TO.N,unconnected-(J4-MNT-Pad25)*%
X142659600Y-102220000D03*
D16*
%TO.N,unconnected-(J4-MNT-Pad25)_2*%
X142659600Y-102220000D03*
D15*
%TO.P,J4,26,MNT*%
%TO.N,unconnected-(J4-MNT-Pad26)_2*%
X111909599Y-102220000D03*
D16*
%TO.N,unconnected-(J4-MNT-Pad26)*%
X111909599Y-102220000D03*
D15*
%TO.P,J4,27,MNT*%
%TO.N,unconnected-(J4-MNT-Pad27)_2*%
X111909600Y-55749999D03*
D16*
%TO.N,unconnected-(J4-MNT-Pad27)_1*%
X111909600Y-55749999D03*
D15*
%TO.P,J4,28,MNT*%
%TO.N,unconnected-(J4-MNT-Pad28)_2*%
X142649600Y-55750000D03*
D16*
%TO.N,unconnected-(J4-MNT-Pad28)*%
X142649600Y-55750000D03*
%TD*%
D10*
%TO.P,J3,1,Pin_1*%
%TO.N,GND*%
X108860000Y-47385000D03*
D11*
%TO.P,J3,2,Pin_2*%
%TO.N,Net-(J3-Pin_2)*%
X111400000Y-47385000D03*
%TO.P,J3,3,Pin_3*%
%TO.N,/HALL_OUT*%
X113939999Y-47385000D03*
%TD*%
D10*
%TO.P,J8,1,Pin_1*%
%TO.N,+3.3V*%
X105700000Y-87100000D03*
%TD*%
%TO.P,J1,1,Pin_1*%
%TO.N,/ESP_SPI_SS*%
X99420000Y-86600000D03*
D11*
%TO.P,J1,2,Pin_2*%
%TO.N,/ESP_SPI_CLK*%
X96880000Y-86600000D03*
%TO.P,J1,3,Pin_3*%
%TO.N,/ESP_SPI_MISO*%
X94340001Y-86600000D03*
%TO.P,J1,4,Pin_4*%
%TO.N,/ESP_SPI_MOSI*%
X91800000Y-86600000D03*
%TO.P,J1,5,Pin_5*%
%TO.N,GND*%
X89260000Y-86600000D03*
%TD*%
D17*
%TO.P,F1,1*%
%TO.N,+5V*%
X74840000Y-70600000D03*
X74840000Y-74000000D03*
%TO.P,F1,2*%
%TO.N,Net-(J3-Pin_2)*%
X84760000Y-70600000D03*
X84760000Y-74000000D03*
%TD*%
D18*
%TO.N,+3.3V*%
X129300000Y-68600000D03*
X115900000Y-94200000D03*
X110000000Y-94200000D03*
X132400000Y-65600000D03*
%TO.N,GND*%
X110000000Y-63000000D03*
X120900000Y-89600000D03*
X108800000Y-50700000D03*
X125000000Y-94000000D03*
X68000000Y-68250000D03*
X79750000Y-69500000D03*
X135000000Y-70000000D03*
X90250000Y-68250000D03*
X111200000Y-69200000D03*
X94000000Y-100500000D03*
X76250000Y-81750000D03*
X108000000Y-67100000D03*
X98200000Y-93600000D03*
X106000000Y-39000000D03*
X54900000Y-69400000D03*
X135000000Y-90000000D03*
X114000000Y-95700000D03*
X135000000Y-98000000D03*
X117000000Y-104250000D03*
X124000000Y-70000000D03*
X81250000Y-92500000D03*
X114000000Y-78000000D03*
X106400000Y-93000000D03*
X135000000Y-80000000D03*
X116100000Y-86000000D03*
X127000000Y-87000000D03*
X103400000Y-86900000D03*
X100500000Y-68250000D03*
X102000000Y-99000000D03*
X135600000Y-60400000D03*
X72750000Y-90000000D03*
X143000000Y-70000000D03*
X143000000Y-61000000D03*
X96500000Y-88800000D03*
X74250000Y-104000000D03*
X115048633Y-38039182D03*
X124000000Y-79000000D03*
X143000000Y-90000000D03*
X119700000Y-48200000D03*
X132000000Y-54000000D03*
X143000000Y-98000000D03*
X70300000Y-80100000D03*
X107250000Y-101500000D03*
X93900000Y-74300000D03*
X56250000Y-80000000D03*
X82250000Y-104000000D03*
X122000000Y-60000000D03*
X89100000Y-91300000D03*
X143000000Y-80000000D03*
%TO.N,+24V*%
X107400000Y-85200000D03*
X131000000Y-96500000D03*
X122200000Y-88151473D03*
X101400000Y-84300000D03*
D19*
%TO.N,+5V*%
X74100000Y-80900000D03*
D18*
%TO.N,/ESP_SPI_CLK*%
X124400000Y-63400000D03*
%TO.N,/ESP_SPI_SS*%
X117000000Y-78900000D03*
%TO.N,/IMU_SPI_SS*%
X113996900Y-93303100D03*
X104824265Y-101724265D03*
%TO.N,/IMU_SPI_MISO*%
X126050000Y-98300000D03*
X129774265Y-101925735D03*
X107800000Y-96300000D03*
X119700000Y-95900000D03*
%TO.N,/IMU_SPI_CLK*%
X114100000Y-97800000D03*
X132000000Y-104000000D03*
%TO.N,/IMU_SPI_MOSI*%
X124900000Y-98669998D03*
X128048527Y-102300000D03*
X109000000Y-96900000D03*
%TO.N,/ESP_UART_TX*%
X124100000Y-98600000D03*
X124000000Y-95300000D03*
%TO.N,/EXTRA_GPIO2*%
X108700000Y-79800000D03*
%TO.N,/IMU_INT1*%
X116900000Y-98600000D03*
X108600000Y-88500000D03*
X110400000Y-88500000D03*
X105500735Y-96850735D03*
%TO.N,/ESP_UART_RX*%
X123300000Y-98600000D03*
X123400000Y-96100000D03*
%TO.N,/EXTRA_GPIO1*%
X108200000Y-80500000D03*
%TO.N,/CAN_L*%
X75625735Y-80574265D03*
X130300000Y-97100000D03*
%TO.N,/CAN_H*%
X130800000Y-98400000D03*
X77100000Y-81200000D03*
%TO.N,/HALL_PSOM*%
X128900000Y-97900000D03*
X126500000Y-103148527D03*
%TD*%
D20*
%TO.N,+3.3V*%
X115900000Y-94200000D02*
X110000000Y-94200000D01*
X129400000Y-68600000D02*
X132400000Y-65600000D01*
X129300000Y-68600000D02*
X129400000Y-68600000D01*
%TO.N,+24V*%
X101400000Y-84300000D02*
X106500000Y-84300000D01*
X131000000Y-96500000D02*
X122651473Y-88151473D01*
X106500000Y-84300000D02*
X107400000Y-85200000D01*
X122651473Y-88151473D02*
X122200000Y-88151473D01*
%TO.N,+5V*%
X74840000Y-77860000D02*
X74840000Y-74000000D01*
X74100000Y-78600000D02*
X74840000Y-77860000D01*
X74100000Y-80900000D02*
X74100000Y-78600000D01*
D21*
%TO.N,/ESP_SPI_CLK*%
X124400000Y-63400000D02*
X124400000Y-63700000D01*
X123998500Y-64101500D02*
X123998500Y-66780000D01*
X124400000Y-63700000D02*
X123998500Y-64101500D01*
%TO.N,/ESP_SPI_SS*%
X117000000Y-78900000D02*
X118918500Y-80818500D01*
X118918500Y-80818500D02*
X118918500Y-82020000D01*
%TO.N,/IMU_SPI_SS*%
X113693800Y-93000000D02*
X108501527Y-93000000D01*
X113996900Y-93303100D02*
X113693800Y-93000000D01*
X108501527Y-93000000D02*
X104824265Y-96677262D01*
X104824265Y-96677262D02*
X104824265Y-101724265D01*
%TO.N,/IMU_SPI_MISO*%
X129774265Y-101674265D02*
X129774265Y-101925735D01*
X119700000Y-95900000D02*
X118700000Y-94900000D01*
X126050000Y-98300000D02*
X126400000Y-98300000D01*
X126400000Y-98300000D02*
X129774265Y-101674265D01*
X118700000Y-94900000D02*
X109200000Y-94900000D01*
X109200000Y-94900000D02*
X107800000Y-96300000D01*
%TO.N,/IMU_SPI_CLK*%
X114600000Y-97800000D02*
X116402000Y-99602000D01*
X116402000Y-99602000D02*
X123152000Y-99602000D01*
X125900000Y-102898584D02*
X125899000Y-102899584D01*
X125900000Y-102350000D02*
X125900000Y-102898584D01*
X125899000Y-102899584D02*
X125899000Y-103397470D01*
X126251057Y-103749527D02*
X126748943Y-103749527D01*
X127098470Y-103400000D02*
X131400000Y-103400000D01*
X131400000Y-103400000D02*
X132000000Y-104000000D01*
X114100000Y-97800000D02*
X114600000Y-97800000D01*
X123152000Y-99602000D02*
X125900000Y-102350000D01*
X125899000Y-103397470D02*
X126251057Y-103749527D01*
X126748943Y-103749527D02*
X127098470Y-103400000D01*
%TO.N,/IMU_SPI_MOSI*%
X126250000Y-102000000D02*
X123451000Y-99201000D01*
X123900000Y-99201000D02*
X124368998Y-99201000D01*
X123900000Y-99201000D02*
X123250000Y-99201000D01*
X128048527Y-102300000D02*
X127748527Y-102000000D01*
X127748527Y-102000000D02*
X126250000Y-102000000D01*
X114267100Y-96900000D02*
X109000000Y-96900000D01*
X123451000Y-99201000D02*
X123250000Y-99201000D01*
X123250000Y-99201000D02*
X116568100Y-99201000D01*
X124368998Y-99201000D02*
X124900000Y-98669998D01*
X116568100Y-99201000D02*
X114267100Y-96900000D01*
%TO.N,/ESP_UART_TX*%
X118200000Y-90000000D02*
X123500000Y-95300000D01*
X123500000Y-95300000D02*
X124000000Y-95300000D01*
X124000000Y-95300000D02*
X124100000Y-95400000D01*
X104339999Y-90000000D02*
X118200000Y-90000000D01*
X124100000Y-95400000D02*
X124100000Y-98600000D01*
X99439999Y-94900000D02*
X104339999Y-90000000D01*
%TO.N,/EXTRA_GPIO2*%
X108700000Y-79800000D02*
X114158500Y-79800000D01*
X114158500Y-79800000D02*
X116378500Y-82020000D01*
%TO.N,/IMU_INT1*%
X114433200Y-96499000D02*
X113499000Y-96499000D01*
X109249943Y-96300000D02*
X109248943Y-96299000D01*
X113499000Y-96499000D02*
X113300000Y-96300000D01*
X108750057Y-96300000D02*
X108649943Y-96300000D01*
X109248943Y-96299000D02*
X108751057Y-96299000D01*
X105551000Y-96901000D02*
X105500735Y-96850735D01*
X108600000Y-88500000D02*
X110400000Y-88500000D01*
X108048943Y-96901000D02*
X105551000Y-96901000D01*
X116534200Y-98600000D02*
X114433200Y-96499000D01*
X108751057Y-96299000D02*
X108750057Y-96300000D01*
X108649943Y-96300000D02*
X108048943Y-96901000D01*
X116900000Y-98600000D02*
X116534200Y-98600000D01*
X113300000Y-96300000D02*
X109249943Y-96300000D01*
%TO.N,/ESP_UART_RX*%
X101979999Y-93120001D02*
X104700000Y-90400000D01*
X123300000Y-96200000D02*
X123300000Y-98600000D01*
X117700000Y-90400000D02*
X123400000Y-96100000D01*
X101979999Y-94900000D02*
X101979999Y-93120001D01*
X123400000Y-96100000D02*
X123300000Y-96200000D01*
X104700000Y-90400000D02*
X117700000Y-90400000D01*
%TO.N,/EXTRA_GPIO1*%
X108200000Y-80500000D02*
X112318500Y-80500000D01*
X112318500Y-80500000D02*
X113838500Y-82020000D01*
%TO.N,/CAN_L*%
X106100000Y-85300000D02*
X107800000Y-87000000D01*
X75625735Y-80574265D02*
X77474265Y-80574265D01*
X77474265Y-80574265D02*
X82200000Y-85300000D01*
X107800000Y-87000000D02*
X120200000Y-87000000D01*
X82200000Y-85300000D02*
X106100000Y-85300000D01*
X120200000Y-87000000D02*
X130300000Y-97100000D01*
%TO.N,/CAN_H*%
X107100000Y-88600000D02*
X108100000Y-87600000D01*
X119900000Y-87600000D02*
X130700000Y-98400000D01*
X100900000Y-88000000D02*
X101500000Y-88600000D01*
X77400000Y-81200000D02*
X84200000Y-88000000D01*
X108100000Y-87600000D02*
X119900000Y-87600000D01*
X130700000Y-98400000D02*
X130800000Y-98400000D01*
X101500000Y-88600000D02*
X107100000Y-88600000D01*
X77100000Y-81200000D02*
X77400000Y-81200000D01*
X84200000Y-88000000D02*
X100900000Y-88000000D01*
%TO.N,/HALL_PSOM*%
X126500000Y-103148527D02*
X126747527Y-102901000D01*
X130750000Y-102500000D02*
X130750000Y-99350000D01*
X130349000Y-102901000D02*
X130375000Y-102875000D01*
X130375000Y-102875000D02*
X130750000Y-102500000D01*
X130750000Y-99350000D02*
X129489600Y-98089600D01*
X126747527Y-102901000D02*
X130349000Y-102901000D01*
X129089600Y-98089600D02*
X128900000Y-97900000D01*
X129489600Y-98089600D02*
X129089600Y-98089600D01*
%TD*%
%TA.AperFunction,Conductor*%
%TO.N,GND*%
G36*
X105992712Y-85619407D02*
G01*
X106004525Y-85629496D01*
X106255525Y-85880496D01*
X106283302Y-85935013D01*
X106273731Y-85995445D01*
X106230466Y-86038710D01*
X106185521Y-86049500D01*
X104830252Y-86049500D01*
X104830251Y-86049500D01*
X104830241Y-86049501D01*
X104771772Y-86061132D01*
X104771766Y-86061134D01*
X104705451Y-86105445D01*
X104705445Y-86105451D01*
X104661134Y-86171766D01*
X104661132Y-86171772D01*
X104649501Y-86230241D01*
X104649500Y-86230253D01*
X104649500Y-87969746D01*
X104649501Y-87969758D01*
X104661132Y-88028227D01*
X104661134Y-88028233D01*
X104703863Y-88092180D01*
X104705448Y-88094552D01*
X104739401Y-88117239D01*
X104740817Y-88118185D01*
X104778696Y-88166235D01*
X104781098Y-88227373D01*
X104747105Y-88278247D01*
X104689701Y-88299424D01*
X104685815Y-88299500D01*
X101665479Y-88299500D01*
X101607288Y-88280593D01*
X101595475Y-88270504D01*
X101353198Y-88028227D01*
X101084511Y-87759540D01*
X101036245Y-87731674D01*
X101015989Y-87719979D01*
X101015986Y-87719978D01*
X100939564Y-87699500D01*
X100939562Y-87699500D01*
X100529644Y-87699500D01*
X100471453Y-87680593D01*
X100435489Y-87631093D01*
X100435489Y-87569907D01*
X100447326Y-87545502D01*
X100458867Y-87528231D01*
X100470500Y-87469748D01*
X100470500Y-85730252D01*
X100468225Y-85718814D01*
X100475417Y-85658053D01*
X100516949Y-85613123D01*
X100565323Y-85600500D01*
X105934521Y-85600500D01*
X105992712Y-85619407D01*
G37*
%TD.AperFunction*%
%TA.AperFunction,Conductor*%
G36*
X88536796Y-85619407D02*
G01*
X88572760Y-85668907D01*
X88577300Y-85707267D01*
X88574873Y-85738095D01*
X89006047Y-86169269D01*
X88952993Y-86199901D01*
X88859901Y-86292993D01*
X88829269Y-86346047D01*
X88398096Y-85914874D01*
X88319197Y-86023472D01*
X88240588Y-86177751D01*
X88187084Y-86342420D01*
X88160000Y-86513424D01*
X88160000Y-86686575D01*
X88187084Y-86857579D01*
X88240588Y-87022248D01*
X88319195Y-87176523D01*
X88398096Y-87285124D01*
X88829269Y-86853950D01*
X88859901Y-86907007D01*
X88952993Y-87000099D01*
X89006046Y-87030729D01*
X88574874Y-87461902D01*
X88655401Y-87520407D01*
X88691365Y-87569906D01*
X88691366Y-87631092D01*
X88655403Y-87680592D01*
X88597212Y-87699500D01*
X84365479Y-87699500D01*
X84307288Y-87680593D01*
X84295475Y-87670504D01*
X82394475Y-85769504D01*
X82366698Y-85714987D01*
X82376269Y-85654555D01*
X82419534Y-85611290D01*
X82464479Y-85600500D01*
X88478605Y-85600500D01*
X88536796Y-85619407D01*
G37*
%TD.AperFunction*%
%TA.AperFunction,Conductor*%
G36*
X91136838Y-85619407D02*
G01*
X91172802Y-85668907D01*
X91172802Y-85730093D01*
X91136838Y-85779593D01*
X91133648Y-85781816D01*
X91130348Y-85784020D01*
X90984020Y-85930348D01*
X90869058Y-86102402D01*
X90789869Y-86293581D01*
X90749500Y-86496532D01*
X90749500Y-86703467D01*
X90789869Y-86906418D01*
X90869058Y-87097597D01*
X90984020Y-87269651D01*
X90984023Y-87269655D01*
X91130345Y-87415977D01*
X91130348Y-87415979D01*
X91283310Y-87518184D01*
X91321190Y-87566234D01*
X91323592Y-87627372D01*
X91289600Y-87678246D01*
X91232196Y-87699424D01*
X91228309Y-87699500D01*
X89922790Y-87699500D01*
X89864599Y-87680593D01*
X89828635Y-87631093D01*
X89828635Y-87569907D01*
X89864599Y-87520407D01*
X89864600Y-87520407D01*
X89945124Y-87461902D01*
X89513952Y-87030730D01*
X89567007Y-87000099D01*
X89660099Y-86907007D01*
X89690730Y-86853952D01*
X90121902Y-87285124D01*
X90200802Y-87176528D01*
X90200804Y-87176524D01*
X90279411Y-87022248D01*
X90332915Y-86857579D01*
X90360000Y-86686575D01*
X90360000Y-86513424D01*
X90332915Y-86342420D01*
X90279411Y-86177751D01*
X90200804Y-86023476D01*
X90121902Y-85914874D01*
X89690729Y-86346046D01*
X89660099Y-86292993D01*
X89567007Y-86199901D01*
X89513950Y-86169269D01*
X89945125Y-85738095D01*
X89942699Y-85707267D01*
X89956983Y-85647772D01*
X90003509Y-85608036D01*
X90041394Y-85600500D01*
X91078647Y-85600500D01*
X91136838Y-85619407D01*
G37*
%TD.AperFunction*%
%TA.AperFunction,Conductor*%
G36*
X115061646Y-36318526D02*
G01*
X115072685Y-36319212D01*
X115361729Y-36353481D01*
X115372644Y-36355399D01*
X115656053Y-36421758D01*
X115666671Y-36424880D01*
X115940889Y-36522497D01*
X115951102Y-36526791D01*
X116212683Y-36654439D01*
X116222354Y-36659849D01*
X116468034Y-36815934D01*
X116477041Y-36822391D01*
X116703733Y-37004952D01*
X116711961Y-37012375D01*
X116916826Y-37219124D01*
X116924173Y-37227419D01*
X117104654Y-37455776D01*
X117111028Y-37464841D01*
X117264857Y-37711937D01*
X117270178Y-37721658D01*
X117395423Y-37984391D01*
X117399624Y-37994645D01*
X117495761Y-38272732D01*
X117497424Y-38278019D01*
X117497425Y-38278020D01*
X117504998Y-38304672D01*
X117509629Y-38320971D01*
X117510828Y-38325193D01*
X117510836Y-38325217D01*
X118038462Y-40181979D01*
X120822289Y-49978508D01*
X120884165Y-50196253D01*
X120884290Y-50196606D01*
X120916580Y-50310291D01*
X120916581Y-50310292D01*
X121037419Y-50616045D01*
X121037423Y-50616054D01*
X121037424Y-50616056D01*
X121188055Y-50908303D01*
X121366982Y-51184135D01*
X121572433Y-51440822D01*
X121572437Y-51440826D01*
X121802376Y-51675823D01*
X122054521Y-51886801D01*
X122054538Y-51886814D01*
X122200535Y-51986097D01*
X122326406Y-52071694D01*
X122615307Y-52228647D01*
X122918375Y-52356115D01*
X123232609Y-52452836D01*
X123554900Y-52517852D01*
X123882056Y-52550519D01*
X124046447Y-52550500D01*
X124094042Y-52550500D01*
X141026543Y-52550500D01*
X141084734Y-52569407D01*
X141120698Y-52618907D01*
X141120698Y-52680093D01*
X141084734Y-52729593D01*
X141073211Y-52736810D01*
X140899287Y-52829773D01*
X140621480Y-53015400D01*
X140363215Y-53227352D01*
X140126952Y-53463615D01*
X139915000Y-53721880D01*
X139729373Y-53999687D01*
X139571886Y-54294327D01*
X139571873Y-54294354D01*
X139444014Y-54603032D01*
X139347031Y-54922746D01*
X139281848Y-55250444D01*
X139249100Y-55582946D01*
X139249100Y-55917053D01*
X139281848Y-56249555D01*
X139347031Y-56577253D01*
X139444014Y-56896967D01*
X139571873Y-57205645D01*
X139571886Y-57205672D01*
X139729373Y-57500312D01*
X139868593Y-57708667D01*
X139914998Y-57778117D01*
X139915000Y-57778119D01*
X140095678Y-57998277D01*
X140126957Y-58036390D01*
X140363210Y-58272643D01*
X140621482Y-58484601D01*
X140760383Y-58577412D01*
X140899287Y-58670226D01*
X141193925Y-58827712D01*
X141193946Y-58827723D01*
X141502624Y-58955582D01*
X141502626Y-58955582D01*
X141502632Y-58955585D01*
X141778976Y-59039412D01*
X141822349Y-59052569D01*
X142150041Y-59117751D01*
X142482544Y-59150500D01*
X142482547Y-59150500D01*
X142816653Y-59150500D01*
X142816656Y-59150500D01*
X143149159Y-59117751D01*
X143476851Y-59052569D01*
X143666457Y-58995052D01*
X143796567Y-58955585D01*
X143796569Y-58955583D01*
X143796576Y-58955582D01*
X144105254Y-58827723D01*
X144249240Y-58750760D01*
X144399912Y-58670226D01*
X144399916Y-58670223D01*
X144677718Y-58484601D01*
X144935990Y-58272643D01*
X145172243Y-58036390D01*
X145384201Y-57778118D01*
X145569824Y-57500315D01*
X145569826Y-57500312D01*
X145662758Y-57326448D01*
X145706863Y-57284041D01*
X145767471Y-57275658D01*
X145821432Y-57304500D01*
X145848134Y-57359551D01*
X145849068Y-57373116D01*
X145849068Y-100578174D01*
X145830161Y-100636365D01*
X145780661Y-100672329D01*
X145719475Y-100672329D01*
X145669975Y-100636365D01*
X145662758Y-100624842D01*
X145579826Y-100469687D01*
X145487012Y-100330783D01*
X145394201Y-100191882D01*
X145182243Y-99933610D01*
X144945990Y-99697357D01*
X144687718Y-99485399D01*
X144538226Y-99385511D01*
X144409912Y-99299773D01*
X144115272Y-99142286D01*
X144115260Y-99142280D01*
X144115254Y-99142277D01*
X144115249Y-99142274D01*
X144115245Y-99142273D01*
X143806567Y-99014414D01*
X143486853Y-98917431D01*
X143266377Y-98873576D01*
X143159159Y-98852249D01*
X143159157Y-98852248D01*
X142916091Y-98828308D01*
X142826656Y-98819500D01*
X142492544Y-98819500D01*
X142394300Y-98829176D01*
X142160044Y-98852248D01*
X141832346Y-98917431D01*
X141512632Y-99014414D01*
X141203954Y-99142273D01*
X141203927Y-99142286D01*
X140909287Y-99299773D01*
X140631480Y-99485400D01*
X140373215Y-99697352D01*
X140136952Y-99933615D01*
X139925000Y-100191880D01*
X139739373Y-100469687D01*
X139581886Y-100764327D01*
X139581873Y-100764354D01*
X139454014Y-101073032D01*
X139357031Y-101392746D01*
X139291848Y-101720444D01*
X139266255Y-101980292D01*
X139259100Y-102052944D01*
X139259100Y-102387056D01*
X139264854Y-102445475D01*
X139291848Y-102719555D01*
X139357031Y-103047253D01*
X139454014Y-103366967D01*
X139581873Y-103675645D01*
X139581886Y-103675672D01*
X139739373Y-103970312D01*
X139830319Y-104106420D01*
X139924999Y-104248118D01*
X140136957Y-104506390D01*
X140373210Y-104742643D01*
X140631482Y-104954601D01*
X140748103Y-105032525D01*
X140909287Y-105140226D01*
X141139338Y-105263190D01*
X141181745Y-105307295D01*
X141190128Y-105367904D01*
X141161286Y-105421864D01*
X141106235Y-105448566D01*
X141092670Y-105449500D01*
X113476529Y-105449500D01*
X113418338Y-105430593D01*
X113382374Y-105381093D01*
X113382374Y-105319907D01*
X113418338Y-105270407D01*
X113429861Y-105263190D01*
X113659911Y-105140226D01*
X113659914Y-105140224D01*
X113937717Y-104954601D01*
X114195989Y-104742643D01*
X114432242Y-104506390D01*
X114644200Y-104248118D01*
X114829823Y-103970315D01*
X114849013Y-103934414D01*
X114917218Y-103806809D01*
X114987322Y-103675654D01*
X115115181Y-103366976D01*
X115125162Y-103334075D01*
X115154651Y-103236857D01*
X115212168Y-103047251D01*
X115277350Y-102719559D01*
X115310099Y-102387056D01*
X115310099Y-102052944D01*
X115277350Y-101720441D01*
X115212168Y-101392749D01*
X115176736Y-101275944D01*
X115115184Y-101073032D01*
X115099067Y-101034121D01*
X114987322Y-100764346D01*
X114912756Y-100624842D01*
X114829825Y-100469687D01*
X114737011Y-100330783D01*
X114644200Y-100191882D01*
X114432242Y-99933610D01*
X114195989Y-99697357D01*
X113937717Y-99485399D01*
X113788225Y-99385511D01*
X113659911Y-99299773D01*
X113365271Y-99142286D01*
X113365259Y-99142280D01*
X113365253Y-99142277D01*
X113365248Y-99142274D01*
X113365244Y-99142273D01*
X113056566Y-99014414D01*
X112736852Y-98917431D01*
X112516376Y-98873576D01*
X112409158Y-98852249D01*
X112409156Y-98852248D01*
X112166090Y-98828308D01*
X112076655Y-98819500D01*
X111742543Y-98819500D01*
X111644299Y-98829176D01*
X111410043Y-98852248D01*
X111082345Y-98917431D01*
X110762631Y-99014414D01*
X110453953Y-99142273D01*
X110453926Y-99142286D01*
X110159286Y-99299773D01*
X109881479Y-99485400D01*
X109623214Y-99697352D01*
X109386951Y-99933615D01*
X109174999Y-100191880D01*
X108989372Y-100469687D01*
X108831885Y-100764327D01*
X108831872Y-100764354D01*
X108704013Y-101073032D01*
X108607030Y-101392746D01*
X108541847Y-101720444D01*
X108516254Y-101980292D01*
X108509099Y-102052944D01*
X108509099Y-102387056D01*
X108514853Y-102445475D01*
X108541847Y-102719555D01*
X108607030Y-103047253D01*
X108704013Y-103366967D01*
X108831872Y-103675645D01*
X108831885Y-103675672D01*
X108989372Y-103970312D01*
X109080318Y-104106420D01*
X109174998Y-104248118D01*
X109386956Y-104506390D01*
X109623209Y-104742643D01*
X109881481Y-104954601D01*
X109998102Y-105032525D01*
X110159286Y-105140226D01*
X110389337Y-105263190D01*
X110431744Y-105307295D01*
X110440127Y-105367904D01*
X110411285Y-105421864D01*
X110356234Y-105448566D01*
X110342669Y-105449500D01*
X74366014Y-105449500D01*
X74358033Y-105449499D01*
X74358031Y-105449499D01*
X74336781Y-105449499D01*
X74313204Y-105449499D01*
X74313203Y-105449498D01*
X74307656Y-105449343D01*
X74013741Y-105432841D01*
X74002709Y-105431598D01*
X73715228Y-105382755D01*
X73704404Y-105380285D01*
X73424194Y-105299560D01*
X73413715Y-105295893D01*
X73144313Y-105184304D01*
X73134310Y-105179487D01*
X72879092Y-105038432D01*
X72869691Y-105032525D01*
X72631873Y-104863782D01*
X72623193Y-104856860D01*
X72405759Y-104662547D01*
X72397909Y-104654696D01*
X72363310Y-104615979D01*
X72203608Y-104437267D01*
X72196692Y-104428596D01*
X72027940Y-104190756D01*
X72022047Y-104181376D01*
X71880988Y-103926139D01*
X71876174Y-103916142D01*
X71870924Y-103903467D01*
X71764580Y-103646715D01*
X71760928Y-103636277D01*
X71680199Y-103356035D01*
X71677734Y-103345231D01*
X71628894Y-103057732D01*
X71627652Y-103046700D01*
X71620881Y-102926060D01*
X71620843Y-102925375D01*
X89510000Y-102925375D01*
X89510000Y-103674999D01*
X89510001Y-103675000D01*
X90125856Y-103675000D01*
X90110000Y-103734174D01*
X90110000Y-103865826D01*
X90125856Y-103925000D01*
X89510001Y-103925000D01*
X89510000Y-103925001D01*
X89510000Y-104674624D01*
X89524506Y-104747546D01*
X89524507Y-104747548D01*
X89579758Y-104830237D01*
X89579762Y-104830241D01*
X89662451Y-104885492D01*
X89662453Y-104885493D01*
X89735375Y-104899999D01*
X89735377Y-104900000D01*
X90484999Y-104900000D01*
X90485000Y-104899999D01*
X90485000Y-104284144D01*
X90544174Y-104300000D01*
X90675826Y-104300000D01*
X90735000Y-104284144D01*
X90735000Y-104899999D01*
X90735001Y-104900000D01*
X91484623Y-104900000D01*
X91484624Y-104899999D01*
X91557546Y-104885493D01*
X91557548Y-104885492D01*
X91640237Y-104830241D01*
X91640241Y-104830237D01*
X91695492Y-104747548D01*
X91695493Y-104747546D01*
X91709999Y-104674624D01*
X91710000Y-104674622D01*
X91710000Y-103925001D01*
X91709999Y-103925000D01*
X91094144Y-103925000D01*
X91110000Y-103865826D01*
X91110000Y-103734174D01*
X91099914Y-103696532D01*
X92099500Y-103696532D01*
X92099500Y-103903467D01*
X92139869Y-104106418D01*
X92219058Y-104297597D01*
X92334020Y-104469651D01*
X92334023Y-104469655D01*
X92480345Y-104615977D01*
X92652402Y-104730941D01*
X92843580Y-104810130D01*
X93046535Y-104850500D01*
X93046536Y-104850500D01*
X93253464Y-104850500D01*
X93253465Y-104850500D01*
X93456420Y-104810130D01*
X93647598Y-104730941D01*
X93819655Y-104615977D01*
X93965977Y-104469655D01*
X94080941Y-104297598D01*
X94160130Y-104106420D01*
X94200500Y-103903465D01*
X94200500Y-103696535D01*
X94200499Y-103696532D01*
X94639499Y-103696532D01*
X94639499Y-103903467D01*
X94679868Y-104106418D01*
X94759057Y-104297597D01*
X94874019Y-104469651D01*
X94874022Y-104469655D01*
X95020344Y-104615977D01*
X95192401Y-104730941D01*
X95383579Y-104810130D01*
X95586534Y-104850500D01*
X95586535Y-104850500D01*
X95793463Y-104850500D01*
X95793464Y-104850500D01*
X95996419Y-104810130D01*
X96187597Y-104730941D01*
X96359654Y-104615977D01*
X96505976Y-104469655D01*
X96620940Y-104297598D01*
X96700129Y-104106420D01*
X96740499Y-103903465D01*
X96740499Y-103696535D01*
X96740498Y-103696532D01*
X97179500Y-103696532D01*
X97179500Y-103903467D01*
X97219869Y-104106418D01*
X97299058Y-104297597D01*
X97414020Y-104469651D01*
X97414023Y-104469655D01*
X97560345Y-104615977D01*
X97732402Y-104730941D01*
X97923580Y-104810130D01*
X98126535Y-104850500D01*
X98126536Y-104850500D01*
X98333464Y-104850500D01*
X98333465Y-104850500D01*
X98536420Y-104810130D01*
X98727598Y-104730941D01*
X98899655Y-104615977D01*
X99045977Y-104469655D01*
X99160941Y-104297598D01*
X99240130Y-104106420D01*
X99280500Y-103903465D01*
X99280500Y-103696535D01*
X99280499Y-103696532D01*
X99719500Y-103696532D01*
X99719500Y-103903467D01*
X99759869Y-104106418D01*
X99839058Y-104297597D01*
X99954020Y-104469651D01*
X99954023Y-104469655D01*
X100100345Y-104615977D01*
X100272402Y-104730941D01*
X100463580Y-104810130D01*
X100666535Y-104850500D01*
X100666536Y-104850500D01*
X100873464Y-104850500D01*
X100873465Y-104850500D01*
X101076420Y-104810130D01*
X101267598Y-104730941D01*
X101439655Y-104615977D01*
X101585977Y-104469655D01*
X101700941Y-104297598D01*
X101780130Y-104106420D01*
X101820500Y-103903465D01*
X101820500Y-103696535D01*
X101820499Y-103696532D01*
X102259500Y-103696532D01*
X102259500Y-103903467D01*
X102299869Y-104106418D01*
X102379058Y-104297597D01*
X102494020Y-104469651D01*
X102494023Y-104469655D01*
X102640345Y-104615977D01*
X102812402Y-104730941D01*
X103003580Y-104810130D01*
X103206535Y-104850500D01*
X103206536Y-104850500D01*
X103413464Y-104850500D01*
X103413465Y-104850500D01*
X103616420Y-104810130D01*
X103807598Y-104730941D01*
X103979655Y-104615977D01*
X104125977Y-104469655D01*
X104240941Y-104297598D01*
X104320130Y-104106420D01*
X104360500Y-103903465D01*
X104360500Y-103696535D01*
X104360499Y-103696532D01*
X104799500Y-103696532D01*
X104799500Y-103903467D01*
X104839869Y-104106418D01*
X104919058Y-104297597D01*
X105034020Y-104469651D01*
X105034023Y-104469655D01*
X105180345Y-104615977D01*
X105352402Y-104730941D01*
X105543580Y-104810130D01*
X105746535Y-104850500D01*
X105746536Y-104850500D01*
X105953464Y-104850500D01*
X105953465Y-104850500D01*
X106156420Y-104810130D01*
X106347598Y-104730941D01*
X106519655Y-104615977D01*
X106665977Y-104469655D01*
X106780941Y-104297598D01*
X106860130Y-104106420D01*
X106900500Y-103903465D01*
X106900500Y-103696535D01*
X106860130Y-103493580D01*
X106780941Y-103302402D01*
X106665977Y-103130345D01*
X106519655Y-102984023D01*
X106498529Y-102969907D01*
X106347597Y-102869058D01*
X106156418Y-102789869D01*
X105953467Y-102749500D01*
X105953465Y-102749500D01*
X105746535Y-102749500D01*
X105746532Y-102749500D01*
X105543581Y-102789869D01*
X105352402Y-102869058D01*
X105180348Y-102984020D01*
X105034020Y-103130348D01*
X104919058Y-103302402D01*
X104839869Y-103493581D01*
X104799500Y-103696532D01*
X104360499Y-103696532D01*
X104320130Y-103493580D01*
X104240941Y-103302402D01*
X104125977Y-103130345D01*
X103979655Y-102984023D01*
X103958529Y-102969907D01*
X103807597Y-102869058D01*
X103616418Y-102789869D01*
X103413467Y-102749500D01*
X103413465Y-102749500D01*
X103206535Y-102749500D01*
X103206532Y-102749500D01*
X103003581Y-102789869D01*
X102812402Y-102869058D01*
X102640348Y-102984020D01*
X102494020Y-103130348D01*
X102379058Y-103302402D01*
X102299869Y-103493581D01*
X102259500Y-103696532D01*
X101820499Y-103696532D01*
X101780130Y-103493580D01*
X101700941Y-103302402D01*
X101585977Y-103130345D01*
X101439655Y-102984023D01*
X101418529Y-102969907D01*
X101267597Y-102869058D01*
X101076418Y-102789869D01*
X100873467Y-102749500D01*
X100873465Y-102749500D01*
X100666535Y-102749500D01*
X100666532Y-102749500D01*
X100463581Y-102789869D01*
X100272402Y-102869058D01*
X100100348Y-102984020D01*
X99954020Y-103130348D01*
X99839058Y-103302402D01*
X99759869Y-103493581D01*
X99719500Y-103696532D01*
X99280499Y-103696532D01*
X99240130Y-103493580D01*
X99160941Y-103302402D01*
X99045977Y-103130345D01*
X98899655Y-102984023D01*
X98878529Y-102969907D01*
X98727597Y-102869058D01*
X98536418Y-102789869D01*
X98333467Y-102749500D01*
X98333465Y-102749500D01*
X98126535Y-102749500D01*
X98126532Y-102749500D01*
X97923581Y-102789869D01*
X97732402Y-102869058D01*
X97560348Y-102984020D01*
X97414020Y-103130348D01*
X97299058Y-103302402D01*
X97219869Y-103493581D01*
X97179500Y-103696532D01*
X96740498Y-103696532D01*
X96700129Y-103493580D01*
X96620940Y-103302402D01*
X96505976Y-103130345D01*
X96359654Y-102984023D01*
X96338528Y-102969907D01*
X96187596Y-102869058D01*
X95996417Y-102789869D01*
X95793466Y-102749500D01*
X95793464Y-102749500D01*
X95586534Y-102749500D01*
X95586531Y-102749500D01*
X95383580Y-102789869D01*
X95192401Y-102869058D01*
X95020347Y-102984020D01*
X94874019Y-103130348D01*
X94759057Y-103302402D01*
X94679868Y-103493581D01*
X94639499Y-103696532D01*
X94200499Y-103696532D01*
X94160130Y-103493580D01*
X94080941Y-103302402D01*
X93965977Y-103130345D01*
X93819655Y-102984023D01*
X93798529Y-102969907D01*
X93647597Y-102869058D01*
X93456418Y-102789869D01*
X93253467Y-102749500D01*
X93253465Y-102749500D01*
X93046535Y-102749500D01*
X93046532Y-102749500D01*
X92843581Y-102789869D01*
X92652402Y-102869058D01*
X92480348Y-102984020D01*
X92334020Y-103130348D01*
X92219058Y-103302402D01*
X92139869Y-103493581D01*
X92099500Y-103696532D01*
X91099914Y-103696532D01*
X91094144Y-103675000D01*
X91709999Y-103675000D01*
X91710000Y-103674999D01*
X91710000Y-102925377D01*
X91709999Y-102925375D01*
X91695493Y-102852453D01*
X91695492Y-102852451D01*
X91640241Y-102769762D01*
X91640237Y-102769758D01*
X91557548Y-102714507D01*
X91557546Y-102714506D01*
X91484624Y-102700000D01*
X90735001Y-102700000D01*
X90735000Y-102700001D01*
X90735000Y-103315855D01*
X90675826Y-103300000D01*
X90544174Y-103300000D01*
X90485000Y-103315855D01*
X90485000Y-102700001D01*
X90484999Y-102700000D01*
X89735375Y-102700000D01*
X89662453Y-102714506D01*
X89662451Y-102714507D01*
X89579762Y-102769758D01*
X89579758Y-102769762D01*
X89524507Y-102852451D01*
X89524506Y-102852453D01*
X89510000Y-102925375D01*
X71620843Y-102925375D01*
X71611098Y-102751755D01*
X71610942Y-102746203D01*
X71610943Y-102714506D01*
X71610944Y-102702418D01*
X71610942Y-102702414D01*
X71610943Y-102695537D01*
X71610942Y-102695507D01*
X71610942Y-94813424D01*
X90840000Y-94813424D01*
X90840000Y-94986575D01*
X90867084Y-95157579D01*
X90920588Y-95322248D01*
X90999195Y-95476523D01*
X91078096Y-95585124D01*
X91509269Y-95153950D01*
X91539901Y-95207007D01*
X91632993Y-95300099D01*
X91686046Y-95330729D01*
X91254874Y-95761902D01*
X91363476Y-95840804D01*
X91517751Y-95919411D01*
X91682420Y-95972915D01*
X91853425Y-96000000D01*
X92026575Y-96000000D01*
X92197579Y-95972915D01*
X92362248Y-95919411D01*
X92516524Y-95840804D01*
X92516528Y-95840802D01*
X92625124Y-95761902D01*
X92193952Y-95330730D01*
X92247007Y-95300099D01*
X92340099Y-95207007D01*
X92370730Y-95153952D01*
X92801902Y-95585124D01*
X92880802Y-95476528D01*
X92880804Y-95476524D01*
X92959411Y-95322248D01*
X93012915Y-95157579D01*
X93040000Y-94986575D01*
X93040000Y-94813429D01*
X93039007Y-94807162D01*
X93039007Y-94807158D01*
X93037324Y-94796532D01*
X93429500Y-94796532D01*
X93429500Y-95003467D01*
X93469869Y-95206418D01*
X93549058Y-95397597D01*
X93664020Y-95569651D01*
X93664023Y-95569655D01*
X93810345Y-95715977D01*
X93982402Y-95830941D01*
X94173580Y-95910130D01*
X94376535Y-95950500D01*
X94376536Y-95950500D01*
X94583464Y-95950500D01*
X94583465Y-95950500D01*
X94786420Y-95910130D01*
X94977598Y-95830941D01*
X95149655Y-95715977D01*
X95295977Y-95569655D01*
X95410941Y-95397598D01*
X95490130Y-95206420D01*
X95530500Y-95003465D01*
X95530500Y-94796535D01*
X95530499Y-94796532D01*
X95969501Y-94796532D01*
X95969501Y-95003467D01*
X96009870Y-95206418D01*
X96089059Y-95397597D01*
X96204021Y-95569651D01*
X96204024Y-95569655D01*
X96350346Y-95715977D01*
X96522403Y-95830941D01*
X96713581Y-95910130D01*
X96916536Y-95950500D01*
X96916537Y-95950500D01*
X97123465Y-95950500D01*
X97123466Y-95950500D01*
X97326421Y-95910130D01*
X97517599Y-95830941D01*
X97689656Y-95715977D01*
X97835978Y-95569655D01*
X97950942Y-95397598D01*
X98030131Y-95206420D01*
X98070501Y-95003465D01*
X98070501Y-94796535D01*
X98030131Y-94593580D01*
X97950942Y-94402402D01*
X97835978Y-94230345D01*
X97689656Y-94084023D01*
X97609183Y-94030253D01*
X97517598Y-93969058D01*
X97326419Y-93889869D01*
X97123468Y-93849500D01*
X97123466Y-93849500D01*
X96916536Y-93849500D01*
X96916533Y-93849500D01*
X96713582Y-93889869D01*
X96522403Y-93969058D01*
X96350349Y-94084020D01*
X96204021Y-94230348D01*
X96089059Y-94402402D01*
X96009870Y-94593581D01*
X95969501Y-94796532D01*
X95530499Y-94796532D01*
X95490130Y-94593580D01*
X95410941Y-94402402D01*
X95295977Y-94230345D01*
X95149655Y-94084023D01*
X95069182Y-94030253D01*
X94977597Y-93969058D01*
X94786418Y-93889869D01*
X94583467Y-93849500D01*
X94583465Y-93849500D01*
X94376535Y-93849500D01*
X94376532Y-93849500D01*
X94173581Y-93889869D01*
X93982402Y-93969058D01*
X93810348Y-94084020D01*
X93664020Y-94230348D01*
X93549058Y-94402402D01*
X93469869Y-94593581D01*
X93429500Y-94796532D01*
X93037324Y-94796532D01*
X93012915Y-94642420D01*
X92959411Y-94477751D01*
X92880804Y-94323476D01*
X92801902Y-94214874D01*
X92370729Y-94646046D01*
X92340099Y-94592993D01*
X92247007Y-94499901D01*
X92193950Y-94469269D01*
X92625124Y-94038096D01*
X92516523Y-93959195D01*
X92362248Y-93880588D01*
X92197579Y-93827084D01*
X92026575Y-93800000D01*
X91853425Y-93800000D01*
X91682420Y-93827084D01*
X91517751Y-93880588D01*
X91363472Y-93959197D01*
X91254874Y-94038096D01*
X91686047Y-94469269D01*
X91632993Y-94499901D01*
X91539901Y-94592993D01*
X91509269Y-94646047D01*
X91078096Y-94214874D01*
X90999197Y-94323472D01*
X90920588Y-94477751D01*
X90867084Y-94642420D01*
X90840000Y-94813424D01*
X71610942Y-94813424D01*
X71610942Y-89630253D01*
X90449500Y-89630253D01*
X90449500Y-91369746D01*
X90449501Y-91369758D01*
X90461132Y-91428227D01*
X90461133Y-91428231D01*
X90505448Y-91494552D01*
X90571769Y-91538867D01*
X90616231Y-91547711D01*
X90630241Y-91550498D01*
X90630246Y-91550498D01*
X90630252Y-91550500D01*
X90630253Y-91550500D01*
X92369747Y-91550500D01*
X92369748Y-91550500D01*
X92428231Y-91538867D01*
X92494552Y-91494552D01*
X92538867Y-91428231D01*
X92550500Y-91369748D01*
X92550500Y-89630252D01*
X92538867Y-89571769D01*
X92494552Y-89505448D01*
X92494548Y-89505445D01*
X92428233Y-89461134D01*
X92428231Y-89461133D01*
X92428228Y-89461132D01*
X92428227Y-89461132D01*
X92369758Y-89449501D01*
X92369748Y-89449500D01*
X90630252Y-89449500D01*
X90630251Y-89449500D01*
X90630241Y-89449501D01*
X90571772Y-89461132D01*
X90571766Y-89461134D01*
X90505451Y-89505445D01*
X90505445Y-89505451D01*
X90461134Y-89571766D01*
X90461132Y-89571772D01*
X90449501Y-89630241D01*
X90449500Y-89630253D01*
X71610942Y-89630253D01*
X71610942Y-84957870D01*
X71610943Y-84957867D01*
X71610942Y-84910272D01*
X71610942Y-84870713D01*
X71610942Y-84864236D01*
X71610921Y-84863948D01*
X71610921Y-84737302D01*
X71574758Y-84393256D01*
X71574757Y-84393255D01*
X71574757Y-84393247D01*
X71502831Y-84054873D01*
X71502831Y-84054872D01*
X71435557Y-83847830D01*
X71395928Y-83725866D01*
X71349025Y-83620522D01*
X71255223Y-83409838D01*
X71255214Y-83409821D01*
X71082255Y-83110249D01*
X71082250Y-83110240D01*
X70878911Y-82830368D01*
X70647432Y-82573283D01*
X70647420Y-82573272D01*
X70390350Y-82341802D01*
X70390341Y-82341795D01*
X70110478Y-82138460D01*
X70110473Y-82138457D01*
X69810894Y-81965494D01*
X69810891Y-81965492D01*
X69810885Y-81965489D01*
X69494853Y-81824779D01*
X69165845Y-81717874D01*
X69165842Y-81717873D01*
X69165838Y-81717872D01*
X68827465Y-81645945D01*
X68483419Y-81609780D01*
X68483417Y-81609779D01*
X68350010Y-81609777D01*
X68350008Y-81609777D01*
X68350007Y-81609777D01*
X68310448Y-81609777D01*
X68262854Y-81609776D01*
X68262851Y-81609777D01*
X57241351Y-81609777D01*
X57235809Y-81609622D01*
X57218700Y-81608662D01*
X56942377Y-81593168D01*
X56931365Y-81591929D01*
X56644355Y-81543248D01*
X56633548Y-81540786D01*
X56353769Y-81460326D01*
X56343307Y-81456671D01*
X56074289Y-81345451D01*
X56064300Y-81340650D01*
X55809395Y-81200056D01*
X55800005Y-81194169D01*
X55562407Y-81025961D01*
X55553734Y-81019061D01*
X55514378Y-80983979D01*
X55420730Y-80900500D01*
X55336427Y-80825351D01*
X55328580Y-80817525D01*
X55134290Y-80600747D01*
X55127367Y-80592093D01*
X54958514Y-80354942D01*
X54952601Y-80345568D01*
X54946072Y-80333805D01*
X54811316Y-80091034D01*
X54806499Y-80081081D01*
X54694545Y-79812340D01*
X54690865Y-79801894D01*
X54688591Y-79794065D01*
X54609649Y-79522323D01*
X54607165Y-79511552D01*
X54557343Y-79222551D01*
X54556563Y-79217121D01*
X54295764Y-76953070D01*
X56445500Y-76953070D01*
X56445500Y-77126929D01*
X56472695Y-77298633D01*
X56472697Y-77298638D01*
X56526420Y-77463981D01*
X56605347Y-77618884D01*
X56707535Y-77759533D01*
X56830467Y-77882465D01*
X56971116Y-77984653D01*
X57126019Y-78063580D01*
X57291362Y-78117303D01*
X57291363Y-78117303D01*
X57291366Y-78117304D01*
X57463071Y-78144500D01*
X57463074Y-78144500D01*
X57636929Y-78144500D01*
X57808633Y-78117304D01*
X57808634Y-78117303D01*
X57808638Y-78117303D01*
X57973981Y-78063580D01*
X58128884Y-77984653D01*
X58269533Y-77882465D01*
X58392465Y-77759533D01*
X58494653Y-77618884D01*
X58573580Y-77463981D01*
X58627303Y-77298638D01*
X58654500Y-77126926D01*
X58654500Y-76953074D01*
X58654500Y-76953070D01*
X63945500Y-76953070D01*
X63945500Y-77126929D01*
X63972695Y-77298633D01*
X63972697Y-77298638D01*
X64026420Y-77463981D01*
X64105347Y-77618884D01*
X64207535Y-77759533D01*
X64330467Y-77882465D01*
X64471116Y-77984653D01*
X64626019Y-78063580D01*
X64791362Y-78117303D01*
X64791363Y-78117303D01*
X64791366Y-78117304D01*
X64963071Y-78144500D01*
X64963074Y-78144500D01*
X65136929Y-78144500D01*
X65308633Y-78117304D01*
X65308634Y-78117303D01*
X65308638Y-78117303D01*
X65473981Y-78063580D01*
X65628884Y-77984653D01*
X65769533Y-77882465D01*
X65892465Y-77759533D01*
X65994653Y-77618884D01*
X66073580Y-77463981D01*
X66127303Y-77298638D01*
X66154500Y-77126926D01*
X66154500Y-76953074D01*
X66154500Y-76953070D01*
X66127304Y-76781366D01*
X66127303Y-76781362D01*
X66073580Y-76616019D01*
X65994653Y-76461116D01*
X65892465Y-76320467D01*
X65769533Y-76197535D01*
X65628884Y-76095347D01*
X65628883Y-76095346D01*
X65628881Y-76095345D01*
X65473981Y-76016420D01*
X65308633Y-75962695D01*
X65136929Y-75935500D01*
X65136926Y-75935500D01*
X64963074Y-75935500D01*
X64963071Y-75935500D01*
X64791366Y-75962695D01*
X64626018Y-76016420D01*
X64471118Y-76095345D01*
X64330468Y-76197534D01*
X64207534Y-76320468D01*
X64105345Y-76461118D01*
X64026420Y-76616018D01*
X63972695Y-76781366D01*
X63945500Y-76953070D01*
X58654500Y-76953070D01*
X58627304Y-76781366D01*
X58627303Y-76781362D01*
X58573580Y-76616019D01*
X58494653Y-76461116D01*
X58392465Y-76320467D01*
X58269533Y-76197535D01*
X58128884Y-76095347D01*
X58128883Y-76095346D01*
X58128881Y-76095345D01*
X57973981Y-76016420D01*
X57808633Y-75962695D01*
X57636929Y-75935500D01*
X57636926Y-75935500D01*
X57463074Y-75935500D01*
X57463071Y-75935500D01*
X57291366Y-75962695D01*
X57126018Y-76016420D01*
X56971118Y-76095345D01*
X56830468Y-76197534D01*
X56707534Y-76320468D01*
X56605345Y-76461118D01*
X56526420Y-76616018D01*
X56472695Y-76781366D01*
X56445500Y-76953070D01*
X54295764Y-76953070D01*
X53942899Y-73889774D01*
X73439500Y-73889774D01*
X73439500Y-74110225D01*
X73473984Y-74327948D01*
X73542102Y-74537599D01*
X73542104Y-74537602D01*
X73542105Y-74537606D01*
X73642185Y-74734022D01*
X73771758Y-74912365D01*
X73927635Y-75068242D01*
X74105978Y-75197815D01*
X74302394Y-75297895D01*
X74317116Y-75302678D01*
X74321091Y-75303970D01*
X74370591Y-75339932D01*
X74389500Y-75398123D01*
X74389500Y-77632389D01*
X74370593Y-77690580D01*
X74360504Y-77702393D01*
X73739507Y-78323390D01*
X73680200Y-78426112D01*
X73680200Y-78426113D01*
X73680201Y-78426114D01*
X73649500Y-78540692D01*
X73649500Y-80389547D01*
X73630593Y-80447738D01*
X73620504Y-80459551D01*
X73594727Y-80485327D01*
X73594724Y-80485331D01*
X73523538Y-80591866D01*
X73523534Y-80591874D01*
X73474500Y-80710252D01*
X73474499Y-80710255D01*
X73474499Y-80710256D01*
X73463122Y-80767451D01*
X73451605Y-80825351D01*
X73449500Y-80835931D01*
X73449500Y-80964069D01*
X73471519Y-81074765D01*
X73474499Y-81089742D01*
X73474500Y-81089747D01*
X73523534Y-81208125D01*
X73523538Y-81208133D01*
X73562131Y-81265890D01*
X73594724Y-81314669D01*
X73685331Y-81405276D01*
X73748848Y-81447717D01*
X73791866Y-81476461D01*
X73791870Y-81476463D01*
X73791873Y-81476465D01*
X73910256Y-81525501D01*
X74035931Y-81550500D01*
X74035932Y-81550500D01*
X74164068Y-81550500D01*
X74164069Y-81550500D01*
X74289744Y-81525501D01*
X74408127Y-81476465D01*
X74514669Y-81405276D01*
X74605276Y-81314669D01*
X74676465Y-81208127D01*
X74725501Y-81089744D01*
X74750500Y-80964069D01*
X74750500Y-80835931D01*
X74725501Y-80710256D01*
X74676465Y-80591873D01*
X74676463Y-80591871D01*
X74676461Y-80591865D01*
X74654844Y-80559514D01*
X74654839Y-80559508D01*
X74620672Y-80508373D01*
X75125235Y-80508373D01*
X75125235Y-80640157D01*
X75141943Y-80702512D01*
X75159344Y-80767455D01*
X75225231Y-80881574D01*
X75225233Y-80881576D01*
X75225235Y-80881579D01*
X75318421Y-80974765D01*
X75318423Y-80974766D01*
X75318425Y-80974768D01*
X75432545Y-81040655D01*
X75432543Y-81040655D01*
X75432547Y-81040656D01*
X75432549Y-81040657D01*
X75559843Y-81074765D01*
X75559845Y-81074765D01*
X75691625Y-81074765D01*
X75691627Y-81074765D01*
X75818921Y-81040657D01*
X75818923Y-81040655D01*
X75818925Y-81040655D01*
X75933044Y-80974768D01*
X75933044Y-80974767D01*
X75933049Y-80974765D01*
X76004054Y-80903759D01*
X76058569Y-80875984D01*
X76074056Y-80874765D01*
X76540141Y-80874765D01*
X76598332Y-80893672D01*
X76634296Y-80943172D01*
X76634296Y-81000280D01*
X76635288Y-81000546D01*
X76634296Y-81004248D01*
X76634296Y-81004358D01*
X76634188Y-81004648D01*
X76625649Y-81036518D01*
X76599500Y-81134108D01*
X76599500Y-81265892D01*
X76619531Y-81340650D01*
X76633609Y-81393190D01*
X76699496Y-81507309D01*
X76699498Y-81507311D01*
X76699500Y-81507314D01*
X76792686Y-81600500D01*
X76792688Y-81600501D01*
X76792690Y-81600503D01*
X76906810Y-81666390D01*
X76906808Y-81666390D01*
X76906812Y-81666391D01*
X76906814Y-81666392D01*
X77034108Y-81700500D01*
X77034110Y-81700500D01*
X77165890Y-81700500D01*
X77165892Y-81700500D01*
X77293186Y-81666392D01*
X77321374Y-81650117D01*
X77381219Y-81637395D01*
X77437115Y-81662279D01*
X77440878Y-81665849D01*
X83959540Y-88184511D01*
X83959539Y-88184511D01*
X84015489Y-88240460D01*
X84084007Y-88280019D01*
X84084011Y-88280021D01*
X84160435Y-88300499D01*
X84160437Y-88300500D01*
X84160438Y-88300500D01*
X100734521Y-88300500D01*
X100792712Y-88319407D01*
X100804525Y-88329496D01*
X101259540Y-88784511D01*
X101259539Y-88784511D01*
X101315489Y-88840460D01*
X101384007Y-88880019D01*
X101384011Y-88880021D01*
X101460435Y-88900499D01*
X101460437Y-88900500D01*
X101460438Y-88900500D01*
X107139563Y-88900500D01*
X107139563Y-88900499D01*
X107215989Y-88880021D01*
X107284511Y-88840460D01*
X107340460Y-88784511D01*
X108032792Y-88092178D01*
X108087307Y-88064403D01*
X108147739Y-88073974D01*
X108191004Y-88117239D01*
X108200575Y-88177671D01*
X108188531Y-88211684D01*
X108133608Y-88306812D01*
X108127530Y-88329496D01*
X108099500Y-88434108D01*
X108099500Y-88565892D01*
X108109168Y-88601973D01*
X108133609Y-88693190D01*
X108199496Y-88807309D01*
X108199498Y-88807311D01*
X108199500Y-88807314D01*
X108292686Y-88900500D01*
X108292688Y-88900501D01*
X108292690Y-88900503D01*
X108406810Y-88966390D01*
X108406808Y-88966390D01*
X108406812Y-88966391D01*
X108406814Y-88966392D01*
X108534108Y-89000500D01*
X108534110Y-89000500D01*
X108665890Y-89000500D01*
X108665892Y-89000500D01*
X108793186Y-88966392D01*
X108793188Y-88966390D01*
X108793190Y-88966390D01*
X108907309Y-88900503D01*
X108907309Y-88900502D01*
X108907314Y-88900500D01*
X108978319Y-88829494D01*
X109032834Y-88801719D01*
X109048321Y-88800500D01*
X109951679Y-88800500D01*
X110009870Y-88819407D01*
X110021676Y-88829490D01*
X110092686Y-88900500D01*
X110092688Y-88900501D01*
X110092690Y-88900503D01*
X110206810Y-88966390D01*
X110206808Y-88966390D01*
X110206812Y-88966391D01*
X110206814Y-88966392D01*
X110334108Y-89000500D01*
X110334110Y-89000500D01*
X110465890Y-89000500D01*
X110465892Y-89000500D01*
X110593186Y-88966392D01*
X110593188Y-88966390D01*
X110593190Y-88966390D01*
X110707309Y-88900503D01*
X110707309Y-88900502D01*
X110707314Y-88900500D01*
X110800500Y-88807314D01*
X110804434Y-88800500D01*
X110866390Y-88693190D01*
X110866390Y-88693188D01*
X110866392Y-88693186D01*
X110900500Y-88565892D01*
X110900500Y-88434108D01*
X110866392Y-88306814D01*
X110866390Y-88306811D01*
X110866390Y-88306809D01*
X110800503Y-88192690D01*
X110800501Y-88192688D01*
X110800500Y-88192686D01*
X110707314Y-88099500D01*
X110682608Y-88085236D01*
X110641668Y-88039767D01*
X110635272Y-87978917D01*
X110665865Y-87925929D01*
X110721760Y-87901042D01*
X110732109Y-87900500D01*
X119734521Y-87900500D01*
X119792712Y-87919407D01*
X119804525Y-87929496D01*
X129126240Y-97251211D01*
X129154017Y-97305728D01*
X129144446Y-97366160D01*
X129101181Y-97409425D01*
X129040749Y-97418996D01*
X129030617Y-97416842D01*
X128965892Y-97399500D01*
X128834108Y-97399500D01*
X128769386Y-97416842D01*
X128706809Y-97433609D01*
X128592690Y-97499496D01*
X128499496Y-97592690D01*
X128433609Y-97706809D01*
X128426294Y-97734109D01*
X128399500Y-97834108D01*
X128399500Y-97965892D01*
X128419480Y-98040460D01*
X128433609Y-98093190D01*
X128499496Y-98207309D01*
X128499498Y-98207311D01*
X128499500Y-98207314D01*
X128592686Y-98300500D01*
X128592688Y-98300501D01*
X128592690Y-98300503D01*
X128706810Y-98366390D01*
X128706808Y-98366390D01*
X128706812Y-98366391D01*
X128706814Y-98366392D01*
X128834108Y-98400500D01*
X128834110Y-98400500D01*
X128965891Y-98400500D01*
X128965892Y-98400500D01*
X129001748Y-98390892D01*
X129043385Y-98390896D01*
X129043602Y-98389253D01*
X129050036Y-98390100D01*
X129050038Y-98390100D01*
X129324121Y-98390100D01*
X129382312Y-98409007D01*
X129394125Y-98419096D01*
X130420504Y-99445475D01*
X130448281Y-99499992D01*
X130449500Y-99515479D01*
X130449500Y-101759983D01*
X130430593Y-101818174D01*
X130381093Y-101854138D01*
X130319907Y-101854138D01*
X130270407Y-101818174D01*
X130254873Y-101785606D01*
X130253530Y-101780593D01*
X130240657Y-101732549D01*
X130240655Y-101732546D01*
X130240655Y-101732544D01*
X130174768Y-101618425D01*
X130174766Y-101618423D01*
X130174765Y-101618421D01*
X130081579Y-101525235D01*
X130018635Y-101488894D01*
X129998135Y-101473164D01*
X129958776Y-101433805D01*
X128311482Y-99786511D01*
X126584511Y-98059540D01*
X126551463Y-98040460D01*
X126515989Y-98019979D01*
X126482265Y-98010942D01*
X126475463Y-98007974D01*
X126465204Y-97998874D01*
X126445056Y-97987241D01*
X126357314Y-97899500D01*
X126357309Y-97899496D01*
X126243189Y-97833609D01*
X126243191Y-97833609D01*
X126193799Y-97820375D01*
X126115892Y-97799500D01*
X125984108Y-97799500D01*
X125906200Y-97820375D01*
X125856809Y-97833609D01*
X125742690Y-97899496D01*
X125649496Y-97992690D01*
X125583609Y-98106809D01*
X125569830Y-98158234D01*
X125549500Y-98234108D01*
X125549500Y-98365892D01*
X125556199Y-98390892D01*
X125583609Y-98493190D01*
X125649496Y-98607309D01*
X125649498Y-98607311D01*
X125649500Y-98607314D01*
X125742686Y-98700500D01*
X125742688Y-98700501D01*
X125742690Y-98700503D01*
X125856810Y-98766390D01*
X125856808Y-98766390D01*
X125856812Y-98766391D01*
X125856814Y-98766392D01*
X125984108Y-98800500D01*
X125984110Y-98800500D01*
X126115890Y-98800500D01*
X126115892Y-98800500D01*
X126243186Y-98766392D01*
X126303073Y-98731815D01*
X126362920Y-98719094D01*
X126418816Y-98743980D01*
X126422577Y-98747548D01*
X129290652Y-101615623D01*
X129318429Y-101670140D01*
X129309547Y-101726216D01*
X129310357Y-101726552D01*
X129308960Y-101729923D01*
X129308858Y-101730572D01*
X129308158Y-101731860D01*
X129307874Y-101732544D01*
X129292438Y-101790155D01*
X129273765Y-101859843D01*
X129273765Y-101991627D01*
X129293656Y-102065863D01*
X129307874Y-102118925D01*
X129373761Y-102233044D01*
X129373763Y-102233046D01*
X129373765Y-102233049D01*
X129466951Y-102326235D01*
X129466953Y-102326236D01*
X129466955Y-102326238D01*
X129581075Y-102392125D01*
X129581073Y-102392125D01*
X129581077Y-102392126D01*
X129581079Y-102392127D01*
X129632383Y-102405873D01*
X129683696Y-102439197D01*
X129705623Y-102496319D01*
X129689787Y-102555419D01*
X129642238Y-102593924D01*
X129606759Y-102600500D01*
X128615183Y-102600500D01*
X128556992Y-102581593D01*
X128521028Y-102532093D01*
X128519556Y-102475880D01*
X128549027Y-102365892D01*
X128549027Y-102234108D01*
X128514919Y-102106814D01*
X128514917Y-102106811D01*
X128514917Y-102106809D01*
X128449030Y-101992690D01*
X128449028Y-101992688D01*
X128449027Y-101992686D01*
X128355841Y-101899500D01*
X128355838Y-101899498D01*
X128355836Y-101899496D01*
X128241716Y-101833609D01*
X128241718Y-101833609D01*
X128184112Y-101818174D01*
X128114419Y-101799500D01*
X128014005Y-101799500D01*
X127955814Y-101780593D01*
X127944007Y-101770509D01*
X127933038Y-101759540D01*
X127933035Y-101759538D01*
X127921195Y-101752702D01*
X127921195Y-101752701D01*
X127864516Y-101719979D01*
X127864512Y-101719977D01*
X127788091Y-101699500D01*
X127788089Y-101699500D01*
X126415479Y-101699500D01*
X126357288Y-101680593D01*
X126345475Y-101670504D01*
X124345424Y-99670453D01*
X124317647Y-99615936D01*
X124327218Y-99555504D01*
X124370483Y-99512239D01*
X124402514Y-99502295D01*
X124408551Y-99501500D01*
X124408560Y-99501500D01*
X124484987Y-99481021D01*
X124553509Y-99441460D01*
X124609458Y-99385511D01*
X124795473Y-99199494D01*
X124849990Y-99171717D01*
X124865477Y-99170498D01*
X124965890Y-99170498D01*
X124965892Y-99170498D01*
X125093186Y-99136390D01*
X125093188Y-99136388D01*
X125093190Y-99136388D01*
X125207309Y-99070501D01*
X125207309Y-99070500D01*
X125207314Y-99070498D01*
X125300500Y-98977312D01*
X125324077Y-98936475D01*
X125366390Y-98863188D01*
X125366390Y-98863186D01*
X125366392Y-98863184D01*
X125400500Y-98735890D01*
X125400500Y-98604106D01*
X125366392Y-98476812D01*
X125366390Y-98476809D01*
X125366390Y-98476807D01*
X125300503Y-98362688D01*
X125300501Y-98362686D01*
X125300500Y-98362684D01*
X125207314Y-98269498D01*
X125207311Y-98269496D01*
X125207309Y-98269494D01*
X125093189Y-98203607D01*
X125093191Y-98203607D01*
X125034271Y-98187820D01*
X124965892Y-98169498D01*
X124834108Y-98169498D01*
X124765729Y-98187820D01*
X124706809Y-98203607D01*
X124587067Y-98272742D01*
X124586172Y-98271193D01*
X124580961Y-98276405D01*
X124559266Y-98279840D01*
X124538562Y-98287162D01*
X124529680Y-98284526D01*
X124520529Y-98285976D01*
X124500959Y-98276004D01*
X124479905Y-98269758D01*
X124466017Y-98258203D01*
X124429494Y-98221680D01*
X124401719Y-98167166D01*
X124401719Y-98167165D01*
X124400500Y-98151679D01*
X124400500Y-95633840D01*
X124413763Y-95584341D01*
X124466392Y-95493186D01*
X124500500Y-95365892D01*
X124500500Y-95234108D01*
X124466392Y-95106814D01*
X124466390Y-95106811D01*
X124466390Y-95106809D01*
X124400503Y-94992690D01*
X124400501Y-94992688D01*
X124400500Y-94992686D01*
X124307314Y-94899500D01*
X124307311Y-94899498D01*
X124307309Y-94899496D01*
X124193189Y-94833609D01*
X124193191Y-94833609D01*
X124117876Y-94813429D01*
X124065892Y-94799500D01*
X123934108Y-94799500D01*
X123882124Y-94813429D01*
X123806809Y-94833609D01*
X123692685Y-94899500D01*
X123678578Y-94913606D01*
X123624060Y-94941381D01*
X123563628Y-94931806D01*
X123538574Y-94913603D01*
X121324471Y-92699500D01*
X118384511Y-89759540D01*
X118384508Y-89759538D01*
X118360194Y-89745500D01*
X118315990Y-89719979D01*
X118315985Y-89719977D01*
X118239564Y-89699500D01*
X118239562Y-89699500D01*
X104300437Y-89699500D01*
X104300434Y-89699500D01*
X104224013Y-89719977D01*
X104224008Y-89719979D01*
X104179805Y-89745500D01*
X104155490Y-89759538D01*
X100025438Y-93889588D01*
X99970921Y-93917365D01*
X99917549Y-93911048D01*
X99866420Y-93889870D01*
X99663467Y-93849500D01*
X99663465Y-93849500D01*
X99456535Y-93849500D01*
X99456532Y-93849500D01*
X99253581Y-93889869D01*
X99062402Y-93969058D01*
X98890348Y-94084020D01*
X98744020Y-94230348D01*
X98629058Y-94402402D01*
X98549869Y-94593581D01*
X98509500Y-94796532D01*
X98509500Y-95003467D01*
X98549869Y-95206418D01*
X98629058Y-95397597D01*
X98744020Y-95569651D01*
X98744023Y-95569655D01*
X98890345Y-95715977D01*
X99062402Y-95830941D01*
X99253580Y-95910130D01*
X99456535Y-95950500D01*
X99456536Y-95950500D01*
X99663464Y-95950500D01*
X99663465Y-95950500D01*
X99866420Y-95910130D01*
X100057598Y-95830941D01*
X100229655Y-95715977D01*
X100375977Y-95569655D01*
X100490941Y-95397598D01*
X100570130Y-95206420D01*
X100610500Y-95003465D01*
X100610500Y-94796535D01*
X100570130Y-94593580D01*
X100490941Y-94402402D01*
X100490940Y-94402400D01*
X100484659Y-94392999D01*
X100468052Y-94334110D01*
X100489232Y-94276707D01*
X100496973Y-94267996D01*
X100898659Y-93866311D01*
X100953175Y-93838534D01*
X101013607Y-93848105D01*
X101056872Y-93891370D01*
X101066443Y-93951802D01*
X101061901Y-93967904D01*
X101049501Y-94030241D01*
X101049500Y-94030253D01*
X101049500Y-95769746D01*
X101049501Y-95769758D01*
X101061132Y-95828227D01*
X101061134Y-95828233D01*
X101088312Y-95868907D01*
X101105448Y-95894552D01*
X101171769Y-95938867D01*
X101216231Y-95947711D01*
X101230241Y-95950498D01*
X101230246Y-95950498D01*
X101230252Y-95950500D01*
X101230253Y-95950500D01*
X102969747Y-95950500D01*
X102969748Y-95950500D01*
X103028231Y-95938867D01*
X103094552Y-95894552D01*
X103138867Y-95828231D01*
X103150500Y-95769748D01*
X103150500Y-94030252D01*
X103138867Y-93971769D01*
X103094552Y-93905448D01*
X103075453Y-93892686D01*
X103028233Y-93861134D01*
X103028231Y-93861133D01*
X103028228Y-93861132D01*
X103028227Y-93861132D01*
X102969758Y-93849501D01*
X102969748Y-93849500D01*
X102969747Y-93849500D01*
X102379499Y-93849500D01*
X102321308Y-93830593D01*
X102285344Y-93781093D01*
X102280499Y-93750500D01*
X102280499Y-93285480D01*
X102299406Y-93227289D01*
X102309495Y-93215476D01*
X104795475Y-90729496D01*
X104849992Y-90701719D01*
X104865479Y-90700500D01*
X117534521Y-90700500D01*
X117592712Y-90719407D01*
X117604525Y-90729496D01*
X122870504Y-95995475D01*
X122898281Y-96049992D01*
X122899500Y-96065479D01*
X122899500Y-96165892D01*
X122933608Y-96293186D01*
X122986236Y-96384341D01*
X122999500Y-96433840D01*
X122999500Y-98151679D01*
X122980593Y-98209870D01*
X122970509Y-98221676D01*
X122933987Y-98258199D01*
X122899497Y-98292689D01*
X122899496Y-98292690D01*
X122833609Y-98406809D01*
X122833608Y-98406814D01*
X122799500Y-98534108D01*
X122799500Y-98665892D01*
X122828970Y-98775879D01*
X122825768Y-98836978D01*
X122787263Y-98884528D01*
X122733344Y-98900500D01*
X117466656Y-98900500D01*
X117408465Y-98881593D01*
X117372501Y-98832093D01*
X117371029Y-98775880D01*
X117400500Y-98665892D01*
X117400500Y-98534108D01*
X117366392Y-98406814D01*
X117366390Y-98406811D01*
X117366390Y-98406809D01*
X117300503Y-98292690D01*
X117300501Y-98292688D01*
X117300500Y-98292686D01*
X117207314Y-98199500D01*
X117207311Y-98199498D01*
X117207309Y-98199496D01*
X117093189Y-98133609D01*
X117093191Y-98133609D01*
X117028934Y-98116392D01*
X116965892Y-98099500D01*
X116834108Y-98099500D01*
X116771066Y-98116392D01*
X116706810Y-98133609D01*
X116636908Y-98173967D01*
X116577060Y-98186688D01*
X116521164Y-98161801D01*
X116517405Y-98158234D01*
X115578578Y-97219407D01*
X114617711Y-96258540D01*
X114617708Y-96258538D01*
X114597284Y-96246746D01*
X114597284Y-96246745D01*
X114549190Y-96218979D01*
X114549185Y-96218977D01*
X114472764Y-96198500D01*
X114472762Y-96198500D01*
X113664479Y-96198500D01*
X113658689Y-96196618D01*
X113652718Y-96197799D01*
X113633325Y-96188377D01*
X113606288Y-96179593D01*
X113597186Y-96172113D01*
X113595793Y-96170822D01*
X113484511Y-96059540D01*
X113470812Y-96051631D01*
X113415989Y-96019979D01*
X113415988Y-96019978D01*
X113415987Y-96019978D01*
X113339564Y-95999500D01*
X113339562Y-95999500D01*
X109302590Y-95999500D01*
X109289668Y-95998653D01*
X109288506Y-95998500D01*
X109288505Y-95998500D01*
X108765478Y-95998500D01*
X108707287Y-95979593D01*
X108671323Y-95930093D01*
X108671323Y-95868907D01*
X108695474Y-95829496D01*
X108818157Y-95706814D01*
X109295475Y-95229496D01*
X109349992Y-95201719D01*
X109365479Y-95200500D01*
X118534521Y-95200500D01*
X118592712Y-95219407D01*
X118604525Y-95229496D01*
X119170504Y-95795475D01*
X119198281Y-95849992D01*
X119199500Y-95865479D01*
X119199500Y-95965892D01*
X119224593Y-96059540D01*
X119233609Y-96093190D01*
X119299496Y-96207309D01*
X119299498Y-96207311D01*
X119299500Y-96207314D01*
X119392686Y-96300500D01*
X119392688Y-96300501D01*
X119392690Y-96300503D01*
X119506810Y-96366390D01*
X119506808Y-96366390D01*
X119506812Y-96366391D01*
X119506814Y-96366392D01*
X119634108Y-96400500D01*
X119634110Y-96400500D01*
X119765890Y-96400500D01*
X119765892Y-96400500D01*
X119893186Y-96366392D01*
X119893188Y-96366390D01*
X119893190Y-96366390D01*
X120007309Y-96300503D01*
X120007309Y-96300502D01*
X120007314Y-96300500D01*
X120100500Y-96207314D01*
X120116505Y-96179593D01*
X120166390Y-96093190D01*
X120166390Y-96093188D01*
X120166392Y-96093186D01*
X120200500Y-95965892D01*
X120200500Y-95834108D01*
X120166392Y-95706814D01*
X120166390Y-95706811D01*
X120166390Y-95706809D01*
X120100503Y-95592690D01*
X120100501Y-95592688D01*
X120100500Y-95592686D01*
X120007314Y-95499500D01*
X120007311Y-95499498D01*
X120007309Y-95499496D01*
X119893189Y-95433609D01*
X119893191Y-95433609D01*
X119843799Y-95420375D01*
X119765892Y-95399500D01*
X119665479Y-95399500D01*
X119607288Y-95380593D01*
X119595475Y-95370504D01*
X119301748Y-95076777D01*
X118884511Y-94659540D01*
X118884508Y-94659538D01*
X118868853Y-94650499D01*
X118868853Y-94650500D01*
X118815989Y-94619979D01*
X118815988Y-94619978D01*
X118815987Y-94619978D01*
X118739564Y-94599500D01*
X118739562Y-94599500D01*
X116418750Y-94599500D01*
X116360559Y-94580593D01*
X116324595Y-94531093D01*
X116324595Y-94469907D01*
X116333013Y-94451000D01*
X116366391Y-94393187D01*
X116366392Y-94393186D01*
X116400500Y-94265892D01*
X116400500Y-94134108D01*
X116366392Y-94006814D01*
X116366390Y-94006811D01*
X116366390Y-94006809D01*
X116300503Y-93892690D01*
X116300501Y-93892688D01*
X116300500Y-93892686D01*
X116207314Y-93799500D01*
X116207311Y-93799498D01*
X116207309Y-93799496D01*
X116093189Y-93733609D01*
X116093191Y-93733609D01*
X116030248Y-93716744D01*
X115965892Y-93699500D01*
X115834108Y-93699500D01*
X115749245Y-93722238D01*
X115706813Y-93733608D01*
X115702259Y-93736238D01*
X115652761Y-93749500D01*
X114488572Y-93749500D01*
X114430381Y-93730593D01*
X114394417Y-93681093D01*
X114394417Y-93619907D01*
X114402836Y-93601000D01*
X114463290Y-93496290D01*
X114463290Y-93496288D01*
X114463292Y-93496286D01*
X114497400Y-93368992D01*
X114497400Y-93237208D01*
X114463292Y-93109914D01*
X114463290Y-93109911D01*
X114463290Y-93109909D01*
X114397403Y-92995790D01*
X114397401Y-92995788D01*
X114397400Y-92995786D01*
X114304214Y-92902600D01*
X114304211Y-92902598D01*
X114304209Y-92902596D01*
X114190089Y-92836709D01*
X114190091Y-92836709D01*
X114140699Y-92823475D01*
X114062792Y-92802600D01*
X113962378Y-92802600D01*
X113904187Y-92783693D01*
X113892380Y-92773609D01*
X113878311Y-92759540D01*
X113878308Y-92759538D01*
X113809792Y-92719980D01*
X113809788Y-92719978D01*
X113733364Y-92699500D01*
X113733362Y-92699500D01*
X108541089Y-92699500D01*
X108461965Y-92699500D01*
X108415188Y-92712033D01*
X108385534Y-92719979D01*
X108317020Y-92759536D01*
X104639754Y-96436802D01*
X104639753Y-96436801D01*
X104583804Y-96492751D01*
X104544245Y-96561269D01*
X104544243Y-96561273D01*
X104523765Y-96637697D01*
X104523765Y-101275944D01*
X104504858Y-101334135D01*
X104494774Y-101345941D01*
X104447970Y-101392746D01*
X104423762Y-101416954D01*
X104423761Y-101416955D01*
X104357874Y-101531074D01*
X104357873Y-101531079D01*
X104323765Y-101658373D01*
X104323765Y-101790157D01*
X104353062Y-101899496D01*
X104357874Y-101917455D01*
X104423761Y-102031574D01*
X104423763Y-102031576D01*
X104423765Y-102031579D01*
X104516951Y-102124765D01*
X104516953Y-102124766D01*
X104516955Y-102124768D01*
X104631075Y-102190655D01*
X104631073Y-102190655D01*
X104631077Y-102190656D01*
X104631079Y-102190657D01*
X104758373Y-102224765D01*
X104758375Y-102224765D01*
X104890155Y-102224765D01*
X104890157Y-102224765D01*
X105017451Y-102190657D01*
X105017453Y-102190655D01*
X105017455Y-102190655D01*
X105131574Y-102124768D01*
X105131574Y-102124767D01*
X105131579Y-102124765D01*
X105224765Y-102031579D01*
X105247257Y-101992622D01*
X105290655Y-101917455D01*
X105290655Y-101917453D01*
X105290657Y-101917451D01*
X105324765Y-101790157D01*
X105324765Y-101658373D01*
X105290657Y-101531079D01*
X105290655Y-101531076D01*
X105290655Y-101531074D01*
X105224768Y-101416955D01*
X105224766Y-101416953D01*
X105224765Y-101416951D01*
X105153759Y-101345945D01*
X105125984Y-101291431D01*
X105124765Y-101275944D01*
X105124765Y-97383069D01*
X105143672Y-97324878D01*
X105193172Y-97288914D01*
X105254358Y-97288914D01*
X105273257Y-97297328D01*
X105307549Y-97317127D01*
X105434843Y-97351235D01*
X105434845Y-97351235D01*
X105566625Y-97351235D01*
X105566627Y-97351235D01*
X105693921Y-97317127D01*
X105693923Y-97317125D01*
X105693925Y-97317125D01*
X105808044Y-97251238D01*
X105808044Y-97251237D01*
X105808049Y-97251235D01*
X105828789Y-97230494D01*
X105883304Y-97202719D01*
X105898791Y-97201500D01*
X108088506Y-97201500D01*
X108088506Y-97201499D01*
X108164932Y-97181021D01*
X108233454Y-97141460D01*
X108261428Y-97113485D01*
X108289404Y-97085511D01*
X108359129Y-97015785D01*
X108413645Y-96988007D01*
X108474077Y-96997578D01*
X108517342Y-97040842D01*
X108524759Y-97060164D01*
X108533607Y-97093185D01*
X108533609Y-97093189D01*
X108599496Y-97207309D01*
X108599498Y-97207311D01*
X108599500Y-97207314D01*
X108692686Y-97300500D01*
X108692688Y-97300501D01*
X108692690Y-97300503D01*
X108806810Y-97366390D01*
X108806808Y-97366390D01*
X108806812Y-97366391D01*
X108806814Y-97366392D01*
X108934108Y-97400500D01*
X108934110Y-97400500D01*
X109065890Y-97400500D01*
X109065892Y-97400500D01*
X109193186Y-97366392D01*
X109193188Y-97366390D01*
X109193190Y-97366390D01*
X109307309Y-97300503D01*
X109307309Y-97300502D01*
X109307314Y-97300500D01*
X109378319Y-97229494D01*
X109432834Y-97201719D01*
X109448321Y-97200500D01*
X113767891Y-97200500D01*
X113826082Y-97219407D01*
X113862046Y-97268907D01*
X113862046Y-97330093D01*
X113826082Y-97379593D01*
X113817397Y-97385232D01*
X113804320Y-97392782D01*
X113792687Y-97399499D01*
X113699496Y-97492690D01*
X113633609Y-97606809D01*
X113633608Y-97606814D01*
X113599500Y-97734108D01*
X113599500Y-97865892D01*
X113614713Y-97922668D01*
X113633609Y-97993190D01*
X113699496Y-98107309D01*
X113699498Y-98107311D01*
X113699500Y-98107314D01*
X113792686Y-98200500D01*
X113792688Y-98200501D01*
X113792690Y-98200503D01*
X113906810Y-98266390D01*
X113906808Y-98266390D01*
X113906812Y-98266391D01*
X113906814Y-98266392D01*
X114034108Y-98300500D01*
X114034110Y-98300500D01*
X114165890Y-98300500D01*
X114165892Y-98300500D01*
X114293186Y-98266392D01*
X114293188Y-98266390D01*
X114293190Y-98266390D01*
X114407314Y-98200500D01*
X114421416Y-98186398D01*
X114475931Y-98158619D01*
X114536364Y-98168189D01*
X114561425Y-98186396D01*
X116161540Y-99786511D01*
X116161539Y-99786511D01*
X116217489Y-99842460D01*
X116286007Y-99882019D01*
X116286011Y-99882021D01*
X116362435Y-99902499D01*
X116362437Y-99902500D01*
X116362438Y-99902500D01*
X122986521Y-99902500D01*
X123044712Y-99921407D01*
X123056525Y-99931496D01*
X125570504Y-102445475D01*
X125598281Y-102499992D01*
X125599500Y-102515479D01*
X125599500Y-102845937D01*
X125598653Y-102858859D01*
X125598500Y-102860021D01*
X125598500Y-103437034D01*
X125618977Y-103513455D01*
X125618977Y-103513456D01*
X125618979Y-103513459D01*
X125648745Y-103565016D01*
X125658540Y-103581981D01*
X126066546Y-103989987D01*
X126066548Y-103989988D01*
X126066550Y-103989990D01*
X126135065Y-104029547D01*
X126135063Y-104029547D01*
X126135067Y-104029548D01*
X126135069Y-104029549D01*
X126211495Y-104050027D01*
X126211497Y-104050027D01*
X126788506Y-104050027D01*
X126788506Y-104050026D01*
X126864932Y-104029548D01*
X126933454Y-103989987D01*
X126989403Y-103934038D01*
X127193945Y-103729496D01*
X127248462Y-103701719D01*
X127263949Y-103700500D01*
X131234521Y-103700500D01*
X131292712Y-103719407D01*
X131304525Y-103729496D01*
X131470504Y-103895475D01*
X131498281Y-103949992D01*
X131499500Y-103965479D01*
X131499500Y-104065892D01*
X131510517Y-104107007D01*
X131533609Y-104193190D01*
X131599496Y-104307309D01*
X131599498Y-104307311D01*
X131599500Y-104307314D01*
X131692686Y-104400500D01*
X131692688Y-104400501D01*
X131692690Y-104400503D01*
X131806810Y-104466390D01*
X131806808Y-104466390D01*
X131806812Y-104466391D01*
X131806814Y-104466392D01*
X131934108Y-104500500D01*
X131934110Y-104500500D01*
X132065890Y-104500500D01*
X132065892Y-104500500D01*
X132193186Y-104466392D01*
X132193188Y-104466390D01*
X132193190Y-104466390D01*
X132307309Y-104400503D01*
X132307309Y-104400502D01*
X132307314Y-104400500D01*
X132400500Y-104307314D01*
X132433330Y-104250451D01*
X132466390Y-104193190D01*
X132466390Y-104193188D01*
X132466392Y-104193186D01*
X132500500Y-104065892D01*
X132500500Y-103934108D01*
X132466392Y-103806814D01*
X132466390Y-103806811D01*
X132466390Y-103806809D01*
X132400503Y-103692690D01*
X132400501Y-103692688D01*
X132400500Y-103692686D01*
X132307314Y-103599500D01*
X132307311Y-103599498D01*
X132307309Y-103599496D01*
X132193189Y-103533609D01*
X132193191Y-103533609D01*
X132117988Y-103513459D01*
X132065892Y-103499500D01*
X131965479Y-103499500D01*
X131907288Y-103480593D01*
X131895476Y-103470504D01*
X131584513Y-103159542D01*
X131584511Y-103159540D01*
X131553195Y-103141460D01*
X131553194Y-103141459D01*
X131553193Y-103141459D01*
X131515989Y-103119979D01*
X131515986Y-103119978D01*
X131439564Y-103099500D01*
X131439562Y-103099500D01*
X130814479Y-103099500D01*
X130756288Y-103080593D01*
X130720324Y-103031093D01*
X130720324Y-102969907D01*
X130744475Y-102930497D01*
X130928768Y-102746203D01*
X130990460Y-102684511D01*
X130991112Y-102683381D01*
X130991835Y-102682131D01*
X131018744Y-102635521D01*
X131030021Y-102615989D01*
X131050500Y-102539562D01*
X131050500Y-99310438D01*
X131047644Y-99299779D01*
X131047644Y-99299776D01*
X131047643Y-99299777D01*
X131047643Y-99299776D01*
X131030022Y-99234012D01*
X131030019Y-99234006D01*
X130990463Y-99165493D01*
X130990461Y-99165491D01*
X130990460Y-99165489D01*
X130876392Y-99051421D01*
X130848617Y-98996907D01*
X130858188Y-98936475D01*
X130901453Y-98893210D01*
X130920767Y-98885796D01*
X130993186Y-98866392D01*
X131107314Y-98800500D01*
X131200500Y-98707314D01*
X131260087Y-98604107D01*
X131266390Y-98593190D01*
X131266390Y-98593188D01*
X131266392Y-98593186D01*
X131300500Y-98465892D01*
X131300500Y-98334108D01*
X131266392Y-98206814D01*
X131266390Y-98206811D01*
X131266390Y-98206809D01*
X131200503Y-98092690D01*
X131200501Y-98092688D01*
X131200500Y-98092686D01*
X131107314Y-97999500D01*
X131107311Y-97999498D01*
X131107309Y-97999496D01*
X130993189Y-97933609D01*
X130993191Y-97933609D01*
X130943799Y-97920375D01*
X130865892Y-97899500D01*
X130734108Y-97899500D01*
X130702847Y-97907876D01*
X130641746Y-97904671D01*
X130607223Y-97882252D01*
X130455243Y-97730272D01*
X130427466Y-97675755D01*
X130437037Y-97615323D01*
X130480302Y-97572058D01*
X130487368Y-97568801D01*
X130493178Y-97566394D01*
X130493186Y-97566392D01*
X130607314Y-97500500D01*
X130700500Y-97407314D01*
X130704434Y-97400500D01*
X130766390Y-97293190D01*
X130766390Y-97293188D01*
X130766392Y-97293186D01*
X130800500Y-97165892D01*
X130800500Y-97093719D01*
X130819407Y-97035528D01*
X130868907Y-96999564D01*
X130925121Y-96998092D01*
X130934108Y-97000500D01*
X130934110Y-97000500D01*
X131065890Y-97000500D01*
X131065892Y-97000500D01*
X131193186Y-96966392D01*
X131193188Y-96966390D01*
X131193190Y-96966390D01*
X131307309Y-96900503D01*
X131307309Y-96900502D01*
X131307314Y-96900500D01*
X131400500Y-96807314D01*
X131466392Y-96693186D01*
X131500500Y-96565892D01*
X131500500Y-96434108D01*
X131466392Y-96306814D01*
X131466390Y-96306811D01*
X131466390Y-96306809D01*
X131400503Y-96192690D01*
X131400501Y-96192688D01*
X131400500Y-96192686D01*
X131307314Y-96099500D01*
X131307311Y-96099498D01*
X131307309Y-96099496D01*
X131193189Y-96033609D01*
X131193182Y-96033606D01*
X131188103Y-96032245D01*
X131143727Y-96006624D01*
X127836603Y-92699500D01*
X122928087Y-87790984D01*
X122928084Y-87790982D01*
X122928083Y-87790981D01*
X122928082Y-87790980D01*
X122825361Y-87731674D01*
X122825359Y-87731673D01*
X122801146Y-87725185D01*
X122801146Y-87725186D01*
X122710782Y-87700973D01*
X122710780Y-87700973D01*
X122447239Y-87700973D01*
X122397741Y-87687711D01*
X122393186Y-87685081D01*
X122376436Y-87680593D01*
X122265892Y-87650973D01*
X122134108Y-87650973D01*
X122061217Y-87670504D01*
X122006809Y-87685082D01*
X121892690Y-87750969D01*
X121799498Y-87844161D01*
X121743085Y-87941871D01*
X121697615Y-87982811D01*
X121636765Y-87989206D01*
X121587345Y-87962374D01*
X121016778Y-87391807D01*
X120384511Y-86759540D01*
X120376652Y-86755003D01*
X120355186Y-86742609D01*
X120355185Y-86742609D01*
X120315988Y-86719978D01*
X120239564Y-86699500D01*
X120239562Y-86699500D01*
X107965479Y-86699500D01*
X107907288Y-86680593D01*
X107895475Y-86670504D01*
X106992179Y-85767208D01*
X106964402Y-85712691D01*
X106973973Y-85652259D01*
X107017238Y-85608994D01*
X107077670Y-85599423D01*
X107111681Y-85611467D01*
X107206814Y-85666392D01*
X107334108Y-85700500D01*
X107334110Y-85700500D01*
X107465890Y-85700500D01*
X107465892Y-85700500D01*
X107593186Y-85666392D01*
X107593188Y-85666390D01*
X107593190Y-85666390D01*
X107707309Y-85600503D01*
X107707309Y-85600502D01*
X107707314Y-85600500D01*
X107800500Y-85507314D01*
X107866392Y-85393186D01*
X107900500Y-85265892D01*
X107900500Y-85134108D01*
X107866392Y-85006814D01*
X107866390Y-85006811D01*
X107866390Y-85006809D01*
X107800503Y-84892690D01*
X107800501Y-84892688D01*
X107800500Y-84892686D01*
X107707314Y-84799500D01*
X107707311Y-84799498D01*
X107707309Y-84799496D01*
X107593189Y-84733609D01*
X107593182Y-84733606D01*
X107588103Y-84732245D01*
X107543727Y-84706624D01*
X107202993Y-84365890D01*
X106776614Y-83939511D01*
X106776611Y-83939509D01*
X106776610Y-83939508D01*
X106776609Y-83939507D01*
X106673890Y-83880202D01*
X106673886Y-83880200D01*
X106649673Y-83873712D01*
X106649673Y-83873713D01*
X106559309Y-83849500D01*
X106559307Y-83849500D01*
X101647239Y-83849500D01*
X101597741Y-83836238D01*
X101593186Y-83833608D01*
X101465892Y-83799500D01*
X101334108Y-83799500D01*
X101256200Y-83820375D01*
X101206809Y-83833609D01*
X101092690Y-83899496D01*
X100999496Y-83992690D01*
X100933609Y-84106809D01*
X100933608Y-84106814D01*
X100899500Y-84234108D01*
X100899500Y-84365892D01*
X100906830Y-84393247D01*
X100933609Y-84493190D01*
X100999496Y-84607309D01*
X100999498Y-84607311D01*
X100999500Y-84607314D01*
X101092686Y-84700500D01*
X101092688Y-84700501D01*
X101092690Y-84700503D01*
X101206810Y-84766390D01*
X101206808Y-84766390D01*
X101206812Y-84766391D01*
X101206814Y-84766392D01*
X101334108Y-84800500D01*
X101334110Y-84800500D01*
X101465890Y-84800500D01*
X101465892Y-84800500D01*
X101593186Y-84766392D01*
X101597741Y-84763761D01*
X101647239Y-84750500D01*
X106272389Y-84750500D01*
X106330580Y-84769407D01*
X106342393Y-84779496D01*
X106906624Y-85343727D01*
X106923974Y-85367145D01*
X106929312Y-85377154D01*
X106933608Y-85393186D01*
X106989363Y-85489757D01*
X106990149Y-85491230D01*
X106995223Y-85519797D01*
X107001253Y-85548164D01*
X107000544Y-85549756D01*
X107000849Y-85551472D01*
X106988168Y-85577553D01*
X106976367Y-85604060D01*
X106974856Y-85604931D01*
X106974095Y-85606499D01*
X106948506Y-85620145D01*
X106923379Y-85634653D01*
X106921645Y-85634470D01*
X106920107Y-85635291D01*
X106891380Y-85631289D01*
X106862528Y-85628257D01*
X106860728Y-85627020D01*
X106859507Y-85626850D01*
X106857082Y-85624514D01*
X106832791Y-85607820D01*
X106568698Y-85343727D01*
X106284511Y-85059540D01*
X106284508Y-85059538D01*
X106226614Y-85026113D01*
X106226611Y-85026112D01*
X106215989Y-85019979D01*
X106139562Y-84999500D01*
X106139560Y-84999500D01*
X82365479Y-84999500D01*
X82307288Y-84980593D01*
X82295475Y-84970504D01*
X81050835Y-83725864D01*
X79250170Y-81925199D01*
X110336000Y-81925199D01*
X110336000Y-82114800D01*
X110372987Y-82300748D01*
X110372989Y-82300754D01*
X110445543Y-82475914D01*
X110445544Y-82475915D01*
X110550878Y-82633558D01*
X110684942Y-82767622D01*
X110842585Y-82872956D01*
X111017749Y-82945512D01*
X111203702Y-82982500D01*
X111203703Y-82982500D01*
X111393297Y-82982500D01*
X111393298Y-82982500D01*
X111579251Y-82945512D01*
X111754415Y-82872956D01*
X111912058Y-82767622D01*
X112046122Y-82633558D01*
X112151456Y-82475915D01*
X112224012Y-82300751D01*
X112261000Y-82114798D01*
X112261000Y-81925202D01*
X112224012Y-81739249D01*
X112151456Y-81564085D01*
X112046122Y-81406442D01*
X111912058Y-81272378D01*
X111754415Y-81167044D01*
X111754416Y-81167044D01*
X111754414Y-81167043D01*
X111579254Y-81094489D01*
X111579248Y-81094487D01*
X111393300Y-81057500D01*
X111393298Y-81057500D01*
X111203702Y-81057500D01*
X111203699Y-81057500D01*
X111017751Y-81094487D01*
X111017745Y-81094489D01*
X110842585Y-81167043D01*
X110684942Y-81272378D01*
X110684938Y-81272381D01*
X110550881Y-81406438D01*
X110550878Y-81406442D01*
X110445543Y-81564085D01*
X110372989Y-81739245D01*
X110372987Y-81739251D01*
X110336000Y-81925199D01*
X79250170Y-81925199D01*
X77759079Y-80434108D01*
X107699500Y-80434108D01*
X107699500Y-80565892D01*
X107719399Y-80640155D01*
X107733609Y-80693190D01*
X107799496Y-80807309D01*
X107799498Y-80807311D01*
X107799500Y-80807314D01*
X107892686Y-80900500D01*
X107892688Y-80900501D01*
X107892690Y-80900503D01*
X108006810Y-80966390D01*
X108006808Y-80966390D01*
X108006812Y-80966391D01*
X108006814Y-80966392D01*
X108134108Y-81000500D01*
X108134110Y-81000500D01*
X108265890Y-81000500D01*
X108265892Y-81000500D01*
X108393186Y-80966392D01*
X108393188Y-80966390D01*
X108393190Y-80966390D01*
X108507309Y-80900503D01*
X108507309Y-80900502D01*
X108507314Y-80900500D01*
X108578319Y-80829494D01*
X108632834Y-80801719D01*
X108648321Y-80800500D01*
X112153021Y-80800500D01*
X112211212Y-80819407D01*
X112223025Y-80829496D01*
X112930588Y-81537059D01*
X112958365Y-81591576D01*
X112952048Y-81644948D01*
X112912988Y-81739247D01*
X112912988Y-81739249D01*
X112876000Y-81925199D01*
X112876000Y-82114800D01*
X112912987Y-82300748D01*
X112912989Y-82300754D01*
X112985543Y-82475914D01*
X112985544Y-82475915D01*
X113090878Y-82633558D01*
X113224942Y-82767622D01*
X113382585Y-82872956D01*
X113557749Y-82945512D01*
X113743702Y-82982500D01*
X113743703Y-82982500D01*
X113933297Y-82982500D01*
X113933298Y-82982500D01*
X114119251Y-82945512D01*
X114294415Y-82872956D01*
X114452058Y-82767622D01*
X114586122Y-82633558D01*
X114691456Y-82475915D01*
X114764012Y-82300751D01*
X114801000Y-82114798D01*
X114801000Y-81925202D01*
X114764012Y-81739249D01*
X114691456Y-81564085D01*
X114586122Y-81406442D01*
X114452058Y-81272378D01*
X114294415Y-81167044D01*
X114294416Y-81167044D01*
X114294414Y-81167043D01*
X114119254Y-81094489D01*
X114119248Y-81094487D01*
X113933300Y-81057500D01*
X113933298Y-81057500D01*
X113743702Y-81057500D01*
X113743699Y-81057500D01*
X113557749Y-81094488D01*
X113557747Y-81094488D01*
X113463448Y-81133548D01*
X113402451Y-81138348D01*
X113355559Y-81112088D01*
X112936657Y-80693186D01*
X112512972Y-80269501D01*
X112485197Y-80214987D01*
X112494768Y-80154555D01*
X112538033Y-80111290D01*
X112582978Y-80100500D01*
X113993021Y-80100500D01*
X114051212Y-80119407D01*
X114063025Y-80129496D01*
X115470588Y-81537059D01*
X115498365Y-81591576D01*
X115492048Y-81644948D01*
X115452988Y-81739247D01*
X115452988Y-81739249D01*
X115416000Y-81925199D01*
X115416000Y-82114800D01*
X115452987Y-82300748D01*
X115452989Y-82300754D01*
X115525543Y-82475914D01*
X115525544Y-82475915D01*
X115630878Y-82633558D01*
X115764942Y-82767622D01*
X115922585Y-82872956D01*
X116097749Y-82945512D01*
X116283702Y-82982500D01*
X116283703Y-82982500D01*
X116473297Y-82982500D01*
X116473298Y-82982500D01*
X116659251Y-82945512D01*
X116834415Y-82872956D01*
X116992058Y-82767622D01*
X117126122Y-82633558D01*
X117231456Y-82475915D01*
X117304012Y-82300751D01*
X117341000Y-82114798D01*
X117341000Y-81925202D01*
X117304012Y-81739249D01*
X117231456Y-81564085D01*
X117126122Y-81406442D01*
X116992058Y-81272378D01*
X116834415Y-81167044D01*
X116834416Y-81167044D01*
X116834414Y-81167043D01*
X116659254Y-81094489D01*
X116659248Y-81094487D01*
X116473300Y-81057500D01*
X116473298Y-81057500D01*
X116283702Y-81057500D01*
X116283699Y-81057500D01*
X116097749Y-81094488D01*
X116097747Y-81094488D01*
X116003448Y-81133548D01*
X115942451Y-81138348D01*
X115895559Y-81112088D01*
X115129039Y-80345568D01*
X114343011Y-79559540D01*
X114329312Y-79551631D01*
X114274489Y-79519979D01*
X114274488Y-79519978D01*
X114274487Y-79519978D01*
X114198064Y-79499500D01*
X114198062Y-79499500D01*
X109148321Y-79499500D01*
X109090130Y-79480593D01*
X109078323Y-79470509D01*
X109007314Y-79399500D01*
X109007311Y-79399498D01*
X109007309Y-79399496D01*
X108893189Y-79333609D01*
X108893191Y-79333609D01*
X108843799Y-79320375D01*
X108765892Y-79299500D01*
X108634108Y-79299500D01*
X108556200Y-79320375D01*
X108506809Y-79333609D01*
X108392690Y-79399496D01*
X108299496Y-79492690D01*
X108233609Y-79606809D01*
X108199500Y-79734109D01*
X108199500Y-79865891D01*
X108202899Y-79878579D01*
X108199694Y-79939681D01*
X108161187Y-79987229D01*
X108132894Y-79999825D01*
X108006809Y-80033609D01*
X107892690Y-80099496D01*
X107799496Y-80192690D01*
X107733609Y-80306809D01*
X107728495Y-80325895D01*
X107699500Y-80434108D01*
X77759079Y-80434108D01*
X77658776Y-80333805D01*
X77645077Y-80325896D01*
X77590254Y-80294244D01*
X77590253Y-80294243D01*
X77590252Y-80294243D01*
X77513829Y-80273765D01*
X77513827Y-80273765D01*
X76074056Y-80273765D01*
X76015865Y-80254858D01*
X76004058Y-80244774D01*
X75933049Y-80173765D01*
X75933046Y-80173763D01*
X75933044Y-80173761D01*
X75818924Y-80107874D01*
X75818926Y-80107874D01*
X75756117Y-80091045D01*
X75691627Y-80073765D01*
X75559843Y-80073765D01*
X75495353Y-80091045D01*
X75432544Y-80107874D01*
X75318425Y-80173761D01*
X75225231Y-80266955D01*
X75159344Y-80381074D01*
X75156266Y-80392562D01*
X75125235Y-80508373D01*
X74620672Y-80508373D01*
X74605276Y-80485331D01*
X74574851Y-80454906D01*
X74570858Y-80449684D01*
X74562770Y-80426725D01*
X74551719Y-80405034D01*
X74550737Y-80392562D01*
X74550530Y-80391974D01*
X74550657Y-80391546D01*
X74550500Y-80389547D01*
X74550500Y-78834108D01*
X116499500Y-78834108D01*
X116499500Y-78965892D01*
X116509852Y-79004525D01*
X116533609Y-79093190D01*
X116599496Y-79207309D01*
X116599498Y-79207311D01*
X116599500Y-79207314D01*
X116692686Y-79300500D01*
X116692688Y-79300501D01*
X116692690Y-79300503D01*
X116806810Y-79366390D01*
X116806808Y-79366390D01*
X116806812Y-79366391D01*
X116806814Y-79366392D01*
X116934108Y-79400500D01*
X116934110Y-79400500D01*
X117034521Y-79400500D01*
X117092712Y-79419407D01*
X117104525Y-79429496D01*
X118589004Y-80913975D01*
X118592630Y-80921092D01*
X118599093Y-80925788D01*
X118606256Y-80947836D01*
X118616781Y-80968492D01*
X118618000Y-80983979D01*
X118618000Y-81036518D01*
X118599093Y-81094709D01*
X118556887Y-81127982D01*
X118462584Y-81167044D01*
X118304942Y-81272378D01*
X118304938Y-81272381D01*
X118170881Y-81406438D01*
X118170878Y-81406442D01*
X118065543Y-81564085D01*
X117992989Y-81739245D01*
X117992987Y-81739251D01*
X117956000Y-81925199D01*
X117956000Y-82114800D01*
X117992987Y-82300748D01*
X117992989Y-82300754D01*
X118065543Y-82475914D01*
X118065544Y-82475915D01*
X118170878Y-82633558D01*
X118304942Y-82767622D01*
X118462585Y-82872956D01*
X118637749Y-82945512D01*
X118823702Y-82982500D01*
X118823703Y-82982500D01*
X119013297Y-82982500D01*
X119013298Y-82982500D01*
X119199251Y-82945512D01*
X119374415Y-82872956D01*
X119532058Y-82767622D01*
X119666122Y-82633558D01*
X119771456Y-82475915D01*
X119844012Y-82300751D01*
X119881000Y-82114798D01*
X119881000Y-81925202D01*
X119880999Y-81925199D01*
X120496000Y-81925199D01*
X120496000Y-82114800D01*
X120532987Y-82300748D01*
X120532989Y-82300754D01*
X120605543Y-82475914D01*
X120605544Y-82475915D01*
X120710878Y-82633558D01*
X120844942Y-82767622D01*
X121002585Y-82872956D01*
X121177749Y-82945512D01*
X121363702Y-82982500D01*
X121363703Y-82982500D01*
X121553297Y-82982500D01*
X121553298Y-82982500D01*
X121739251Y-82945512D01*
X121914415Y-82872956D01*
X122072058Y-82767622D01*
X122206122Y-82633558D01*
X122311456Y-82475915D01*
X122384012Y-82300751D01*
X122421000Y-82114798D01*
X122421000Y-81925202D01*
X122420999Y-81925199D01*
X123036000Y-81925199D01*
X123036000Y-82114800D01*
X123072987Y-82300748D01*
X123072989Y-82300754D01*
X123145543Y-82475914D01*
X123145544Y-82475915D01*
X123250878Y-82633558D01*
X123384942Y-82767622D01*
X123542585Y-82872956D01*
X123717749Y-82945512D01*
X123903702Y-82982500D01*
X123903703Y-82982500D01*
X124093297Y-82982500D01*
X124093298Y-82982500D01*
X124279251Y-82945512D01*
X124454415Y-82872956D01*
X124612058Y-82767622D01*
X124746122Y-82633558D01*
X124851456Y-82475915D01*
X124924012Y-82300751D01*
X124961000Y-82114798D01*
X124961000Y-81925202D01*
X124960999Y-81925199D01*
X125576000Y-81925199D01*
X125576000Y-82114800D01*
X125612987Y-82300748D01*
X125612989Y-82300754D01*
X125685543Y-82475914D01*
X125685544Y-82475915D01*
X125790878Y-82633558D01*
X125924942Y-82767622D01*
X126082585Y-82872956D01*
X126257749Y-82945512D01*
X126443702Y-82982500D01*
X126443703Y-82982500D01*
X126633297Y-82982500D01*
X126633298Y-82982500D01*
X126819251Y-82945512D01*
X126994415Y-82872956D01*
X127152058Y-82767622D01*
X127286122Y-82633558D01*
X127391456Y-82475915D01*
X127464012Y-82300751D01*
X127501000Y-82114798D01*
X127501000Y-81925202D01*
X127464012Y-81739249D01*
X127391456Y-81564085D01*
X127286122Y-81406442D01*
X127152058Y-81272378D01*
X126994415Y-81167044D01*
X126994416Y-81167044D01*
X126994414Y-81167043D01*
X126819254Y-81094489D01*
X126819248Y-81094487D01*
X126633300Y-81057500D01*
X126633298Y-81057500D01*
X126443702Y-81057500D01*
X126443699Y-81057500D01*
X126257751Y-81094487D01*
X126257745Y-81094489D01*
X126082585Y-81167043D01*
X125924942Y-81272378D01*
X125924938Y-81272381D01*
X125790881Y-81406438D01*
X125790878Y-81406442D01*
X125685543Y-81564085D01*
X125612989Y-81739245D01*
X125612987Y-81739251D01*
X125576000Y-81925199D01*
X124960999Y-81925199D01*
X124924012Y-81739249D01*
X124851456Y-81564085D01*
X124746122Y-81406442D01*
X124612058Y-81272378D01*
X124454415Y-81167044D01*
X124454416Y-81167044D01*
X124454414Y-81167043D01*
X124279254Y-81094489D01*
X124279248Y-81094487D01*
X124093300Y-81057500D01*
X124093298Y-81057500D01*
X123903702Y-81057500D01*
X123903699Y-81057500D01*
X123717751Y-81094487D01*
X123717745Y-81094489D01*
X123542585Y-81167043D01*
X123384942Y-81272378D01*
X123384938Y-81272381D01*
X123250881Y-81406438D01*
X123250878Y-81406442D01*
X123145543Y-81564085D01*
X123072989Y-81739245D01*
X123072987Y-81739251D01*
X123036000Y-81925199D01*
X122420999Y-81925199D01*
X122384012Y-81739249D01*
X122311456Y-81564085D01*
X122206122Y-81406442D01*
X122072058Y-81272378D01*
X121914415Y-81167044D01*
X121914416Y-81167044D01*
X121914414Y-81167043D01*
X121739254Y-81094489D01*
X121739248Y-81094487D01*
X121553300Y-81057500D01*
X121553298Y-81057500D01*
X121363702Y-81057500D01*
X121363699Y-81057500D01*
X121177751Y-81094487D01*
X121177745Y-81094489D01*
X121002585Y-81167043D01*
X120844942Y-81272378D01*
X120844938Y-81272381D01*
X120710881Y-81406438D01*
X120710878Y-81406442D01*
X120605543Y-81564085D01*
X120532989Y-81739245D01*
X120532987Y-81739251D01*
X120496000Y-81925199D01*
X119880999Y-81925199D01*
X119844012Y-81739249D01*
X119771456Y-81564085D01*
X119666122Y-81406442D01*
X119532058Y-81272378D01*
X119374415Y-81167044D01*
X119305138Y-81138348D01*
X119280113Y-81127982D01*
X119233588Y-81088244D01*
X119219000Y-81036518D01*
X119219000Y-80778937D01*
X119218999Y-80778935D01*
X119215922Y-80767448D01*
X119215922Y-80767447D01*
X119198521Y-80702510D01*
X119198520Y-80702508D01*
X119158963Y-80633993D01*
X119158962Y-80633992D01*
X119158961Y-80633991D01*
X119158960Y-80633989D01*
X117529496Y-79004525D01*
X117501719Y-78950008D01*
X117500500Y-78934521D01*
X117500500Y-78834109D01*
X117487771Y-78786603D01*
X117466392Y-78706814D01*
X117466390Y-78706811D01*
X117466390Y-78706809D01*
X117400503Y-78592690D01*
X117400501Y-78592688D01*
X117400500Y-78592686D01*
X117307314Y-78499500D01*
X117307311Y-78499498D01*
X117307309Y-78499496D01*
X117193189Y-78433609D01*
X117193191Y-78433609D01*
X117143799Y-78420375D01*
X117065892Y-78399500D01*
X116934108Y-78399500D01*
X116856200Y-78420375D01*
X116806809Y-78433609D01*
X116692690Y-78499496D01*
X116599496Y-78592690D01*
X116533609Y-78706809D01*
X116533608Y-78706814D01*
X116499500Y-78834108D01*
X74550500Y-78834108D01*
X74550500Y-78827610D01*
X74569407Y-78769419D01*
X74579490Y-78757612D01*
X75200489Y-78136614D01*
X75259799Y-78033887D01*
X75272991Y-77984653D01*
X75290500Y-77919309D01*
X75290500Y-75398125D01*
X75309407Y-75339934D01*
X75358905Y-75303971D01*
X75377606Y-75297895D01*
X75574022Y-75197815D01*
X75752365Y-75068242D01*
X75908242Y-74912365D01*
X76037815Y-74734022D01*
X76137895Y-74537606D01*
X76206015Y-74327951D01*
X76240500Y-74110222D01*
X76240500Y-73889778D01*
X76240500Y-73889774D01*
X83359500Y-73889774D01*
X83359500Y-74110225D01*
X83393984Y-74327948D01*
X83462102Y-74537599D01*
X83462104Y-74537602D01*
X83462105Y-74537606D01*
X83562185Y-74734022D01*
X83691758Y-74912365D01*
X83847635Y-75068242D01*
X84025978Y-75197815D01*
X84222394Y-75297895D01*
X84432049Y-75366015D01*
X84519140Y-75379809D01*
X84649775Y-75400500D01*
X84649778Y-75400500D01*
X84870225Y-75400500D01*
X84979086Y-75383257D01*
X85087951Y-75366015D01*
X85297606Y-75297895D01*
X85494022Y-75197815D01*
X85672365Y-75068242D01*
X85828242Y-74912365D01*
X85957815Y-74734022D01*
X86057895Y-74537606D01*
X86126015Y-74327951D01*
X86160500Y-74110222D01*
X86160500Y-73889778D01*
X86160500Y-73889774D01*
X86126015Y-73672051D01*
X86126015Y-73672049D01*
X86057895Y-73462394D01*
X85957815Y-73265978D01*
X85828242Y-73087635D01*
X85672365Y-72931758D01*
X85494022Y-72802185D01*
X85494021Y-72802184D01*
X85494019Y-72802183D01*
X85404825Y-72756736D01*
X85297606Y-72702105D01*
X85297602Y-72702104D01*
X85297599Y-72702102D01*
X85087948Y-72633984D01*
X84870225Y-72599500D01*
X84870222Y-72599500D01*
X84649778Y-72599500D01*
X84649775Y-72599500D01*
X84432051Y-72633984D01*
X84222400Y-72702102D01*
X84025980Y-72802183D01*
X83938247Y-72865925D01*
X83847635Y-72931758D01*
X83691758Y-73087635D01*
X83626971Y-73176806D01*
X83562183Y-73265980D01*
X83462102Y-73462400D01*
X83393984Y-73672051D01*
X83359500Y-73889774D01*
X76240500Y-73889774D01*
X76206015Y-73672051D01*
X76206015Y-73672049D01*
X76137895Y-73462394D01*
X76037815Y-73265978D01*
X75908242Y-73087635D01*
X75752365Y-72931758D01*
X75574022Y-72802185D01*
X75574021Y-72802184D01*
X75574019Y-72802183D01*
X75484825Y-72756736D01*
X75377606Y-72702105D01*
X75377602Y-72702104D01*
X75377599Y-72702102D01*
X75167948Y-72633984D01*
X74950225Y-72599500D01*
X74950222Y-72599500D01*
X74729778Y-72599500D01*
X74729775Y-72599500D01*
X74512051Y-72633984D01*
X74302400Y-72702102D01*
X74105980Y-72802183D01*
X74018247Y-72865925D01*
X73927635Y-72931758D01*
X73771758Y-73087635D01*
X73706971Y-73176806D01*
X73642183Y-73265980D01*
X73542102Y-73462400D01*
X73473984Y-73672051D01*
X73439500Y-73889774D01*
X53942899Y-73889774D01*
X53670540Y-71525375D01*
X68500000Y-71525375D01*
X68500000Y-72274999D01*
X68500001Y-72275000D01*
X69115856Y-72275000D01*
X69100000Y-72334174D01*
X69100000Y-72465826D01*
X69115856Y-72525000D01*
X68500001Y-72525000D01*
X68500000Y-72525001D01*
X68500000Y-73274624D01*
X68514506Y-73347546D01*
X68514507Y-73347548D01*
X68569758Y-73430237D01*
X68569762Y-73430241D01*
X68652451Y-73485492D01*
X68652453Y-73485493D01*
X68725375Y-73499999D01*
X68725377Y-73500000D01*
X69474999Y-73500000D01*
X69475000Y-73499999D01*
X69475000Y-72884144D01*
X69534174Y-72900000D01*
X69665826Y-72900000D01*
X69725000Y-72884144D01*
X69725000Y-73499999D01*
X69725001Y-73500000D01*
X70474623Y-73500000D01*
X70474624Y-73499999D01*
X70547546Y-73485493D01*
X70547548Y-73485492D01*
X70630237Y-73430241D01*
X70630241Y-73430237D01*
X70685492Y-73347548D01*
X70685493Y-73347546D01*
X70699999Y-73274624D01*
X70700000Y-73274622D01*
X70700000Y-72525001D01*
X70699999Y-72525000D01*
X70084144Y-72525000D01*
X70100000Y-72465826D01*
X70100000Y-72334174D01*
X70084144Y-72275000D01*
X70699999Y-72275000D01*
X70700000Y-72274999D01*
X70700000Y-71525377D01*
X70699999Y-71525375D01*
X70685493Y-71452453D01*
X70685492Y-71452451D01*
X70630241Y-71369762D01*
X70630237Y-71369758D01*
X70547548Y-71314507D01*
X70547546Y-71314506D01*
X70474624Y-71300000D01*
X69725001Y-71300000D01*
X69725000Y-71300001D01*
X69725000Y-71915855D01*
X69665826Y-71900000D01*
X69534174Y-71900000D01*
X69475000Y-71915855D01*
X69475000Y-71300001D01*
X69474999Y-71300000D01*
X68725375Y-71300000D01*
X68652453Y-71314506D01*
X68652451Y-71314507D01*
X68569762Y-71369758D01*
X68569758Y-71369762D01*
X68514507Y-71452451D01*
X68514506Y-71452453D01*
X68500000Y-71525375D01*
X53670540Y-71525375D01*
X53520396Y-70221950D01*
X53519916Y-70216419D01*
X53510896Y-70062400D01*
X53502679Y-69922093D01*
X53502655Y-69910977D01*
X53518379Y-69619366D01*
X53519600Y-69608321D01*
X53536678Y-69506532D01*
X56499500Y-69506532D01*
X56499500Y-70213467D01*
X56539869Y-70416418D01*
X56619058Y-70607597D01*
X56734020Y-70779651D01*
X56734023Y-70779655D01*
X56880345Y-70925977D01*
X57052402Y-71040941D01*
X57243580Y-71120130D01*
X57446535Y-71160500D01*
X57446536Y-71160500D01*
X57653464Y-71160500D01*
X57653465Y-71160500D01*
X57856420Y-71120130D01*
X58047598Y-71040941D01*
X58219655Y-70925977D01*
X58365977Y-70779655D01*
X58480941Y-70607598D01*
X58560130Y-70416420D01*
X58600500Y-70213465D01*
X58600500Y-69523424D01*
X58950000Y-69523424D01*
X58950000Y-69734999D01*
X58950001Y-69735000D01*
X59462328Y-69735000D01*
X59450000Y-69781009D01*
X59450000Y-69938991D01*
X59462328Y-69985000D01*
X58950001Y-69985000D01*
X58950000Y-69985001D01*
X58950000Y-70196575D01*
X58977084Y-70367579D01*
X59030588Y-70532248D01*
X59109195Y-70686524D01*
X59109197Y-70686528D01*
X59210962Y-70826596D01*
X59333403Y-70949037D01*
X59473471Y-71050802D01*
X59473475Y-71050804D01*
X59627751Y-71129411D01*
X59792420Y-71182915D01*
X59925000Y-71203913D01*
X59925000Y-70447671D01*
X59971009Y-70460000D01*
X60128991Y-70460000D01*
X60175000Y-70447671D01*
X60175000Y-71203912D01*
X60307579Y-71182915D01*
X60472248Y-71129411D01*
X60626524Y-71050804D01*
X60626528Y-71050802D01*
X60766596Y-70949037D01*
X60889037Y-70826596D01*
X60990802Y-70686528D01*
X60990804Y-70686524D01*
X61069411Y-70532248D01*
X61122915Y-70367579D01*
X61150000Y-70196575D01*
X61150000Y-69985001D01*
X61149999Y-69985000D01*
X60637672Y-69985000D01*
X60650000Y-69938991D01*
X60650000Y-69781009D01*
X60637672Y-69735000D01*
X61149999Y-69735000D01*
X61150000Y-69734999D01*
X61150000Y-69523429D01*
X61149007Y-69517162D01*
X61149007Y-69517158D01*
X61147324Y-69506532D01*
X61499500Y-69506532D01*
X61499500Y-70213467D01*
X61539869Y-70416418D01*
X61619058Y-70607597D01*
X61734020Y-70779651D01*
X61734023Y-70779655D01*
X61880345Y-70925977D01*
X62052402Y-71040941D01*
X62243580Y-71120130D01*
X62446535Y-71160500D01*
X62446536Y-71160500D01*
X62653464Y-71160500D01*
X62653465Y-71160500D01*
X62856420Y-71120130D01*
X63047598Y-71040941D01*
X63219655Y-70925977D01*
X63365977Y-70779655D01*
X63480941Y-70607598D01*
X63560130Y-70416420D01*
X63600500Y-70213465D01*
X63600500Y-69506535D01*
X63560130Y-69303580D01*
X63480941Y-69112402D01*
X63376254Y-68955725D01*
X63999500Y-68955725D01*
X63999500Y-70764274D01*
X64002353Y-70794694D01*
X64002355Y-70794703D01*
X64047207Y-70922883D01*
X64127845Y-71032144D01*
X64127847Y-71032146D01*
X64127850Y-71032150D01*
X64127853Y-71032152D01*
X64127855Y-71032154D01*
X64237116Y-71112792D01*
X64237117Y-71112792D01*
X64237118Y-71112793D01*
X64365301Y-71157646D01*
X64395725Y-71160499D01*
X64395727Y-71160500D01*
X64395734Y-71160500D01*
X65704273Y-71160500D01*
X65704273Y-71160499D01*
X65734699Y-71157646D01*
X65862882Y-71112793D01*
X65972150Y-71032150D01*
X66052793Y-70922882D01*
X66097646Y-70794699D01*
X66100499Y-70764273D01*
X66100500Y-70764273D01*
X66100500Y-70489774D01*
X73439500Y-70489774D01*
X73439500Y-70710225D01*
X73473984Y-70927948D01*
X73542102Y-71137599D01*
X73542104Y-71137602D01*
X73542105Y-71137606D01*
X73596736Y-71244825D01*
X73632241Y-71314507D01*
X73642185Y-71334022D01*
X73771758Y-71512365D01*
X73927635Y-71668242D01*
X74105978Y-71797815D01*
X74302394Y-71897895D01*
X74512049Y-71966015D01*
X74599140Y-71979809D01*
X74729775Y-72000500D01*
X74729778Y-72000500D01*
X74950225Y-72000500D01*
X75059086Y-71983257D01*
X75167951Y-71966015D01*
X75377606Y-71897895D01*
X75574022Y-71797815D01*
X75752365Y-71668242D01*
X75908242Y-71512365D01*
X76037815Y-71334022D01*
X76137895Y-71137606D01*
X76206015Y-70927951D01*
X76223257Y-70819086D01*
X76240500Y-70710225D01*
X76240500Y-70489774D01*
X83359500Y-70489774D01*
X83359500Y-70710225D01*
X83393984Y-70927948D01*
X83462102Y-71137599D01*
X83462104Y-71137602D01*
X83462105Y-71137606D01*
X83516736Y-71244825D01*
X83552241Y-71314507D01*
X83562185Y-71334022D01*
X83691758Y-71512365D01*
X83847635Y-71668242D01*
X84025978Y-71797815D01*
X84222394Y-71897895D01*
X84432049Y-71966015D01*
X84519140Y-71979809D01*
X84649775Y-72000500D01*
X84649778Y-72000500D01*
X84870225Y-72000500D01*
X84979086Y-71983257D01*
X85087951Y-71966015D01*
X85297606Y-71897895D01*
X85494022Y-71797815D01*
X85672365Y-71668242D01*
X85828242Y-71512365D01*
X85957815Y-71334022D01*
X86057895Y-71137606D01*
X86126015Y-70927951D01*
X86143257Y-70819086D01*
X86160500Y-70710225D01*
X86160500Y-70489774D01*
X86126015Y-70272051D01*
X86126015Y-70272049D01*
X86057895Y-70062394D01*
X85957815Y-69865978D01*
X85828242Y-69687635D01*
X85672365Y-69531758D01*
X85494022Y-69402185D01*
X85494021Y-69402184D01*
X85494019Y-69402183D01*
X85396354Y-69352420D01*
X85297606Y-69302105D01*
X85297602Y-69302104D01*
X85297599Y-69302102D01*
X85087948Y-69233984D01*
X84870225Y-69199500D01*
X84870222Y-69199500D01*
X84649778Y-69199500D01*
X84649775Y-69199500D01*
X84432051Y-69233984D01*
X84222400Y-69302102D01*
X84025980Y-69402183D01*
X84000462Y-69420723D01*
X83847635Y-69531758D01*
X83691758Y-69687635D01*
X83657346Y-69735000D01*
X83562183Y-69865980D01*
X83462102Y-70062400D01*
X83393984Y-70272051D01*
X83359500Y-70489774D01*
X76240500Y-70489774D01*
X76206015Y-70272051D01*
X76206015Y-70272049D01*
X76137895Y-70062394D01*
X76037815Y-69865978D01*
X75908242Y-69687635D01*
X75752365Y-69531758D01*
X75574022Y-69402185D01*
X75574021Y-69402184D01*
X75574019Y-69402183D01*
X75476354Y-69352420D01*
X75377606Y-69302105D01*
X75377602Y-69302104D01*
X75377599Y-69302102D01*
X75167948Y-69233984D01*
X74950225Y-69199500D01*
X74950222Y-69199500D01*
X74729778Y-69199500D01*
X74729775Y-69199500D01*
X74512051Y-69233984D01*
X74302400Y-69302102D01*
X74105980Y-69402183D01*
X74080462Y-69420723D01*
X73927635Y-69531758D01*
X73771758Y-69687635D01*
X73737346Y-69735000D01*
X73642183Y-69865980D01*
X73542102Y-70062400D01*
X73473984Y-70272051D01*
X73439500Y-70489774D01*
X66100500Y-70489774D01*
X66100500Y-68955727D01*
X66100499Y-68955725D01*
X66097646Y-68925305D01*
X66097646Y-68925301D01*
X66052793Y-68797118D01*
X66050507Y-68794020D01*
X66043242Y-68784176D01*
X66003445Y-68730253D01*
X91649500Y-68730253D01*
X91649500Y-70469746D01*
X91649501Y-70469758D01*
X91661132Y-70528227D01*
X91661133Y-70528231D01*
X91705448Y-70594552D01*
X91771769Y-70638867D01*
X91816231Y-70647711D01*
X91830241Y-70650498D01*
X91830246Y-70650498D01*
X91830252Y-70650500D01*
X91830253Y-70650500D01*
X93569747Y-70650500D01*
X93569748Y-70650500D01*
X93628231Y-70638867D01*
X93694552Y-70594552D01*
X93738867Y-70528231D01*
X93750500Y-70469748D01*
X93750500Y-68730252D01*
X93738867Y-68671769D01*
X93694552Y-68605448D01*
X93694548Y-68605445D01*
X93628233Y-68561134D01*
X93628231Y-68561133D01*
X93628228Y-68561132D01*
X93628227Y-68561132D01*
X93569758Y-68549501D01*
X93569748Y-68549500D01*
X91830252Y-68549500D01*
X91830251Y-68549500D01*
X91830241Y-68549501D01*
X91771772Y-68561132D01*
X91771766Y-68561134D01*
X91705451Y-68605445D01*
X91705445Y-68605451D01*
X91661134Y-68671766D01*
X91661132Y-68671772D01*
X91649501Y-68730241D01*
X91649500Y-68730253D01*
X66003445Y-68730253D01*
X65972154Y-68687855D01*
X65972152Y-68687853D01*
X65972150Y-68687850D01*
X65972146Y-68687847D01*
X65972144Y-68687845D01*
X65862883Y-68607207D01*
X65734703Y-68562355D01*
X65734694Y-68562353D01*
X65704274Y-68559500D01*
X65704266Y-68559500D01*
X64395734Y-68559500D01*
X64395725Y-68559500D01*
X64365305Y-68562353D01*
X64365296Y-68562355D01*
X64237116Y-68607207D01*
X64127855Y-68687845D01*
X64127845Y-68687855D01*
X64047207Y-68797116D01*
X64002355Y-68925296D01*
X64002353Y-68925305D01*
X63999500Y-68955725D01*
X63376254Y-68955725D01*
X63365977Y-68940345D01*
X63219655Y-68794023D01*
X63219651Y-68794020D01*
X63047597Y-68679058D01*
X62856418Y-68599869D01*
X62653467Y-68559500D01*
X62653465Y-68559500D01*
X62446535Y-68559500D01*
X62446532Y-68559500D01*
X62243581Y-68599869D01*
X62052402Y-68679058D01*
X61880348Y-68794020D01*
X61734020Y-68940348D01*
X61619058Y-69112402D01*
X61539869Y-69303581D01*
X61499500Y-69506532D01*
X61147324Y-69506532D01*
X61122915Y-69352420D01*
X61069411Y-69187751D01*
X60990804Y-69033475D01*
X60990802Y-69033471D01*
X60889037Y-68893403D01*
X60766596Y-68770962D01*
X60626528Y-68669197D01*
X60626524Y-68669195D01*
X60472248Y-68590588D01*
X60307579Y-68537084D01*
X60288790Y-68534108D01*
X128799500Y-68534108D01*
X128799500Y-68665892D01*
X128818865Y-68738163D01*
X128833609Y-68793190D01*
X128899496Y-68907309D01*
X128899498Y-68907311D01*
X128899500Y-68907314D01*
X128992686Y-69000500D01*
X128992688Y-69000501D01*
X128992690Y-69000503D01*
X129106810Y-69066390D01*
X129106808Y-69066390D01*
X129106812Y-69066391D01*
X129106814Y-69066392D01*
X129234108Y-69100500D01*
X129234110Y-69100500D01*
X129365890Y-69100500D01*
X129365892Y-69100500D01*
X129493186Y-69066392D01*
X129493188Y-69066390D01*
X129493190Y-69066390D01*
X129550207Y-69033471D01*
X129607314Y-69000500D01*
X129607314Y-69000499D01*
X129630280Y-68987240D01*
X129630282Y-68987238D01*
X129676614Y-68960489D01*
X132543728Y-66093373D01*
X132588110Y-66067751D01*
X132593186Y-66066392D01*
X132707314Y-66000500D01*
X132800500Y-65907314D01*
X132800503Y-65907309D01*
X132866390Y-65793190D01*
X132866390Y-65793188D01*
X132866392Y-65793186D01*
X132900500Y-65665892D01*
X132900500Y-65534108D01*
X132866392Y-65406814D01*
X132866390Y-65406810D01*
X132866390Y-65406809D01*
X132800503Y-65292690D01*
X132800501Y-65292688D01*
X132800500Y-65292686D01*
X132707314Y-65199500D01*
X132707311Y-65199498D01*
X132707309Y-65199496D01*
X132593189Y-65133609D01*
X132593191Y-65133609D01*
X132543799Y-65120375D01*
X132465892Y-65099500D01*
X132334108Y-65099500D01*
X132256200Y-65120375D01*
X132206809Y-65133609D01*
X132092690Y-65199496D01*
X131999496Y-65292690D01*
X131933609Y-65406810D01*
X131933606Y-65406815D01*
X131932246Y-65411894D01*
X131906625Y-65456270D01*
X129291599Y-68071297D01*
X129240275Y-68097446D01*
X129240376Y-68097821D01*
X129238615Y-68098292D01*
X129237082Y-68099074D01*
X129234520Y-68099446D01*
X129234109Y-68099500D01*
X129234108Y-68099500D01*
X129177978Y-68114539D01*
X129106809Y-68133609D01*
X128992690Y-68199496D01*
X128899496Y-68292690D01*
X128833609Y-68406809D01*
X128833608Y-68406814D01*
X128799500Y-68534108D01*
X60288790Y-68534108D01*
X60175000Y-68516085D01*
X60175000Y-69272328D01*
X60128991Y-69260000D01*
X59971009Y-69260000D01*
X59925000Y-69272328D01*
X59925000Y-68516086D01*
X59924999Y-68516085D01*
X59792420Y-68537084D01*
X59627751Y-68590588D01*
X59473475Y-68669195D01*
X59473471Y-68669197D01*
X59333403Y-68770962D01*
X59210962Y-68893403D01*
X59109197Y-69033471D01*
X59109195Y-69033475D01*
X59030588Y-69187751D01*
X58977084Y-69352420D01*
X58950000Y-69523424D01*
X58600500Y-69523424D01*
X58600500Y-69506535D01*
X58560130Y-69303580D01*
X58480941Y-69112402D01*
X58365977Y-68940345D01*
X58219655Y-68794023D01*
X58219651Y-68794020D01*
X58047597Y-68679058D01*
X57856418Y-68599869D01*
X57653467Y-68559500D01*
X57653465Y-68559500D01*
X57446535Y-68559500D01*
X57446532Y-68559500D01*
X57243581Y-68599869D01*
X57052402Y-68679058D01*
X56880348Y-68794020D01*
X56734020Y-68940348D01*
X56619058Y-69112402D01*
X56539869Y-69303581D01*
X56499500Y-69506532D01*
X53536678Y-69506532D01*
X53567923Y-69320303D01*
X53570370Y-69309482D01*
X53650690Y-69028676D01*
X53654334Y-69018202D01*
X53765634Y-68748173D01*
X53770428Y-68738176D01*
X53911300Y-68482335D01*
X53917192Y-68472927D01*
X54085858Y-68234503D01*
X54092769Y-68225814D01*
X54287110Y-68007798D01*
X54294942Y-67999948D01*
X54512506Y-67805097D01*
X54521160Y-67798181D01*
X54759213Y-67628943D01*
X54768593Y-67623039D01*
X55024110Y-67481568D01*
X55034095Y-67476750D01*
X55303868Y-67364819D01*
X55314336Y-67361151D01*
X55594938Y-67280181D01*
X55605756Y-67277708D01*
X55893673Y-67228710D01*
X55904706Y-67227464D01*
X56198562Y-67210932D01*
X56204123Y-67210777D01*
X105445861Y-67210777D01*
X105445989Y-67210768D01*
X105572536Y-67210769D01*
X105916586Y-67174612D01*
X106254971Y-67102689D01*
X106583985Y-66995788D01*
X106642615Y-66969685D01*
X106844784Y-66879675D01*
X106900022Y-66855082D01*
X107194270Y-66685199D01*
X110336000Y-66685199D01*
X110336000Y-66874800D01*
X110372987Y-67060748D01*
X110372989Y-67060754D01*
X110445543Y-67235914D01*
X110473468Y-67277706D01*
X110550878Y-67393558D01*
X110684942Y-67527622D01*
X110842585Y-67632956D01*
X111017749Y-67705512D01*
X111203702Y-67742500D01*
X111203703Y-67742500D01*
X111393297Y-67742500D01*
X111393298Y-67742500D01*
X111579251Y-67705512D01*
X111754415Y-67632956D01*
X111912058Y-67527622D01*
X112046122Y-67393558D01*
X112151456Y-67235915D01*
X112224012Y-67060751D01*
X112261000Y-66874798D01*
X112261000Y-66685202D01*
X112260999Y-66685199D01*
X112260029Y-66680324D01*
X112826500Y-66680324D01*
X112826500Y-66879675D01*
X112865389Y-67075188D01*
X112941676Y-67259360D01*
X112941680Y-67259369D01*
X113038080Y-67403640D01*
X113448397Y-66993322D01*
X113482811Y-67052930D01*
X113565570Y-67135689D01*
X113625174Y-67170101D01*
X113214858Y-67580418D01*
X113359139Y-67676823D01*
X113543311Y-67753110D01*
X113738824Y-67791999D01*
X113738828Y-67792000D01*
X113938172Y-67792000D01*
X113938175Y-67791999D01*
X114133688Y-67753110D01*
X114317861Y-67676823D01*
X114462140Y-67580418D01*
X114051824Y-67170102D01*
X114111430Y-67135689D01*
X114194189Y-67052930D01*
X114228602Y-66993324D01*
X114638918Y-67403640D01*
X114735323Y-67259361D01*
X114811610Y-67075188D01*
X114850499Y-66879675D01*
X114850500Y-66879672D01*
X114850500Y-66685199D01*
X115416000Y-66685199D01*
X115416000Y-66874800D01*
X115452987Y-67060748D01*
X115452989Y-67060754D01*
X115525543Y-67235914D01*
X115553468Y-67277706D01*
X115630878Y-67393558D01*
X115764942Y-67527622D01*
X115922585Y-67632956D01*
X116097749Y-67705512D01*
X116283702Y-67742500D01*
X116283703Y-67742500D01*
X116473297Y-67742500D01*
X116473298Y-67742500D01*
X116659251Y-67705512D01*
X116834415Y-67632956D01*
X116992058Y-67527622D01*
X117126122Y-67393558D01*
X117231456Y-67235915D01*
X117304012Y-67060751D01*
X117341000Y-66874798D01*
X117341000Y-66685202D01*
X117340999Y-66685199D01*
X117956000Y-66685199D01*
X117956000Y-66874800D01*
X117992987Y-67060748D01*
X117992989Y-67060754D01*
X118065543Y-67235914D01*
X118093468Y-67277706D01*
X118170878Y-67393558D01*
X118304942Y-67527622D01*
X118462585Y-67632956D01*
X118637749Y-67705512D01*
X118823702Y-67742500D01*
X118823703Y-67742500D01*
X119013297Y-67742500D01*
X119013298Y-67742500D01*
X119199251Y-67705512D01*
X119374415Y-67632956D01*
X119532058Y-67527622D01*
X119666122Y-67393558D01*
X119771456Y-67235915D01*
X119844012Y-67060751D01*
X119881000Y-66874798D01*
X119881000Y-66685202D01*
X119880999Y-66685199D01*
X120496000Y-66685199D01*
X120496000Y-66874800D01*
X120532987Y-67060748D01*
X120532989Y-67060754D01*
X120605543Y-67235914D01*
X120633468Y-67277706D01*
X120710878Y-67393558D01*
X120844942Y-67527622D01*
X121002585Y-67632956D01*
X121177749Y-67705512D01*
X121363702Y-67742500D01*
X121363703Y-67742500D01*
X121553297Y-67742500D01*
X121553298Y-67742500D01*
X121739251Y-67705512D01*
X121914415Y-67632956D01*
X122072058Y-67527622D01*
X122206122Y-67393558D01*
X122311456Y-67235915D01*
X122384012Y-67060751D01*
X122421000Y-66874798D01*
X122421000Y-66685202D01*
X122420999Y-66685199D01*
X123036000Y-66685199D01*
X123036000Y-66874800D01*
X123072987Y-67060748D01*
X123072989Y-67060754D01*
X123145543Y-67235914D01*
X123173468Y-67277706D01*
X123250878Y-67393558D01*
X123384942Y-67527622D01*
X123542585Y-67632956D01*
X123717749Y-67705512D01*
X123903702Y-67742500D01*
X123903703Y-67742500D01*
X124093297Y-67742500D01*
X124093298Y-67742500D01*
X124279251Y-67705512D01*
X124454415Y-67632956D01*
X124612058Y-67527622D01*
X124746122Y-67393558D01*
X124851456Y-67235915D01*
X124924012Y-67060751D01*
X124961000Y-66874798D01*
X124961000Y-66685202D01*
X124960999Y-66685199D01*
X125576000Y-66685199D01*
X125576000Y-66874800D01*
X125612987Y-67060748D01*
X125612989Y-67060754D01*
X125685543Y-67235914D01*
X125713468Y-67277706D01*
X125790878Y-67393558D01*
X125924942Y-67527622D01*
X126082585Y-67632956D01*
X126257749Y-67705512D01*
X126443702Y-67742500D01*
X126443703Y-67742500D01*
X126633297Y-67742500D01*
X126633298Y-67742500D01*
X126819251Y-67705512D01*
X126994415Y-67632956D01*
X127152058Y-67527622D01*
X127286122Y-67393558D01*
X127391456Y-67235915D01*
X127464012Y-67060751D01*
X127501000Y-66874798D01*
X127501000Y-66685202D01*
X127464012Y-66499249D01*
X127391456Y-66324085D01*
X127286122Y-66166442D01*
X127152058Y-66032378D01*
X126994415Y-65927044D01*
X126994416Y-65927044D01*
X126994414Y-65927043D01*
X126819254Y-65854489D01*
X126819248Y-65854487D01*
X126633300Y-65817500D01*
X126633298Y-65817500D01*
X126443702Y-65817500D01*
X126443699Y-65817500D01*
X126257751Y-65854487D01*
X126257745Y-65854489D01*
X126082585Y-65927043D01*
X125924942Y-66032378D01*
X125924938Y-66032381D01*
X125790881Y-66166438D01*
X125790878Y-66166442D01*
X125685543Y-66324085D01*
X125612989Y-66499245D01*
X125612987Y-66499251D01*
X125576000Y-66685199D01*
X124960999Y-66685199D01*
X124924012Y-66499249D01*
X124851456Y-66324085D01*
X124746122Y-66166442D01*
X124612058Y-66032378D01*
X124454415Y-65927044D01*
X124454413Y-65927043D01*
X124360113Y-65887982D01*
X124313588Y-65848244D01*
X124299000Y-65796518D01*
X124299000Y-64266978D01*
X124317907Y-64208787D01*
X124327990Y-64196980D01*
X124640460Y-63884511D01*
X124666524Y-63839364D01*
X124702766Y-63803125D01*
X124707314Y-63800500D01*
X124800500Y-63707314D01*
X124815563Y-63681225D01*
X124866390Y-63593190D01*
X124866390Y-63593188D01*
X124866392Y-63593186D01*
X124900500Y-63465892D01*
X124900500Y-63334108D01*
X124866392Y-63206814D01*
X124866390Y-63206811D01*
X124866390Y-63206809D01*
X124800503Y-63092690D01*
X124800501Y-63092688D01*
X124800500Y-63092686D01*
X124707314Y-62999500D01*
X124707311Y-62999498D01*
X124707309Y-62999496D01*
X124593189Y-62933609D01*
X124593191Y-62933609D01*
X124543799Y-62920375D01*
X124465892Y-62899500D01*
X124334108Y-62899500D01*
X124256200Y-62920375D01*
X124206809Y-62933609D01*
X124092690Y-62999496D01*
X123999496Y-63092690D01*
X123933609Y-63206809D01*
X123933608Y-63206814D01*
X123899500Y-63334108D01*
X123899500Y-63465892D01*
X123933608Y-63593186D01*
X123933609Y-63593188D01*
X123949883Y-63621376D01*
X123962604Y-63681225D01*
X123937716Y-63737120D01*
X123934162Y-63740865D01*
X123813989Y-63861040D01*
X123813988Y-63861039D01*
X123758039Y-63916989D01*
X123718480Y-63985507D01*
X123718478Y-63985511D01*
X123698000Y-64061935D01*
X123698000Y-65796518D01*
X123679093Y-65854709D01*
X123636887Y-65887982D01*
X123542584Y-65927044D01*
X123384942Y-66032378D01*
X123384938Y-66032381D01*
X123250881Y-66166438D01*
X123250878Y-66166442D01*
X123145543Y-66324085D01*
X123072989Y-66499245D01*
X123072987Y-66499251D01*
X123036000Y-66685199D01*
X122420999Y-66685199D01*
X122384012Y-66499249D01*
X122311456Y-66324085D01*
X122206122Y-66166442D01*
X122072058Y-66032378D01*
X121914415Y-65927044D01*
X121914416Y-65927044D01*
X121914414Y-65927043D01*
X121739254Y-65854489D01*
X121739248Y-65854487D01*
X121553300Y-65817500D01*
X121553298Y-65817500D01*
X121363702Y-65817500D01*
X121363699Y-65817500D01*
X121177751Y-65854487D01*
X121177745Y-65854489D01*
X121002585Y-65927043D01*
X120844942Y-66032378D01*
X120844938Y-66032381D01*
X120710881Y-66166438D01*
X120710878Y-66166442D01*
X120605543Y-66324085D01*
X120532989Y-66499245D01*
X120532987Y-66499251D01*
X120496000Y-66685199D01*
X119880999Y-66685199D01*
X119844012Y-66499249D01*
X119771456Y-66324085D01*
X119666122Y-66166442D01*
X119532058Y-66032378D01*
X119374415Y-65927044D01*
X119374416Y-65927044D01*
X119374414Y-65927043D01*
X119199254Y-65854489D01*
X119199248Y-65854487D01*
X119013300Y-65817500D01*
X119013298Y-65817500D01*
X118823702Y-65817500D01*
X118823699Y-65817500D01*
X118637751Y-65854487D01*
X118637745Y-65854489D01*
X118462585Y-65927043D01*
X118304942Y-66032378D01*
X118304938Y-66032381D01*
X118170881Y-66166438D01*
X118170878Y-66166442D01*
X118065543Y-66324085D01*
X117992989Y-66499245D01*
X117992987Y-66499251D01*
X117956000Y-66685199D01*
X117340999Y-66685199D01*
X117304012Y-66499249D01*
X117231456Y-66324085D01*
X117126122Y-66166442D01*
X116992058Y-66032378D01*
X116834415Y-65927044D01*
X116834416Y-65927044D01*
X116834414Y-65927043D01*
X116659254Y-65854489D01*
X116659248Y-65854487D01*
X116473300Y-65817500D01*
X116473298Y-65817500D01*
X116283702Y-65817500D01*
X116283699Y-65817500D01*
X116097751Y-65854487D01*
X116097745Y-65854489D01*
X115922585Y-65927043D01*
X115764942Y-66032378D01*
X115764938Y-66032381D01*
X115630881Y-66166438D01*
X115630878Y-66166442D01*
X115525543Y-66324085D01*
X115452989Y-66499245D01*
X115452987Y-66499251D01*
X115416000Y-66685199D01*
X114850500Y-66685199D01*
X114850500Y-66680327D01*
X114850499Y-66680324D01*
X114811610Y-66484811D01*
X114735323Y-66300639D01*
X114638918Y-66156358D01*
X114228601Y-66566674D01*
X114194189Y-66507070D01*
X114111430Y-66424311D01*
X114051822Y-66389897D01*
X114462140Y-65979580D01*
X114317869Y-65883180D01*
X114317860Y-65883176D01*
X114133688Y-65806889D01*
X113938175Y-65768000D01*
X113738824Y-65768000D01*
X113543311Y-65806889D01*
X113359138Y-65883176D01*
X113214858Y-65979580D01*
X113625175Y-66389897D01*
X113565570Y-66424311D01*
X113482811Y-66507070D01*
X113448397Y-66566675D01*
X113038080Y-66156358D01*
X112941676Y-66300638D01*
X112865389Y-66484811D01*
X112826500Y-66680324D01*
X112260029Y-66680324D01*
X112232534Y-66542092D01*
X112224012Y-66499249D01*
X112151456Y-66324085D01*
X112046122Y-66166442D01*
X111912058Y-66032378D01*
X111754415Y-65927044D01*
X111754416Y-65927044D01*
X111754414Y-65927043D01*
X111579254Y-65854489D01*
X111579248Y-65854487D01*
X111393300Y-65817500D01*
X111393298Y-65817500D01*
X111203702Y-65817500D01*
X111203699Y-65817500D01*
X111017751Y-65854487D01*
X111017745Y-65854489D01*
X110842585Y-65927043D01*
X110684942Y-66032378D01*
X110684938Y-66032381D01*
X110550881Y-66166438D01*
X110550878Y-66166442D01*
X110445543Y-66324085D01*
X110372989Y-66499245D01*
X110372987Y-66499251D01*
X110336000Y-66685199D01*
X107194270Y-66685199D01*
X107199619Y-66682111D01*
X107479495Y-66478771D01*
X107736582Y-66247289D01*
X107904775Y-66060492D01*
X107968059Y-65990210D01*
X107968060Y-65990208D01*
X107968065Y-65990203D01*
X108171406Y-65710328D01*
X108344377Y-65410730D01*
X108485085Y-65094694D01*
X108591986Y-64765681D01*
X108663910Y-64427296D01*
X108700069Y-64083246D01*
X108700068Y-63910274D01*
X108700068Y-63862679D01*
X108700068Y-58160136D01*
X108700069Y-58160133D01*
X108700068Y-58112538D01*
X108700068Y-58072982D01*
X108700068Y-58066528D01*
X108700057Y-58066368D01*
X108700054Y-58036390D01*
X108700051Y-57998270D01*
X108684243Y-57770280D01*
X108652709Y-57543929D01*
X108605598Y-57320300D01*
X108587065Y-57255054D01*
X108585187Y-57248442D01*
X108585187Y-57248426D01*
X108574376Y-57210380D01*
X108573038Y-57205672D01*
X108559266Y-57157198D01*
X108559254Y-57157167D01*
X108111916Y-55582945D01*
X108509100Y-55582945D01*
X108509100Y-55917052D01*
X108541848Y-56249554D01*
X108607031Y-56577252D01*
X108704014Y-56896966D01*
X108831873Y-57205644D01*
X108831886Y-57205671D01*
X108989373Y-57500311D01*
X109067406Y-57617094D01*
X109174999Y-57778117D01*
X109386957Y-58036389D01*
X109623210Y-58272642D01*
X109881482Y-58484600D01*
X110020383Y-58577411D01*
X110159287Y-58670225D01*
X110453927Y-58827712D01*
X110453946Y-58827722D01*
X110762624Y-58955581D01*
X110762626Y-58955581D01*
X110762632Y-58955584D01*
X111038976Y-59039411D01*
X111082349Y-59052568D01*
X111410041Y-59117750D01*
X111742544Y-59150499D01*
X111742547Y-59150499D01*
X112076653Y-59150499D01*
X112076656Y-59150499D01*
X112409159Y-59117750D01*
X112736851Y-59052568D01*
X112926457Y-58995051D01*
X113056567Y-58955584D01*
X113056569Y-58955582D01*
X113056576Y-58955581D01*
X113365254Y-58827722D01*
X113509240Y-58750759D01*
X113659912Y-58670225D01*
X113659915Y-58670223D01*
X113937718Y-58484600D01*
X114195990Y-58272642D01*
X114432243Y-58036389D01*
X114644201Y-57778117D01*
X114829824Y-57500314D01*
X114897813Y-57373116D01*
X114945424Y-57284041D01*
X114987323Y-57205653D01*
X115115182Y-56896975D01*
X115115183Y-56896968D01*
X115115185Y-56896966D01*
X115212168Y-56577252D01*
X115212169Y-56577250D01*
X115277351Y-56249558D01*
X115310100Y-55917055D01*
X115310100Y-55582943D01*
X115277351Y-55250440D01*
X115212169Y-54922748D01*
X115115185Y-54603032D01*
X115115185Y-54603031D01*
X115059301Y-54468114D01*
X114987323Y-54294345D01*
X114987313Y-54294326D01*
X114829826Y-53999686D01*
X114692256Y-53793800D01*
X114644201Y-53721881D01*
X114432243Y-53463609D01*
X114195990Y-53227356D01*
X113937718Y-53015398D01*
X113810832Y-52930615D01*
X113659912Y-52829772D01*
X113365272Y-52672285D01*
X113365260Y-52672279D01*
X113365254Y-52672276D01*
X113365249Y-52672273D01*
X113365245Y-52672272D01*
X113056567Y-52544413D01*
X112736853Y-52447430D01*
X112516377Y-52403575D01*
X112409159Y-52382248D01*
X112409157Y-52382247D01*
X112166091Y-52358307D01*
X112076656Y-52349499D01*
X111742544Y-52349499D01*
X111644300Y-52359175D01*
X111410044Y-52382247D01*
X111082346Y-52447430D01*
X110762632Y-52544413D01*
X110453954Y-52672272D01*
X110453927Y-52672285D01*
X110159287Y-52829772D01*
X109881480Y-53015399D01*
X109623215Y-53227351D01*
X109386952Y-53463614D01*
X109175000Y-53721879D01*
X108989373Y-53999686D01*
X108831886Y-54294326D01*
X108831873Y-54294353D01*
X108704014Y-54603031D01*
X108607031Y-54922745D01*
X108541848Y-55250443D01*
X108509100Y-55582945D01*
X108111916Y-55582945D01*
X106363540Y-49430253D01*
X117449500Y-49430253D01*
X117449500Y-51169746D01*
X117449501Y-51169758D01*
X117461132Y-51228227D01*
X117461133Y-51228231D01*
X117505448Y-51294552D01*
X117571769Y-51338867D01*
X117616231Y-51347711D01*
X117630241Y-51350498D01*
X117630246Y-51350498D01*
X117630252Y-51350500D01*
X117630253Y-51350500D01*
X119369747Y-51350500D01*
X119369748Y-51350500D01*
X119428231Y-51338867D01*
X119494552Y-51294552D01*
X119538867Y-51228231D01*
X119550500Y-51169748D01*
X119550500Y-49430252D01*
X119538867Y-49371769D01*
X119494552Y-49305448D01*
X119494548Y-49305445D01*
X119428233Y-49261134D01*
X119428231Y-49261133D01*
X119428228Y-49261132D01*
X119428227Y-49261132D01*
X119369758Y-49249501D01*
X119369748Y-49249500D01*
X117630252Y-49249500D01*
X117630251Y-49249500D01*
X117630241Y-49249501D01*
X117571772Y-49261132D01*
X117571766Y-49261134D01*
X117505451Y-49305445D01*
X117505445Y-49305451D01*
X117461134Y-49371766D01*
X117461132Y-49371772D01*
X117449501Y-49430241D01*
X117449500Y-49430253D01*
X106363540Y-49430253D01*
X105533814Y-46510375D01*
X107760000Y-46510375D01*
X107760000Y-47259999D01*
X107760001Y-47260000D01*
X108375856Y-47260000D01*
X108360000Y-47319174D01*
X108360000Y-47450826D01*
X108375856Y-47510000D01*
X107760001Y-47510000D01*
X107760000Y-47510001D01*
X107760000Y-48259624D01*
X107774506Y-48332546D01*
X107774507Y-48332548D01*
X107829758Y-48415237D01*
X107829762Y-48415241D01*
X107912451Y-48470492D01*
X107912453Y-48470493D01*
X107985375Y-48484999D01*
X107985377Y-48485000D01*
X108734999Y-48485000D01*
X108735000Y-48484999D01*
X108735000Y-47869144D01*
X108794174Y-47885000D01*
X108925826Y-47885000D01*
X108985000Y-47869144D01*
X108985000Y-48484999D01*
X108985001Y-48485000D01*
X109734623Y-48485000D01*
X109734624Y-48484999D01*
X109807546Y-48470493D01*
X109807548Y-48470492D01*
X109890237Y-48415241D01*
X109890241Y-48415237D01*
X109945492Y-48332548D01*
X109945493Y-48332546D01*
X109959999Y-48259624D01*
X109960000Y-48259622D01*
X109960000Y-47510001D01*
X109959999Y-47510000D01*
X109344144Y-47510000D01*
X109360000Y-47450826D01*
X109360000Y-47319174D01*
X109349914Y-47281532D01*
X110349500Y-47281532D01*
X110349500Y-47488467D01*
X110389869Y-47691418D01*
X110469058Y-47882597D01*
X110469059Y-47882598D01*
X110584023Y-48054655D01*
X110730345Y-48200977D01*
X110902402Y-48315941D01*
X111093580Y-48395130D01*
X111296535Y-48435500D01*
X111296536Y-48435500D01*
X111503464Y-48435500D01*
X111503465Y-48435500D01*
X111706420Y-48395130D01*
X111897598Y-48315941D01*
X112069655Y-48200977D01*
X112215977Y-48054655D01*
X112330941Y-47882598D01*
X112410130Y-47691420D01*
X112450500Y-47488465D01*
X112450500Y-47281535D01*
X112450499Y-47281532D01*
X112889499Y-47281532D01*
X112889499Y-47488467D01*
X112929868Y-47691418D01*
X113009057Y-47882597D01*
X113009058Y-47882598D01*
X113124022Y-48054655D01*
X113270344Y-48200977D01*
X113442401Y-48315941D01*
X113633579Y-48395130D01*
X113836534Y-48435500D01*
X113836535Y-48435500D01*
X114043463Y-48435500D01*
X114043464Y-48435500D01*
X114246419Y-48395130D01*
X114437597Y-48315941D01*
X114609654Y-48200977D01*
X114755976Y-48054655D01*
X114870940Y-47882598D01*
X114950129Y-47691420D01*
X114990499Y-47488465D01*
X114990499Y-47281535D01*
X114950129Y-47078580D01*
X114870940Y-46887402D01*
X114755976Y-46715345D01*
X114609654Y-46569023D01*
X114609650Y-46569020D01*
X114437596Y-46454058D01*
X114246417Y-46374869D01*
X114043466Y-46334500D01*
X114043464Y-46334500D01*
X113836534Y-46334500D01*
X113836531Y-46334500D01*
X113633580Y-46374869D01*
X113442401Y-46454058D01*
X113270347Y-46569020D01*
X113124019Y-46715348D01*
X113009057Y-46887402D01*
X112929868Y-47078581D01*
X112889499Y-47281532D01*
X112450499Y-47281532D01*
X112410130Y-47078580D01*
X112330941Y-46887402D01*
X112215977Y-46715345D01*
X112069655Y-46569023D01*
X112069651Y-46569020D01*
X111897597Y-46454058D01*
X111706418Y-46374869D01*
X111503467Y-46334500D01*
X111503465Y-46334500D01*
X111296535Y-46334500D01*
X111296532Y-46334500D01*
X111093581Y-46374869D01*
X110902402Y-46454058D01*
X110730348Y-46569020D01*
X110584020Y-46715348D01*
X110469058Y-46887402D01*
X110389869Y-47078581D01*
X110349500Y-47281532D01*
X109349914Y-47281532D01*
X109344144Y-47260000D01*
X109959999Y-47260000D01*
X109960000Y-47259999D01*
X109960000Y-46510377D01*
X109959999Y-46510375D01*
X109945493Y-46437453D01*
X109945492Y-46437451D01*
X109890241Y-46354762D01*
X109890237Y-46354758D01*
X109807548Y-46299507D01*
X109807546Y-46299506D01*
X109734624Y-46285000D01*
X108985001Y-46285000D01*
X108985000Y-46285001D01*
X108985000Y-46900855D01*
X108925826Y-46885000D01*
X108794174Y-46885000D01*
X108735000Y-46900855D01*
X108735000Y-46285001D01*
X108734999Y-46285000D01*
X107985375Y-46285000D01*
X107912453Y-46299506D01*
X107912451Y-46299507D01*
X107829762Y-46354758D01*
X107829758Y-46354762D01*
X107774507Y-46437451D01*
X107774506Y-46437453D01*
X107760000Y-46510375D01*
X105533814Y-46510375D01*
X103735508Y-40181979D01*
X103734139Y-40176590D01*
X103669607Y-39888949D01*
X103667786Y-39877982D01*
X103636210Y-39587676D01*
X103635631Y-39576574D01*
X103636008Y-39482738D01*
X103636803Y-39284560D01*
X103637471Y-39273486D01*
X103671378Y-38983433D01*
X103673281Y-38972510D01*
X103739499Y-38688072D01*
X103742617Y-38677428D01*
X103840307Y-38402215D01*
X103844607Y-38391970D01*
X103972523Y-38129474D01*
X103977937Y-38119786D01*
X104134497Y-37873258D01*
X104140960Y-37864244D01*
X104324162Y-37636838D01*
X104331610Y-37628589D01*
X104445689Y-37515671D01*
X104539158Y-37423153D01*
X104547472Y-37415801D01*
X104776739Y-37234938D01*
X104785834Y-37228559D01*
X104930655Y-37138654D01*
X105033933Y-37074540D01*
X105043671Y-37069227D01*
X105307488Y-36943991D01*
X105317775Y-36939798D01*
X105593961Y-36844935D01*
X105604650Y-36841923D01*
X105889726Y-36778625D01*
X105900675Y-36776831D01*
X106194036Y-36745577D01*
X106199564Y-36745145D01*
X106244127Y-36742917D01*
X106244128Y-36742916D01*
X114704722Y-36319758D01*
X114704730Y-36319759D01*
X114717488Y-36319120D01*
X114717489Y-36319121D01*
X114760897Y-36316949D01*
X114762252Y-36316881D01*
X114762255Y-36316882D01*
X114767752Y-36316760D01*
X115061646Y-36318526D01*
G37*
%TD.AperFunction*%
%TD*%
M02*
